<?xml version="1.0" encoding="UTF-8" standalone="no"?>
<!-- Created with matplotlib (http://matplotlib.org/) -->

<svg
   xmlns:dc="http://purl.org/dc/elements/1.1/"
   xmlns:cc="http://creativecommons.org/ns#"
   xmlns:rdf="http://www.w3.org/1999/02/22-rdf-syntax-ns#"
   xmlns:svg="http://www.w3.org/2000/svg"
   xmlns="http://www.w3.org/2000/svg"
   xmlns:sodipodi="http://sodipodi.sourceforge.net/DTD/sodipodi-0.dtd"
   xmlns:inkscape="http://www.inkscape.org/namespaces/inkscape"
   height="396pt"
   version="1.1"
   viewBox="0 0 576 396"
   width="576pt"
   id="svg209"
   sodipodi:docname="breakdown.svg"
   inkscape:version="0.92.1 r15371">
  <metadata
     id="metadata213">
    <rdf:RDF>
      <cc:Work
         rdf:about="">
        <dc:format>image/svg+xml</dc:format>
        <dc:type
           rdf:resource="http://purl.org/dc/dcmitype/StillImage" />
        <dc:title></dc:title>
      </cc:Work>
    </rdf:RDF>
  </metadata>
  <sodipodi:namedview
     pagecolor="#ffffff"
     bordercolor="#666666"
     borderopacity="1"
     objecttolerance="10"
     gridtolerance="10"
     guidetolerance="10"
     inkscape:pageopacity="0"
     inkscape:pageshadow="2"
     inkscape:window-width="1636"
     inkscape:window-height="949"
     id="namedview211"
     showgrid="false"
     inkscape:zoom="0.81713186"
     inkscape:cx="248.20412"
     inkscape:cy="314.90832"
     inkscape:window-x="0"
     inkscape:window-y="0"
     inkscape:window-maximized="0"
     inkscape:current-layer="figure_1" />
  <defs
     id="defs4">
    <style
       type="text/css"
       id="style2">
*{stroke-linecap:butt;stroke-linejoin:round;}
  </style>
  </defs>
  <g
     id="figure_1">
    <g
       id="patch_1">
      <path
         d="M 0 396  L 576 396  L 576 0  L 0 0  z "
         style="fill:#ffffff;"
         id="path6" />
    </g>
    <g
       id="axes_1">
      <g
         id="matplotlib.axis_1" />
      <g
         id="matplotlib.axis_2" />
      <g
         id="patch_2">
        <path
           d="M 295.766426 61.380008  C 282.422764 61.380008 269.149179 63.312723 256.359573 67.117887  C 243.569966 70.923051 231.398672 76.560696 220.22522 83.855028  L 295.766426 199.568989  L 295.766426 61.380008  z "
           style="fill:url(#h0cf6b637ed);"
           id="path11" />
      </g>
      <g
         id="patch_3">
        <path
           d="M 220.22522 83.855028  C 199.349021 97.483576 182.544933 116.510931 171.601635 138.911762  C 160.658337 161.312593 155.978392 186.262858 158.059949 211.106773  L 295.766426 199.568989  L 220.22522 83.855028  z "
           style="fill:url(#hed1b4245f8);"
           id="path14" />
      </g>
      <g
         id="patch_4">
        <path
           d="M 158.059949 211.106773  C 160.840263 244.290558 175.523691 275.376461 199.387963 298.601237  C 223.252235 321.826014 254.725417 335.659855 287.972467 337.538002  L 295.766426 199.568989  L 158.059949 211.106773  z "
           style="fill:url(#hc4afdd1f5a);"
           id="path17" />
      </g>
      <g
         id="patch_5">
        <path
           d="M 287.972467 337.538002  C 306.417962 338.58 324.886499 335.912444 342.283235 329.693471  C 359.679972 323.474498 375.654209 313.829475 389.25897 301.330174  C 402.863731 288.830872 413.824759 273.729264 421.492269 256.920595  C 429.159779 240.111927 433.379202 221.935041 433.900405 203.467491  C 434.421608 184.999941 431.234083 166.614011 424.526792 149.399648  C 417.8195 132.185285 407.727655 116.48951 394.849514 103.242792  C 381.971373 89.996074 366.566545 79.465451 349.548252 72.275196  C 332.52996 65.084941 314.241271 61.38 295.766368 61.380008  L 295.766426 199.568989  L 287.972467 337.538002  z "
           style="fill:url(#h4219f2c6f7);"
           id="path20" />
      </g>
      <text
         xml:space="preserve"
         style="font-style:normal;font-variant:normal;font-weight:normal;font-stretch:normal;font-size:14px;line-height:1.25;font-family:'Times New Roman';-inkscape-font-specification:'Times New Roman, Normal';font-variant-ligatures:normal;font-variant-caps:normal;font-variant-numeric:normal;font-feature-settings:normal;text-align:center;letter-spacing:0px;word-spacing:0px;writing-mode:lr-tb;text-anchor:middle;fill:#000000;fill-opacity:1;stroke:none;stroke-width:0.75;stroke-linecap:butt;stroke-linejoin:round"
         x="458.85294"
         y="196.10367"
         id="text4692"><tspan
           sodipodi:role="line"
           id="tspan4690"
           style="font-style:normal;font-variant:normal;font-weight:normal;font-stretch:normal;font-size:14px;font-family:'Times New Roman';-inkscape-font-specification:'Times New Roman, Normal';font-variant-ligatures:normal;font-variant-caps:normal;font-variant-numeric:normal;font-feature-settings:normal;text-align:center;writing-mode:lr-tb;text-anchor:middle;stroke-width:0.75;stroke-linecap:butt;stroke-linejoin:round"
           x="458.85294"
           y="196.10367">CRAH</tspan><tspan
           sodipodi:role="line"
           style="font-style:normal;font-variant:normal;font-weight:normal;font-stretch:normal;font-size:14px;font-family:'Times New Roman';-inkscape-font-specification:'Times New Roman, Normal';font-variant-ligatures:normal;font-variant-caps:normal;font-variant-numeric:normal;font-feature-settings:normal;text-align:center;writing-mode:lr-tb;text-anchor:middle;stroke-width:0.75;stroke-linecap:butt;stroke-linejoin:round"
           x="458.85294"
           y="213.60367"
           id="tspan4694">50.9%</tspan></text>
      <text
         xml:space="preserve"
         style="font-style:normal;font-variant:normal;font-weight:normal;font-stretch:normal;font-size:14px;line-height:1.25;font-family:'Times New Roman';-inkscape-font-specification:'Times New Roman, Normal';font-variant-ligatures:normal;font-variant-caps:normal;font-variant-numeric:normal;font-feature-settings:normal;text-align:center;letter-spacing:0px;word-spacing:0px;writing-mode:lr-tb;text-anchor:middle;fill:#000000;fill-opacity:1;stroke:none;stroke-width:0.75;stroke-linecap:butt;stroke-linejoin:round"
         x="253.33406"
         y="41.656223"
         id="text4692-3"><tspan
           sodipodi:role="line"
           id="tspan4690-1"
           style="font-style:normal;font-variant:normal;font-weight:normal;font-stretch:normal;font-size:14px;font-family:'Times New Roman';-inkscape-font-specification:'Times New Roman, Normal';font-variant-ligatures:normal;font-variant-caps:normal;font-variant-numeric:normal;font-feature-settings:normal;text-align:center;writing-mode:lr-tb;text-anchor:middle;stroke-width:0.75;stroke-linecap:butt;stroke-linejoin:round"
           x="253.33406"
           y="41.656223">Cooling Tower</tspan><tspan
           sodipodi:role="line"
           style="font-style:normal;font-variant:normal;font-weight:normal;font-stretch:normal;font-size:14px;font-family:'Times New Roman';-inkscape-font-specification:'Times New Roman, Normal';font-variant-ligatures:normal;font-variant-caps:normal;font-variant-numeric:normal;font-feature-settings:normal;text-align:center;writing-mode:lr-tb;text-anchor:middle;stroke-width:0.75;stroke-linecap:butt;stroke-linejoin:round"
           x="253.33406"
           y="59.156223"
           id="tspan4694-9">9.2%</tspan></text>
      <text
         xml:space="preserve"
         style="font-style:normal;font-variant:normal;font-weight:normal;font-stretch:normal;font-size:14px;line-height:1.25;font-family:'Times New Roman';-inkscape-font-specification:'Times New Roman, Normal';font-variant-ligatures:normal;font-variant-caps:normal;font-variant-numeric:normal;font-feature-settings:normal;text-align:center;letter-spacing:0px;word-spacing:0px;writing-mode:lr-tb;text-anchor:middle;fill:#000000;fill-opacity:1;stroke:none;stroke-width:0.75;stroke-linecap:butt;stroke-linejoin:round"
         x="134.05539"
         y="134.26035"
         id="text4692-3-0"><tspan
           sodipodi:role="line"
           id="tspan4690-1-7"
           style="font-style:normal;font-variant:normal;font-weight:normal;font-stretch:normal;font-size:14px;font-family:'Times New Roman';-inkscape-font-specification:'Times New Roman, Normal';font-variant-ligatures:normal;font-variant-caps:normal;font-variant-numeric:normal;font-feature-settings:normal;text-align:center;writing-mode:lr-tb;text-anchor:middle;stroke-width:0.75;stroke-linecap:butt;stroke-linejoin:round"
           x="134.05539"
           y="134.26035">Pump</tspan><tspan
           sodipodi:role="line"
           style="font-style:normal;font-variant:normal;font-weight:normal;font-stretch:normal;font-size:14px;font-family:'Times New Roman';-inkscape-font-specification:'Times New Roman, Normal';font-variant-ligatures:normal;font-variant-caps:normal;font-variant-numeric:normal;font-feature-settings:normal;text-align:center;writing-mode:lr-tb;text-anchor:middle;stroke-width:0.75;stroke-linecap:butt;stroke-linejoin:round"
           x="134.05539"
           y="151.76035"
           id="tspan4694-9-4">17.1%</tspan></text>
      <text
         xml:space="preserve"
         style="font-style:normal;font-variant:normal;font-weight:normal;font-stretch:normal;font-size:14px;line-height:1.25;font-family:'Times New Roman';-inkscape-font-specification:'Times New Roman, Normal';font-variant-ligatures:normal;font-variant-caps:normal;font-variant-numeric:normal;font-feature-settings:normal;text-align:center;letter-spacing:0px;word-spacing:0px;writing-mode:lr-tb;text-anchor:middle;fill:#000000;fill-opacity:1;stroke:none;stroke-width:0.75;stroke-linecap:butt;stroke-linejoin:round"
         x="171.41792"
         y="316.40771"
         id="text4692-3-0-4"><tspan
           sodipodi:role="line"
           id="tspan4690-1-7-0"
           style="font-style:normal;font-variant:normal;font-weight:normal;font-stretch:normal;font-size:14px;font-family:'Times New Roman';-inkscape-font-specification:'Times New Roman, Normal';font-variant-ligatures:normal;font-variant-caps:normal;font-variant-numeric:normal;font-feature-settings:normal;text-align:center;writing-mode:lr-tb;text-anchor:middle;stroke-width:0.75;stroke-linecap:butt;stroke-linejoin:round"
           x="171.41792"
           y="316.40771">Chiller</tspan><tspan
           sodipodi:role="line"
           style="font-style:normal;font-variant:normal;font-weight:normal;font-stretch:normal;font-size:14px;font-family:'Times New Roman';-inkscape-font-specification:'Times New Roman, Normal';font-variant-ligatures:normal;font-variant-caps:normal;font-variant-numeric:normal;font-feature-settings:normal;text-align:center;writing-mode:lr-tb;text-anchor:middle;stroke-width:0.75;stroke-linecap:butt;stroke-linejoin:round"
           x="171.41792"
           y="333.90771"
           id="tspan4694-9-4-5">22.8%</tspan></text>
    </g>
  </g>
  <defs
     id="defs207">
    <pattern
       height="72"
       id="h0cf6b637ed"
       patternUnits="userSpaceOnUse"
       width="72"
       x="0"
       y="0">
      <rect
         fill="#d3d3d3"
         height="73"
         width="73"
         x="0"
         y="0"
         id="rect187" />
      <path
         d="M -36 36  L 36 -36  M -24 48  L 48 -24  M -12 60  L 60 -12  M 0 72  L 72 0  M 12 84  L 84 12  M 24 96  L 96 24  M 36 108  L 108 36  "
         style="fill:#000000;stroke:#000000;stroke-linecap:butt;stroke-linejoin:miter;stroke-width:1.0;"
         id="path189" />
    </pattern>
    <pattern
       height="72"
       id="hed1b4245f8"
       patternUnits="userSpaceOnUse"
       width="72"
       x="0"
       y="0">
      <rect
         fill="#d3d3d3"
         height="73"
         width="73"
         x="0"
         y="0"
         id="rect192" />
      <path
         d="M 0 66  L 72 66  M 0 54  L 72 54  M 0 42  L 72 42  M 0 30  L 72 30  M 0 18  L 72 18  M 0 6  L 72 6  "
         style="fill:#000000;stroke:#000000;stroke-linecap:butt;stroke-linejoin:miter;stroke-width:1.0;"
         id="path194" />
    </pattern>
    <pattern
       height="72"
       id="hc4afdd1f5a"
       patternUnits="userSpaceOnUse"
       width="72"
       x="0"
       y="0">
      <rect
         fill="#d3d3d3"
         height="73"
         width="73"
         x="0"
         y="0"
         id="rect197" />
      <path
         d="M -36 36  L 36 108  M -24 24  L 48 96  M -12 12  L 60 84  M 0 0  L 72 72  M 12 -12  L 84 60  M 24 -24  L 96 48  M 36 -36  L 108 36  "
         style="fill:#000000;stroke:#000000;stroke-linecap:butt;stroke-linejoin:miter;stroke-width:1.0;"
         id="path199" />
    </pattern>
    <pattern
       height="72"
       id="h4219f2c6f7"
       patternUnits="userSpaceOnUse"
       width="72"
       x="0"
       y="0">
      <rect
         fill="#d3d3d3"
         height="73"
         width="73"
         x="0"
         y="0"
         id="rect202" />
      <path
         d="M 0 73.2  C 0.318244 73.2 0.623496 73.07356 0.848528 72.848528  C 1.07356 72.623496 1.2 72.318244 1.2 72  C 1.2 71.681756 1.07356 71.376504 0.848528 71.151472  C 0.623496 70.92644 0.318244 70.8 0 70.8  C -0.318244 70.8 -0.623496 70.92644 -0.848528 71.151472  C -1.07356 71.376504 -1.2 71.681756 -1.2 72  C -1.2 72.318244 -1.07356 72.623496 -0.848528 72.848528  C -0.623496 73.07356 -0.318244 73.2 0 73.2  z M 12 73.2  C 12.318244 73.2 12.623496 73.07356 12.848528 72.848528  C 13.07356 72.623496 13.2 72.318244 13.2 72  C 13.2 71.681756 13.07356 71.376504 12.848528 71.151472  C 12.623496 70.92644 12.318244 70.8 12 70.8  C 11.681756 70.8 11.376504 70.92644 11.151472 71.151472  C 10.92644 71.376504 10.8 71.681756 10.8 72  C 10.8 72.318244 10.92644 72.623496 11.151472 72.848528  C 11.376504 73.07356 11.681756 73.2 12 73.2  z M 24 73.2  C 24.318244 73.2 24.623496 73.07356 24.848528 72.848528  C 25.07356 72.623496 25.2 72.318244 25.2 72  C 25.2 71.681756 25.07356 71.376504 24.848528 71.151472  C 24.623496 70.92644 24.318244 70.8 24 70.8  C 23.681756 70.8 23.376504 70.92644 23.151472 71.151472  C 22.92644 71.376504 22.8 71.681756 22.8 72  C 22.8 72.318244 22.92644 72.623496 23.151472 72.848528  C 23.376504 73.07356 23.681756 73.2 24 73.2  z M 36 73.2  C 36.318244 73.2 36.623496 73.07356 36.848528 72.848528  C 37.07356 72.623496 37.2 72.318244 37.2 72  C 37.2 71.681756 37.07356 71.376504 36.848528 71.151472  C 36.623496 70.92644 36.318244 70.8 36 70.8  C 35.681756 70.8 35.376504 70.92644 35.151472 71.151472  C 34.92644 71.376504 34.8 71.681756 34.8 72  C 34.8 72.318244 34.92644 72.623496 35.151472 72.848528  C 35.376504 73.07356 35.681756 73.2 36 73.2  z M 48 73.2  C 48.318244 73.2 48.623496 73.07356 48.848528 72.848528  C 49.07356 72.623496 49.2 72.318244 49.2 72  C 49.2 71.681756 49.07356 71.376504 48.848528 71.151472  C 48.623496 70.92644 48.318244 70.8 48 70.8  C 47.681756 70.8 47.376504 70.92644 47.151472 71.151472  C 46.92644 71.376504 46.8 71.681756 46.8 72  C 46.8 72.318244 46.92644 72.623496 47.151472 72.848528  C 47.376504 73.07356 47.681756 73.2 48 73.2  z M 60 73.2  C 60.318244 73.2 60.623496 73.07356 60.848528 72.848528  C 61.07356 72.623496 61.2 72.318244 61.2 72  C 61.2 71.681756 61.07356 71.376504 60.848528 71.151472  C 60.623496 70.92644 60.318244 70.8 60 70.8  C 59.681756 70.8 59.376504 70.92644 59.151472 71.151472  C 58.92644 71.376504 58.8 71.681756 58.8 72  C 58.8 72.318244 58.92644 72.623496 59.151472 72.848528  C 59.376504 73.07356 59.681756 73.2 60 73.2  z M 72 73.2  C 72.318244 73.2 72.623496 73.07356 72.848528 72.848528  C 73.07356 72.623496 73.2 72.318244 73.2 72  C 73.2 71.681756 73.07356 71.376504 72.848528 71.151472  C 72.623496 70.92644 72.318244 70.8 72 70.8  C 71.681756 70.8 71.376504 70.92644 71.151472 71.151472  C 70.92644 71.376504 70.8 71.681756 70.8 72  C 70.8 72.318244 70.92644 72.623496 71.151472 72.848528  C 71.376504 73.07356 71.681756 73.2 72 73.2  z M 6 61.2  C 6.318244 61.2 6.623496 61.07356 6.848528 60.848528  C 7.07356 60.623496 7.2 60.318244 7.2 60  C 7.2 59.681756 7.07356 59.376504 6.848528 59.151472  C 6.623496 58.92644 6.318244 58.8 6 58.8  C 5.681756 58.8 5.376504 58.92644 5.151472 59.151472  C 4.92644 59.376504 4.8 59.681756 4.8 60  C 4.8 60.318244 4.92644 60.623496 5.151472 60.848528  C 5.376504 61.07356 5.681756 61.2 6 61.2  z M 18 61.2  C 18.318244 61.2 18.623496 61.07356 18.848528 60.848528  C 19.07356 60.623496 19.2 60.318244 19.2 60  C 19.2 59.681756 19.07356 59.376504 18.848528 59.151472  C 18.623496 58.92644 18.318244 58.8 18 58.8  C 17.681756 58.8 17.376504 58.92644 17.151472 59.151472  C 16.92644 59.376504 16.8 59.681756 16.8 60  C 16.8 60.318244 16.92644 60.623496 17.151472 60.848528  C 17.376504 61.07356 17.681756 61.2 18 61.2  z M 30 61.2  C 30.318244 61.2 30.623496 61.07356 30.848528 60.848528  C 31.07356 60.623496 31.2 60.318244 31.2 60  C 31.2 59.681756 31.07356 59.376504 30.848528 59.151472  C 30.623496 58.92644 30.318244 58.8 30 58.8  C 29.681756 58.8 29.376504 58.92644 29.151472 59.151472  C 28.92644 59.376504 28.8 59.681756 28.8 60  C 28.8 60.318244 28.92644 60.623496 29.151472 60.848528  C 29.376504 61.07356 29.681756 61.2 30 61.2  z M 42 61.2  C 42.318244 61.2 42.623496 61.07356 42.848528 60.848528  C 43.07356 60.623496 43.2 60.318244 43.2 60  C 43.2 59.681756 43.07356 59.376504 42.848528 59.151472  C 42.623496 58.92644 42.318244 58.8 42 58.8  C 41.681756 58.8 41.376504 58.92644 41.151472 59.151472  C 40.92644 59.376504 40.8 59.681756 40.8 60  C 40.8 60.318244 40.92644 60.623496 41.151472 60.848528  C 41.376504 61.07356 41.681756 61.2 42 61.2  z M 54 61.2  C 54.318244 61.2 54.623496 61.07356 54.848528 60.848528  C 55.07356 60.623496 55.2 60.318244 55.2 60  C 55.2 59.681756 55.07356 59.376504 54.848528 59.151472  C 54.623496 58.92644 54.318244 58.8 54 58.8  C 53.681756 58.8 53.376504 58.92644 53.151472 59.151472  C 52.92644 59.376504 52.8 59.681756 52.8 60  C 52.8 60.318244 52.92644 60.623496 53.151472 60.848528  C 53.376504 61.07356 53.681756 61.2 54 61.2  z M 66 61.2  C 66.318244 61.2 66.623496 61.07356 66.848528 60.848528  C 67.07356 60.623496 67.2 60.318244 67.2 60  C 67.2 59.681756 67.07356 59.376504 66.848528 59.151472  C 66.623496 58.92644 66.318244 58.8 66 58.8  C 65.681756 58.8 65.376504 58.92644 65.151472 59.151472  C 64.92644 59.376504 64.8 59.681756 64.8 60  C 64.8 60.318244 64.92644 60.623496 65.151472 60.848528  C 65.376504 61.07356 65.681756 61.2 66 61.2  z M 0 49.2  C 0.318244 49.2 0.623496 49.07356 0.848528 48.848528  C 1.07356 48.623496 1.2 48.318244 1.2 48  C 1.2 47.681756 1.07356 47.376504 0.848528 47.151472  C 0.623496 46.92644 0.318244 46.8 0 46.8  C -0.318244 46.8 -0.623496 46.92644 -0.848528 47.151472  C -1.07356 47.376504 -1.2 47.681756 -1.2 48  C -1.2 48.318244 -1.07356 48.623496 -0.848528 48.848528  C -0.623496 49.07356 -0.318244 49.2 0 49.2  z M 12 49.2  C 12.318244 49.2 12.623496 49.07356 12.848528 48.848528  C 13.07356 48.623496 13.2 48.318244 13.2 48  C 13.2 47.681756 13.07356 47.376504 12.848528 47.151472  C 12.623496 46.92644 12.318244 46.8 12 46.8  C 11.681756 46.8 11.376504 46.92644 11.151472 47.151472  C 10.92644 47.376504 10.8 47.681756 10.8 48  C 10.8 48.318244 10.92644 48.623496 11.151472 48.848528  C 11.376504 49.07356 11.681756 49.2 12 49.2  z M 24 49.2  C 24.318244 49.2 24.623496 49.07356 24.848528 48.848528  C 25.07356 48.623496 25.2 48.318244 25.2 48  C 25.2 47.681756 25.07356 47.376504 24.848528 47.151472  C 24.623496 46.92644 24.318244 46.8 24 46.8  C 23.681756 46.8 23.376504 46.92644 23.151472 47.151472  C 22.92644 47.376504 22.8 47.681756 22.8 48  C 22.8 48.318244 22.92644 48.623496 23.151472 48.848528  C 23.376504 49.07356 23.681756 49.2 24 49.2  z M 36 49.2  C 36.318244 49.2 36.623496 49.07356 36.848528 48.848528  C 37.07356 48.623496 37.2 48.318244 37.2 48  C 37.2 47.681756 37.07356 47.376504 36.848528 47.151472  C 36.623496 46.92644 36.318244 46.8 36 46.8  C 35.681756 46.8 35.376504 46.92644 35.151472 47.151472  C 34.92644 47.376504 34.8 47.681756 34.8 48  C 34.8 48.318244 34.92644 48.623496 35.151472 48.848528  C 35.376504 49.07356 35.681756 49.2 36 49.2  z M 48 49.2  C 48.318244 49.2 48.623496 49.07356 48.848528 48.848528  C 49.07356 48.623496 49.2 48.318244 49.2 48  C 49.2 47.681756 49.07356 47.376504 48.848528 47.151472  C 48.623496 46.92644 48.318244 46.8 48 46.8  C 47.681756 46.8 47.376504 46.92644 47.151472 47.151472  C 46.92644 47.376504 46.8 47.681756 46.8 48  C 46.8 48.318244 46.92644 48.623496 47.151472 48.848528  C 47.376504 49.07356 47.681756 49.2 48 49.2  z M 60 49.2  C 60.318244 49.2 60.623496 49.07356 60.848528 48.848528  C 61.07356 48.623496 61.2 48.318244 61.2 48  C 61.2 47.681756 61.07356 47.376504 60.848528 47.151472  C 60.623496 46.92644 60.318244 46.8 60 46.8  C 59.681756 46.8 59.376504 46.92644 59.151472 47.151472  C 58.92644 47.376504 58.8 47.681756 58.8 48  C 58.8 48.318244 58.92644 48.623496 59.151472 48.848528  C 59.376504 49.07356 59.681756 49.2 60 49.2  z M 72 49.2  C 72.318244 49.2 72.623496 49.07356 72.848528 48.848528  C 73.07356 48.623496 73.2 48.318244 73.2 48  C 73.2 47.681756 73.07356 47.376504 72.848528 47.151472  C 72.623496 46.92644 72.318244 46.8 72 46.8  C 71.681756 46.8 71.376504 46.92644 71.151472 47.151472  C 70.92644 47.376504 70.8 47.681756 70.8 48  C 70.8 48.318244 70.92644 48.623496 71.151472 48.848528  C 71.376504 49.07356 71.681756 49.2 72 49.2  z M 6 37.2  C 6.318244 37.2 6.623496 37.07356 6.848528 36.848528  C 7.07356 36.623496 7.2 36.318244 7.2 36  C 7.2 35.681756 7.07356 35.376504 6.848528 35.151472  C 6.623496 34.92644 6.318244 34.8 6 34.8  C 5.681756 34.8 5.376504 34.92644 5.151472 35.151472  C 4.92644 35.376504 4.8 35.681756 4.8 36  C 4.8 36.318244 4.92644 36.623496 5.151472 36.848528  C 5.376504 37.07356 5.681756 37.2 6 37.2  z M 18 37.2  C 18.318244 37.2 18.623496 37.07356 18.848528 36.848528  C 19.07356 36.623496 19.2 36.318244 19.2 36  C 19.2 35.681756 19.07356 35.376504 18.848528 35.151472  C 18.623496 34.92644 18.318244 34.8 18 34.8  C 17.681756 34.8 17.376504 34.92644 17.151472 35.151472  C 16.92644 35.376504 16.8 35.681756 16.8 36  C 16.8 36.318244 16.92644 36.623496 17.151472 36.848528  C 17.376504 37.07356 17.681756 37.2 18 37.2  z M 30 37.2  C 30.318244 37.2 30.623496 37.07356 30.848528 36.848528  C 31.07356 36.623496 31.2 36.318244 31.2 36  C 31.2 35.681756 31.07356 35.376504 30.848528 35.151472  C 30.623496 34.92644 30.318244 34.8 30 34.8  C 29.681756 34.8 29.376504 34.92644 29.151472 35.151472  C 28.92644 35.376504 28.8 35.681756 28.8 36  C 28.8 36.318244 28.92644 36.623496 29.151472 36.848528  C 29.376504 37.07356 29.681756 37.2 30 37.2  z M 42 37.2  C 42.318244 37.2 42.623496 37.07356 42.848528 36.848528  C 43.07356 36.623496 43.2 36.318244 43.2 36  C 43.2 35.681756 43.07356 35.376504 42.848528 35.151472  C 42.623496 34.92644 42.318244 34.8 42 34.8  C 41.681756 34.8 41.376504 34.92644 41.151472 35.151472  C 40.92644 35.376504 40.8 35.681756 40.8 36  C 40.8 36.318244 40.92644 36.623496 41.151472 36.848528  C 41.376504 37.07356 41.681756 37.2 42 37.2  z M 54 37.2  C 54.318244 37.2 54.623496 37.07356 54.848528 36.848528  C 55.07356 36.623496 55.2 36.318244 55.2 36  C 55.2 35.681756 55.07356 35.376504 54.848528 35.151472  C 54.623496 34.92644 54.318244 34.8 54 34.8  C 53.681756 34.8 53.376504 34.92644 53.151472 35.151472  C 52.92644 35.376504 52.8 35.681756 52.8 36  C 52.8 36.318244 52.92644 36.623496 53.151472 36.848528  C 53.376504 37.07356 53.681756 37.2 54 37.2  z M 66 37.2  C 66.318244 37.2 66.623496 37.07356 66.848528 36.848528  C 67.07356 36.623496 67.2 36.318244 67.2 36  C 67.2 35.681756 67.07356 35.376504 66.848528 35.151472  C 66.623496 34.92644 66.318244 34.8 66 34.8  C 65.681756 34.8 65.376504 34.92644 65.151472 35.151472  C 64.92644 35.376504 64.8 35.681756 64.8 36  C 64.8 36.318244 64.92644 36.623496 65.151472 36.848528  C 65.376504 37.07356 65.681756 37.2 66 37.2  z M 0 25.2  C 0.318244 25.2 0.623496 25.07356 0.848528 24.848528  C 1.07356 24.623496 1.2 24.318244 1.2 24  C 1.2 23.681756 1.07356 23.376504 0.848528 23.151472  C 0.623496 22.92644 0.318244 22.8 0 22.8  C -0.318244 22.8 -0.623496 22.92644 -0.848528 23.151472  C -1.07356 23.376504 -1.2 23.681756 -1.2 24  C -1.2 24.318244 -1.07356 24.623496 -0.848528 24.848528  C -0.623496 25.07356 -0.318244 25.2 0 25.2  z M 12 25.2  C 12.318244 25.2 12.623496 25.07356 12.848528 24.848528  C 13.07356 24.623496 13.2 24.318244 13.2 24  C 13.2 23.681756 13.07356 23.376504 12.848528 23.151472  C 12.623496 22.92644 12.318244 22.8 12 22.8  C 11.681756 22.8 11.376504 22.92644 11.151472 23.151472  C 10.92644 23.376504 10.8 23.681756 10.8 24  C 10.8 24.318244 10.92644 24.623496 11.151472 24.848528  C 11.376504 25.07356 11.681756 25.2 12 25.2  z M 24 25.2  C 24.318244 25.2 24.623496 25.07356 24.848528 24.848528  C 25.07356 24.623496 25.2 24.318244 25.2 24  C 25.2 23.681756 25.07356 23.376504 24.848528 23.151472  C 24.623496 22.92644 24.318244 22.8 24 22.8  C 23.681756 22.8 23.376504 22.92644 23.151472 23.151472  C 22.92644 23.376504 22.8 23.681756 22.8 24  C 22.8 24.318244 22.92644 24.623496 23.151472 24.848528  C 23.376504 25.07356 23.681756 25.2 24 25.2  z M 36 25.2  C 36.318244 25.2 36.623496 25.07356 36.848528 24.848528  C 37.07356 24.623496 37.2 24.318244 37.2 24  C 37.2 23.681756 37.07356 23.376504 36.848528 23.151472  C 36.623496 22.92644 36.318244 22.8 36 22.8  C 35.681756 22.8 35.376504 22.92644 35.151472 23.151472  C 34.92644 23.376504 34.8 23.681756 34.8 24  C 34.8 24.318244 34.92644 24.623496 35.151472 24.848528  C 35.376504 25.07356 35.681756 25.2 36 25.2  z M 48 25.2  C 48.318244 25.2 48.623496 25.07356 48.848528 24.848528  C 49.07356 24.623496 49.2 24.318244 49.2 24  C 49.2 23.681756 49.07356 23.376504 48.848528 23.151472  C 48.623496 22.92644 48.318244 22.8 48 22.8  C 47.681756 22.8 47.376504 22.92644 47.151472 23.151472  C 46.92644 23.376504 46.8 23.681756 46.8 24  C 46.8 24.318244 46.92644 24.623496 47.151472 24.848528  C 47.376504 25.07356 47.681756 25.2 48 25.2  z M 60 25.2  C 60.318244 25.2 60.623496 25.07356 60.848528 24.848528  C 61.07356 24.623496 61.2 24.318244 61.2 24  C 61.2 23.681756 61.07356 23.376504 60.848528 23.151472  C 60.623496 22.92644 60.318244 22.8 60 22.8  C 59.681756 22.8 59.376504 22.92644 59.151472 23.151472  C 58.92644 23.376504 58.8 23.681756 58.8 24  C 58.8 24.318244 58.92644 24.623496 59.151472 24.848528  C 59.376504 25.07356 59.681756 25.2 60 25.2  z M 72 25.2  C 72.318244 25.2 72.623496 25.07356 72.848528 24.848528  C 73.07356 24.623496 73.2 24.318244 73.2 24  C 73.2 23.681756 73.07356 23.376504 72.848528 23.151472  C 72.623496 22.92644 72.318244 22.8 72 22.8  C 71.681756 22.8 71.376504 22.92644 71.151472 23.151472  C 70.92644 23.376504 70.8 23.681756 70.8 24  C 70.8 24.318244 70.92644 24.623496 71.151472 24.848528  C 71.376504 25.07356 71.681756 25.2 72 25.2  z M 6 13.2  C 6.318244 13.2 6.623496 13.07356 6.848528 12.848528  C 7.07356 12.623496 7.2 12.318244 7.2 12  C 7.2 11.681756 7.07356 11.376504 6.848528 11.151472  C 6.623496 10.92644 6.318244 10.8 6 10.8  C 5.681756 10.8 5.376504 10.92644 5.151472 11.151472  C 4.92644 11.376504 4.8 11.681756 4.8 12  C 4.8 12.318244 4.92644 12.623496 5.151472 12.848528  C 5.376504 13.07356 5.681756 13.2 6 13.2  z M 18 13.2  C 18.318244 13.2 18.623496 13.07356 18.848528 12.848528  C 19.07356 12.623496 19.2 12.318244 19.2 12  C 19.2 11.681756 19.07356 11.376504 18.848528 11.151472  C 18.623496 10.92644 18.318244 10.8 18 10.8  C 17.681756 10.8 17.376504 10.92644 17.151472 11.151472  C 16.92644 11.376504 16.8 11.681756 16.8 12  C 16.8 12.318244 16.92644 12.623496 17.151472 12.848528  C 17.376504 13.07356 17.681756 13.2 18 13.2  z M 30 13.2  C 30.318244 13.2 30.623496 13.07356 30.848528 12.848528  C 31.07356 12.623496 31.2 12.318244 31.2 12  C 31.2 11.681756 31.07356 11.376504 30.848528 11.151472  C 30.623496 10.92644 30.318244 10.8 30 10.8  C 29.681756 10.8 29.376504 10.92644 29.151472 11.151472  C 28.92644 11.376504 28.8 11.681756 28.8 12  C 28.8 12.318244 28.92644 12.623496 29.151472 12.848528  C 29.376504 13.07356 29.681756 13.2 30 13.2  z M 42 13.2  C 42.318244 13.2 42.623496 13.07356 42.848528 12.848528  C 43.07356 12.623496 43.2 12.318244 43.2 12  C 43.2 11.681756 43.07356 11.376504 42.848528 11.151472  C 42.623496 10.92644 42.318244 10.8 42 10.8  C 41.681756 10.8 41.376504 10.92644 41.151472 11.151472  C 40.92644 11.376504 40.8 11.681756 40.8 12  C 40.8 12.318244 40.92644 12.623496 41.151472 12.848528  C 41.376504 13.07356 41.681756 13.2 42 13.2  z M 54 13.2  C 54.318244 13.2 54.623496 13.07356 54.848528 12.848528  C 55.07356 12.623496 55.2 12.318244 55.2 12  C 55.2 11.681756 55.07356 11.376504 54.848528 11.151472  C 54.623496 10.92644 54.318244 10.8 54 10.8  C 53.681756 10.8 53.376504 10.92644 53.151472 11.151472  C 52.92644 11.376504 52.8 11.681756 52.8 12  C 52.8 12.318244 52.92644 12.623496 53.151472 12.848528  C 53.376504 13.07356 53.681756 13.2 54 13.2  z M 66 13.2  C 66.318244 13.2 66.623496 13.07356 66.848528 12.848528  C 67.07356 12.623496 67.2 12.318244 67.2 12  C 67.2 11.681756 67.07356 11.376504 66.848528 11.151472  C 66.623496 10.92644 66.318244 10.8 66 10.8  C 65.681756 10.8 65.376504 10.92644 65.151472 11.151472  C 64.92644 11.376504 64.8 11.681756 64.8 12  C 64.8 12.318244 64.92644 12.623496 65.151472 12.848528  C 65.376504 13.07356 65.681756 13.2 66 13.2  z M 0 1.2  C 0.318244 1.2 0.623496 1.07356 0.848528 0.848528  C 1.07356 0.623496 1.2 0.318244 1.2 0  C 1.2 -0.318244 1.07356 -0.623496 0.848528 -0.848528  C 0.623496 -1.07356 0.318244 -1.2 0 -1.2  C -0.318244 -1.2 -0.623496 -1.07356 -0.848528 -0.848528  C -1.07356 -0.623496 -1.2 -0.318244 -1.2 0  C -1.2 0.318244 -1.07356 0.623496 -0.848528 0.848528  C -0.623496 1.07356 -0.318244 1.2 0 1.2  z M 12 1.2  C 12.318244 1.2 12.623496 1.07356 12.848528 0.848528  C 13.07356 0.623496 13.2 0.318244 13.2 0  C 13.2 -0.318244 13.07356 -0.623496 12.848528 -0.848528  C 12.623496 -1.07356 12.318244 -1.2 12 -1.2  C 11.681756 -1.2 11.376504 -1.07356 11.151472 -0.848528  C 10.92644 -0.623496 10.8 -0.318244 10.8 0  C 10.8 0.318244 10.92644 0.623496 11.151472 0.848528  C 11.376504 1.07356 11.681756 1.2 12 1.2  z M 24 1.2  C 24.318244 1.2 24.623496 1.07356 24.848528 0.848528  C 25.07356 0.623496 25.2 0.318244 25.2 0  C 25.2 -0.318244 25.07356 -0.623496 24.848528 -0.848528  C 24.623496 -1.07356 24.318244 -1.2 24 -1.2  C 23.681756 -1.2 23.376504 -1.07356 23.151472 -0.848528  C 22.92644 -0.623496 22.8 -0.318244 22.8 0  C 22.8 0.318244 22.92644 0.623496 23.151472 0.848528  C 23.376504 1.07356 23.681756 1.2 24 1.2  z M 36 1.2  C 36.318244 1.2 36.623496 1.07356 36.848528 0.848528  C 37.07356 0.623496 37.2 0.318244 37.2 0  C 37.2 -0.318244 37.07356 -0.623496 36.848528 -0.848528  C 36.623496 -1.07356 36.318244 -1.2 36 -1.2  C 35.681756 -1.2 35.376504 -1.07356 35.151472 -0.848528  C 34.92644 -0.623496 34.8 -0.318244 34.8 0  C 34.8 0.318244 34.92644 0.623496 35.151472 0.848528  C 35.376504 1.07356 35.681756 1.2 36 1.2  z M 48 1.2  C 48.318244 1.2 48.623496 1.07356 48.848528 0.848528  C 49.07356 0.623496 49.2 0.318244 49.2 0  C 49.2 -0.318244 49.07356 -0.623496 48.848528 -0.848528  C 48.623496 -1.07356 48.318244 -1.2 48 -1.2  C 47.681756 -1.2 47.376504 -1.07356 47.151472 -0.848528  C 46.92644 -0.623496 46.8 -0.318244 46.8 0  C 46.8 0.318244 46.92644 0.623496 47.151472 0.848528  C 47.376504 1.07356 47.681756 1.2 48 1.2  z M 60 1.2  C 60.318244 1.2 60.623496 1.07356 60.848528 0.848528  C 61.07356 0.623496 61.2 0.318244 61.2 0  C 61.2 -0.318244 61.07356 -0.623496 60.848528 -0.848528  C 60.623496 -1.07356 60.318244 -1.2 60 -1.2  C 59.681756 -1.2 59.376504 -1.07356 59.151472 -0.848528  C 58.92644 -0.623496 58.8 -0.318244 58.8 0  C 58.8 0.318244 58.92644 0.623496 59.151472 0.848528  C 59.376504 1.07356 59.681756 1.2 60 1.2  z M 72 1.2  C 72.318244 1.2 72.623496 1.07356 72.848528 0.848528  C 73.07356 0.623496 73.2 0.318244 73.2 0  C 73.2 -0.318244 73.07356 -0.623496 72.848528 -0.848528  C 72.623496 -1.07356 72.318244 -1.2 72 -1.2  C 71.681756 -1.2 71.376504 -1.07356 71.151472 -0.848528  C 70.92644 -0.623496 70.8 -0.318244 70.8 0  C 70.8 0.318244 70.92644 0.623496 71.151472 0.848528  C 71.376504 1.07356 71.681756 1.2 72 1.2  z "
         style="fill:#000000;stroke:#000000;stroke-linecap:butt;stroke-linejoin:miter;stroke-width:1.0;"
         id="path204" />
    </pattern>
  </defs>
</svg>
