<?xml version="1.0" encoding="UTF-8" standalone="no"?>
<!-- Created with matplotlib (http://matplotlib.org/) -->

<svg
   xmlns:dc="http://purl.org/dc/elements/1.1/"
   xmlns:cc="http://creativecommons.org/ns#"
   xmlns:rdf="http://www.w3.org/1999/02/22-rdf-syntax-ns#"
   xmlns:svg="http://www.w3.org/2000/svg"
   xmlns="http://www.w3.org/2000/svg"
   xmlns:xlink="http://www.w3.org/1999/xlink"
   xmlns:sodipodi="http://sodipodi.sourceforge.net/DTD/sodipodi-0.dtd"
   xmlns:inkscape="http://www.inkscape.org/namespaces/inkscape"
   height="345pt"
   version="1.1"
   viewBox="0 0 460 345"
   width="460pt"
   id="svg209"
   sodipodi:docname="breakdown.svg"
   inkscape:version="0.92.1 r15371">
  <metadata
     id="metadata213">
    <rdf:RDF>
      <cc:Work
         rdf:about="">
        <dc:format>image/svg+xml</dc:format>
        <dc:type
           rdf:resource="http://purl.org/dc/dcmitype/StillImage" />
        <dc:title></dc:title>
      </cc:Work>
    </rdf:RDF>
  </metadata>
  <sodipodi:namedview
     pagecolor="#ffffff"
     bordercolor="#666666"
     borderopacity="1"
     objecttolerance="10"
     gridtolerance="10"
     guidetolerance="10"
     inkscape:pageopacity="0"
     inkscape:pageshadow="2"
     inkscape:window-width="1920"
     inkscape:window-height="1017"
     id="namedview211"
     showgrid="false"
     inkscape:zoom="1.1101625"
     inkscape:cx="256.69727"
     inkscape:cy="244.2466"
     inkscape:window-x="-8"
     inkscape:window-y="-8"
     inkscape:window-maximized="1"
     inkscape:current-layer="figure_1" />
  <defs
     id="defs4">
    <style
       type="text/css"
       id="style2">
*{stroke-linecap:butt;stroke-linejoin:round;}
  </style>
  </defs>
  <g
     id="figure_1">
    <g
       id="patch_1">
      <path
         d="M 0 345.6  L 460.8 345.6  L 460.8 0  L 0 0  z "
         style="fill:#ffffff;"
         id="path6" />
    </g>
    <g
       id="axes_1">
      <g
         id="matplotlib.axis_1" />
      <g
         id="matplotlib.axis_2" />
      <g
         id="patch_2">
        <path
           d="M 236.652049 53.568  C 225.013912 53.568 213.436819 55.252652 202.281334 58.569487  C 191.125849 61.886322 180.508998 66.800547 170.761437 73.159108  L 236.652049 174.16823  L 236.652049 53.568  z "
           style="fill:url(#h6a84e3a476);"
           id="path11" />
      </g>
      <g
         id="patch_3">
        <path
           d="M 170.761437 73.159108  C 152.536884 85.04741 137.865002 101.649262 128.307725 121.197267  C 118.750448 140.745273 114.659403 162.520234 116.470112 184.20404  L 236.652049 174.16823  L 170.761437 73.159108  z "
           style="fill:url(#h0e111126f5);"
           id="path14" />
      </g>
      <g
         id="patch_4">
        <path
           d="M 116.470112 184.20404  C 118.888584 213.165986 131.696453 240.299779 152.519001 260.574513  C 173.341549 280.849248 200.807091 292.929326 229.823211 294.574968  L 236.652049 174.16823  L 116.470112 184.20404  z "
           style="fill:url(#h05bb6d83cb);"
           id="path17" />
      </g>
      <g
         id="patch_5">
        <path
           d="M 229.823211 294.574968  C 245.921881 295.488 262.041375 293.163182 277.225973 287.73835  C 292.410572 282.313519 306.354127 273.898049 318.22993 262.99089  C 330.105733 252.083731 339.674349 238.90479 346.368455 224.235443  C 353.062562 209.566096 356.747196 193.7021 357.203897 177.584028  C 357.660597 161.465957 354.880156 145.418775 349.027425 130.393917  C 343.174694 115.369059 334.367674 101.669451 323.128531 90.107337  C 311.889387 78.545224 298.44472 69.353717 283.591659 63.077778  C 268.738599 56.801839 252.776607 53.568002 236.652066 53.568  L 236.652049 174.16823  L 229.823211 294.574968  z "
           style="fill:url(#hdfbf5bffe1);"
           id="path20" />
      </g>
      <g
         id="text_1"
         transform="translate(26.751477,0.95540989)"
         style="stroke-linecap:butt;stroke-linejoin:round">
        <!-- Cooling Tower -->
        <defs
           id="defs34">
          <path
             d="M 64.40625,67.28125 V 56.890625 q -4.984375,4.640625 -10.625,6.921875 -5.640625,2.296875 -11.984375,2.296875 -12.5,0 -19.140625,-7.640625 -6.640625,-7.640625 -6.640625,-22.09375 0,-14.40625 6.640625,-22.046875 Q 29.296875,6.6875 41.796875,6.6875 q 6.34375,0 11.984375,2.296875 5.640625,2.296875 10.625,6.9375 V 5.609375 Q 59.234375,2.09375 53.4375,0.328125 q -5.78125,-1.75 -12.21875,-1.75 -16.5625,0 -26.09375,10.125 Q 5.609375,18.84375 5.609375,36.375 q 0,17.578125 9.515625,27.703125 9.53125,10.140625 26.09375,10.140625 6.53125,0 12.3125,-1.734375 5.796875,-1.734375 10.875,-5.203125 z"
             id="DejaVuSans-43"
             inkscape:connector-curvature="0"
             style="stroke-linecap:butt;stroke-linejoin:round" />
          <path
             d="m 30.609375,48.390625 q -7.21875,0 -11.421875,-5.640625 -4.203125,-5.640625 -4.203125,-15.453125 0,-9.8125 4.171875,-15.453125 4.1875,-5.640625 11.453125,-5.640625 7.1875,0 11.375,5.65625 4.203125,5.671875 4.203125,15.4375 0,9.71875 -4.203125,15.40625 -4.1875,5.6875 -11.375,5.6875 z m 0,7.609375 q 11.71875,0 18.40625,-7.625 6.703125,-7.609375 6.703125,-21.078125 0,-13.421875 -6.703125,-21.078125 -6.6875,-7.640625 -18.40625,-7.640625 -11.765625,0 -18.4375,7.640625 -6.65625,7.65625 -6.65625,21.078125 0,13.46875 6.65625,21.078125 Q 18.84375,56 30.609375,56 Z"
             id="DejaVuSans-6f"
             inkscape:connector-curvature="0"
             style="stroke-linecap:butt;stroke-linejoin:round" />
          <path
             d="M 9.421875,75.984375 H 18.40625 V 0 H 9.421875 Z"
             id="DejaVuSans-6c"
             inkscape:connector-curvature="0"
             style="stroke-linecap:butt;stroke-linejoin:round" />
          <path
             d="M 9.421875,54.6875 H 18.40625 V 0 H 9.421875 Z m 0,21.296875 H 18.40625 V 64.59375 H 9.421875 Z"
             id="DejaVuSans-69"
             inkscape:connector-curvature="0"
             style="stroke-linecap:butt;stroke-linejoin:round" />
          <path
             d="M 54.890625,33.015625 V 0 H 45.90625 v 32.71875 q 0,7.765625 -3.03125,11.609375 -3.03125,3.859375 -9.078125,3.859375 -7.28125,0 -11.484375,-4.640625 -4.203125,-4.625 -4.203125,-12.640625 V 0 h -9.03125 v 54.6875 h 9.03125 v -8.5 q 3.234375,4.9375 7.59375,7.375 4.375,2.4375 10.09375,2.4375 9.421875,0 14.25,-5.828125 4.84375,-5.828125 4.84375,-17.15625 z"
             id="DejaVuSans-6e"
             inkscape:connector-curvature="0"
             style="stroke-linecap:butt;stroke-linejoin:round" />
          <path
             d="m 45.40625,27.984375 q 0,9.765625 -4.03125,15.125 -4.015625,5.375 -11.296875,5.375 -7.21875,0 -11.25,-5.375 -4.03125,-5.359375 -4.03125,-15.125 0,-9.71875 4.03125,-15.09375 4.03125,-5.375 11.25,-5.375 7.28125,0 11.296875,5.375 4.03125,5.375 4.03125,15.09375 z M 54.390625,6.78125 q 0,-13.953125 -6.203125,-20.765625 -6.1875,-6.8125 -18.984375,-6.8125 -4.734375,0 -8.9375,0.703125 -4.203125,0.703125 -8.15625,2.171875 V -9.1875 q 3.953125,-2.140625 7.8125,-3.15625 3.859375,-1.03125 7.859375,-1.03125 8.84375,0 13.234375,4.609375 4.390625,4.609375 4.390625,13.9375 V 9.625 Q 42.625,4.78125 38.28125,2.390625 33.9375,0 27.875,0 17.828125,0 11.671875,7.65625 q -6.15625,7.671875 -6.15625,20.328125 0,12.6875 6.15625,20.34375 Q 17.828125,56 27.875,56 q 6.0625,0 10.40625,-2.390625 4.34375,-2.390625 7.125,-7.21875 V 54.6875 h 8.984375 z"
             id="DejaVuSans-67"
             inkscape:connector-curvature="0"
             style="stroke-linecap:butt;stroke-linejoin:round" />
          <path
             id="DejaVuSans-20"
             d=""
             inkscape:connector-curvature="0"
             style="stroke-linecap:butt;stroke-linejoin:round" />
          <path
             d="M -0.296875,72.90625 H 61.375 v -8.3125 H 35.5 V 0 H 25.59375 V 64.59375 H -0.296875 Z"
             id="DejaVuSans-54"
             inkscape:connector-curvature="0"
             style="stroke-linecap:butt;stroke-linejoin:round" />
          <path
             d="M 4.203125,54.6875 H 13.1875 L 24.421875,12.015625 35.59375,54.6875 H 46.1875 L 57.421875,12.015625 68.609375,54.6875 H 77.59375 L 63.28125,0 H 52.6875 L 40.921875,44.828125 29.109375,0 H 18.5 Z"
             id="DejaVuSans-77"
             inkscape:connector-curvature="0"
             style="stroke-linecap:butt;stroke-linejoin:round" />
          <path
             d="m 56.203125,29.59375 v -4.390625 h -41.3125 q 0.59375,-9.28125 5.59375,-14.140625 5,-4.859375 13.9375,-4.859375 5.171875,0 10.03125,1.265625 4.859375,1.265625 9.65625,3.8125 v -8.5 q -4.84375,-2.046875 -9.921875,-3.125 -5.078125,-1.078125 -10.296875,-1.078125 -13.09375,0 -20.734375,7.609375 -7.640625,7.625 -7.640625,20.625 0,13.421875 7.25,21.296875 Q 20.015625,56 32.328125,56 q 11.03125,0 17.453125,-7.109375 6.421875,-7.09375 6.421875,-19.296875 z m -8.984375,2.640625 q -0.09375,7.359375 -4.125,11.75 -4.03125,4.40625 -10.671875,4.40625 -7.515625,0 -12.03125,-4.25 -4.515625,-4.25 -5.203125,-11.96875 z"
             id="DejaVuSans-65"
             inkscape:connector-curvature="0"
             style="stroke-linecap:butt;stroke-linejoin:round" />
          <path
             d="m 41.109375,46.296875 q -1.515625,0.875 -3.296875,1.28125 Q 36.03125,48 33.890625,48 26.265625,48 22.1875,43.046875 18.109375,38.09375 18.109375,28.8125 V 0 h -9.03125 v 54.6875 h 9.03125 v -8.5 q 2.84375,4.984375 7.375,7.390625 Q 30.03125,56 36.53125,56 q 0.921875,0 2.046875,-0.125 1.125,-0.109375 2.484375,-0.359375 z"
             id="DejaVuSans-72"
             inkscape:connector-curvature="0"
             style="stroke-linecap:butt;stroke-linejoin:round" />
        </defs>
        <g
           style="fill:#262626;stroke-linecap:butt;stroke-linejoin:round"
           transform="matrix(0.1,0,0,-0.1,127.56145,49.768988)"
           id="g62">
          <use
             xlink:href="#DejaVuSans-43"
             id="use36"
             style="stroke-linecap:butt;stroke-linejoin:round"
             x="0"
             y="0"
             width="100%"
             height="100%" />
          <use
             x="69.824219"
             xlink:href="#DejaVuSans-6f"
             id="use38"
             style="stroke-linecap:butt;stroke-linejoin:round"
             y="0"
             width="100%"
             height="100%" />
          <use
             x="131.00586"
             xlink:href="#DejaVuSans-6f"
             id="use40"
             style="stroke-linecap:butt;stroke-linejoin:round"
             y="0"
             width="100%"
             height="100%" />
          <use
             x="192.1875"
             xlink:href="#DejaVuSans-6c"
             id="use42"
             style="stroke-linecap:butt;stroke-linejoin:round"
             y="0"
             width="100%"
             height="100%" />
          <use
             x="219.9707"
             xlink:href="#DejaVuSans-69"
             id="use44"
             style="stroke-linecap:butt;stroke-linejoin:round"
             y="0"
             width="100%"
             height="100%" />
          <use
             x="247.75391"
             xlink:href="#DejaVuSans-6e"
             id="use46"
             style="stroke-linecap:butt;stroke-linejoin:round"
             y="0"
             width="100%"
             height="100%" />
          <use
             x="311.13281"
             xlink:href="#DejaVuSans-67"
             id="use48"
             style="stroke-linecap:butt;stroke-linejoin:round"
             y="0"
             width="100%"
             height="100%" />
          <use
             x="374.60938"
             xlink:href="#DejaVuSans-20"
             id="use50"
             style="stroke-linecap:butt;stroke-linejoin:round"
             y="0"
             width="100%"
             height="100%" />
          <use
             x="406.39648"
             xlink:href="#DejaVuSans-54"
             id="use52"
             style="stroke-linecap:butt;stroke-linejoin:round"
             y="0"
             width="100%"
             height="100%" />
          <use
             x="467.21484"
             xlink:href="#DejaVuSans-6f"
             id="use54"
             style="stroke-linecap:butt;stroke-linejoin:round"
             y="0"
             width="100%"
             height="100%" />
          <use
             x="528.39648"
             xlink:href="#DejaVuSans-77"
             id="use56"
             style="stroke-linecap:butt;stroke-linejoin:round"
             y="0"
             width="100%"
             height="100%" />
          <use
             x="610.18359"
             xlink:href="#DejaVuSans-65"
             id="use58"
             style="stroke-linecap:butt;stroke-linejoin:round"
             y="0"
             width="100%"
             height="100%" />
          <use
             x="671.70703"
             xlink:href="#DejaVuSans-72"
             id="use60"
             style="stroke-linecap:butt;stroke-linejoin:round"
             y="0"
             width="100%"
             height="100%" />
        </g>
      </g>
      <g
         id="text_2">
        <!-- 9.2% -->
        <defs
           id="defs69">
          <path
             d="M 10.984375 1.515625  L 10.984375 10.5  Q 14.703125 8.734375 18.5 7.8125  Q 22.3125 6.890625 25.984375 6.890625  Q 35.75 6.890625 40.890625 13.453125  Q 46.046875 20.015625 46.78125 33.40625  Q 43.953125 29.203125 39.59375 26.953125  Q 35.25 24.703125 29.984375 24.703125  Q 19.046875 24.703125 12.671875 31.3125  Q 6.296875 37.9375 6.296875 49.421875  Q 6.296875 60.640625 12.9375 67.421875  Q 19.578125 74.21875 30.609375 74.21875  Q 43.265625 74.21875 49.921875 64.515625  Q 56.59375 54.828125 56.59375 36.375  Q 56.59375 19.140625 48.40625 8.859375  Q 40.234375 -1.421875 26.421875 -1.421875  Q 22.703125 -1.421875 18.890625 -0.6875  Q 15.09375 0.046875 10.984375 1.515625  z M 30.609375 32.421875  Q 37.25 32.421875 41.125 36.953125  Q 45.015625 41.5 45.015625 49.421875  Q 45.015625 57.28125 41.125 61.84375  Q 37.25 66.40625 30.609375 66.40625  Q 23.96875 66.40625 20.09375 61.84375  Q 16.21875 57.28125 16.21875 49.421875  Q 16.21875 41.5 20.09375 36.953125  Q 23.96875 32.421875 30.609375 32.421875  z "
             id="DejaVuSans-39" />
          <path
             d="M 10.6875 12.40625  L 21 12.40625  L 21 0  L 10.6875 0  z "
             id="DejaVuSans-2e" />
          <path
             d="M 19.1875 8.296875  L 53.609375 8.296875  L 53.609375 0  L 7.328125 0  L 7.328125 8.296875  Q 12.9375 14.109375 22.625 23.890625  Q 32.328125 33.6875 34.8125 36.53125  Q 39.546875 41.84375 41.421875 45.53125  Q 43.3125 49.21875 43.3125 52.78125  Q 43.3125 58.59375 39.234375 62.25  Q 35.15625 65.921875 28.609375 65.921875  Q 23.96875 65.921875 18.8125 64.3125  Q 13.671875 62.703125 7.8125 59.421875  L 7.8125 69.390625  Q 13.765625 71.78125 18.9375 73  Q 24.125 74.21875 28.421875 74.21875  Q 39.75 74.21875 46.484375 68.546875  Q 53.21875 62.890625 53.21875 53.421875  Q 53.21875 48.921875 51.53125 44.890625  Q 49.859375 40.875 45.40625 35.40625  Q 44.1875 33.984375 37.640625 27.21875  Q 31.109375 20.453125 19.1875 8.296875  z "
             id="DejaVuSans-32" />
          <path
             d="M 72.703125 32.078125  Q 68.453125 32.078125 66.03125 28.46875  Q 63.625 24.859375 63.625 18.40625  Q 63.625 12.0625 66.03125 8.421875  Q 68.453125 4.78125 72.703125 4.78125  Q 76.859375 4.78125 79.265625 8.421875  Q 81.6875 12.0625 81.6875 18.40625  Q 81.6875 24.8125 79.265625 28.4375  Q 76.859375 32.078125 72.703125 32.078125  z M 72.703125 38.28125  Q 80.421875 38.28125 84.953125 32.90625  Q 89.5 27.546875 89.5 18.40625  Q 89.5 9.28125 84.9375 3.921875  Q 80.375 -1.421875 72.703125 -1.421875  Q 64.890625 -1.421875 60.34375 3.921875  Q 55.8125 9.28125 55.8125 18.40625  Q 55.8125 27.59375 60.375 32.9375  Q 64.9375 38.28125 72.703125 38.28125  z M 22.3125 68.015625  Q 18.109375 68.015625 15.6875 64.375  Q 13.28125 60.75 13.28125 54.390625  Q 13.28125 47.953125 15.671875 44.328125  Q 18.0625 40.71875 22.3125 40.71875  Q 26.5625 40.71875 28.96875 44.328125  Q 31.390625 47.953125 31.390625 54.390625  Q 31.390625 60.6875 28.953125 64.34375  Q 26.515625 68.015625 22.3125 68.015625  z M 66.40625 74.21875  L 74.21875 74.21875  L 28.609375 -1.421875  L 20.796875 -1.421875  z M 22.3125 74.21875  Q 30.03125 74.21875 34.609375 68.875  Q 39.203125 63.53125 39.203125 54.390625  Q 39.203125 45.171875 34.640625 39.84375  Q 30.078125 34.515625 22.3125 34.515625  Q 14.546875 34.515625 10.03125 39.859375  Q 5.515625 45.21875 5.515625 54.390625  Q 5.515625 63.484375 10.046875 68.84375  Q 14.59375 74.21875 22.3125 74.21875  z "
             id="DejaVuSans-25" />
        </defs>
        <g
           style="fill:#262626;"
           transform="translate(180.164378 38.760988)scale(0.12 -0.12)"
           id="g79">
          <use
             xlink:href="#DejaVuSans-39"
             id="use71" />
          <use
             x="63.623047"
             xlink:href="#DejaVuSans-2e"
             id="use73" />
          <use
             x="95.410156"
             xlink:href="#DejaVuSans-32"
             id="use75" />
          <use
             x="159.033203"
             xlink:href="#DejaVuSans-25"
             id="use77" />
        </g>
      </g>
      <g
         id="text_3"
         transform="translate(0,9)"
         style="stroke-linecap:butt;stroke-linejoin:round">
        <!-- Pump -->
        <defs
           id="defs86">
          <path
             d="M 19.671875,64.796875 V 37.40625 h 12.40625 q 6.890625,0 10.640625,3.5625 3.765625,3.5625 3.765625,10.15625 0,6.546875 -3.765625,10.109375 -3.75,3.5625 -10.640625,3.5625 z M 9.8125,72.90625 h 22.265625 q 12.265625,0 18.53125,-5.546875 6.28125,-5.546875 6.28125,-16.234375 0,-10.796875 -6.28125,-16.3125 -6.265625,-5.515625 -18.53125,-5.515625 H 19.671875 V 0 H 9.8125 Z"
             id="DejaVuSans-50"
             inkscape:connector-curvature="0"
             style="stroke-linecap:butt;stroke-linejoin:round" />
          <path
             d="M 8.5,21.578125 V 54.6875 h 8.984375 V 21.921875 q 0,-7.765625 3.015625,-11.65625 3.03125,-3.875 9.09375,-3.875 7.265625,0 11.484375,4.640625 4.234375,4.640625 4.234375,12.65625 v 31 h 8.984375 V 0 H 45.3125 V 8.40625 Q 42.046875,3.421875 37.71875,1 33.40625,-1.421875 27.6875,-1.421875 18.265625,-1.421875 13.375,4.4375 8.5,10.296875 8.5,21.578125 Z M 31.109375,56 Z"
             id="DejaVuSans-75"
             inkscape:connector-curvature="0"
             style="stroke-linecap:butt;stroke-linejoin:round" />
          <path
             d="M 52,44.1875 Q 55.375,50.25 60.0625,53.125 64.75,56 71.09375,56 q 8.546875,0 13.1875,-5.984375 4.640625,-5.96875 4.640625,-17 V 0 h -9.03125 v 32.71875 q 0,7.859375 -2.796875,11.65625 -2.78125,3.8125 -8.484375,3.8125 -6.984375,0 -11.046875,-4.640625 -4.046875,-4.625 -4.046875,-12.640625 V 0 h -9.03125 v 32.71875 q 0,7.90625 -2.78125,11.6875 -2.78125,3.78125 -8.59375,3.78125 -6.890625,0 -10.953125,-4.65625 -4.046875,-4.65625 -4.046875,-12.625 V 0 h -9.03125 v 54.6875 h 9.03125 v -8.5 q 3.078125,5.03125 7.375,7.421875 Q 29.78125,56 35.6875,56 41.65625,56 45.828125,52.96875 50,49.953125 52,44.1875 Z"
             id="DejaVuSans-6d"
             inkscape:connector-curvature="0"
             style="stroke-linecap:butt;stroke-linejoin:round" />
          <path
             d="m 18.109375,8.203125 v -29 H 9.078125 V 54.6875 h 9.03125 v -8.296875 q 2.84375,4.875 7.15625,7.234375 Q 29.59375,56 35.59375,56 q 9.96875,0 16.1875,-7.90625 6.234375,-7.90625 6.234375,-20.796875 0,-12.890625 -6.234375,-20.8125 -6.21875,-7.90625 -16.1875,-7.90625 -6,0 -10.328125,2.375 -4.3125,2.375 -7.15625,7.25 z M 48.6875,27.296875 q 0,9.90625 -4.078125,15.546875 -4.078125,5.640625 -11.203125,5.640625 -7.140625,0 -11.21875,-5.640625 -4.078125,-5.640625 -4.078125,-15.546875 0,-9.90625 4.078125,-15.546875 4.078125,-5.640625 11.21875,-5.640625 7.125,0 11.203125,5.640625 4.078125,5.640625 4.078125,15.546875 z"
             id="DejaVuSans-70"
             inkscape:connector-curvature="0"
             style="stroke-linecap:butt;stroke-linejoin:round" />
        </defs>
        <g
           style="fill:#262626;stroke-linecap:butt;stroke-linejoin:round"
           transform="matrix(0.1,0,0,-0.1,89.018605,118.65955)"
           id="g96">
          <use
             xlink:href="#DejaVuSans-50"
             id="use88"
             style="stroke-linecap:butt;stroke-linejoin:round"
             x="0"
             y="0"
             width="100%"
             height="100%" />
          <use
             x="60.287109"
             xlink:href="#DejaVuSans-75"
             id="use90"
             style="stroke-linecap:butt;stroke-linejoin:round"
             y="0"
             width="100%"
             height="100%" />
          <use
             x="123.66602"
             xlink:href="#DejaVuSans-6d"
             id="use92"
             style="stroke-linecap:butt;stroke-linejoin:round"
             y="0"
             width="100%"
             height="100%" />
          <use
             x="221.07812"
             xlink:href="#DejaVuSans-70"
             id="use94"
             style="stroke-linecap:butt;stroke-linejoin:round"
             y="0"
             width="100%"
             height="100%" />
        </g>
      </g>
      <g
         id="text_4">
        <!-- 17.1% -->
        <defs
           id="defs101">
          <path
             d="M 12.40625 8.296875  L 28.515625 8.296875  L 28.515625 63.921875  L 10.984375 60.40625  L 10.984375 69.390625  L 28.421875 72.90625  L 38.28125 72.90625  L 38.28125 8.296875  L 54.390625 8.296875  L 54.390625 0  L 12.40625 0  z "
             id="DejaVuSans-31" />
          <path
             d="M 8.203125 72.90625  L 55.078125 72.90625  L 55.078125 68.703125  L 28.609375 0  L 18.3125 0  L 43.21875 64.59375  L 8.203125 64.59375  z "
             id="DejaVuSans-37" />
        </defs>
        <g
           style="fill:#262626;"
           transform="translate(87.578548 113.914325)scale(0.12 -0.12)"
           id="g113">
          <use
             xlink:href="#DejaVuSans-31"
             id="use103" />
          <use
             x="63.623047"
             xlink:href="#DejaVuSans-37"
             id="use105" />
          <use
             x="127.246094"
             xlink:href="#DejaVuSans-2e"
             id="use107" />
          <use
             x="159.033203"
             xlink:href="#DejaVuSans-31"
             id="use109" />
          <use
             x="222.65625"
             xlink:href="#DejaVuSans-25"
             id="use111" />
        </g>
      </g>
      <g
         id="text_5">
        <!-- Chiller -->
        <defs
           id="defs117">
          <path
             d="M 54.890625 33.015625  L 54.890625 0  L 45.90625 0  L 45.90625 32.71875  Q 45.90625 40.484375 42.875 44.328125  Q 39.84375 48.1875 33.796875 48.1875  Q 26.515625 48.1875 22.3125 43.546875  Q 18.109375 38.921875 18.109375 30.90625  L 18.109375 0  L 9.078125 0  L 9.078125 75.984375  L 18.109375 75.984375  L 18.109375 46.1875  Q 21.34375 51.125 25.703125 53.5625  Q 30.078125 56 35.796875 56  Q 45.21875 56 50.046875 50.171875  Q 54.890625 44.34375 54.890625 33.015625  z "
             id="DejaVuSans-68" />
        </defs>
        <g
           style="fill:#262626;"
           transform="translate(112.186947 271.974516)scale(0.1 -0.1)"
           id="g133">
          <use
             xlink:href="#DejaVuSans-43"
             id="use119" />
          <use
             x="69.824219"
             xlink:href="#DejaVuSans-68"
             id="use121" />
          <use
             x="133.203125"
             xlink:href="#DejaVuSans-69"
             id="use123" />
          <use
             x="160.986328"
             xlink:href="#DejaVuSans-6c"
             id="use125" />
          <use
             x="188.769531"
             xlink:href="#DejaVuSans-6c"
             id="use127" />
          <use
             x="216.552734"
             xlink:href="#DejaVuSans-65"
             id="use129" />
          <use
             x="278.076172"
             xlink:href="#DejaVuSans-72"
             id="use131" />
        </g>
      </g>
      <g
         id="text_6"
         transform="translate(-10.987214,-21.974428)"
         style="stroke-linecap:butt;stroke-linejoin:round">
        <!-- 22.8% -->
        <defs
           id="defs137">
          <path
             d="m 31.78125,34.625 q -7.03125,0 -11.0625,-3.765625 -4.015625,-3.765625 -4.015625,-10.34375 0,-6.59375 4.015625,-10.359375 4.03125,-3.765625 11.0625,-3.765625 7.03125,0 11.078125,3.78125 4.0625,3.796875 4.0625,10.34375 0,6.578125 -4.03125,10.34375 Q 38.875,34.625 31.78125,34.625 Z m -9.859375,4.1875 Q 15.578125,40.375 12.03125,44.71875 8.5,49.078125 8.5,55.328125 q 0,8.734375 6.21875,13.8125 6.234375,5.078125 17.0625,5.078125 10.890625,0 17.09375,-5.078125 6.203125,-5.078125 6.203125,-13.8125 0,-6.25 -3.546875,-10.609375 Q 48,40.375 41.703125,38.8125 q 7.125,-1.65625 11.09375,-6.5 3.984375,-4.828125 3.984375,-11.796875 0,-10.609375 -6.46875,-16.28125 -6.46875,-5.65625 -18.53125,-5.65625 -12.046875,0 -18.53125,5.65625 -6.46875,5.671875 -6.46875,16.28125 0,6.96875 4,11.796875 4.015625,4.84375 11.140625,6.5 z M 18.3125,54.390625 q 0,-5.65625 3.53125,-8.828125 3.546875,-3.171875 9.9375,-3.171875 6.359375,0 9.9375,3.171875 3.59375,3.171875 3.59375,8.828125 0,5.671875 -3.59375,8.84375 -3.578125,3.171875 -9.9375,3.171875 -6.390625,0 -9.9375,-3.171875 Q 18.3125,60.0625 18.3125,54.390625 Z"
             id="DejaVuSans-38"
             inkscape:connector-curvature="0"
             style="stroke-linecap:butt;stroke-linejoin:round" />
        </defs>
        <g
           style="fill:#262626;stroke-linecap:butt;stroke-linejoin:round"
           transform="matrix(0.12,0,0,-0.12,116.63208,281.16702)"
           id="g149">
          <use
             xlink:href="#DejaVuSans-32"
             id="use139"
             style="stroke-linecap:butt;stroke-linejoin:round"
             x="0"
             y="0"
             width="100%"
             height="100%" />
          <use
             x="63.623047"
             xlink:href="#DejaVuSans-32"
             id="use141"
             style="stroke-linecap:butt;stroke-linejoin:round"
             y="0"
             width="100%"
             height="100%" />
          <use
             x="127.24609"
             xlink:href="#DejaVuSans-2e"
             id="use143"
             style="stroke-linecap:butt;stroke-linejoin:round"
             y="0"
             width="100%"
             height="100%" />
          <use
             x="159.0332"
             xlink:href="#DejaVuSans-38"
             id="use145"
             style="stroke-linecap:butt;stroke-linejoin:round"
             y="0"
             width="100%"
             height="100%" />
          <use
             x="222.65625"
             xlink:href="#DejaVuSans-25"
             id="use147"
             style="stroke-linecap:butt;stroke-linejoin:round"
             y="0"
             width="100%"
             height="100%" />
        </g>
      </g>
      <g
         id="text_7"
         transform="translate(-3,4.5)"
         style="stroke-linecap:butt;stroke-linejoin:round">
        <!-- CRAH -->
        <defs
           id="defs155">
          <path
             d="m 44.390625,34.1875 q 3.171875,-1.078125 6.171875,-4.59375 3,-3.515625 6.03125,-9.671875 L 66.609375,0 H 56 l -9.3125,18.703125 q -3.625,7.328125 -7.015625,9.71875 -3.390625,2.390625 -9.25,2.390625 h -10.75 V 0 H 9.8125 v 72.90625 h 22.265625 q 12.5,0 18.65625,-5.234375 6.15625,-5.21875 6.15625,-15.765625 0,-6.890625 -3.203125,-11.4375 -3.203125,-4.53125 -9.296875,-6.28125 z m -24.71875,30.609375 v -25.875 h 12.40625 q 7.125,0 10.765625,3.296875 3.640625,3.296875 3.640625,9.6875 0,6.390625 -3.640625,9.640625 -3.640625,3.25 -10.765625,3.25 z"
             id="DejaVuSans-52"
             inkscape:connector-curvature="0"
             style="stroke-linecap:butt;stroke-linejoin:round" />
          <path
             d="M 34.1875,63.1875 20.796875,26.90625 h 26.8125 z m -5.578125,9.71875 h 11.1875 L 67.578125,0 h -10.25 L 50.6875,18.703125 H 17.828125 L 11.1875,0 H 0.78125 Z"
             id="DejaVuSans-41"
             inkscape:connector-curvature="0"
             style="stroke-linecap:butt;stroke-linejoin:round" />
          <path
             d="m 9.8125,72.90625 h 9.859375 V 43.015625 h 35.84375 V 72.90625 H 65.375 V 0 H 55.515625 V 34.71875 H 19.671875 V 0 H 9.8125 Z"
             id="DejaVuSans-48"
             inkscape:connector-curvature="0"
             style="stroke-linecap:butt;stroke-linejoin:round" />
        </defs>
        <g
           style="fill:#262626;stroke-linecap:butt;stroke-linejoin:round"
           transform="matrix(0.1,0,0,-0.1,369.25908,180.68498)"
           id="g165">
          <use
             xlink:href="#DejaVuSans-43"
             id="use157"
             style="stroke-linecap:butt;stroke-linejoin:round"
             x="0"
             y="0"
             width="100%"
             height="100%" />
          <use
             x="69.824219"
             xlink:href="#DejaVuSans-52"
             id="use159"
             style="stroke-linecap:butt;stroke-linejoin:round"
             y="0"
             width="100%"
             height="100%" />
          <use
             x="139.24414"
             xlink:href="#DejaVuSans-41"
             id="use161"
             style="stroke-linecap:butt;stroke-linejoin:round"
             y="0"
             width="100%"
             height="100%" />
          <use
             x="207.65234"
             xlink:href="#DejaVuSans-48"
             id="use163"
             style="stroke-linecap:butt;stroke-linejoin:round"
             y="0"
             width="100%"
             height="100%" />
        </g>
      </g>
      <g
         id="text_8"
         transform="translate(1.5,-8.4075424)"
         style="stroke-linecap:butt;stroke-linejoin:round">
        <!-- 50.9% -->
        <defs
           id="defs170">
          <path
             d="m 10.796875,72.90625 h 38.71875 v -8.3125 h -29.6875 V 46.734375 q 2.140625,0.734375 4.28125,1.09375 2.15625,0.359375 4.3125,0.359375 Q 40.625,48.1875 47.75,41.5 54.890625,34.8125 54.890625,23.390625 54.890625,11.625 47.5625,5.09375 40.234375,-1.421875 26.90625,-1.421875 q -4.59375,0 -9.359375,0.78125 -4.75,0.78125 -9.828125,2.34375 V 11.625 q 4.390625,-2.390625 9.078125,-3.5625 4.6875,-1.171875 9.90625,-1.171875 8.453125,0 13.375,4.4375 4.9375,4.4375 4.9375,12.0625 0,7.609375 -4.9375,12.046875 -4.921875,4.453125 -13.375,4.453125 -3.953125,0 -7.890625,-0.875 -3.921875,-0.875 -8.015625,-2.734375 z"
             id="DejaVuSans-35"
             inkscape:connector-curvature="0"
             style="stroke-linecap:butt;stroke-linejoin:round" />
          <path
             d="m 31.78125,66.40625 q -7.609375,0 -11.453125,-7.5 Q 16.5,51.421875 16.5,36.375 q 0,-14.984375 3.828125,-22.484375 3.84375,-7.5 11.453125,-7.5 7.671875,0 11.5,7.5 3.84375,7.5 3.84375,22.484375 0,15.046875 -3.84375,22.53125 -3.828125,7.5 -11.5,7.5 z m 0,7.8125 q 12.265625,0 18.734375,-9.703125 6.46875,-9.6875 6.46875,-28.140625 0,-18.40625 -6.46875,-28.109375 -6.46875,-9.6875 -18.734375,-9.6875 -12.25,0 -18.71875,9.6875 Q 6.59375,17.96875 6.59375,36.375 q 0,18.453125 6.46875,28.140625 6.46875,9.703125 18.71875,9.703125 z"
             id="DejaVuSans-30"
             inkscape:connector-curvature="0"
             style="stroke-linecap:butt;stroke-linejoin:round" />
        </defs>
        <g
           style="fill:#262626;stroke-linecap:butt;stroke-linejoin:round"
           transform="matrix(0.12,0,0,-0.12,362.25395,181.57844)"
           id="g182">
          <use
             xlink:href="#DejaVuSans-35"
             id="use172"
             style="stroke-linecap:butt;stroke-linejoin:round"
             x="0"
             y="0"
             width="100%"
             height="100%" />
          <use
             x="63.623047"
             xlink:href="#DejaVuSans-30"
             id="use174"
             style="stroke-linecap:butt;stroke-linejoin:round"
             y="0"
             width="100%"
             height="100%" />
          <use
             x="127.24609"
             xlink:href="#DejaVuSans-2e"
             id="use176"
             style="stroke-linecap:butt;stroke-linejoin:round"
             y="0"
             width="100%"
             height="100%" />
          <use
             x="159.0332"
             xlink:href="#DejaVuSans-39"
             id="use178"
             style="stroke-linecap:butt;stroke-linejoin:round"
             y="0"
             width="100%"
             height="100%" />
          <use
             x="222.65625"
             xlink:href="#DejaVuSans-25"
             id="use180"
             style="stroke-linecap:butt;stroke-linejoin:round"
             y="0"
             width="100%"
             height="100%" />
        </g>
      </g>
    </g>
  </g>
  <defs
     id="defs207">
    <pattern
       height="72"
       id="h6a84e3a476"
       patternUnits="userSpaceOnUse"
       width="72"
       x="0"
       y="0">
      <rect
         fill="#d3d3d3"
         height="73"
         width="73"
         x="0"
         y="0"
         id="rect187" />
      <path
         d="M -36 36  L 36 -36  M -24 48  L 48 -24  M -12 60  L 60 -12  M 0 72  L 72 0  M 12 84  L 84 12  M 24 96  L 96 24  M 36 108  L 108 36  "
         style="fill:#000000;stroke:#000000;stroke-linecap:butt;stroke-linejoin:miter;stroke-width:1.0;"
         id="path189" />
    </pattern>
    <pattern
       height="72"
       id="h0e111126f5"
       patternUnits="userSpaceOnUse"
       width="72"
       x="0"
       y="0">
      <rect
         fill="#d3d3d3"
         height="73"
         width="73"
         x="0"
         y="0"
         id="rect192" />
      <path
         d="M 0 66  L 72 66  M 0 54  L 72 54  M 0 42  L 72 42  M 0 30  L 72 30  M 0 18  L 72 18  M 0 6  L 72 6  "
         style="fill:#000000;stroke:#000000;stroke-linecap:butt;stroke-linejoin:miter;stroke-width:1.0;"
         id="path194" />
    </pattern>
    <pattern
       height="72"
       id="h05bb6d83cb"
       patternUnits="userSpaceOnUse"
       width="72"
       x="0"
       y="0">
      <rect
         fill="#d3d3d3"
         height="73"
         width="73"
         x="0"
         y="0"
         id="rect197" />
      <path
         d="M -36 36  L 36 108  M -24 24  L 48 96  M -12 12  L 60 84  M 0 0  L 72 72  M 12 -12  L 84 60  M 24 -24  L 96 48  M 36 -36  L 108 36  "
         style="fill:#000000;stroke:#000000;stroke-linecap:butt;stroke-linejoin:miter;stroke-width:1.0;"
         id="path199" />
    </pattern>
    <pattern
       height="72"
       id="hdfbf5bffe1"
       patternUnits="userSpaceOnUse"
       width="72"
       x="0"
       y="0">
      <rect
         fill="#d3d3d3"
         height="73"
         width="73"
         x="0"
         y="0"
         id="rect202" />
      <path
         d="M 0 73.2  C 0.318244 73.2 0.623496 73.07356 0.848528 72.848528  C 1.07356 72.623496 1.2 72.318244 1.2 72  C 1.2 71.681756 1.07356 71.376504 0.848528 71.151472  C 0.623496 70.92644 0.318244 70.8 0 70.8  C -0.318244 70.8 -0.623496 70.92644 -0.848528 71.151472  C -1.07356 71.376504 -1.2 71.681756 -1.2 72  C -1.2 72.318244 -1.07356 72.623496 -0.848528 72.848528  C -0.623496 73.07356 -0.318244 73.2 0 73.2  z M 12 73.2  C 12.318244 73.2 12.623496 73.07356 12.848528 72.848528  C 13.07356 72.623496 13.2 72.318244 13.2 72  C 13.2 71.681756 13.07356 71.376504 12.848528 71.151472  C 12.623496 70.92644 12.318244 70.8 12 70.8  C 11.681756 70.8 11.376504 70.92644 11.151472 71.151472  C 10.92644 71.376504 10.8 71.681756 10.8 72  C 10.8 72.318244 10.92644 72.623496 11.151472 72.848528  C 11.376504 73.07356 11.681756 73.2 12 73.2  z M 24 73.2  C 24.318244 73.2 24.623496 73.07356 24.848528 72.848528  C 25.07356 72.623496 25.2 72.318244 25.2 72  C 25.2 71.681756 25.07356 71.376504 24.848528 71.151472  C 24.623496 70.92644 24.318244 70.8 24 70.8  C 23.681756 70.8 23.376504 70.92644 23.151472 71.151472  C 22.92644 71.376504 22.8 71.681756 22.8 72  C 22.8 72.318244 22.92644 72.623496 23.151472 72.848528  C 23.376504 73.07356 23.681756 73.2 24 73.2  z M 36 73.2  C 36.318244 73.2 36.623496 73.07356 36.848528 72.848528  C 37.07356 72.623496 37.2 72.318244 37.2 72  C 37.2 71.681756 37.07356 71.376504 36.848528 71.151472  C 36.623496 70.92644 36.318244 70.8 36 70.8  C 35.681756 70.8 35.376504 70.92644 35.151472 71.151472  C 34.92644 71.376504 34.8 71.681756 34.8 72  C 34.8 72.318244 34.92644 72.623496 35.151472 72.848528  C 35.376504 73.07356 35.681756 73.2 36 73.2  z M 48 73.2  C 48.318244 73.2 48.623496 73.07356 48.848528 72.848528  C 49.07356 72.623496 49.2 72.318244 49.2 72  C 49.2 71.681756 49.07356 71.376504 48.848528 71.151472  C 48.623496 70.92644 48.318244 70.8 48 70.8  C 47.681756 70.8 47.376504 70.92644 47.151472 71.151472  C 46.92644 71.376504 46.8 71.681756 46.8 72  C 46.8 72.318244 46.92644 72.623496 47.151472 72.848528  C 47.376504 73.07356 47.681756 73.2 48 73.2  z M 60 73.2  C 60.318244 73.2 60.623496 73.07356 60.848528 72.848528  C 61.07356 72.623496 61.2 72.318244 61.2 72  C 61.2 71.681756 61.07356 71.376504 60.848528 71.151472  C 60.623496 70.92644 60.318244 70.8 60 70.8  C 59.681756 70.8 59.376504 70.92644 59.151472 71.151472  C 58.92644 71.376504 58.8 71.681756 58.8 72  C 58.8 72.318244 58.92644 72.623496 59.151472 72.848528  C 59.376504 73.07356 59.681756 73.2 60 73.2  z M 72 73.2  C 72.318244 73.2 72.623496 73.07356 72.848528 72.848528  C 73.07356 72.623496 73.2 72.318244 73.2 72  C 73.2 71.681756 73.07356 71.376504 72.848528 71.151472  C 72.623496 70.92644 72.318244 70.8 72 70.8  C 71.681756 70.8 71.376504 70.92644 71.151472 71.151472  C 70.92644 71.376504 70.8 71.681756 70.8 72  C 70.8 72.318244 70.92644 72.623496 71.151472 72.848528  C 71.376504 73.07356 71.681756 73.2 72 73.2  z M 6 61.2  C 6.318244 61.2 6.623496 61.07356 6.848528 60.848528  C 7.07356 60.623496 7.2 60.318244 7.2 60  C 7.2 59.681756 7.07356 59.376504 6.848528 59.151472  C 6.623496 58.92644 6.318244 58.8 6 58.8  C 5.681756 58.8 5.376504 58.92644 5.151472 59.151472  C 4.92644 59.376504 4.8 59.681756 4.8 60  C 4.8 60.318244 4.92644 60.623496 5.151472 60.848528  C 5.376504 61.07356 5.681756 61.2 6 61.2  z M 18 61.2  C 18.318244 61.2 18.623496 61.07356 18.848528 60.848528  C 19.07356 60.623496 19.2 60.318244 19.2 60  C 19.2 59.681756 19.07356 59.376504 18.848528 59.151472  C 18.623496 58.92644 18.318244 58.8 18 58.8  C 17.681756 58.8 17.376504 58.92644 17.151472 59.151472  C 16.92644 59.376504 16.8 59.681756 16.8 60  C 16.8 60.318244 16.92644 60.623496 17.151472 60.848528  C 17.376504 61.07356 17.681756 61.2 18 61.2  z M 30 61.2  C 30.318244 61.2 30.623496 61.07356 30.848528 60.848528  C 31.07356 60.623496 31.2 60.318244 31.2 60  C 31.2 59.681756 31.07356 59.376504 30.848528 59.151472  C 30.623496 58.92644 30.318244 58.8 30 58.8  C 29.681756 58.8 29.376504 58.92644 29.151472 59.151472  C 28.92644 59.376504 28.8 59.681756 28.8 60  C 28.8 60.318244 28.92644 60.623496 29.151472 60.848528  C 29.376504 61.07356 29.681756 61.2 30 61.2  z M 42 61.2  C 42.318244 61.2 42.623496 61.07356 42.848528 60.848528  C 43.07356 60.623496 43.2 60.318244 43.2 60  C 43.2 59.681756 43.07356 59.376504 42.848528 59.151472  C 42.623496 58.92644 42.318244 58.8 42 58.8  C 41.681756 58.8 41.376504 58.92644 41.151472 59.151472  C 40.92644 59.376504 40.8 59.681756 40.8 60  C 40.8 60.318244 40.92644 60.623496 41.151472 60.848528  C 41.376504 61.07356 41.681756 61.2 42 61.2  z M 54 61.2  C 54.318244 61.2 54.623496 61.07356 54.848528 60.848528  C 55.07356 60.623496 55.2 60.318244 55.2 60  C 55.2 59.681756 55.07356 59.376504 54.848528 59.151472  C 54.623496 58.92644 54.318244 58.8 54 58.8  C 53.681756 58.8 53.376504 58.92644 53.151472 59.151472  C 52.92644 59.376504 52.8 59.681756 52.8 60  C 52.8 60.318244 52.92644 60.623496 53.151472 60.848528  C 53.376504 61.07356 53.681756 61.2 54 61.2  z M 66 61.2  C 66.318244 61.2 66.623496 61.07356 66.848528 60.848528  C 67.07356 60.623496 67.2 60.318244 67.2 60  C 67.2 59.681756 67.07356 59.376504 66.848528 59.151472  C 66.623496 58.92644 66.318244 58.8 66 58.8  C 65.681756 58.8 65.376504 58.92644 65.151472 59.151472  C 64.92644 59.376504 64.8 59.681756 64.8 60  C 64.8 60.318244 64.92644 60.623496 65.151472 60.848528  C 65.376504 61.07356 65.681756 61.2 66 61.2  z M 0 49.2  C 0.318244 49.2 0.623496 49.07356 0.848528 48.848528  C 1.07356 48.623496 1.2 48.318244 1.2 48  C 1.2 47.681756 1.07356 47.376504 0.848528 47.151472  C 0.623496 46.92644 0.318244 46.8 0 46.8  C -0.318244 46.8 -0.623496 46.92644 -0.848528 47.151472  C -1.07356 47.376504 -1.2 47.681756 -1.2 48  C -1.2 48.318244 -1.07356 48.623496 -0.848528 48.848528  C -0.623496 49.07356 -0.318244 49.2 0 49.2  z M 12 49.2  C 12.318244 49.2 12.623496 49.07356 12.848528 48.848528  C 13.07356 48.623496 13.2 48.318244 13.2 48  C 13.2 47.681756 13.07356 47.376504 12.848528 47.151472  C 12.623496 46.92644 12.318244 46.8 12 46.8  C 11.681756 46.8 11.376504 46.92644 11.151472 47.151472  C 10.92644 47.376504 10.8 47.681756 10.8 48  C 10.8 48.318244 10.92644 48.623496 11.151472 48.848528  C 11.376504 49.07356 11.681756 49.2 12 49.2  z M 24 49.2  C 24.318244 49.2 24.623496 49.07356 24.848528 48.848528  C 25.07356 48.623496 25.2 48.318244 25.2 48  C 25.2 47.681756 25.07356 47.376504 24.848528 47.151472  C 24.623496 46.92644 24.318244 46.8 24 46.8  C 23.681756 46.8 23.376504 46.92644 23.151472 47.151472  C 22.92644 47.376504 22.8 47.681756 22.8 48  C 22.8 48.318244 22.92644 48.623496 23.151472 48.848528  C 23.376504 49.07356 23.681756 49.2 24 49.2  z M 36 49.2  C 36.318244 49.2 36.623496 49.07356 36.848528 48.848528  C 37.07356 48.623496 37.2 48.318244 37.2 48  C 37.2 47.681756 37.07356 47.376504 36.848528 47.151472  C 36.623496 46.92644 36.318244 46.8 36 46.8  C 35.681756 46.8 35.376504 46.92644 35.151472 47.151472  C 34.92644 47.376504 34.8 47.681756 34.8 48  C 34.8 48.318244 34.92644 48.623496 35.151472 48.848528  C 35.376504 49.07356 35.681756 49.2 36 49.2  z M 48 49.2  C 48.318244 49.2 48.623496 49.07356 48.848528 48.848528  C 49.07356 48.623496 49.2 48.318244 49.2 48  C 49.2 47.681756 49.07356 47.376504 48.848528 47.151472  C 48.623496 46.92644 48.318244 46.8 48 46.8  C 47.681756 46.8 47.376504 46.92644 47.151472 47.151472  C 46.92644 47.376504 46.8 47.681756 46.8 48  C 46.8 48.318244 46.92644 48.623496 47.151472 48.848528  C 47.376504 49.07356 47.681756 49.2 48 49.2  z M 60 49.2  C 60.318244 49.2 60.623496 49.07356 60.848528 48.848528  C 61.07356 48.623496 61.2 48.318244 61.2 48  C 61.2 47.681756 61.07356 47.376504 60.848528 47.151472  C 60.623496 46.92644 60.318244 46.8 60 46.8  C 59.681756 46.8 59.376504 46.92644 59.151472 47.151472  C 58.92644 47.376504 58.8 47.681756 58.8 48  C 58.8 48.318244 58.92644 48.623496 59.151472 48.848528  C 59.376504 49.07356 59.681756 49.2 60 49.2  z M 72 49.2  C 72.318244 49.2 72.623496 49.07356 72.848528 48.848528  C 73.07356 48.623496 73.2 48.318244 73.2 48  C 73.2 47.681756 73.07356 47.376504 72.848528 47.151472  C 72.623496 46.92644 72.318244 46.8 72 46.8  C 71.681756 46.8 71.376504 46.92644 71.151472 47.151472  C 70.92644 47.376504 70.8 47.681756 70.8 48  C 70.8 48.318244 70.92644 48.623496 71.151472 48.848528  C 71.376504 49.07356 71.681756 49.2 72 49.2  z M 6 37.2  C 6.318244 37.2 6.623496 37.07356 6.848528 36.848528  C 7.07356 36.623496 7.2 36.318244 7.2 36  C 7.2 35.681756 7.07356 35.376504 6.848528 35.151472  C 6.623496 34.92644 6.318244 34.8 6 34.8  C 5.681756 34.8 5.376504 34.92644 5.151472 35.151472  C 4.92644 35.376504 4.8 35.681756 4.8 36  C 4.8 36.318244 4.92644 36.623496 5.151472 36.848528  C 5.376504 37.07356 5.681756 37.2 6 37.2  z M 18 37.2  C 18.318244 37.2 18.623496 37.07356 18.848528 36.848528  C 19.07356 36.623496 19.2 36.318244 19.2 36  C 19.2 35.681756 19.07356 35.376504 18.848528 35.151472  C 18.623496 34.92644 18.318244 34.8 18 34.8  C 17.681756 34.8 17.376504 34.92644 17.151472 35.151472  C 16.92644 35.376504 16.8 35.681756 16.8 36  C 16.8 36.318244 16.92644 36.623496 17.151472 36.848528  C 17.376504 37.07356 17.681756 37.2 18 37.2  z M 30 37.2  C 30.318244 37.2 30.623496 37.07356 30.848528 36.848528  C 31.07356 36.623496 31.2 36.318244 31.2 36  C 31.2 35.681756 31.07356 35.376504 30.848528 35.151472  C 30.623496 34.92644 30.318244 34.8 30 34.8  C 29.681756 34.8 29.376504 34.92644 29.151472 35.151472  C 28.92644 35.376504 28.8 35.681756 28.8 36  C 28.8 36.318244 28.92644 36.623496 29.151472 36.848528  C 29.376504 37.07356 29.681756 37.2 30 37.2  z M 42 37.2  C 42.318244 37.2 42.623496 37.07356 42.848528 36.848528  C 43.07356 36.623496 43.2 36.318244 43.2 36  C 43.2 35.681756 43.07356 35.376504 42.848528 35.151472  C 42.623496 34.92644 42.318244 34.8 42 34.8  C 41.681756 34.8 41.376504 34.92644 41.151472 35.151472  C 40.92644 35.376504 40.8 35.681756 40.8 36  C 40.8 36.318244 40.92644 36.623496 41.151472 36.848528  C 41.376504 37.07356 41.681756 37.2 42 37.2  z M 54 37.2  C 54.318244 37.2 54.623496 37.07356 54.848528 36.848528  C 55.07356 36.623496 55.2 36.318244 55.2 36  C 55.2 35.681756 55.07356 35.376504 54.848528 35.151472  C 54.623496 34.92644 54.318244 34.8 54 34.8  C 53.681756 34.8 53.376504 34.92644 53.151472 35.151472  C 52.92644 35.376504 52.8 35.681756 52.8 36  C 52.8 36.318244 52.92644 36.623496 53.151472 36.848528  C 53.376504 37.07356 53.681756 37.2 54 37.2  z M 66 37.2  C 66.318244 37.2 66.623496 37.07356 66.848528 36.848528  C 67.07356 36.623496 67.2 36.318244 67.2 36  C 67.2 35.681756 67.07356 35.376504 66.848528 35.151472  C 66.623496 34.92644 66.318244 34.8 66 34.8  C 65.681756 34.8 65.376504 34.92644 65.151472 35.151472  C 64.92644 35.376504 64.8 35.681756 64.8 36  C 64.8 36.318244 64.92644 36.623496 65.151472 36.848528  C 65.376504 37.07356 65.681756 37.2 66 37.2  z M 0 25.2  C 0.318244 25.2 0.623496 25.07356 0.848528 24.848528  C 1.07356 24.623496 1.2 24.318244 1.2 24  C 1.2 23.681756 1.07356 23.376504 0.848528 23.151472  C 0.623496 22.92644 0.318244 22.8 0 22.8  C -0.318244 22.8 -0.623496 22.92644 -0.848528 23.151472  C -1.07356 23.376504 -1.2 23.681756 -1.2 24  C -1.2 24.318244 -1.07356 24.623496 -0.848528 24.848528  C -0.623496 25.07356 -0.318244 25.2 0 25.2  z M 12 25.2  C 12.318244 25.2 12.623496 25.07356 12.848528 24.848528  C 13.07356 24.623496 13.2 24.318244 13.2 24  C 13.2 23.681756 13.07356 23.376504 12.848528 23.151472  C 12.623496 22.92644 12.318244 22.8 12 22.8  C 11.681756 22.8 11.376504 22.92644 11.151472 23.151472  C 10.92644 23.376504 10.8 23.681756 10.8 24  C 10.8 24.318244 10.92644 24.623496 11.151472 24.848528  C 11.376504 25.07356 11.681756 25.2 12 25.2  z M 24 25.2  C 24.318244 25.2 24.623496 25.07356 24.848528 24.848528  C 25.07356 24.623496 25.2 24.318244 25.2 24  C 25.2 23.681756 25.07356 23.376504 24.848528 23.151472  C 24.623496 22.92644 24.318244 22.8 24 22.8  C 23.681756 22.8 23.376504 22.92644 23.151472 23.151472  C 22.92644 23.376504 22.8 23.681756 22.8 24  C 22.8 24.318244 22.92644 24.623496 23.151472 24.848528  C 23.376504 25.07356 23.681756 25.2 24 25.2  z M 36 25.2  C 36.318244 25.2 36.623496 25.07356 36.848528 24.848528  C 37.07356 24.623496 37.2 24.318244 37.2 24  C 37.2 23.681756 37.07356 23.376504 36.848528 23.151472  C 36.623496 22.92644 36.318244 22.8 36 22.8  C 35.681756 22.8 35.376504 22.92644 35.151472 23.151472  C 34.92644 23.376504 34.8 23.681756 34.8 24  C 34.8 24.318244 34.92644 24.623496 35.151472 24.848528  C 35.376504 25.07356 35.681756 25.2 36 25.2  z M 48 25.2  C 48.318244 25.2 48.623496 25.07356 48.848528 24.848528  C 49.07356 24.623496 49.2 24.318244 49.2 24  C 49.2 23.681756 49.07356 23.376504 48.848528 23.151472  C 48.623496 22.92644 48.318244 22.8 48 22.8  C 47.681756 22.8 47.376504 22.92644 47.151472 23.151472  C 46.92644 23.376504 46.8 23.681756 46.8 24  C 46.8 24.318244 46.92644 24.623496 47.151472 24.848528  C 47.376504 25.07356 47.681756 25.2 48 25.2  z M 60 25.2  C 60.318244 25.2 60.623496 25.07356 60.848528 24.848528  C 61.07356 24.623496 61.2 24.318244 61.2 24  C 61.2 23.681756 61.07356 23.376504 60.848528 23.151472  C 60.623496 22.92644 60.318244 22.8 60 22.8  C 59.681756 22.8 59.376504 22.92644 59.151472 23.151472  C 58.92644 23.376504 58.8 23.681756 58.8 24  C 58.8 24.318244 58.92644 24.623496 59.151472 24.848528  C 59.376504 25.07356 59.681756 25.2 60 25.2  z M 72 25.2  C 72.318244 25.2 72.623496 25.07356 72.848528 24.848528  C 73.07356 24.623496 73.2 24.318244 73.2 24  C 73.2 23.681756 73.07356 23.376504 72.848528 23.151472  C 72.623496 22.92644 72.318244 22.8 72 22.8  C 71.681756 22.8 71.376504 22.92644 71.151472 23.151472  C 70.92644 23.376504 70.8 23.681756 70.8 24  C 70.8 24.318244 70.92644 24.623496 71.151472 24.848528  C 71.376504 25.07356 71.681756 25.2 72 25.2  z M 6 13.2  C 6.318244 13.2 6.623496 13.07356 6.848528 12.848528  C 7.07356 12.623496 7.2 12.318244 7.2 12  C 7.2 11.681756 7.07356 11.376504 6.848528 11.151472  C 6.623496 10.92644 6.318244 10.8 6 10.8  C 5.681756 10.8 5.376504 10.92644 5.151472 11.151472  C 4.92644 11.376504 4.8 11.681756 4.8 12  C 4.8 12.318244 4.92644 12.623496 5.151472 12.848528  C 5.376504 13.07356 5.681756 13.2 6 13.2  z M 18 13.2  C 18.318244 13.2 18.623496 13.07356 18.848528 12.848528  C 19.07356 12.623496 19.2 12.318244 19.2 12  C 19.2 11.681756 19.07356 11.376504 18.848528 11.151472  C 18.623496 10.92644 18.318244 10.8 18 10.8  C 17.681756 10.8 17.376504 10.92644 17.151472 11.151472  C 16.92644 11.376504 16.8 11.681756 16.8 12  C 16.8 12.318244 16.92644 12.623496 17.151472 12.848528  C 17.376504 13.07356 17.681756 13.2 18 13.2  z M 30 13.2  C 30.318244 13.2 30.623496 13.07356 30.848528 12.848528  C 31.07356 12.623496 31.2 12.318244 31.2 12  C 31.2 11.681756 31.07356 11.376504 30.848528 11.151472  C 30.623496 10.92644 30.318244 10.8 30 10.8  C 29.681756 10.8 29.376504 10.92644 29.151472 11.151472  C 28.92644 11.376504 28.8 11.681756 28.8 12  C 28.8 12.318244 28.92644 12.623496 29.151472 12.848528  C 29.376504 13.07356 29.681756 13.2 30 13.2  z M 42 13.2  C 42.318244 13.2 42.623496 13.07356 42.848528 12.848528  C 43.07356 12.623496 43.2 12.318244 43.2 12  C 43.2 11.681756 43.07356 11.376504 42.848528 11.151472  C 42.623496 10.92644 42.318244 10.8 42 10.8  C 41.681756 10.8 41.376504 10.92644 41.151472 11.151472  C 40.92644 11.376504 40.8 11.681756 40.8 12  C 40.8 12.318244 40.92644 12.623496 41.151472 12.848528  C 41.376504 13.07356 41.681756 13.2 42 13.2  z M 54 13.2  C 54.318244 13.2 54.623496 13.07356 54.848528 12.848528  C 55.07356 12.623496 55.2 12.318244 55.2 12  C 55.2 11.681756 55.07356 11.376504 54.848528 11.151472  C 54.623496 10.92644 54.318244 10.8 54 10.8  C 53.681756 10.8 53.376504 10.92644 53.151472 11.151472  C 52.92644 11.376504 52.8 11.681756 52.8 12  C 52.8 12.318244 52.92644 12.623496 53.151472 12.848528  C 53.376504 13.07356 53.681756 13.2 54 13.2  z M 66 13.2  C 66.318244 13.2 66.623496 13.07356 66.848528 12.848528  C 67.07356 12.623496 67.2 12.318244 67.2 12  C 67.2 11.681756 67.07356 11.376504 66.848528 11.151472  C 66.623496 10.92644 66.318244 10.8 66 10.8  C 65.681756 10.8 65.376504 10.92644 65.151472 11.151472  C 64.92644 11.376504 64.8 11.681756 64.8 12  C 64.8 12.318244 64.92644 12.623496 65.151472 12.848528  C 65.376504 13.07356 65.681756 13.2 66 13.2  z M 0 1.2  C 0.318244 1.2 0.623496 1.07356 0.848528 0.848528  C 1.07356 0.623496 1.2 0.318244 1.2 0  C 1.2 -0.318244 1.07356 -0.623496 0.848528 -0.848528  C 0.623496 -1.07356 0.318244 -1.2 0 -1.2  C -0.318244 -1.2 -0.623496 -1.07356 -0.848528 -0.848528  C -1.07356 -0.623496 -1.2 -0.318244 -1.2 0  C -1.2 0.318244 -1.07356 0.623496 -0.848528 0.848528  C -0.623496 1.07356 -0.318244 1.2 0 1.2  z M 12 1.2  C 12.318244 1.2 12.623496 1.07356 12.848528 0.848528  C 13.07356 0.623496 13.2 0.318244 13.2 0  C 13.2 -0.318244 13.07356 -0.623496 12.848528 -0.848528  C 12.623496 -1.07356 12.318244 -1.2 12 -1.2  C 11.681756 -1.2 11.376504 -1.07356 11.151472 -0.848528  C 10.92644 -0.623496 10.8 -0.318244 10.8 0  C 10.8 0.318244 10.92644 0.623496 11.151472 0.848528  C 11.376504 1.07356 11.681756 1.2 12 1.2  z M 24 1.2  C 24.318244 1.2 24.623496 1.07356 24.848528 0.848528  C 25.07356 0.623496 25.2 0.318244 25.2 0  C 25.2 -0.318244 25.07356 -0.623496 24.848528 -0.848528  C 24.623496 -1.07356 24.318244 -1.2 24 -1.2  C 23.681756 -1.2 23.376504 -1.07356 23.151472 -0.848528  C 22.92644 -0.623496 22.8 -0.318244 22.8 0  C 22.8 0.318244 22.92644 0.623496 23.151472 0.848528  C 23.376504 1.07356 23.681756 1.2 24 1.2  z M 36 1.2  C 36.318244 1.2 36.623496 1.07356 36.848528 0.848528  C 37.07356 0.623496 37.2 0.318244 37.2 0  C 37.2 -0.318244 37.07356 -0.623496 36.848528 -0.848528  C 36.623496 -1.07356 36.318244 -1.2 36 -1.2  C 35.681756 -1.2 35.376504 -1.07356 35.151472 -0.848528  C 34.92644 -0.623496 34.8 -0.318244 34.8 0  C 34.8 0.318244 34.92644 0.623496 35.151472 0.848528  C 35.376504 1.07356 35.681756 1.2 36 1.2  z M 48 1.2  C 48.318244 1.2 48.623496 1.07356 48.848528 0.848528  C 49.07356 0.623496 49.2 0.318244 49.2 0  C 49.2 -0.318244 49.07356 -0.623496 48.848528 -0.848528  C 48.623496 -1.07356 48.318244 -1.2 48 -1.2  C 47.681756 -1.2 47.376504 -1.07356 47.151472 -0.848528  C 46.92644 -0.623496 46.8 -0.318244 46.8 0  C 46.8 0.318244 46.92644 0.623496 47.151472 0.848528  C 47.376504 1.07356 47.681756 1.2 48 1.2  z M 60 1.2  C 60.318244 1.2 60.623496 1.07356 60.848528 0.848528  C 61.07356 0.623496 61.2 0.318244 61.2 0  C 61.2 -0.318244 61.07356 -0.623496 60.848528 -0.848528  C 60.623496 -1.07356 60.318244 -1.2 60 -1.2  C 59.681756 -1.2 59.376504 -1.07356 59.151472 -0.848528  C 58.92644 -0.623496 58.8 -0.318244 58.8 0  C 58.8 0.318244 58.92644 0.623496 59.151472 0.848528  C 59.376504 1.07356 59.681756 1.2 60 1.2  z M 72 1.2  C 72.318244 1.2 72.623496 1.07356 72.848528 0.848528  C 73.07356 0.623496 73.2 0.318244 73.2 0  C 73.2 -0.318244 73.07356 -0.623496 72.848528 -0.848528  C 72.623496 -1.07356 72.318244 -1.2 72 -1.2  C 71.681756 -1.2 71.376504 -1.07356 71.151472 -0.848528  C 70.92644 -0.623496 70.8 -0.318244 70.8 0  C 70.8 0.318244 70.92644 0.623496 71.151472 0.848528  C 71.376504 1.07356 71.681756 1.2 72 1.2  z "
         style="fill:#000000;stroke:#000000;stroke-linecap:butt;stroke-linejoin:miter;stroke-width:1.0;"
         id="path204" />
    </pattern>
  </defs>
</svg>
