<?xml version="1.0" encoding="utf-8" standalone="no"?>
<!DOCTYPE svg PUBLIC "-//W3C//DTD SVG 1.1//EN"
  "http://www.w3.org/Graphics/SVG/1.1/DTD/svg11.dtd">
<!-- Created with matplotlib (http://matplotlib.org/) -->
<svg height="432pt" version="1.1" viewBox="0 0 576 432" width="576pt" xmlns="http://www.w3.org/2000/svg" xmlns:xlink="http://www.w3.org/1999/xlink">
 <defs>
  <style type="text/css">
*{stroke-linecap:butt;stroke-linejoin:round;}
  </style>
 </defs>
 <g id="figure_1">
  <g id="patch_1">
   <path d="M 0 432 
L 576 432 
L 576 0 
L 0 0 
z
" style="fill:#ffffff;"/>
  </g>
  <g id="axes_1">
   <g id="patch_2">
    <path d="M 72 149.675294 
L 518.4 149.675294 
L 518.4 51.84 
L 72 51.84 
z
" style="fill:#ffffff;"/>
   </g>
   <g id="matplotlib.axis_1">
    <g id="xtick_1">
     <g id="line2d_1">
      <path clip-path="url(#pd6d40fdd81)" d="M 173.454545 149.675294 
L 173.454545 51.84 
" style="fill:none;stroke:#b0b0b0;stroke-dasharray:1,1.65;stroke-dashoffset:0;"/>
     </g>
     <g id="line2d_2">
      <defs>
       <path d="M 0 0 
L 0 3.5 
" id="m341e94e3c5" style="stroke:#000000;stroke-width:0.8;"/>
      </defs>
      <g>
       <use style="stroke:#000000;stroke-width:0.8;" x="173.454545" xlink:href="#m341e94e3c5" y="149.675294"/>
      </g>
     </g>
    </g>
    <g id="xtick_2">
     <g id="line2d_3">
      <path clip-path="url(#pd6d40fdd81)" d="M 254.618182 149.675294 
L 254.618182 51.84 
" style="fill:none;stroke:#b0b0b0;stroke-dasharray:1,1.65;stroke-dashoffset:0;"/>
     </g>
     <g id="line2d_4">
      <g>
       <use style="stroke:#000000;stroke-width:0.8;" x="254.618182" xlink:href="#m341e94e3c5" y="149.675294"/>
      </g>
     </g>
    </g>
    <g id="xtick_3">
     <g id="line2d_5">
      <path clip-path="url(#pd6d40fdd81)" d="M 335.781818 149.675294 
L 335.781818 51.84 
" style="fill:none;stroke:#b0b0b0;stroke-dasharray:1,1.65;stroke-dashoffset:0;"/>
     </g>
     <g id="line2d_6">
      <g>
       <use style="stroke:#000000;stroke-width:0.8;" x="335.781818" xlink:href="#m341e94e3c5" y="149.675294"/>
      </g>
     </g>
    </g>
    <g id="xtick_4">
     <g id="line2d_7">
      <path clip-path="url(#pd6d40fdd81)" d="M 416.945455 149.675294 
L 416.945455 51.84 
" style="fill:none;stroke:#b0b0b0;stroke-dasharray:1,1.65;stroke-dashoffset:0;"/>
     </g>
     <g id="line2d_8">
      <g>
       <use style="stroke:#000000;stroke-width:0.8;" x="416.945455" xlink:href="#m341e94e3c5" y="149.675294"/>
      </g>
     </g>
    </g>
    <g id="xtick_5">
     <g id="line2d_9">
      <path clip-path="url(#pd6d40fdd81)" d="M 498.109091 149.675294 
L 498.109091 51.84 
" style="fill:none;stroke:#b0b0b0;stroke-dasharray:1,1.65;stroke-dashoffset:0;"/>
     </g>
     <g id="line2d_10">
      <g>
       <use style="stroke:#000000;stroke-width:0.8;" x="498.109091" xlink:href="#m341e94e3c5" y="149.675294"/>
      </g>
     </g>
    </g>
   </g>
   <g id="matplotlib.axis_2">
    <g id="ytick_1">
     <g id="line2d_11">
      <path clip-path="url(#pd6d40fdd81)" d="M 72 148.799638 
L 518.4 148.799638 
" style="fill:none;stroke:#b0b0b0;stroke-dasharray:1,1.65;stroke-dashoffset:0;"/>
     </g>
     <g id="line2d_12">
      <defs>
       <path d="M 0 0 
L -3.5 0 
" id="ma01c392cbe" style="stroke:#000000;stroke-width:0.8;"/>
      </defs>
      <g>
       <use style="stroke:#000000;stroke-width:0.8;" x="72" xlink:href="#ma01c392cbe" y="148.799638"/>
      </g>
     </g>
     <g id="text_1">
      <!-- −2000 -->
      <defs>
       <path d="M 54.4375 31.25 
L 1.8125 31.25 
L 1.8125 35.25 
L 54.4375 35.25 
z
" id="TimesNewRomanPSMT-2212"/>
       <path d="M 45.84375 12.75 
L 41.21875 0 
L 2.15625 0 
L 2.15625 1.8125 
Q 19.390625 17.53125 26.421875 27.484375 
Q 33.453125 37.453125 33.453125 45.703125 
Q 33.453125 52 29.59375 56.046875 
Q 25.734375 60.109375 20.359375 60.109375 
Q 15.484375 60.109375 11.59375 57.25 
Q 7.71875 54.390625 5.859375 48.875 
L 4.046875 48.875 
Q 5.28125 57.90625 10.328125 62.734375 
Q 15.375 67.578125 22.953125 67.578125 
Q 31 67.578125 36.390625 62.40625 
Q 41.796875 57.234375 41.796875 50.203125 
Q 41.796875 45.171875 39.453125 40.140625 
Q 35.84375 32.234375 27.734375 23.390625 
Q 15.578125 10.109375 12.546875 7.375 
L 29.828125 7.375 
Q 35.109375 7.375 37.234375 7.765625 
Q 39.359375 8.15625 41.0625 9.34375 
Q 42.78125 10.546875 44.046875 12.75 
z
" id="TimesNewRomanPSMT-32"/>
       <path d="M 3.609375 32.71875 
Q 3.609375 44.046875 7.03125 52.21875 
Q 10.453125 60.40625 16.109375 64.40625 
Q 20.515625 67.578125 25.203125 67.578125 
Q 32.8125 67.578125 38.875 59.8125 
Q 46.4375 50.203125 46.4375 33.734375 
Q 46.4375 22.21875 43.109375 14.15625 
Q 39.796875 6.109375 34.640625 2.46875 
Q 29.5 -1.171875 24.703125 -1.171875 
Q 15.234375 -1.171875 8.9375 10.015625 
Q 3.609375 19.4375 3.609375 32.71875 
z
M 13.1875 31.5 
Q 13.1875 17.828125 16.546875 9.1875 
Q 19.34375 1.90625 24.859375 1.90625 
Q 27.484375 1.90625 30.3125 4.265625 
Q 33.15625 6.640625 34.625 12.203125 
Q 36.859375 20.609375 36.859375 35.890625 
Q 36.859375 47.21875 34.515625 54.78125 
Q 32.765625 60.40625 29.984375 62.75 
Q 27.984375 64.359375 25.140625 64.359375 
Q 21.828125 64.359375 19.234375 61.375 
Q 15.71875 57.328125 14.453125 48.625 
Q 13.1875 39.9375 13.1875 31.5 
z
" id="TimesNewRomanPSMT-30"/>
      </defs>
      <g transform="translate(34.233125 152.965888)scale(0.12 -0.12)">
       <use xlink:href="#TimesNewRomanPSMT-2212"/>
       <use x="56.396484" xlink:href="#TimesNewRomanPSMT-32"/>
       <use x="106.396484" xlink:href="#TimesNewRomanPSMT-30"/>
       <use x="156.396484" xlink:href="#TimesNewRomanPSMT-30"/>
       <use x="206.396484" xlink:href="#TimesNewRomanPSMT-30"/>
      </g>
     </g>
    </g>
    <g id="ytick_2">
     <g id="line2d_13">
      <path clip-path="url(#pd6d40fdd81)" d="M 72 117.305994 
L 518.4 117.305994 
" style="fill:none;stroke:#b0b0b0;stroke-dasharray:1,1.65;stroke-dashoffset:0;"/>
     </g>
     <g id="line2d_14">
      <g>
       <use style="stroke:#000000;stroke-width:0.8;" x="72" xlink:href="#ma01c392cbe" y="117.305994"/>
      </g>
     </g>
     <g id="text_2">
      <!-- −1000 -->
      <defs>
       <path d="M 11.71875 59.71875 
L 27.828125 67.578125 
L 29.4375 67.578125 
L 29.4375 11.671875 
Q 29.4375 6.109375 29.90625 4.734375 
Q 30.375 3.375 31.828125 2.640625 
Q 33.296875 1.90625 37.796875 1.8125 
L 37.796875 0 
L 12.890625 0 
L 12.890625 1.8125 
Q 17.578125 1.90625 18.9375 2.609375 
Q 20.3125 3.328125 20.84375 4.515625 
Q 21.390625 5.71875 21.390625 11.671875 
L 21.390625 47.40625 
Q 21.390625 54.640625 20.90625 56.6875 
Q 20.5625 58.25 19.65625 58.984375 
Q 18.75 59.71875 17.484375 59.71875 
Q 15.671875 59.71875 12.453125 58.203125 
z
" id="TimesNewRomanPSMT-31"/>
      </defs>
      <g transform="translate(34.233125 121.472244)scale(0.12 -0.12)">
       <use xlink:href="#TimesNewRomanPSMT-2212"/>
       <use x="56.396484" xlink:href="#TimesNewRomanPSMT-31"/>
       <use x="106.396484" xlink:href="#TimesNewRomanPSMT-30"/>
       <use x="156.396484" xlink:href="#TimesNewRomanPSMT-30"/>
       <use x="206.396484" xlink:href="#TimesNewRomanPSMT-30"/>
      </g>
     </g>
    </g>
    <g id="ytick_3">
     <g id="line2d_15">
      <path clip-path="url(#pd6d40fdd81)" d="M 72 85.81235 
L 518.4 85.81235 
" style="fill:none;stroke:#b0b0b0;stroke-dasharray:1,1.65;stroke-dashoffset:0;"/>
     </g>
     <g id="line2d_16">
      <g>
       <use style="stroke:#000000;stroke-width:0.8;" x="72" xlink:href="#ma01c392cbe" y="85.81235"/>
      </g>
     </g>
     <g id="text_3">
      <!-- 0 -->
      <g transform="translate(59 89.9786)scale(0.12 -0.12)">
       <use xlink:href="#TimesNewRomanPSMT-30"/>
      </g>
     </g>
    </g>
    <g id="ytick_4">
     <g id="line2d_17">
      <path clip-path="url(#pd6d40fdd81)" d="M 72 54.318706 
L 518.4 54.318706 
" style="fill:none;stroke:#b0b0b0;stroke-dasharray:1,1.65;stroke-dashoffset:0;"/>
     </g>
     <g id="line2d_18">
      <g>
       <use style="stroke:#000000;stroke-width:0.8;" x="72" xlink:href="#ma01c392cbe" y="54.318706"/>
      </g>
     </g>
     <g id="text_4">
      <!-- 1000 -->
      <g transform="translate(41 58.484956)scale(0.12 -0.12)">
       <use xlink:href="#TimesNewRomanPSMT-31"/>
       <use x="50" xlink:href="#TimesNewRomanPSMT-30"/>
       <use x="100" xlink:href="#TimesNewRomanPSMT-30"/>
       <use x="150" xlink:href="#TimesNewRomanPSMT-30"/>
      </g>
     </g>
    </g>
    <g id="text_5">
     <!-- Current[A] -->
     <defs>
      <path d="M 60.203125 67.71875 
L 61.71875 45.21875 
L 60.203125 45.21875 
Q 57.171875 55.328125 51.5625 59.765625 
Q 45.953125 64.203125 38.09375 64.203125 
Q 31.5 64.203125 26.171875 60.859375 
Q 20.84375 57.515625 17.796875 50.1875 
Q 14.75 42.875 14.75 31.984375 
Q 14.75 23 17.625 16.40625 
Q 20.515625 9.8125 26.296875 6.296875 
Q 32.078125 2.78125 39.5 2.78125 
Q 45.953125 2.78125 50.875 5.53125 
Q 55.8125 8.296875 61.71875 16.5 
L 63.234375 15.53125 
Q 58.25 6.6875 51.609375 2.578125 
Q 44.96875 -1.515625 35.84375 -1.515625 
Q 19.390625 -1.515625 10.359375 10.6875 
Q 3.609375 19.78125 3.609375 32.078125 
Q 3.609375 42 8.046875 50.296875 
Q 12.5 58.59375 20.28125 63.15625 
Q 28.078125 67.71875 37.3125 67.71875 
Q 44.484375 67.71875 51.46875 64.203125 
Q 53.515625 63.140625 54.390625 63.140625 
Q 55.71875 63.140625 56.6875 64.0625 
Q 57.953125 65.375 58.5 67.71875 
z
" id="TimesNewRomanPSMT-43"/>
      <path d="M 42.328125 44.734375 
L 42.328125 17.625 
Q 42.328125 9.859375 42.6875 8.125 
Q 43.0625 6.390625 43.859375 5.703125 
Q 44.671875 5.03125 45.75 5.03125 
Q 47.265625 5.03125 49.171875 5.859375 
L 49.859375 4.15625 
L 36.46875 -1.375 
L 34.28125 -1.375 
L 34.28125 8.109375 
Q 28.515625 1.859375 25.484375 0.234375 
Q 22.46875 -1.375 19.09375 -1.375 
Q 15.328125 -1.375 12.5625 0.796875 
Q 9.8125 2.984375 8.734375 6.390625 
Q 7.671875 9.8125 7.671875 16.0625 
L 7.671875 36.03125 
Q 7.671875 39.203125 6.984375 40.421875 
Q 6.296875 41.65625 4.953125 42.3125 
Q 3.609375 42.96875 0.09375 42.921875 
L 0.09375 44.734375 
L 15.765625 44.734375 
L 15.765625 14.796875 
Q 15.765625 8.546875 17.9375 6.59375 
Q 20.125 4.640625 23.1875 4.640625 
Q 25.296875 4.640625 27.953125 5.953125 
Q 30.609375 7.28125 34.28125 10.984375 
L 34.28125 36.328125 
Q 34.28125 40.140625 32.890625 41.484375 
Q 31.5 42.828125 27.09375 42.921875 
L 27.09375 44.734375 
z
" id="TimesNewRomanPSMT-75"/>
      <path d="M 16.21875 46.046875 
L 16.21875 35.984375 
Q 21.828125 46.046875 27.734375 46.046875 
Q 30.421875 46.046875 32.171875 44.40625 
Q 33.9375 42.78125 33.9375 40.625 
Q 33.9375 38.71875 32.65625 37.390625 
Q 31.390625 36.078125 29.640625 36.078125 
Q 27.9375 36.078125 25.8125 37.765625 
Q 23.6875 39.453125 22.65625 39.453125 
Q 21.78125 39.453125 20.75 38.484375 
Q 18.5625 36.46875 16.21875 31.890625 
L 16.21875 10.453125 
Q 16.21875 6.734375 17.140625 4.828125 
Q 17.78125 3.515625 19.390625 2.640625 
Q 21 1.765625 24.03125 1.765625 
L 24.03125 0 
L 1.125 0 
L 1.125 1.765625 
Q 4.546875 1.765625 6.203125 2.828125 
Q 7.421875 3.609375 7.90625 5.328125 
Q 8.15625 6.15625 8.15625 10.0625 
L 8.15625 27.390625 
Q 8.15625 35.203125 7.828125 36.6875 
Q 7.515625 38.1875 6.65625 38.859375 
Q 5.8125 39.546875 4.546875 39.546875 
Q 3.03125 39.546875 1.125 38.8125 
L 0.640625 40.578125 
L 14.15625 46.046875 
z
" id="TimesNewRomanPSMT-72"/>
      <path d="M 10.640625 27.875 
Q 10.59375 17.921875 15.484375 12.25 
Q 20.359375 6.59375 26.953125 6.59375 
Q 31.34375 6.59375 34.59375 9 
Q 37.84375 11.421875 40.046875 17.28125 
L 41.546875 16.3125 
Q 40.53125 9.625 35.59375 4.125 
Q 30.671875 -1.375 23.25 -1.375 
Q 15.1875 -1.375 9.453125 4.90625 
Q 3.71875 11.1875 3.71875 21.78125 
Q 3.71875 33.25 9.59375 39.671875 
Q 15.484375 46.09375 24.359375 46.09375 
Q 31.890625 46.09375 36.71875 41.140625 
Q 41.546875 36.1875 41.546875 27.875 
z
M 10.640625 30.71875 
L 31.34375 30.71875 
Q 31.109375 35.015625 30.328125 36.765625 
Q 29.109375 39.5 26.6875 41.0625 
Q 24.265625 42.625 21.625 42.625 
Q 17.578125 42.625 14.375 39.46875 
Q 11.1875 36.328125 10.640625 30.71875 
z
" id="TimesNewRomanPSMT-65"/>
      <path d="M 16.15625 36.578125 
Q 24.03125 46.046875 31.15625 46.046875 
Q 34.8125 46.046875 37.453125 44.21875 
Q 40.09375 42.390625 41.65625 38.1875 
Q 42.71875 35.25 42.71875 29.203125 
L 42.71875 10.109375 
Q 42.71875 5.859375 43.40625 4.34375 
Q 43.953125 3.125 45.140625 2.4375 
Q 46.34375 1.765625 49.5625 1.765625 
L 49.5625 0 
L 27.4375 0 
L 27.4375 1.765625 
L 28.375 1.765625 
Q 31.5 1.765625 32.734375 2.703125 
Q 33.984375 3.65625 34.46875 5.515625 
Q 34.671875 6.25 34.671875 10.109375 
L 34.671875 28.421875 
Q 34.671875 34.515625 33.078125 37.28125 
Q 31.5 40.046875 27.734375 40.046875 
Q 21.921875 40.046875 16.15625 33.6875 
L 16.15625 10.109375 
Q 16.15625 5.5625 16.703125 4.5 
Q 17.390625 3.078125 18.578125 2.421875 
Q 19.78125 1.765625 23.4375 1.765625 
L 23.4375 0 
L 1.3125 0 
L 1.3125 1.765625 
L 2.296875 1.765625 
Q 5.71875 1.765625 6.90625 3.484375 
Q 8.109375 5.21875 8.109375 10.109375 
L 8.109375 26.703125 
Q 8.109375 34.765625 7.734375 36.515625 
Q 7.375 38.28125 6.609375 38.90625 
Q 5.859375 39.546875 4.59375 39.546875 
Q 3.21875 39.546875 1.3125 38.8125 
L 0.59375 40.578125 
L 14.0625 46.046875 
L 16.15625 46.046875 
z
" id="TimesNewRomanPSMT-6e"/>
      <path d="M 16.109375 59.421875 
L 16.109375 44.734375 
L 26.5625 44.734375 
L 26.5625 41.3125 
L 16.109375 41.3125 
L 16.109375 12.3125 
Q 16.109375 7.953125 17.359375 6.4375 
Q 18.609375 4.9375 20.5625 4.9375 
Q 22.171875 4.9375 23.6875 5.9375 
Q 25.203125 6.9375 26.03125 8.890625 
L 27.9375 8.890625 
Q 26.21875 4.109375 23.09375 1.6875 
Q 19.96875 -0.734375 16.65625 -0.734375 
Q 14.40625 -0.734375 12.25 0.515625 
Q 10.109375 1.765625 9.078125 4.078125 
Q 8.0625 6.390625 8.0625 11.234375 
L 8.0625 41.3125 
L 0.984375 41.3125 
L 0.984375 42.921875 
Q 3.65625 44 6.46875 46.5625 
Q 9.28125 49.125 11.46875 52.640625 
Q 12.59375 54.5 14.59375 59.421875 
z
" id="TimesNewRomanPSMT-74"/>
      <path d="M 29.6875 -19.828125 
L 8.203125 -19.828125 
L 8.203125 67.71875 
L 29.6875 67.71875 
L 29.6875 63.875 
L 15.53125 63.875 
L 15.53125 -16.015625 
L 29.6875 -16.015625 
z
" id="TimesNewRomanPSMT-5b"/>
      <path d="M 45.75 22.171875 
L 20.125 22.171875 
L 15.625 11.71875 
Q 13.96875 7.859375 13.96875 5.953125 
Q 13.96875 4.4375 15.40625 3.296875 
Q 16.84375 2.15625 21.625 1.8125 
L 21.625 0 
L 0.78125 0 
L 0.78125 1.8125 
Q 4.9375 2.546875 6.15625 3.71875 
Q 8.640625 6.0625 11.671875 13.234375 
L 34.96875 67.71875 
L 36.671875 67.71875 
L 59.71875 12.640625 
Q 62.5 6 64.765625 4.015625 
Q 67.046875 2.046875 71.09375 1.8125 
L 71.09375 0 
L 44.96875 0 
L 44.96875 1.8125 
Q 48.921875 2 50.3125 3.125 
Q 51.703125 4.25 51.703125 5.859375 
Q 51.703125 8.015625 49.75 12.640625 
z
M 44.390625 25.78125 
L 33.15625 52.546875 
L 21.625 25.78125 
z
" id="TimesNewRomanPSMT-41"/>
      <path d="M 3.65625 67.71875 
L 25.140625 67.71875 
L 25.140625 -19.875 
L 3.65625 -19.875 
L 3.65625 -16.015625 
L 17.828125 -16.015625 
L 17.828125 63.875 
L 3.65625 63.875 
z
" id="TimesNewRomanPSMT-5d"/>
     </defs>
     <g transform="translate(27.66625 127.414522)rotate(-90)scale(0.12 -0.12)">
      <use xlink:href="#TimesNewRomanPSMT-43"/>
      <use x="66.699219" xlink:href="#TimesNewRomanPSMT-75"/>
      <use x="116.699219" xlink:href="#TimesNewRomanPSMT-72"/>
      <use x="150" xlink:href="#TimesNewRomanPSMT-72"/>
      <use x="183.300781" xlink:href="#TimesNewRomanPSMT-65"/>
      <use x="227.685547" xlink:href="#TimesNewRomanPSMT-6e"/>
      <use x="277.685547" xlink:href="#TimesNewRomanPSMT-74"/>
      <use x="305.46875" xlink:href="#TimesNewRomanPSMT-5b"/>
      <use x="338.769531" xlink:href="#TimesNewRomanPSMT-41"/>
      <use x="410.986328" xlink:href="#TimesNewRomanPSMT-5d"/>
     </g>
    </g>
   </g>
   <g id="line2d_19">
    <path clip-path="url(#pd6d40fdd81)" d="M 92.290909 95.210764 
L 173.454545 95.782193 
L 176.16 92.750428 
L 184.276364 89.637482 
L 186.981818 88.806194 
L 314.138182 88.424503 
L 357.425455 88.033719 
L 392.596364 87.496266 
L 416.945455 86.952706 
L 419.650909 143.493505 
L 433.178182 144.916667 
L 452.116364 145.180508 
L 462.938182 144.989599 
L 465.643636 115.389405 
L 484.581818 114.362385 
L 498.109091 113.373241 
L 498.109091 113.373241 
" style="fill:none;stroke:#000000;stroke-dasharray:6,10,2,10,2,10;stroke-dashoffset:0;stroke-opacity:0.8;stroke-width:2;"/>
    <defs>
     <path d="M 0 6 
C 1.591219 6 3.117479 5.367802 4.242641 4.242641 
C 5.367802 3.117479 6 1.591219 6 0 
C 6 -1.591219 5.367802 -3.117479 4.242641 -4.242641 
C 3.117479 -5.367802 1.591219 -6 0 -6 
C -1.591219 -6 -3.117479 -5.367802 -4.242641 -4.242641 
C -5.367802 -3.117479 -6 -1.591219 -6 0 
C -6 1.591219 -5.367802 3.117479 -4.242641 4.242641 
C -3.117479 5.367802 -1.591219 6 0 6 
z
" id="m9925628122" style="stroke:#000000;stroke-opacity:0.8;"/>
    </defs>
    <g clip-path="url(#pd6d40fdd81)">
     <use style="fill-opacity:0;stroke:#000000;stroke-opacity:0.8;" x="92.290909" xlink:href="#m9925628122" y="95.210764"/>
     <use style="fill-opacity:0;stroke:#000000;stroke-opacity:0.8;" x="140.989091" xlink:href="#m9925628122" y="95.536852"/>
     <use style="fill-opacity:0;stroke:#000000;stroke-opacity:0.8;" x="189.687273" xlink:href="#m9925628122" y="88.800343"/>
     <use style="fill-opacity:0;stroke:#000000;stroke-opacity:0.8;" x="238.385455" xlink:href="#m9925628122" y="88.690884"/>
     <use style="fill-opacity:0;stroke:#000000;stroke-opacity:0.8;" x="287.083636" xlink:href="#m9925628122" y="88.581078"/>
     <use style="fill-opacity:0;stroke:#000000;stroke-opacity:0.8;" x="335.781818" xlink:href="#m9925628122" y="88.260267"/>
     <use style="fill-opacity:0;stroke:#000000;stroke-opacity:0.8;" x="384.48" xlink:href="#m9925628122" y="87.651795"/>
     <use style="fill-opacity:0;stroke:#000000;stroke-opacity:0.8;" x="433.178182" xlink:href="#m9925628122" y="144.916667"/>
     <use style="fill-opacity:0;stroke:#000000;stroke-opacity:0.8;" x="481.876364" xlink:href="#m9925628122" y="114.560213"/>
    </g>
   </g>
   <g id="line2d_20">
    <path clip-path="url(#pd6d40fdd81)" d="M 92.290909 113.794714 
L 203.214545 112.980092 
L 243.796364 112.714888 
L 284.378182 112.595257 
L 316.843636 112.255552 
L 416.945455 111.051899 
L 498.109091 109.941191 
L 498.109091 109.941191 
" style="fill:none;stroke:#000000;stroke-dasharray:4,2;stroke-dashoffset:0;stroke-opacity:0.8;stroke-width:2;"/>
    <defs>
     <path d="M 0 3.5 
C 0.928211 3.5 1.81853 3.131218 2.474874 2.474874 
C 3.131218 1.81853 3.5 0.928211 3.5 0 
C 3.5 -0.928211 3.131218 -1.81853 2.474874 -2.474874 
C 1.81853 -3.131218 0.928211 -3.5 0 -3.5 
C -0.928211 -3.5 -1.81853 -3.131218 -2.474874 -2.474874 
C -3.131218 -1.81853 -3.5 -0.928211 -3.5 0 
C -3.5 0.928211 -3.131218 1.81853 -2.474874 2.474874 
C -1.81853 3.131218 -0.928211 3.5 0 3.5 
z
" id="m763b50f31a" style="stroke:#000000;stroke-opacity:0.8;"/>
    </defs>
    <g clip-path="url(#pd6d40fdd81)">
     <use style="fill-opacity:0.8;stroke:#000000;stroke-opacity:0.8;" x="92.290909" xlink:href="#m763b50f31a" y="113.794714"/>
     <use style="fill-opacity:0.8;stroke:#000000;stroke-opacity:0.8;" x="140.989091" xlink:href="#m763b50f31a" y="113.468527"/>
     <use style="fill-opacity:0.8;stroke:#000000;stroke-opacity:0.8;" x="189.687273" xlink:href="#m763b50f31a" y="113.091886"/>
     <use style="fill-opacity:0.8;stroke:#000000;stroke-opacity:0.8;" x="238.385455" xlink:href="#m763b50f31a" y="112.71812"/>
     <use style="fill-opacity:0.8;stroke:#000000;stroke-opacity:0.8;" x="287.083636" xlink:href="#m763b50f31a" y="112.575943"/>
     <use style="fill-opacity:0.8;stroke:#000000;stroke-opacity:0.8;" x="335.781818" xlink:href="#m763b50f31a" y="112.043015"/>
     <use style="fill-opacity:0.8;stroke:#000000;stroke-opacity:0.8;" x="384.48" xlink:href="#m763b50f31a" y="111.463335"/>
     <use style="fill-opacity:0.8;stroke:#000000;stroke-opacity:0.8;" x="433.178182" xlink:href="#m763b50f31a" y="110.838944"/>
     <use style="fill-opacity:0.8;stroke:#000000;stroke-opacity:0.8;" x="481.876364" xlink:href="#m763b50f31a" y="110.172303"/>
    </g>
   </g>
   <g id="line2d_21">
    <path clip-path="url(#pd6d40fdd81)" d="M 92.290909 85.81235 
L 173.454545 85.81235 
L 176.16 86.135775 
L 214.036364 86.638326 
L 281.672727 87.891691 
L 295.2 88.437788 
L 311.432727 89.277789 
L 324.96 90.146588 
L 341.192727 91.455297 
L 354.72 92.80214 
L 370.952727 94.84919 
L 384.48 96.929658 
L 400.712727 100.102855 
L 416.945455 104.116774 
L 419.650909 56.287059 
L 462.938182 56.287059 
L 465.643636 85.81235 
L 498.109091 85.81235 
L 498.109091 85.81235 
" style="fill:none;stroke:#000000;stroke-dasharray:8,8;stroke-dashoffset:0;stroke-opacity:0.8;stroke-width:2;"/>
    <defs>
     <path d="M -0 6 
L 6 -6 
L -6 -6 
z
" id="mc5f23dc062" style="stroke:#000000;stroke-linejoin:miter;stroke-opacity:0.8;"/>
    </defs>
    <g clip-path="url(#pd6d40fdd81)">
     <use style="fill-opacity:0;stroke:#000000;stroke-linejoin:miter;stroke-opacity:0.8;" x="97.701818" xlink:href="#mc5f23dc062" y="85.81235"/>
     <use style="fill-opacity:0;stroke:#000000;stroke-linejoin:miter;stroke-opacity:0.8;" x="146.4" xlink:href="#mc5f23dc062" y="85.81235"/>
     <use style="fill-opacity:0;stroke:#000000;stroke-linejoin:miter;stroke-opacity:0.8;" x="195.098182" xlink:href="#mc5f23dc062" y="86.355679"/>
     <use style="fill-opacity:0;stroke:#000000;stroke-linejoin:miter;stroke-opacity:0.8;" x="243.796364" xlink:href="#mc5f23dc062" y="87.103048"/>
     <use style="fill-opacity:0;stroke:#000000;stroke-linejoin:miter;stroke-opacity:0.8;" x="292.494545" xlink:href="#mc5f23dc062" y="88.314324"/>
     <use style="fill-opacity:0;stroke:#000000;stroke-linejoin:miter;stroke-opacity:0.8;" x="341.192727" xlink:href="#mc5f23dc062" y="91.455297"/>
     <use style="fill-opacity:0;stroke:#000000;stroke-linejoin:miter;stroke-opacity:0.8;" x="389.890909" xlink:href="#mc5f23dc062" y="97.987391"/>
     <use style="fill-opacity:0;stroke:#000000;stroke-linejoin:miter;stroke-opacity:0.8;" x="438.589091" xlink:href="#mc5f23dc062" y="56.287059"/>
     <use style="fill-opacity:0;stroke:#000000;stroke-linejoin:miter;stroke-opacity:0.8;" x="487.287273" xlink:href="#mc5f23dc062" y="85.81235"/>
    </g>
   </g>
   <g id="patch_3">
    <path d="M 72 149.675294 
L 72 51.84 
" style="fill:none;stroke:#000000;stroke-linecap:square;stroke-linejoin:miter;stroke-width:0.8;"/>
   </g>
   <g id="patch_4">
    <path d="M 518.4 149.675294 
L 518.4 51.84 
" style="fill:none;stroke:#000000;stroke-linecap:square;stroke-linejoin:miter;stroke-width:0.8;"/>
   </g>
   <g id="patch_5">
    <path d="M 72 149.675294 
L 518.4 149.675294 
" style="fill:none;stroke:#000000;stroke-linecap:square;stroke-linejoin:miter;stroke-width:0.8;"/>
   </g>
   <g id="patch_6">
    <path d="M 72 51.84 
L 518.4 51.84 
" style="fill:none;stroke:#000000;stroke-linecap:square;stroke-linejoin:miter;stroke-width:0.8;"/>
   </g>
   <g id="legend_1">
    <g id="patch_7">
     <path d="M 449.5875 112.340625 
L 510 112.340625 
Q 512.4 112.340625 512.4 109.940625 
L 512.4 60.24 
Q 512.4 57.84 510 57.84 
L 449.5875 57.84 
Q 447.1875 57.84 447.1875 60.24 
L 447.1875 109.940625 
Q 447.1875 112.340625 449.5875 112.340625 
z
" style="fill:#ffffff;opacity:0.8;stroke:#cccccc;stroke-linejoin:miter;"/>
    </g>
    <g id="line2d_22">
     <path d="M 451.9875 66.84 
L 475.9875 66.84 
" style="fill:none;stroke:#000000;stroke-dasharray:6,10,2,10,2,10;stroke-dashoffset:0;stroke-opacity:0.8;stroke-width:2;"/>
    </g>
    <g id="line2d_23">
     <g>
      <use style="fill-opacity:0;stroke:#000000;stroke-opacity:0.8;" x="463.9875" xlink:href="#m9925628122" y="66.84"/>
     </g>
    </g>
    <g id="text_6">
     <!-- Grid -->
     <defs>
      <path d="M 61.375 67.71875 
L 63.09375 46.828125 
L 61.375 46.828125 
Q 58.796875 54.640625 54.6875 58.59375 
Q 48.78125 64.3125 39.5 64.3125 
Q 26.859375 64.3125 20.265625 54.296875 
Q 14.75 45.84375 14.75 34.1875 
Q 14.75 24.703125 18.40625 16.890625 
Q 22.078125 9.078125 28 5.4375 
Q 33.9375 1.8125 40.1875 1.8125 
Q 43.84375 1.8125 47.265625 2.734375 
Q 50.6875 3.65625 53.859375 5.46875 
L 53.859375 24.609375 
Q 53.859375 29.59375 53.09375 31.125 
Q 52.34375 32.671875 50.75 33.46875 
Q 49.171875 34.28125 45.171875 34.28125 
L 45.171875 36.140625 
L 70.796875 36.140625 
L 70.796875 34.28125 
L 69.578125 34.28125 
Q 65.765625 34.28125 64.359375 31.734375 
Q 63.375 29.9375 63.375 24.609375 
L 63.375 4.34375 
Q 57.765625 1.3125 52.296875 -0.09375 
Q 46.828125 -1.515625 40.140625 -1.515625 
Q 20.953125 -1.515625 10.984375 10.796875 
Q 3.515625 20.015625 3.515625 32.078125 
Q 3.515625 40.828125 7.71875 48.828125 
Q 12.703125 58.34375 21.390625 63.484375 
Q 28.65625 67.71875 38.578125 67.71875 
Q 42.1875 67.71875 45.140625 67.125 
Q 48.09375 66.546875 53.515625 64.546875 
Q 56.25 63.53125 57.171875 63.53125 
Q 58.109375 63.53125 58.765625 64.375 
Q 59.421875 65.234375 59.578125 67.71875 
z
" id="TimesNewRomanPSMT-47"/>
      <path d="M 14.5 69.4375 
Q 16.546875 69.4375 17.984375 67.984375 
Q 19.4375 66.546875 19.4375 64.5 
Q 19.4375 62.453125 17.984375 60.984375 
Q 16.546875 59.515625 14.5 59.515625 
Q 12.453125 59.515625 10.984375 60.984375 
Q 9.515625 62.453125 9.515625 64.5 
Q 9.515625 66.546875 10.953125 67.984375 
Q 12.40625 69.4375 14.5 69.4375 
z
M 18.5625 46.046875 
L 18.5625 10.109375 
Q 18.5625 5.90625 19.171875 4.515625 
Q 19.78125 3.125 20.96875 2.4375 
Q 22.171875 1.765625 25.34375 1.765625 
L 25.34375 0 
L 3.609375 0 
L 3.609375 1.765625 
Q 6.890625 1.765625 8 2.390625 
Q 9.125 3.03125 9.78125 4.484375 
Q 10.453125 5.953125 10.453125 10.109375 
L 10.453125 27.34375 
Q 10.453125 34.625 10.015625 36.765625 
Q 9.671875 38.328125 8.9375 38.9375 
Q 8.203125 39.546875 6.9375 39.546875 
Q 5.5625 39.546875 3.609375 38.8125 
L 2.9375 40.578125 
L 16.40625 46.046875 
z
" id="TimesNewRomanPSMT-69"/>
      <path d="M 34.71875 5.03125 
Q 31.453125 1.609375 28.328125 0.109375 
Q 25.203125 -1.375 21.578125 -1.375 
Q 14.265625 -1.375 8.796875 4.75 
Q 3.328125 10.890625 3.328125 20.515625 
Q 3.328125 30.125 9.375 38.109375 
Q 15.4375 46.09375 24.953125 46.09375 
Q 30.859375 46.09375 34.71875 42.328125 
L 34.71875 50.59375 
Q 34.71875 58.25 34.34375 60 
Q 33.984375 61.765625 33.203125 62.390625 
Q 32.421875 63.03125 31.25 63.03125 
Q 29.984375 63.03125 27.875 62.25 
L 27.25 63.96875 
L 40.578125 69.4375 
L 42.78125 69.4375 
L 42.78125 17.71875 
Q 42.78125 9.859375 43.140625 8.125 
Q 43.5 6.390625 44.3125 5.703125 
Q 45.125 5.03125 46.1875 5.03125 
Q 47.515625 5.03125 49.703125 5.859375 
L 50.25 4.15625 
L 36.96875 -1.375 
L 34.71875 -1.375 
z
M 34.71875 8.453125 
L 34.71875 31.5 
Q 34.421875 34.8125 32.953125 37.546875 
Q 31.5 40.28125 29.078125 41.671875 
Q 26.65625 43.0625 24.359375 43.0625 
Q 20.0625 43.0625 16.703125 39.203125 
Q 12.25 34.125 12.25 24.359375 
Q 12.25 14.5 16.546875 9.25 
Q 20.84375 4 26.125 4 
Q 30.5625 4 34.71875 8.453125 
z
" id="TimesNewRomanPSMT-64"/>
     </defs>
     <g transform="translate(485.5875 71.04)scale(0.12 -0.12)">
      <use xlink:href="#TimesNewRomanPSMT-47"/>
      <use x="72.216797" xlink:href="#TimesNewRomanPSMT-72"/>
      <use x="105.517578" xlink:href="#TimesNewRomanPSMT-69"/>
      <use x="133.300781" xlink:href="#TimesNewRomanPSMT-64"/>
     </g>
    </g>
    <g id="line2d_24">
     <path d="M 451.9875 83.806875 
L 475.9875 83.806875 
" style="fill:none;stroke:#000000;stroke-dasharray:4,2;stroke-dashoffset:0;stroke-opacity:0.8;stroke-width:2;"/>
    </g>
    <g id="line2d_25">
     <g>
      <use style="fill-opacity:0.8;stroke:#000000;stroke-opacity:0.8;" x="463.9875" xlink:href="#m763b50f31a" y="83.806875"/>
     </g>
    </g>
    <g id="text_7">
     <!-- PV -->
     <defs>
      <path d="M 20.515625 31 
L 20.515625 11.71875 
Q 20.515625 5.46875 21.875 3.953125 
Q 23.734375 1.8125 27.484375 1.8125 
L 30.03125 1.8125 
L 30.03125 0 
L 1.65625 0 
L 1.65625 1.8125 
L 4.15625 1.8125 
Q 8.34375 1.8125 10.15625 4.546875 
Q 11.140625 6.0625 11.140625 11.71875 
L 11.140625 54.5 
Q 11.140625 60.75 9.8125 62.25 
Q 7.90625 64.40625 4.15625 64.40625 
L 1.65625 64.40625 
L 1.65625 66.21875 
L 25.921875 66.21875 
Q 34.8125 66.21875 39.9375 64.375 
Q 45.0625 62.546875 48.578125 58.203125 
Q 52.09375 53.859375 52.09375 47.90625 
Q 52.09375 39.796875 46.75 34.71875 
Q 41.40625 29.640625 31.640625 29.640625 
Q 29.25 29.640625 26.46875 29.984375 
Q 23.6875 30.328125 20.515625 31 
z
M 20.515625 33.796875 
Q 23.09375 33.296875 25.09375 33.046875 
Q 27.09375 32.8125 28.515625 32.8125 
Q 33.59375 32.8125 37.28125 36.734375 
Q 40.96875 40.671875 40.96875 46.921875 
Q 40.96875 51.21875 39.203125 54.90625 
Q 37.453125 58.59375 34.21875 60.421875 
Q 31 62.25 26.90625 62.25 
Q 24.421875 62.25 20.515625 61.328125 
z
" id="TimesNewRomanPSMT-50"/>
      <path d="M 71 66.21875 
L 71 64.40625 
Q 67.484375 63.765625 65.671875 62.15625 
Q 63.09375 59.765625 61.078125 54.828125 
L 37.984375 -1.515625 
L 36.1875 -1.515625 
L 11.375 55.5625 
Q 9.46875 59.96875 8.6875 60.9375 
Q 7.46875 62.453125 5.6875 63.296875 
Q 3.90625 64.15625 0.875 64.40625 
L 0.875 66.21875 
L 27.9375 66.21875 
L 27.9375 64.40625 
Q 23.34375 63.96875 21.96875 62.84375 
Q 20.609375 61.71875 20.609375 59.96875 
Q 20.609375 57.515625 22.859375 52.34375 
L 39.703125 13.53125 
L 55.328125 51.859375 
Q 57.625 57.515625 57.625 59.71875 
Q 57.625 61.140625 56.203125 62.421875 
Q 54.78125 63.71875 51.421875 64.265625 
Q 51.171875 64.3125 50.59375 64.40625 
L 50.59375 66.21875 
z
" id="TimesNewRomanPSMT-56"/>
     </defs>
     <g transform="translate(485.5875 88.006875)scale(0.12 -0.12)">
      <use xlink:href="#TimesNewRomanPSMT-50"/>
      <use x="55.615234" xlink:href="#TimesNewRomanPSMT-56"/>
     </g>
    </g>
    <g id="line2d_26">
     <path d="M 451.9875 100.77375 
L 475.9875 100.77375 
" style="fill:none;stroke:#000000;stroke-dasharray:8,8;stroke-dashoffset:0;stroke-opacity:0.8;stroke-width:2;"/>
    </g>
    <g id="line2d_27">
     <g>
      <use style="fill-opacity:0;stroke:#000000;stroke-linejoin:miter;stroke-opacity:0.8;" x="463.9875" xlink:href="#mc5f23dc062" y="100.77375"/>
     </g>
    </g>
    <g id="text_8">
     <!-- UPS -->
     <defs>
      <path d="M 47.703125 64.40625 
L 47.703125 66.21875 
L 71.140625 66.21875 
L 71.140625 64.40625 
L 68.65625 64.40625 
Q 64.75 64.40625 62.640625 61.140625 
Q 61.625 59.625 61.625 54.109375 
L 61.625 27.25 
Q 61.625 17.28125 59.640625 11.78125 
Q 57.671875 6.296875 51.875 2.359375 
Q 46.09375 -1.5625 36.140625 -1.5625 
Q 25.296875 -1.5625 19.671875 2.1875 
Q 14.0625 5.953125 11.71875 12.3125 
Q 10.15625 16.65625 10.15625 28.609375 
L 10.15625 54.5 
Q 10.15625 60.59375 8.46875 62.5 
Q 6.78125 64.40625 3.03125 64.40625 
L 0.53125 64.40625 
L 0.53125 66.21875 
L 29.15625 66.21875 
L 29.15625 64.40625 
L 26.609375 64.40625 
Q 22.515625 64.40625 20.75 61.8125 
Q 19.53125 60.0625 19.53125 54.5 
L 19.53125 25.640625 
Q 19.53125 21.78125 20.234375 16.796875 
Q 20.953125 11.8125 22.796875 9.03125 
Q 24.65625 6.25 28.140625 4.4375 
Q 31.640625 2.640625 36.71875 2.640625 
Q 43.21875 2.640625 48.34375 5.46875 
Q 53.46875 8.296875 55.34375 12.71875 
Q 57.234375 17.140625 57.234375 27.6875 
L 57.234375 54.5 
Q 57.234375 60.6875 55.859375 62.25 
Q 53.953125 64.40625 50.203125 64.40625 
z
" id="TimesNewRomanPSMT-55"/>
      <path d="M 45.84375 67.71875 
L 45.84375 44.828125 
L 44.046875 44.828125 
Q 43.171875 51.421875 40.890625 55.328125 
Q 38.625 59.234375 34.421875 61.515625 
Q 30.21875 63.8125 25.734375 63.8125 
Q 20.65625 63.8125 17.328125 60.71875 
Q 14.015625 57.625 14.015625 53.65625 
Q 14.015625 50.640625 16.109375 48.140625 
Q 19.140625 44.484375 30.515625 38.375 
Q 39.796875 33.40625 43.1875 30.734375 
Q 46.578125 28.078125 48.40625 24.453125 
Q 50.25 20.84375 50.25 16.890625 
Q 50.25 9.375 44.40625 3.921875 
Q 38.578125 -1.515625 29.390625 -1.515625 
Q 26.515625 -1.515625 23.96875 -1.078125 
Q 22.46875 -0.828125 17.703125 0.703125 
Q 12.9375 2.25 11.671875 2.25 
Q 10.453125 2.25 9.734375 1.515625 
Q 9.03125 0.78125 8.6875 -1.515625 
L 6.890625 -1.515625 
L 6.890625 21.1875 
L 8.6875 21.1875 
Q 9.96875 14.0625 12.109375 10.515625 
Q 14.265625 6.984375 18.671875 4.640625 
Q 23.09375 2.296875 28.375 2.296875 
Q 34.46875 2.296875 38 5.515625 
Q 41.546875 8.734375 41.546875 13.140625 
Q 41.546875 15.578125 40.203125 18.0625 
Q 38.875 20.5625 36.03125 22.703125 
Q 34.125 24.171875 25.625 28.921875 
Q 17.140625 33.6875 13.546875 36.515625 
Q 9.96875 39.359375 8.109375 42.765625 
Q 6.25 46.1875 6.25 50.296875 
Q 6.25 57.421875 11.71875 62.5625 
Q 17.1875 67.71875 25.640625 67.71875 
Q 30.90625 67.71875 36.8125 65.140625 
Q 39.546875 63.921875 40.671875 63.921875 
Q 41.9375 63.921875 42.75 64.671875 
Q 43.5625 65.4375 44.046875 67.71875 
z
" id="TimesNewRomanPSMT-53"/>
     </defs>
     <g transform="translate(485.5875 104.97375)scale(0.12 -0.12)">
      <use xlink:href="#TimesNewRomanPSMT-55"/>
      <use x="72.216797" xlink:href="#TimesNewRomanPSMT-50"/>
      <use x="127.832031" xlink:href="#TimesNewRomanPSMT-53"/>
     </g>
    </g>
   </g>
  </g>
  <g id="axes_2">
   <g id="patch_8">
    <path d="M 72 267.077647 
L 518.4 267.077647 
L 518.4 169.242353 
L 72 169.242353 
z
" style="fill:#ffffff;"/>
   </g>
   <g id="matplotlib.axis_3">
    <g id="xtick_6">
     <g id="line2d_28">
      <path clip-path="url(#pf4ac097d7e)" d="M 173.454545 267.077647 
L 173.454545 169.242353 
" style="fill:none;stroke:#b0b0b0;stroke-dasharray:1,1.65;stroke-dashoffset:0;"/>
     </g>
     <g id="line2d_29">
      <g>
       <use style="stroke:#000000;stroke-width:0.8;" x="173.454545" xlink:href="#m341e94e3c5" y="267.077647"/>
      </g>
     </g>
    </g>
    <g id="xtick_7">
     <g id="line2d_30">
      <path clip-path="url(#pf4ac097d7e)" d="M 254.618182 267.077647 
L 254.618182 169.242353 
" style="fill:none;stroke:#b0b0b0;stroke-dasharray:1,1.65;stroke-dashoffset:0;"/>
     </g>
     <g id="line2d_31">
      <g>
       <use style="stroke:#000000;stroke-width:0.8;" x="254.618182" xlink:href="#m341e94e3c5" y="267.077647"/>
      </g>
     </g>
    </g>
    <g id="xtick_8">
     <g id="line2d_32">
      <path clip-path="url(#pf4ac097d7e)" d="M 335.781818 267.077647 
L 335.781818 169.242353 
" style="fill:none;stroke:#b0b0b0;stroke-dasharray:1,1.65;stroke-dashoffset:0;"/>
     </g>
     <g id="line2d_33">
      <g>
       <use style="stroke:#000000;stroke-width:0.8;" x="335.781818" xlink:href="#m341e94e3c5" y="267.077647"/>
      </g>
     </g>
    </g>
    <g id="xtick_9">
     <g id="line2d_34">
      <path clip-path="url(#pf4ac097d7e)" d="M 416.945455 267.077647 
L 416.945455 169.242353 
" style="fill:none;stroke:#b0b0b0;stroke-dasharray:1,1.65;stroke-dashoffset:0;"/>
     </g>
     <g id="line2d_35">
      <g>
       <use style="stroke:#000000;stroke-width:0.8;" x="416.945455" xlink:href="#m341e94e3c5" y="267.077647"/>
      </g>
     </g>
    </g>
    <g id="xtick_10">
     <g id="line2d_36">
      <path clip-path="url(#pf4ac097d7e)" d="M 498.109091 267.077647 
L 498.109091 169.242353 
" style="fill:none;stroke:#b0b0b0;stroke-dasharray:1,1.65;stroke-dashoffset:0;"/>
     </g>
     <g id="line2d_37">
      <g>
       <use style="stroke:#000000;stroke-width:0.8;" x="498.109091" xlink:href="#m341e94e3c5" y="267.077647"/>
      </g>
     </g>
    </g>
   </g>
   <g id="matplotlib.axis_4">
    <g id="ytick_5">
     <g id="line2d_38">
      <path clip-path="url(#pf4ac097d7e)" d="M 72 248.745465 
L 518.4 248.745465 
" style="fill:none;stroke:#b0b0b0;stroke-dasharray:1,1.65;stroke-dashoffset:0;"/>
     </g>
     <g id="line2d_39">
      <g>
       <use style="stroke:#000000;stroke-width:0.8;" x="72" xlink:href="#ma01c392cbe" y="248.745465"/>
      </g>
     </g>
     <g id="text_9">
      <!-- −1000 -->
      <g transform="translate(34.233125 252.911715)scale(0.12 -0.12)">
       <use xlink:href="#TimesNewRomanPSMT-2212"/>
       <use x="56.396484" xlink:href="#TimesNewRomanPSMT-31"/>
       <use x="106.396484" xlink:href="#TimesNewRomanPSMT-30"/>
       <use x="156.396484" xlink:href="#TimesNewRomanPSMT-30"/>
       <use x="206.396484" xlink:href="#TimesNewRomanPSMT-30"/>
      </g>
     </g>
    </g>
    <g id="ytick_6">
     <g id="line2d_40">
      <path clip-path="url(#pf4ac097d7e)" d="M 72 210.006857 
L 518.4 210.006857 
" style="fill:none;stroke:#b0b0b0;stroke-dasharray:1,1.65;stroke-dashoffset:0;"/>
     </g>
     <g id="line2d_41">
      <g>
       <use style="stroke:#000000;stroke-width:0.8;" x="72" xlink:href="#ma01c392cbe" y="210.006857"/>
      </g>
     </g>
     <g id="text_10">
      <!-- 0 -->
      <g transform="translate(59 214.173107)scale(0.12 -0.12)">
       <use xlink:href="#TimesNewRomanPSMT-30"/>
      </g>
     </g>
    </g>
    <g id="ytick_7">
     <g id="line2d_42">
      <path clip-path="url(#pf4ac097d7e)" d="M 72 171.26825 
L 518.4 171.26825 
" style="fill:none;stroke:#b0b0b0;stroke-dasharray:1,1.65;stroke-dashoffset:0;"/>
     </g>
     <g id="line2d_43">
      <g>
       <use style="stroke:#000000;stroke-width:0.8;" x="72" xlink:href="#ma01c392cbe" y="171.26825"/>
      </g>
     </g>
     <g id="text_11">
      <!-- 1000 -->
      <g transform="translate(41 175.4345)scale(0.12 -0.12)">
       <use xlink:href="#TimesNewRomanPSMT-31"/>
       <use x="50" xlink:href="#TimesNewRomanPSMT-30"/>
       <use x="100" xlink:href="#TimesNewRomanPSMT-30"/>
       <use x="150" xlink:href="#TimesNewRomanPSMT-30"/>
      </g>
     </g>
    </g>
    <g id="text_12">
     <!-- Current[A] -->
     <g transform="translate(27.66625 244.816875)rotate(-90)scale(0.12 -0.12)">
      <use xlink:href="#TimesNewRomanPSMT-43"/>
      <use x="66.699219" xlink:href="#TimesNewRomanPSMT-75"/>
      <use x="116.699219" xlink:href="#TimesNewRomanPSMT-72"/>
      <use x="150" xlink:href="#TimesNewRomanPSMT-72"/>
      <use x="183.300781" xlink:href="#TimesNewRomanPSMT-65"/>
      <use x="227.685547" xlink:href="#TimesNewRomanPSMT-6e"/>
      <use x="277.685547" xlink:href="#TimesNewRomanPSMT-74"/>
      <use x="305.46875" xlink:href="#TimesNewRomanPSMT-5b"/>
      <use x="338.769531" xlink:href="#TimesNewRomanPSMT-41"/>
      <use x="410.986328" xlink:href="#TimesNewRomanPSMT-5d"/>
     </g>
    </g>
   </g>
   <g id="line2d_44">
    <path clip-path="url(#pf4ac097d7e)" d="M 92.290909 221.56814 
L 173.454545 222.272993 
L 176.16 212.89518 
L 400.712727 212.364531 
L 416.945455 261.261825 
L 419.650909 220.510363 
L 433.178182 261.524227 
L 498.109091 262.630588 
L 498.109091 262.630588 
" style="fill:none;stroke:#000000;stroke-dasharray:6,10,2,10,2,10;stroke-dashoffset:0;stroke-opacity:0.8;stroke-width:2;"/>
    <g clip-path="url(#pf4ac097d7e)">
     <use style="fill-opacity:0;stroke:#000000;stroke-opacity:0.8;" x="92.290909" xlink:href="#m9925628122" y="221.56814"/>
     <use style="fill-opacity:0;stroke:#000000;stroke-opacity:0.8;" x="140.989091" xlink:href="#m9925628122" y="221.970418"/>
     <use style="fill-opacity:0;stroke:#000000;stroke-opacity:0.8;" x="189.687273" xlink:href="#m9925628122" y="212.86542"/>
     <use style="fill-opacity:0;stroke:#000000;stroke-opacity:0.8;" x="238.385455" xlink:href="#m9925628122" y="212.763301"/>
     <use style="fill-opacity:0;stroke:#000000;stroke-opacity:0.8;" x="287.083636" xlink:href="#m9925628122" y="212.724416"/>
     <use style="fill-opacity:0;stroke:#000000;stroke-opacity:0.8;" x="335.781818" xlink:href="#m9925628122" y="212.578681"/>
     <use style="fill-opacity:0;stroke:#000000;stroke-opacity:0.8;" x="384.48" xlink:href="#m9925628122" y="212.420133"/>
     <use style="fill-opacity:0;stroke:#000000;stroke-opacity:0.8;" x="433.178182" xlink:href="#m9925628122" y="261.524227"/>
     <use style="fill-opacity:0;stroke:#000000;stroke-opacity:0.8;" x="481.876364" xlink:href="#m9925628122" y="262.34578"/>
    </g>
   </g>
   <g id="line2d_45">
    <path clip-path="url(#pf4ac097d7e)" d="M 92.290909 244.426431 
L 192.392727 243.533899 
L 243.796364 243.098196 
L 281.672727 242.974802 
L 311.432727 242.606036 
L 406.123636 241.223343 
L 498.109091 239.686423 
L 498.109091 239.686423 
" style="fill:none;stroke:#000000;stroke-dasharray:4,2;stroke-dashoffset:0;stroke-opacity:0.8;stroke-width:2;"/>
    <g clip-path="url(#pf4ac097d7e)">
     <use style="fill-opacity:0.8;stroke:#000000;stroke-opacity:0.8;" x="92.290909" xlink:href="#m763b50f31a" y="244.426431"/>
     <use style="fill-opacity:0.8;stroke:#000000;stroke-opacity:0.8;" x="140.989091" xlink:href="#m763b50f31a" y="244.025206"/>
     <use style="fill-opacity:0.8;stroke:#000000;stroke-opacity:0.8;" x="189.687273" xlink:href="#m763b50f31a" y="243.56192"/>
     <use style="fill-opacity:0.8;stroke:#000000;stroke-opacity:0.8;" x="238.385455" xlink:href="#m763b50f31a" y="243.102171"/>
     <use style="fill-opacity:0.8;stroke:#000000;stroke-opacity:0.8;" x="287.083636" xlink:href="#m763b50f31a" y="242.927287"/>
     <use style="fill-opacity:0.8;stroke:#000000;stroke-opacity:0.8;" x="335.781818" xlink:href="#m763b50f31a" y="242.271762"/>
     <use style="fill-opacity:0.8;stroke:#000000;stroke-opacity:0.8;" x="384.48" xlink:href="#m763b50f31a" y="241.558729"/>
     <use style="fill-opacity:0.8;stroke:#000000;stroke-opacity:0.8;" x="433.178182" xlink:href="#m763b50f31a" y="240.790701"/>
     <use style="fill-opacity:0.8;stroke:#000000;stroke-opacity:0.8;" x="481.876364" xlink:href="#m763b50f31a" y="239.970702"/>
    </g>
   </g>
   <g id="line2d_46">
    <path clip-path="url(#pf4ac097d7e)" d="M 92.290909 210.006857 
L 173.454545 210.006857 
L 176.16 219.411333 
L 243.796364 220.140662 
L 278.967273 220.262601 
L 306.021818 220.653598 
L 398.007273 222.279242 
L 400.712727 222.330245 
L 416.945455 173.689412 
L 419.650909 214.484605 
L 433.178182 173.689413 
L 498.109091 173.689413 
L 498.109091 173.689413 
" style="fill:none;stroke:#000000;stroke-dasharray:8,8;stroke-dashoffset:0;stroke-opacity:0.8;stroke-width:2;"/>
    <g clip-path="url(#pf4ac097d7e)">
     <use style="fill-opacity:0;stroke:#000000;stroke-linejoin:miter;stroke-opacity:0.8;" x="97.701818" xlink:href="#mc5f23dc062" y="210.006857"/>
     <use style="fill-opacity:0;stroke:#000000;stroke-linejoin:miter;stroke-opacity:0.8;" x="146.4" xlink:href="#mc5f23dc062" y="210.006857"/>
     <use style="fill-opacity:0;stroke:#000000;stroke-linejoin:miter;stroke-opacity:0.8;" x="195.098182" xlink:href="#mc5f23dc062" y="219.642812"/>
     <use style="fill-opacity:0;stroke:#000000;stroke-linejoin:miter;stroke-opacity:0.8;" x="243.796364" xlink:href="#mc5f23dc062" y="220.140662"/>
     <use style="fill-opacity:0;stroke:#000000;stroke-linejoin:miter;stroke-opacity:0.8;" x="292.494545" xlink:href="#mc5f23dc062" y="220.436209"/>
     <use style="fill-opacity:0;stroke:#000000;stroke-linejoin:miter;stroke-opacity:0.8;" x="341.192727" xlink:href="#mc5f23dc062" y="221.246049"/>
     <use style="fill-opacity:0;stroke:#000000;stroke-linejoin:miter;stroke-opacity:0.8;" x="389.890909" xlink:href="#mc5f23dc062" y="222.126233"/>
     <use style="fill-opacity:0;stroke:#000000;stroke-linejoin:miter;stroke-opacity:0.8;" x="438.589091" xlink:href="#mc5f23dc062" y="173.689413"/>
     <use style="fill-opacity:0;stroke:#000000;stroke-linejoin:miter;stroke-opacity:0.8;" x="487.287273" xlink:href="#mc5f23dc062" y="173.689413"/>
    </g>
   </g>
   <g id="patch_9">
    <path d="M 72 267.077647 
L 72 169.242353 
" style="fill:none;stroke:#000000;stroke-linecap:square;stroke-linejoin:miter;stroke-width:0.8;"/>
   </g>
   <g id="patch_10">
    <path d="M 518.4 267.077647 
L 518.4 169.242353 
" style="fill:none;stroke:#000000;stroke-linecap:square;stroke-linejoin:miter;stroke-width:0.8;"/>
   </g>
   <g id="patch_11">
    <path d="M 72 267.077647 
L 518.4 267.077647 
" style="fill:none;stroke:#000000;stroke-linecap:square;stroke-linejoin:miter;stroke-width:0.8;"/>
   </g>
   <g id="patch_12">
    <path d="M 72 169.242353 
L 518.4 169.242353 
" style="fill:none;stroke:#000000;stroke-linecap:square;stroke-linejoin:miter;stroke-width:0.8;"/>
   </g>
  </g>
  <g id="axes_3">
   <g id="patch_13">
    <path d="M 72 384.48 
L 518.4 384.48 
L 518.4 286.644706 
L 72 286.644706 
z
" style="fill:#ffffff;"/>
   </g>
   <g id="matplotlib.axis_5">
    <g id="xtick_11">
     <g id="line2d_47">
      <path clip-path="url(#pb342356932)" d="M 173.454545 384.48 
L 173.454545 286.644706 
" style="fill:none;stroke:#b0b0b0;stroke-dasharray:1,1.65;stroke-dashoffset:0;"/>
     </g>
     <g id="line2d_48">
      <g>
       <use style="stroke:#000000;stroke-width:0.8;" x="173.454545" xlink:href="#m341e94e3c5" y="384.48"/>
      </g>
     </g>
     <g id="text_13">
      <!-- 14:00 -->
      <defs>
       <path d="M 46.53125 24.421875 
L 46.53125 17.484375 
L 37.640625 17.484375 
L 37.640625 0 
L 29.59375 0 
L 29.59375 17.484375 
L 1.5625 17.484375 
L 1.5625 23.734375 
L 32.28125 67.578125 
L 37.640625 67.578125 
L 37.640625 24.421875 
z
M 29.59375 24.421875 
L 29.59375 57.28125 
L 6.34375 24.421875 
z
" id="TimesNewRomanPSMT-34"/>
       <path d="M 14.109375 46.09375 
Q 16.359375 46.09375 17.9375 44.5 
Q 19.53125 42.921875 19.53125 40.671875 
Q 19.53125 38.421875 17.9375 36.828125 
Q 16.359375 35.25 14.109375 35.25 
Q 11.859375 35.25 10.265625 36.828125 
Q 8.6875 38.421875 8.6875 40.671875 
Q 8.6875 42.921875 10.265625 44.5 
Q 11.859375 46.09375 14.109375 46.09375 
z
M 14.015625 9.515625 
Q 16.3125 9.515625 17.890625 7.90625 
Q 19.484375 6.296875 19.484375 4.046875 
Q 19.484375 1.8125 17.875 0.21875 
Q 16.265625 -1.375 14.015625 -1.375 
Q 11.765625 -1.375 10.171875 0.21875 
Q 8.59375 1.8125 8.59375 4.046875 
Q 8.59375 6.296875 10.171875 7.90625 
Q 11.765625 9.515625 14.015625 9.515625 
z
" id="TimesNewRomanPSMT-3a"/>
      </defs>
      <g transform="translate(159.78767 399.8125)scale(0.12 -0.12)">
       <use xlink:href="#TimesNewRomanPSMT-31"/>
       <use x="50" xlink:href="#TimesNewRomanPSMT-34"/>
       <use x="100" xlink:href="#TimesNewRomanPSMT-3a"/>
       <use x="127.783203" xlink:href="#TimesNewRomanPSMT-30"/>
       <use x="177.783203" xlink:href="#TimesNewRomanPSMT-30"/>
      </g>
     </g>
    </g>
    <g id="xtick_12">
     <g id="line2d_49">
      <path clip-path="url(#pb342356932)" d="M 254.618182 384.48 
L 254.618182 286.644706 
" style="fill:none;stroke:#b0b0b0;stroke-dasharray:1,1.65;stroke-dashoffset:0;"/>
     </g>
     <g id="line2d_50">
      <g>
       <use style="stroke:#000000;stroke-width:0.8;" x="254.618182" xlink:href="#m341e94e3c5" y="384.48"/>
      </g>
     </g>
     <g id="text_14">
      <!-- 14:05 -->
      <defs>
       <path d="M 43.40625 66.21875 
L 39.59375 57.90625 
L 19.671875 57.90625 
L 15.328125 49.03125 
Q 28.265625 47.125 35.84375 39.40625 
Q 42.328125 32.765625 42.328125 23.78125 
Q 42.328125 18.5625 40.203125 14.109375 
Q 38.09375 9.671875 34.859375 6.546875 
Q 31.640625 3.421875 27.6875 1.515625 
Q 22.078125 -1.171875 16.15625 -1.171875 
Q 10.203125 -1.171875 7.484375 0.84375 
Q 4.78125 2.875 4.78125 5.328125 
Q 4.78125 6.6875 5.90625 7.734375 
Q 7.03125 8.796875 8.734375 8.796875 
Q 10.015625 8.796875 10.96875 8.40625 
Q 11.921875 8.015625 14.203125 6.390625 
Q 17.875 3.859375 21.625 3.859375 
Q 27.34375 3.859375 31.65625 8.171875 
Q 35.984375 12.5 35.984375 18.703125 
Q 35.984375 24.703125 32.125 29.90625 
Q 28.265625 35.109375 21.484375 37.9375 
Q 16.15625 40.140625 6.984375 40.484375 
L 19.671875 66.21875 
z
" id="TimesNewRomanPSMT-35"/>
      </defs>
      <g transform="translate(240.951307 399.8125)scale(0.12 -0.12)">
       <use xlink:href="#TimesNewRomanPSMT-31"/>
       <use x="50" xlink:href="#TimesNewRomanPSMT-34"/>
       <use x="100" xlink:href="#TimesNewRomanPSMT-3a"/>
       <use x="127.783203" xlink:href="#TimesNewRomanPSMT-30"/>
       <use x="177.783203" xlink:href="#TimesNewRomanPSMT-35"/>
      </g>
     </g>
    </g>
    <g id="xtick_13">
     <g id="line2d_51">
      <path clip-path="url(#pb342356932)" d="M 335.781818 384.48 
L 335.781818 286.644706 
" style="fill:none;stroke:#b0b0b0;stroke-dasharray:1,1.65;stroke-dashoffset:0;"/>
     </g>
     <g id="line2d_52">
      <g>
       <use style="stroke:#000000;stroke-width:0.8;" x="335.781818" xlink:href="#m341e94e3c5" y="384.48"/>
      </g>
     </g>
     <g id="text_15">
      <!-- 14:10 -->
      <g transform="translate(322.114943 399.8125)scale(0.12 -0.12)">
       <use xlink:href="#TimesNewRomanPSMT-31"/>
       <use x="50" xlink:href="#TimesNewRomanPSMT-34"/>
       <use x="100" xlink:href="#TimesNewRomanPSMT-3a"/>
       <use x="127.783203" xlink:href="#TimesNewRomanPSMT-31"/>
       <use x="177.783203" xlink:href="#TimesNewRomanPSMT-30"/>
      </g>
     </g>
    </g>
    <g id="xtick_14">
     <g id="line2d_53">
      <path clip-path="url(#pb342356932)" d="M 416.945455 384.48 
L 416.945455 286.644706 
" style="fill:none;stroke:#b0b0b0;stroke-dasharray:1,1.65;stroke-dashoffset:0;"/>
     </g>
     <g id="line2d_54">
      <g>
       <use style="stroke:#000000;stroke-width:0.8;" x="416.945455" xlink:href="#m341e94e3c5" y="384.48"/>
      </g>
     </g>
     <g id="text_16">
      <!-- 14:15 -->
      <g transform="translate(403.27858 399.8125)scale(0.12 -0.12)">
       <use xlink:href="#TimesNewRomanPSMT-31"/>
       <use x="50" xlink:href="#TimesNewRomanPSMT-34"/>
       <use x="100" xlink:href="#TimesNewRomanPSMT-3a"/>
       <use x="127.783203" xlink:href="#TimesNewRomanPSMT-31"/>
       <use x="177.783203" xlink:href="#TimesNewRomanPSMT-35"/>
      </g>
     </g>
    </g>
    <g id="xtick_15">
     <g id="line2d_55">
      <path clip-path="url(#pb342356932)" d="M 498.109091 384.48 
L 498.109091 286.644706 
" style="fill:none;stroke:#b0b0b0;stroke-dasharray:1,1.65;stroke-dashoffset:0;"/>
     </g>
     <g id="line2d_56">
      <g>
       <use style="stroke:#000000;stroke-width:0.8;" x="498.109091" xlink:href="#m341e94e3c5" y="384.48"/>
      </g>
     </g>
     <g id="text_17">
      <!-- 14:20 -->
      <g transform="translate(484.442216 399.8125)scale(0.12 -0.12)">
       <use xlink:href="#TimesNewRomanPSMT-31"/>
       <use x="50" xlink:href="#TimesNewRomanPSMT-34"/>
       <use x="100" xlink:href="#TimesNewRomanPSMT-3a"/>
       <use x="127.783203" xlink:href="#TimesNewRomanPSMT-32"/>
       <use x="177.783203" xlink:href="#TimesNewRomanPSMT-30"/>
      </g>
     </g>
    </g>
    <g id="text_18">
     <!-- Time -->
     <defs>
      <path d="M 57.859375 66.21875 
L 58.59375 50.6875 
L 56.734375 50.6875 
Q 56.203125 54.78125 55.28125 56.546875 
Q 53.765625 59.375 51.25 60.71875 
Q 48.734375 62.0625 44.625 62.0625 
L 35.296875 62.0625 
L 35.296875 11.46875 
Q 35.296875 5.375 36.625 3.859375 
Q 38.484375 1.8125 42.328125 1.8125 
L 44.625 1.8125 
L 44.625 0 
L 16.546875 0 
L 16.546875 1.8125 
L 18.890625 1.8125 
Q 23.09375 1.8125 24.859375 4.34375 
Q 25.921875 5.90625 25.921875 11.46875 
L 25.921875 62.0625 
L 17.96875 62.0625 
Q 13.328125 62.0625 11.375 61.375 
Q 8.84375 60.453125 7.03125 57.8125 
Q 5.21875 55.171875 4.890625 50.6875 
L 3.03125 50.6875 
L 3.8125 66.21875 
z
" id="TimesNewRomanPSMT-54"/>
      <path d="M 16.40625 36.53125 
Q 21.296875 41.40625 22.171875 42.140625 
Q 24.359375 44 26.890625 45.015625 
Q 29.4375 46.046875 31.9375 46.046875 
Q 36.140625 46.046875 39.15625 43.59375 
Q 42.1875 41.15625 43.21875 36.53125 
Q 48.25 42.390625 51.703125 44.21875 
Q 55.171875 46.046875 58.84375 46.046875 
Q 62.40625 46.046875 65.15625 44.21875 
Q 67.921875 42.390625 69.53125 38.234375 
Q 70.609375 35.40625 70.609375 29.34375 
L 70.609375 10.109375 
Q 70.609375 5.90625 71.234375 4.34375 
Q 71.734375 3.265625 73.046875 2.515625 
Q 74.359375 1.765625 77.34375 1.765625 
L 77.34375 0 
L 55.28125 0 
L 55.28125 1.765625 
L 56.203125 1.765625 
Q 59.078125 1.765625 60.6875 2.875 
Q 61.8125 3.65625 62.3125 5.375 
Q 62.5 6.203125 62.5 10.109375 
L 62.5 29.34375 
Q 62.5 34.8125 61.1875 37.0625 
Q 59.28125 40.1875 55.078125 40.1875 
Q 52.484375 40.1875 49.875 38.890625 
Q 47.265625 37.59375 43.5625 34.078125 
L 43.453125 33.546875 
L 43.5625 31.453125 
L 43.5625 10.109375 
Q 43.5625 5.515625 44.0625 4.390625 
Q 44.578125 3.265625 45.984375 2.515625 
Q 47.40625 1.765625 50.828125 1.765625 
L 50.828125 0 
L 28.21875 0 
L 28.21875 1.765625 
Q 31.9375 1.765625 33.328125 2.640625 
Q 34.71875 3.515625 35.25 5.28125 
Q 35.5 6.109375 35.5 10.109375 
L 35.5 29.34375 
Q 35.5 34.8125 33.890625 37.203125 
Q 31.734375 40.328125 27.875 40.328125 
Q 25.25 40.328125 22.65625 38.921875 
Q 18.609375 36.765625 16.40625 34.078125 
L 16.40625 10.109375 
Q 16.40625 5.71875 17.015625 4.390625 
Q 17.625 3.078125 18.8125 2.421875 
Q 20.015625 1.765625 23.6875 1.765625 
L 23.6875 0 
L 1.5625 0 
L 1.5625 1.765625 
Q 4.640625 1.765625 5.859375 2.421875 
Q 7.078125 3.078125 7.703125 4.515625 
Q 8.34375 5.953125 8.34375 10.109375 
L 8.34375 27.203125 
Q 8.34375 34.578125 7.90625 36.71875 
Q 7.5625 38.328125 6.828125 38.9375 
Q 6.109375 39.546875 4.828125 39.546875 
Q 3.46875 39.546875 1.5625 38.8125 
L 0.828125 40.578125 
L 14.3125 46.046875 
L 16.40625 46.046875 
z
" id="TimesNewRomanPSMT-6d"/>
     </defs>
     <g transform="translate(282.540937 414.711875)scale(0.12 -0.12)">
      <use xlink:href="#TimesNewRomanPSMT-54"/>
      <use x="61.037109" xlink:href="#TimesNewRomanPSMT-69"/>
      <use x="88.820312" xlink:href="#TimesNewRomanPSMT-6d"/>
      <use x="166.603516" xlink:href="#TimesNewRomanPSMT-65"/>
     </g>
    </g>
   </g>
   <g id="matplotlib.axis_6">
    <g id="ytick_8">
     <g id="line2d_57">
      <path clip-path="url(#pb342356932)" d="M 72 366.147837 
L 518.4 366.147837 
" style="fill:none;stroke:#b0b0b0;stroke-dasharray:1,1.65;stroke-dashoffset:0;"/>
     </g>
     <g id="line2d_58">
      <g>
       <use style="stroke:#000000;stroke-width:0.8;" x="72" xlink:href="#ma01c392cbe" y="366.147837"/>
      </g>
     </g>
     <g id="text_19">
      <!-- −1000 -->
      <g transform="translate(34.233125 370.314087)scale(0.12 -0.12)">
       <use xlink:href="#TimesNewRomanPSMT-2212"/>
       <use x="56.396484" xlink:href="#TimesNewRomanPSMT-31"/>
       <use x="106.396484" xlink:href="#TimesNewRomanPSMT-30"/>
       <use x="156.396484" xlink:href="#TimesNewRomanPSMT-30"/>
       <use x="206.396484" xlink:href="#TimesNewRomanPSMT-30"/>
      </g>
     </g>
    </g>
    <g id="ytick_9">
     <g id="line2d_59">
      <path clip-path="url(#pb342356932)" d="M 72 327.409219 
L 518.4 327.409219 
" style="fill:none;stroke:#b0b0b0;stroke-dasharray:1,1.65;stroke-dashoffset:0;"/>
     </g>
     <g id="line2d_60">
      <g>
       <use style="stroke:#000000;stroke-width:0.8;" x="72" xlink:href="#ma01c392cbe" y="327.409219"/>
      </g>
     </g>
     <g id="text_20">
      <!-- 0 -->
      <g transform="translate(59 331.575469)scale(0.12 -0.12)">
       <use xlink:href="#TimesNewRomanPSMT-30"/>
      </g>
     </g>
    </g>
    <g id="ytick_10">
     <g id="line2d_61">
      <path clip-path="url(#pb342356932)" d="M 72 288.670601 
L 518.4 288.670601 
" style="fill:none;stroke:#b0b0b0;stroke-dasharray:1,1.65;stroke-dashoffset:0;"/>
     </g>
     <g id="line2d_62">
      <g>
       <use style="stroke:#000000;stroke-width:0.8;" x="72" xlink:href="#ma01c392cbe" y="288.670601"/>
      </g>
     </g>
     <g id="text_21">
      <!-- 1000 -->
      <g transform="translate(41 292.836851)scale(0.12 -0.12)">
       <use xlink:href="#TimesNewRomanPSMT-31"/>
       <use x="50" xlink:href="#TimesNewRomanPSMT-30"/>
       <use x="100" xlink:href="#TimesNewRomanPSMT-30"/>
       <use x="150" xlink:href="#TimesNewRomanPSMT-30"/>
      </g>
     </g>
    </g>
    <g id="text_22">
     <!-- Current[A] -->
     <g transform="translate(27.66625 362.219228)rotate(-90)scale(0.12 -0.12)">
      <use xlink:href="#TimesNewRomanPSMT-43"/>
      <use x="66.699219" xlink:href="#TimesNewRomanPSMT-75"/>
      <use x="116.699219" xlink:href="#TimesNewRomanPSMT-72"/>
      <use x="150" xlink:href="#TimesNewRomanPSMT-72"/>
      <use x="183.300781" xlink:href="#TimesNewRomanPSMT-65"/>
      <use x="227.685547" xlink:href="#TimesNewRomanPSMT-6e"/>
      <use x="277.685547" xlink:href="#TimesNewRomanPSMT-74"/>
      <use x="305.46875" xlink:href="#TimesNewRomanPSMT-5b"/>
      <use x="338.769531" xlink:href="#TimesNewRomanPSMT-41"/>
      <use x="410.986328" xlink:href="#TimesNewRomanPSMT-5d"/>
     </g>
    </g>
   </g>
   <g id="line2d_63">
    <path clip-path="url(#pb342356932)" d="M 92.290909 338.968228 
L 173.454545 339.672447 
L 176.16 330.29781 
L 416.945455 329.709963 
L 419.650909 378.707836 
L 498.109091 380.032941 
L 498.109091 380.032941 
" style="fill:none;stroke:#000000;stroke-dasharray:6,10,2,10,2,10;stroke-dashoffset:0;stroke-opacity:0.8;stroke-width:2;"/>
    <g clip-path="url(#pb342356932)">
     <use style="fill-opacity:0;stroke:#000000;stroke-opacity:0.8;" x="92.290909" xlink:href="#m9925628122" y="338.968228"/>
     <use style="fill-opacity:0;stroke:#000000;stroke-opacity:0.8;" x="140.989091" xlink:href="#m9925628122" y="339.370096"/>
     <use style="fill-opacity:0;stroke:#000000;stroke-opacity:0.8;" x="189.687273" xlink:href="#m9925628122" y="330.267932"/>
     <use style="fill-opacity:0;stroke:#000000;stroke-opacity:0.8;" x="238.385455" xlink:href="#m9925628122" y="330.165736"/>
     <use style="fill-opacity:0;stroke:#000000;stroke-opacity:0.8;" x="287.083636" xlink:href="#m9925628122" y="330.126814"/>
     <use style="fill-opacity:0;stroke:#000000;stroke-opacity:0.8;" x="335.781818" xlink:href="#m9925628122" y="329.981058"/>
     <use style="fill-opacity:0;stroke:#000000;stroke-opacity:0.8;" x="384.48" xlink:href="#m9925628122" y="329.822509"/>
     <use style="fill-opacity:0;stroke:#000000;stroke-opacity:0.8;" x="433.178182" xlink:href="#m9925628122" y="378.926517"/>
     <use style="fill-opacity:0;stroke:#000000;stroke-opacity:0.8;" x="481.876364" xlink:href="#m9925628122" y="379.748057"/>
    </g>
   </g>
   <g id="line2d_64">
    <path clip-path="url(#pb342356932)" d="M 92.290909 361.828803 
L 192.392727 360.93627 
L 243.796364 360.500567 
L 281.672727 360.377173 
L 311.432727 360.008407 
L 406.123636 358.625714 
L 498.109091 357.088793 
L 498.109091 357.088793 
" style="fill:none;stroke:#000000;stroke-dasharray:4,2;stroke-dashoffset:0;stroke-opacity:0.8;stroke-width:2;"/>
    <g clip-path="url(#pb342356932)">
     <use style="fill-opacity:0.8;stroke:#000000;stroke-opacity:0.8;" x="92.290909" xlink:href="#m763b50f31a" y="361.828803"/>
     <use style="fill-opacity:0.8;stroke:#000000;stroke-opacity:0.8;" x="140.989091" xlink:href="#m763b50f31a" y="361.427578"/>
     <use style="fill-opacity:0.8;stroke:#000000;stroke-opacity:0.8;" x="189.687273" xlink:href="#m763b50f31a" y="360.964291"/>
     <use style="fill-opacity:0.8;stroke:#000000;stroke-opacity:0.8;" x="238.385455" xlink:href="#m763b50f31a" y="360.504542"/>
     <use style="fill-opacity:0.8;stroke:#000000;stroke-opacity:0.8;" x="287.083636" xlink:href="#m763b50f31a" y="360.329658"/>
     <use style="fill-opacity:0.8;stroke:#000000;stroke-opacity:0.8;" x="335.781818" xlink:href="#m763b50f31a" y="359.674133"/>
     <use style="fill-opacity:0.8;stroke:#000000;stroke-opacity:0.8;" x="384.48" xlink:href="#m763b50f31a" y="358.9611"/>
     <use style="fill-opacity:0.8;stroke:#000000;stroke-opacity:0.8;" x="433.178182" xlink:href="#m763b50f31a" y="358.193071"/>
     <use style="fill-opacity:0.8;stroke:#000000;stroke-opacity:0.8;" x="481.876364" xlink:href="#m763b50f31a" y="357.373072"/>
    </g>
   </g>
   <g id="line2d_65">
    <path clip-path="url(#pb342356932)" d="M 92.290909 327.409219 
L 173.454545 327.409219 
L 176.16 336.810755 
L 243.796364 337.542293 
L 278.967273 337.6645 
L 306.021818 338.055732 
L 398.007273 339.681454 
L 416.945455 340.045899 
L 419.650909 291.091765 
L 498.109091 291.091765 
L 498.109091 291.091765 
" style="fill:none;stroke:#000000;stroke-dasharray:8,8;stroke-dashoffset:0;stroke-opacity:0.8;stroke-width:2;"/>
    <g clip-path="url(#pb342356932)">
     <use style="fill-opacity:0;stroke:#000000;stroke-linejoin:miter;stroke-opacity:0.8;" x="97.701818" xlink:href="#mc5f23dc062" y="327.409219"/>
     <use style="fill-opacity:0;stroke:#000000;stroke-linejoin:miter;stroke-opacity:0.8;" x="146.4" xlink:href="#mc5f23dc062" y="327.409219"/>
     <use style="fill-opacity:0;stroke:#000000;stroke-linejoin:miter;stroke-opacity:0.8;" x="195.098182" xlink:href="#mc5f23dc062" y="337.043658"/>
     <use style="fill-opacity:0;stroke:#000000;stroke-linejoin:miter;stroke-opacity:0.8;" x="243.796364" xlink:href="#mc5f23dc062" y="337.542293"/>
     <use style="fill-opacity:0;stroke:#000000;stroke-linejoin:miter;stroke-opacity:0.8;" x="292.494545" xlink:href="#mc5f23dc062" y="337.838231"/>
     <use style="fill-opacity:0;stroke:#000000;stroke-linejoin:miter;stroke-opacity:0.8;" x="341.192727" xlink:href="#mc5f23dc062" y="338.648265"/>
     <use style="fill-opacity:0;stroke:#000000;stroke-linejoin:miter;stroke-opacity:0.8;" x="389.890909" xlink:href="#mc5f23dc062" y="339.528444"/>
     <use style="fill-opacity:0;stroke:#000000;stroke-linejoin:miter;stroke-opacity:0.8;" x="438.589091" xlink:href="#mc5f23dc062" y="291.091765"/>
     <use style="fill-opacity:0;stroke:#000000;stroke-linejoin:miter;stroke-opacity:0.8;" x="487.287273" xlink:href="#mc5f23dc062" y="291.091765"/>
    </g>
   </g>
   <g id="patch_14">
    <path d="M 72 384.48 
L 72 286.644706 
" style="fill:none;stroke:#000000;stroke-linecap:square;stroke-linejoin:miter;stroke-width:0.8;"/>
   </g>
   <g id="patch_15">
    <path d="M 518.4 384.48 
L 518.4 286.644706 
" style="fill:none;stroke:#000000;stroke-linecap:square;stroke-linejoin:miter;stroke-width:0.8;"/>
   </g>
   <g id="patch_16">
    <path d="M 72 384.48 
L 518.4 384.48 
" style="fill:none;stroke:#000000;stroke-linecap:square;stroke-linejoin:miter;stroke-width:0.8;"/>
   </g>
   <g id="patch_17">
    <path d="M 72 286.644706 
L 518.4 286.644706 
" style="fill:none;stroke:#000000;stroke-linecap:square;stroke-linejoin:miter;stroke-width:0.8;"/>
   </g>
  </g>
 </g>
 <defs>
  <clipPath id="pd6d40fdd81">
   <rect height="97.835294" width="446.4" x="72" y="51.84"/>
  </clipPath>
  <clipPath id="pf4ac097d7e">
   <rect height="97.835294" width="446.4" x="72" y="169.242353"/>
  </clipPath>
  <clipPath id="pb342356932">
   <rect height="97.835294" width="446.4" x="72" y="286.644706"/>
  </clipPath>
 </defs>
</svg>
