<?xml version="1.0" encoding="utf-8" standalone="no"?>
<!DOCTYPE svg PUBLIC "-//W3C//DTD SVG 1.1//EN"
  "http://www.w3.org/Graphics/SVG/1.1/DTD/svg11.dtd">
<!-- Created with matplotlib (http://matplotlib.org/) -->
<svg height="432pt" version="1.1" viewBox="0 0 576 432" width="576pt" xmlns="http://www.w3.org/2000/svg" xmlns:xlink="http://www.w3.org/1999/xlink">
 <defs>
  <style type="text/css">
*{stroke-linecap:butt;stroke-linejoin:round;}
  </style>
 </defs>
 <g id="figure_1">
  <g id="patch_1">
   <path d="M 0 432 
L 576 432 
L 576 0 
L 0 0 
z
" style="fill:#ffffff;"/>
  </g>
  <g id="axes_1">
   <g id="patch_2">
    <path d="M 72 203.04 
L 518.4 203.04 
L 518.4 51.84 
L 72 51.84 
z
" style="fill:#ffffff;"/>
   </g>
   <g id="matplotlib.axis_1">
    <g id="xtick_1">
     <g id="line2d_1">
      <path clip-path="url(#pb2745830d1)" d="M 173.454545 203.04 
L 173.454545 51.84 
" style="fill:none;stroke:#b0b0b0;stroke-linecap:square;stroke-width:0.8;"/>
     </g>
     <g id="line2d_2">
      <defs>
       <path d="M 0 0 
L 0 3.5 
" id="m2cca05aa9c" style="stroke:#000000;stroke-width:0.8;"/>
      </defs>
      <g>
       <use style="stroke:#000000;stroke-width:0.8;" x="173.454545" xlink:href="#m2cca05aa9c" y="203.04"/>
      </g>
     </g>
    </g>
    <g id="xtick_2">
     <g id="line2d_3">
      <path clip-path="url(#pb2745830d1)" d="M 254.618182 203.04 
L 254.618182 51.84 
" style="fill:none;stroke:#b0b0b0;stroke-linecap:square;stroke-width:0.8;"/>
     </g>
     <g id="line2d_4">
      <g>
       <use style="stroke:#000000;stroke-width:0.8;" x="254.618182" xlink:href="#m2cca05aa9c" y="203.04"/>
      </g>
     </g>
    </g>
    <g id="xtick_3">
     <g id="line2d_5">
      <path clip-path="url(#pb2745830d1)" d="M 335.781818 203.04 
L 335.781818 51.84 
" style="fill:none;stroke:#b0b0b0;stroke-linecap:square;stroke-width:0.8;"/>
     </g>
     <g id="line2d_6">
      <g>
       <use style="stroke:#000000;stroke-width:0.8;" x="335.781818" xlink:href="#m2cca05aa9c" y="203.04"/>
      </g>
     </g>
    </g>
    <g id="xtick_4">
     <g id="line2d_7">
      <path clip-path="url(#pb2745830d1)" d="M 416.945455 203.04 
L 416.945455 51.84 
" style="fill:none;stroke:#b0b0b0;stroke-linecap:square;stroke-width:0.8;"/>
     </g>
     <g id="line2d_8">
      <g>
       <use style="stroke:#000000;stroke-width:0.8;" x="416.945455" xlink:href="#m2cca05aa9c" y="203.04"/>
      </g>
     </g>
    </g>
    <g id="xtick_5">
     <g id="line2d_9">
      <path clip-path="url(#pb2745830d1)" d="M 498.109091 203.04 
L 498.109091 51.84 
" style="fill:none;stroke:#b0b0b0;stroke-linecap:square;stroke-width:0.8;"/>
     </g>
     <g id="line2d_10">
      <g>
       <use style="stroke:#000000;stroke-width:0.8;" x="498.109091" xlink:href="#m2cca05aa9c" y="203.04"/>
      </g>
     </g>
    </g>
   </g>
   <g id="matplotlib.axis_2">
    <g id="ytick_1">
     <g id="line2d_11">
      <path clip-path="url(#pb2745830d1)" d="M 72 170.763949 
L 518.4 170.763949 
" style="fill:none;stroke:#b0b0b0;stroke-linecap:square;stroke-width:0.8;"/>
     </g>
     <g id="line2d_12">
      <defs>
       <path d="M 0 0 
L -3.5 0 
" id="m202f4f06ef" style="stroke:#000000;stroke-width:0.8;"/>
      </defs>
      <g>
       <use style="stroke:#000000;stroke-width:0.8;" x="72" xlink:href="#m202f4f06ef" y="170.763949"/>
      </g>
     </g>
     <g id="text_1">
      <!-- 26 -->
      <defs>
       <path d="M 45.84375 12.75 
L 41.21875 0 
L 2.15625 0 
L 2.15625 1.8125 
Q 19.390625 17.53125 26.421875 27.484375 
Q 33.453125 37.453125 33.453125 45.703125 
Q 33.453125 52 29.59375 56.046875 
Q 25.734375 60.109375 20.359375 60.109375 
Q 15.484375 60.109375 11.59375 57.25 
Q 7.71875 54.390625 5.859375 48.875 
L 4.046875 48.875 
Q 5.28125 57.90625 10.328125 62.734375 
Q 15.375 67.578125 22.953125 67.578125 
Q 31 67.578125 36.390625 62.40625 
Q 41.796875 57.234375 41.796875 50.203125 
Q 41.796875 45.171875 39.453125 40.140625 
Q 35.84375 32.234375 27.734375 23.390625 
Q 15.578125 10.109375 12.546875 7.375 
L 29.828125 7.375 
Q 35.109375 7.375 37.234375 7.765625 
Q 39.359375 8.15625 41.0625 9.34375 
Q 42.78125 10.546875 44.046875 12.75 
z
" id="TimesNewRomanPSMT-32"/>
       <path d="M 44.828125 67.578125 
L 44.828125 65.765625 
Q 38.375 65.140625 34.296875 63.203125 
Q 30.21875 61.28125 26.234375 57.328125 
Q 22.265625 53.375 19.65625 48.515625 
Q 17.046875 43.65625 15.28125 36.96875 
Q 22.3125 41.796875 29.390625 41.796875 
Q 36.1875 41.796875 41.15625 36.328125 
Q 46.140625 30.859375 46.140625 22.265625 
Q 46.140625 13.96875 41.109375 7.125 
Q 35.0625 -1.171875 25.09375 -1.171875 
Q 18.3125 -1.171875 13.578125 3.328125 
Q 4.296875 12.0625 4.296875 25.984375 
Q 4.296875 34.859375 7.859375 42.859375 
Q 11.421875 50.875 18.03125 57.078125 
Q 24.65625 63.28125 30.703125 65.421875 
Q 36.765625 67.578125 42 67.578125 
z
M 14.453125 33.40625 
Q 13.578125 26.8125 13.578125 22.75 
Q 13.578125 18.0625 15.3125 12.5625 
Q 17.046875 7.078125 20.453125 3.859375 
Q 22.953125 1.5625 26.515625 1.5625 
Q 30.765625 1.5625 34.109375 5.5625 
Q 37.453125 9.578125 37.453125 17 
Q 37.453125 25.34375 34.125 31.4375 
Q 30.8125 37.546875 24.703125 37.546875 
Q 22.859375 37.546875 20.734375 36.765625 
Q 18.609375 35.984375 14.453125 33.40625 
" id="TimesNewRomanPSMT-36"/>
      </defs>
      <g transform="translate(45 177.707699)scale(0.2 -0.2)">
       <use xlink:href="#TimesNewRomanPSMT-32"/>
       <use x="50" xlink:href="#TimesNewRomanPSMT-36"/>
      </g>
     </g>
    </g>
    <g id="ytick_2">
     <g id="line2d_13">
      <path clip-path="url(#pb2745830d1)" d="M 72 119.957612 
L 518.4 119.957612 
" style="fill:none;stroke:#b0b0b0;stroke-linecap:square;stroke-width:0.8;"/>
     </g>
     <g id="line2d_14">
      <g>
       <use style="stroke:#000000;stroke-width:0.8;" x="72" xlink:href="#m202f4f06ef" y="119.957612"/>
      </g>
     </g>
     <g id="text_2">
      <!-- 28 -->
      <defs>
       <path d="M 19.1875 33.34375 
Q 11.328125 39.796875 9.046875 43.703125 
Q 6.78125 47.609375 6.78125 51.8125 
Q 6.78125 58.25 11.765625 62.90625 
Q 16.75 67.578125 25 67.578125 
Q 33.015625 67.578125 37.890625 63.234375 
Q 42.78125 58.890625 42.78125 53.328125 
Q 42.78125 49.609375 40.140625 45.75 
Q 37.5 41.890625 29.15625 36.671875 
Q 37.75 30.03125 40.53125 26.21875 
Q 44.234375 21.234375 44.234375 15.71875 
Q 44.234375 8.734375 38.90625 3.78125 
Q 33.59375 -1.171875 24.953125 -1.171875 
Q 15.53125 -1.171875 10.25 4.734375 
Q 6.0625 9.46875 6.0625 15.09375 
Q 6.0625 19.484375 9.015625 23.796875 
Q 11.96875 28.125 19.1875 33.34375 
M 26.859375 38.578125 
Q 32.71875 43.84375 34.28125 46.890625 
Q 35.84375 49.953125 35.84375 53.8125 
Q 35.84375 58.9375 32.953125 61.84375 
Q 30.078125 64.75 25.09375 64.75 
Q 20.125 64.75 17 61.859375 
Q 13.875 58.984375 13.875 55.125 
Q 13.875 52.59375 15.15625 50.046875 
Q 16.453125 47.515625 18.84375 45.21875 
z
M 21.484375 31.5 
Q 17.4375 28.078125 15.484375 24.046875 
Q 13.53125 20.015625 13.53125 15.328125 
Q 13.53125 9.03125 16.96875 5.25 
Q 20.40625 1.46875 25.734375 1.46875 
Q 31 1.46875 34.171875 4.4375 
Q 37.359375 7.421875 37.359375 11.671875 
Q 37.359375 15.1875 35.5 17.96875 
Q 32.03125 23.140625 21.484375 31.5 
" id="TimesNewRomanPSMT-38"/>
      </defs>
      <g transform="translate(45 126.901362)scale(0.2 -0.2)">
       <use xlink:href="#TimesNewRomanPSMT-32"/>
       <use x="50" xlink:href="#TimesNewRomanPSMT-38"/>
      </g>
     </g>
    </g>
    <g id="ytick_3">
     <g id="line2d_15">
      <path clip-path="url(#pb2745830d1)" d="M 72 69.151274 
L 518.4 69.151274 
" style="fill:none;stroke:#b0b0b0;stroke-linecap:square;stroke-width:0.8;"/>
     </g>
     <g id="line2d_16">
      <g>
       <use style="stroke:#000000;stroke-width:0.8;" x="72" xlink:href="#m202f4f06ef" y="69.151274"/>
      </g>
     </g>
     <g id="text_3">
      <!-- 30 -->
      <defs>
       <path d="M 5.078125 53.609375 
Q 7.90625 60.296875 12.21875 63.9375 
Q 16.546875 67.578125 23 67.578125 
Q 30.953125 67.578125 35.203125 62.40625 
Q 38.421875 58.546875 38.421875 54.15625 
Q 38.421875 46.921875 29.34375 39.203125 
Q 35.453125 36.8125 38.578125 32.375 
Q 41.703125 27.9375 41.703125 21.921875 
Q 41.703125 13.328125 36.234375 7.03125 
Q 29.109375 -1.171875 15.578125 -1.171875 
Q 8.890625 -1.171875 6.46875 0.484375 
Q 4.046875 2.15625 4.046875 4.046875 
Q 4.046875 5.46875 5.1875 6.546875 
Q 6.34375 7.625 7.953125 7.625 
Q 9.1875 7.625 10.453125 7.234375 
Q 11.28125 6.984375 14.203125 5.4375 
Q 17.140625 3.90625 18.265625 3.609375 
Q 20.0625 3.078125 22.125 3.078125 
Q 27.09375 3.078125 30.78125 6.9375 
Q 34.46875 10.796875 34.46875 16.0625 
Q 34.46875 19.921875 32.765625 23.578125 
Q 31.5 26.3125 29.984375 27.734375 
Q 27.875 29.6875 24.21875 31.265625 
Q 20.5625 32.859375 16.75 32.859375 
L 15.1875 32.859375 
L 15.1875 34.328125 
Q 19.046875 34.8125 22.921875 37.109375 
Q 26.8125 39.40625 28.5625 42.625 
Q 30.328125 45.84375 30.328125 49.703125 
Q 30.328125 54.734375 27.171875 57.828125 
Q 24.03125 60.9375 19.34375 60.9375 
Q 11.765625 60.9375 6.6875 52.828125 
z
" id="TimesNewRomanPSMT-33"/>
       <path d="M 3.609375 32.71875 
Q 3.609375 44.046875 7.03125 52.21875 
Q 10.453125 60.40625 16.109375 64.40625 
Q 20.515625 67.578125 25.203125 67.578125 
Q 32.8125 67.578125 38.875 59.8125 
Q 46.4375 50.203125 46.4375 33.734375 
Q 46.4375 22.21875 43.109375 14.15625 
Q 39.796875 6.109375 34.640625 2.46875 
Q 29.5 -1.171875 24.703125 -1.171875 
Q 15.234375 -1.171875 8.9375 10.015625 
Q 3.609375 19.4375 3.609375 32.71875 
M 13.1875 31.5 
Q 13.1875 17.828125 16.546875 9.1875 
Q 19.34375 1.90625 24.859375 1.90625 
Q 27.484375 1.90625 30.3125 4.265625 
Q 33.15625 6.640625 34.625 12.203125 
Q 36.859375 20.609375 36.859375 35.890625 
Q 36.859375 47.21875 34.515625 54.78125 
Q 32.765625 60.40625 29.984375 62.75 
Q 27.984375 64.359375 25.140625 64.359375 
Q 21.828125 64.359375 19.234375 61.375 
Q 15.71875 57.328125 14.453125 48.625 
Q 13.1875 39.9375 13.1875 31.5 
" id="TimesNewRomanPSMT-30"/>
      </defs>
      <g transform="translate(45 76.095024)scale(0.2 -0.2)">
       <use xlink:href="#TimesNewRomanPSMT-33"/>
       <use x="50" xlink:href="#TimesNewRomanPSMT-30"/>
      </g>
     </g>
    </g>
    <g id="text_4">
     <!-- Room Temperature[$\circ$C] -->
     <defs>
      <path d="M 67.578125 0 
L 49.90625 0 
L 27.484375 30.953125 
Q 25 30.859375 23.4375 30.859375 
Q 22.796875 30.859375 22.0625 30.875 
Q 21.34375 30.90625 20.5625 30.953125 
L 20.5625 11.71875 
Q 20.5625 5.46875 21.921875 3.953125 
Q 23.78125 1.8125 27.484375 1.8125 
L 30.078125 1.8125 
L 30.078125 0 
L 1.703125 0 
L 1.703125 1.8125 
L 4.203125 1.8125 
Q 8.40625 1.8125 10.203125 4.546875 
Q 11.234375 6.0625 11.234375 11.71875 
L 11.234375 54.5 
Q 11.234375 60.75 9.859375 62.25 
Q 7.953125 64.40625 4.203125 64.40625 
L 1.703125 64.40625 
L 1.703125 66.21875 
L 25.828125 66.21875 
Q 36.375 66.21875 41.375 64.671875 
Q 46.390625 63.140625 49.875 59.015625 
Q 53.375 54.890625 53.375 49.171875 
Q 53.375 43.0625 49.390625 38.5625 
Q 45.40625 34.078125 37.0625 32.234375 
L 50.734375 13.234375 
Q 55.421875 6.6875 58.78125 4.53125 
Q 62.15625 2.390625 67.578125 1.8125 
z
M 20.5625 34.03125 
Q 21.484375 34.03125 22.171875 34 
Q 22.859375 33.984375 23.296875 33.984375 
Q 32.765625 33.984375 37.578125 38.078125 
Q 42.390625 42.1875 42.390625 48.53125 
Q 42.390625 54.734375 38.5 58.609375 
Q 34.625 62.5 28.21875 62.5 
Q 25.390625 62.5 20.5625 61.578125 
z
" id="TimesNewRomanPSMT-52"/>
      <path d="M 25 46.046875 
Q 35.15625 46.046875 41.3125 38.328125 
Q 46.53125 31.734375 46.53125 23.1875 
Q 46.53125 17.1875 43.640625 11.03125 
Q 40.765625 4.890625 35.71875 1.75 
Q 30.671875 -1.375 24.46875 -1.375 
Q 14.359375 -1.375 8.40625 6.6875 
Q 3.375 13.484375 3.375 21.921875 
Q 3.375 28.078125 6.421875 34.15625 
Q 9.46875 40.234375 14.453125 43.140625 
Q 19.4375 46.046875 25 46.046875 
M 23.484375 42.875 
Q 20.90625 42.875 18.28125 41.328125 
Q 15.671875 39.796875 14.0625 35.9375 
Q 12.453125 32.078125 12.453125 26.03125 
Q 12.453125 16.265625 16.328125 9.171875 
Q 20.21875 2.09375 26.5625 2.09375 
Q 31.296875 2.09375 34.375 6 
Q 37.453125 9.90625 37.453125 19.4375 
Q 37.453125 31.34375 32.328125 38.1875 
Q 28.859375 42.875 23.484375 42.875 
" id="TimesNewRomanPSMT-6f"/>
      <path d="M 16.40625 36.53125 
Q 21.296875 41.40625 22.171875 42.140625 
Q 24.359375 44 26.890625 45.015625 
Q 29.4375 46.046875 31.9375 46.046875 
Q 36.140625 46.046875 39.15625 43.59375 
Q 42.1875 41.15625 43.21875 36.53125 
Q 48.25 42.390625 51.703125 44.21875 
Q 55.171875 46.046875 58.84375 46.046875 
Q 62.40625 46.046875 65.15625 44.21875 
Q 67.921875 42.390625 69.53125 38.234375 
Q 70.609375 35.40625 70.609375 29.34375 
L 70.609375 10.109375 
Q 70.609375 5.90625 71.234375 4.34375 
Q 71.734375 3.265625 73.046875 2.515625 
Q 74.359375 1.765625 77.34375 1.765625 
L 77.34375 0 
L 55.28125 0 
L 55.28125 1.765625 
L 56.203125 1.765625 
Q 59.078125 1.765625 60.6875 2.875 
Q 61.8125 3.65625 62.3125 5.375 
Q 62.5 6.203125 62.5 10.109375 
L 62.5 29.34375 
Q 62.5 34.8125 61.1875 37.0625 
Q 59.28125 40.1875 55.078125 40.1875 
Q 52.484375 40.1875 49.875 38.890625 
Q 47.265625 37.59375 43.5625 34.078125 
L 43.453125 33.546875 
L 43.5625 31.453125 
L 43.5625 10.109375 
Q 43.5625 5.515625 44.0625 4.390625 
Q 44.578125 3.265625 45.984375 2.515625 
Q 47.40625 1.765625 50.828125 1.765625 
L 50.828125 0 
L 28.21875 0 
L 28.21875 1.765625 
Q 31.9375 1.765625 33.328125 2.640625 
Q 34.71875 3.515625 35.25 5.28125 
Q 35.5 6.109375 35.5 10.109375 
L 35.5 29.34375 
Q 35.5 34.8125 33.890625 37.203125 
Q 31.734375 40.328125 27.875 40.328125 
Q 25.25 40.328125 22.65625 38.921875 
Q 18.609375 36.765625 16.40625 34.078125 
L 16.40625 10.109375 
Q 16.40625 5.71875 17.015625 4.390625 
Q 17.625 3.078125 18.8125 2.421875 
Q 20.015625 1.765625 23.6875 1.765625 
L 23.6875 0 
L 1.5625 0 
L 1.5625 1.765625 
Q 4.640625 1.765625 5.859375 2.421875 
Q 7.078125 3.078125 7.703125 4.515625 
Q 8.34375 5.953125 8.34375 10.109375 
L 8.34375 27.203125 
Q 8.34375 34.578125 7.90625 36.71875 
Q 7.5625 38.328125 6.828125 38.9375 
Q 6.109375 39.546875 4.828125 39.546875 
Q 3.46875 39.546875 1.5625 38.8125 
L 0.828125 40.578125 
L 14.3125 46.046875 
L 16.40625 46.046875 
z
" id="TimesNewRomanPSMT-6d"/>
      <path id="TimesNewRomanPSMT-20"/>
      <path d="M 57.859375 66.21875 
L 58.59375 50.6875 
L 56.734375 50.6875 
Q 56.203125 54.78125 55.28125 56.546875 
Q 53.765625 59.375 51.25 60.71875 
Q 48.734375 62.0625 44.625 62.0625 
L 35.296875 62.0625 
L 35.296875 11.46875 
Q 35.296875 5.375 36.625 3.859375 
Q 38.484375 1.8125 42.328125 1.8125 
L 44.625 1.8125 
L 44.625 0 
L 16.546875 0 
L 16.546875 1.8125 
L 18.890625 1.8125 
Q 23.09375 1.8125 24.859375 4.34375 
Q 25.921875 5.90625 25.921875 11.46875 
L 25.921875 62.0625 
L 17.96875 62.0625 
Q 13.328125 62.0625 11.375 61.375 
Q 8.84375 60.453125 7.03125 57.8125 
Q 5.21875 55.171875 4.890625 50.6875 
L 3.03125 50.6875 
L 3.8125 66.21875 
z
" id="TimesNewRomanPSMT-54"/>
      <path d="M 10.640625 27.875 
Q 10.59375 17.921875 15.484375 12.25 
Q 20.359375 6.59375 26.953125 6.59375 
Q 31.34375 6.59375 34.59375 9 
Q 37.84375 11.421875 40.046875 17.28125 
L 41.546875 16.3125 
Q 40.53125 9.625 35.59375 4.125 
Q 30.671875 -1.375 23.25 -1.375 
Q 15.1875 -1.375 9.453125 4.90625 
Q 3.71875 11.1875 3.71875 21.78125 
Q 3.71875 33.25 9.59375 39.671875 
Q 15.484375 46.09375 24.359375 46.09375 
Q 31.890625 46.09375 36.71875 41.140625 
Q 41.546875 36.1875 41.546875 27.875 
z
M 10.640625 30.71875 
L 31.34375 30.71875 
Q 31.109375 35.015625 30.328125 36.765625 
Q 29.109375 39.5 26.6875 41.0625 
Q 24.265625 42.625 21.625 42.625 
Q 17.578125 42.625 14.375 39.46875 
Q 11.1875 36.328125 10.640625 30.71875 
" id="TimesNewRomanPSMT-65"/>
      <path d="M -0.09375 40.28125 
L 13.671875 45.84375 
L 15.53125 45.84375 
L 15.53125 35.40625 
Q 19 41.3125 22.484375 43.671875 
Q 25.984375 46.046875 29.828125 46.046875 
Q 36.578125 46.046875 41.0625 40.765625 
Q 46.578125 34.328125 46.578125 23.96875 
Q 46.578125 12.40625 39.9375 4.828125 
Q 34.46875 -1.375 26.171875 -1.375 
Q 22.5625 -1.375 19.921875 -0.34375 
Q 17.96875 0.390625 15.53125 2.59375 
L 15.53125 -11.03125 
Q 15.53125 -15.625 16.09375 -16.859375 
Q 16.65625 -18.109375 18.046875 -18.84375 
Q 19.4375 -19.578125 23.09375 -19.578125 
L 23.09375 -21.390625 
L -0.34375 -21.390625 
L -0.34375 -19.578125 
L 0.875 -19.578125 
Q 3.5625 -19.625 5.46875 -18.5625 
Q 6.390625 -18.015625 6.90625 -16.8125 
Q 7.421875 -15.625 7.421875 -10.75 
L 7.421875 31.546875 
Q 7.421875 35.890625 7.03125 37.0625 
Q 6.640625 38.234375 5.78125 38.8125 
Q 4.9375 39.40625 3.46875 39.40625 
Q 2.296875 39.40625 0.484375 38.71875 
z
M 15.53125 32.515625 
L 15.53125 15.828125 
Q 15.53125 10.40625 15.96875 8.6875 
Q 16.65625 5.859375 19.3125 3.703125 
Q 21.96875 1.5625 26.03125 1.5625 
Q 30.90625 1.5625 33.9375 5.375 
Q 37.890625 10.359375 37.890625 19.390625 
Q 37.890625 29.640625 33.40625 35.15625 
Q 30.28125 38.96875 25.984375 38.96875 
Q 23.640625 38.96875 21.34375 37.796875 
Q 19.578125 36.921875 15.53125 32.515625 
" id="TimesNewRomanPSMT-70"/>
      <path d="M 16.21875 46.046875 
L 16.21875 35.984375 
Q 21.828125 46.046875 27.734375 46.046875 
Q 30.421875 46.046875 32.171875 44.40625 
Q 33.9375 42.78125 33.9375 40.625 
Q 33.9375 38.71875 32.65625 37.390625 
Q 31.390625 36.078125 29.640625 36.078125 
Q 27.9375 36.078125 25.8125 37.765625 
Q 23.6875 39.453125 22.65625 39.453125 
Q 21.78125 39.453125 20.75 38.484375 
Q 18.5625 36.46875 16.21875 31.890625 
L 16.21875 10.453125 
Q 16.21875 6.734375 17.140625 4.828125 
Q 17.78125 3.515625 19.390625 2.640625 
Q 21 1.765625 24.03125 1.765625 
L 24.03125 0 
L 1.125 0 
L 1.125 1.765625 
Q 4.546875 1.765625 6.203125 2.828125 
Q 7.421875 3.609375 7.90625 5.328125 
Q 8.15625 6.15625 8.15625 10.0625 
L 8.15625 27.390625 
Q 8.15625 35.203125 7.828125 36.6875 
Q 7.515625 38.1875 6.65625 38.859375 
Q 5.8125 39.546875 4.546875 39.546875 
Q 3.03125 39.546875 1.125 38.8125 
L 0.640625 40.578125 
L 14.15625 46.046875 
z
" id="TimesNewRomanPSMT-72"/>
      <path d="M 28.46875 6.453125 
Q 21.578125 1.125 19.828125 0.296875 
Q 17.1875 -0.921875 14.203125 -0.921875 
Q 9.578125 -0.921875 6.5625 2.25 
Q 3.5625 5.421875 3.5625 10.59375 
Q 3.5625 13.875 5.03125 16.265625 
Q 7.03125 19.578125 11.984375 22.5 
Q 16.9375 25.4375 28.46875 29.640625 
L 28.46875 31.390625 
Q 28.46875 38.09375 26.34375 40.578125 
Q 24.21875 43.0625 20.171875 43.0625 
Q 17.09375 43.0625 15.28125 41.40625 
Q 13.421875 39.75 13.421875 37.59375 
L 13.53125 34.765625 
Q 13.53125 32.515625 12.375 31.296875 
Q 11.234375 30.078125 9.375 30.078125 
Q 7.5625 30.078125 6.421875 31.34375 
Q 5.28125 32.625 5.28125 34.8125 
Q 5.28125 39.015625 9.578125 42.53125 
Q 13.875 46.046875 21.625 46.046875 
Q 27.59375 46.046875 31.390625 44.046875 
Q 34.28125 42.53125 35.640625 39.3125 
Q 36.53125 37.203125 36.53125 30.71875 
L 36.53125 15.53125 
Q 36.53125 9.125 36.765625 7.6875 
Q 37.015625 6.25 37.578125 5.765625 
Q 38.140625 5.28125 38.875 5.28125 
Q 39.65625 5.28125 40.234375 5.609375 
Q 41.265625 6.25 44.1875 9.1875 
L 44.1875 6.453125 
Q 38.71875 -0.875 33.734375 -0.875 
Q 31.34375 -0.875 29.921875 0.78125 
Q 28.515625 2.4375 28.46875 6.453125 
M 28.46875 9.625 
L 28.46875 26.65625 
Q 21.09375 23.734375 18.953125 22.515625 
Q 15.09375 20.359375 13.421875 18.015625 
Q 11.765625 15.671875 11.765625 12.890625 
Q 11.765625 9.375 13.859375 7.046875 
Q 15.96875 4.734375 18.703125 4.734375 
Q 22.40625 4.734375 28.46875 9.625 
" id="TimesNewRomanPSMT-61"/>
      <path d="M 16.109375 59.421875 
L 16.109375 44.734375 
L 26.5625 44.734375 
L 26.5625 41.3125 
L 16.109375 41.3125 
L 16.109375 12.3125 
Q 16.109375 7.953125 17.359375 6.4375 
Q 18.609375 4.9375 20.5625 4.9375 
Q 22.171875 4.9375 23.6875 5.9375 
Q 25.203125 6.9375 26.03125 8.890625 
L 27.9375 8.890625 
Q 26.21875 4.109375 23.09375 1.6875 
Q 19.96875 -0.734375 16.65625 -0.734375 
Q 14.40625 -0.734375 12.25 0.515625 
Q 10.109375 1.765625 9.078125 4.078125 
Q 8.0625 6.390625 8.0625 11.234375 
L 8.0625 41.3125 
L 0.984375 41.3125 
L 0.984375 42.921875 
Q 3.65625 44 6.46875 46.5625 
Q 9.28125 49.125 11.46875 52.640625 
Q 12.59375 54.5 14.59375 59.421875 
z
" id="TimesNewRomanPSMT-74"/>
      <path d="M 42.328125 44.734375 
L 42.328125 17.625 
Q 42.328125 9.859375 42.6875 8.125 
Q 43.0625 6.390625 43.859375 5.703125 
Q 44.671875 5.03125 45.75 5.03125 
Q 47.265625 5.03125 49.171875 5.859375 
L 49.859375 4.15625 
L 36.46875 -1.375 
L 34.28125 -1.375 
L 34.28125 8.109375 
Q 28.515625 1.859375 25.484375 0.234375 
Q 22.46875 -1.375 19.09375 -1.375 
Q 15.328125 -1.375 12.5625 0.796875 
Q 9.8125 2.984375 8.734375 6.390625 
Q 7.671875 9.8125 7.671875 16.0625 
L 7.671875 36.03125 
Q 7.671875 39.203125 6.984375 40.421875 
Q 6.296875 41.65625 4.953125 42.3125 
Q 3.609375 42.96875 0.09375 42.921875 
L 0.09375 44.734375 
L 15.765625 44.734375 
L 15.765625 14.796875 
Q 15.765625 8.546875 17.9375 6.59375 
Q 20.125 4.640625 23.1875 4.640625 
Q 25.296875 4.640625 27.953125 5.953125 
Q 30.609375 7.28125 34.28125 10.984375 
L 34.28125 36.328125 
Q 34.28125 40.140625 32.890625 41.484375 
Q 31.5 42.828125 27.09375 42.921875 
L 27.09375 44.734375 
z
" id="TimesNewRomanPSMT-75"/>
      <path d="M 29.6875 -19.828125 
L 8.203125 -19.828125 
L 8.203125 67.71875 
L 29.6875 67.71875 
L 29.6875 63.875 
L 15.53125 63.875 
L 15.53125 -16.015625 
L 29.6875 -16.015625 
z
" id="TimesNewRomanPSMT-5b"/>
      <path d="M 31.25 40.921875 
Q 27.34375 40.921875 24.65625 38.203125 
Q 21.96875 35.5 21.96875 31.59375 
Q 21.96875 27.734375 24.65625 25.078125 
Q 27.34375 22.421875 31.25 22.421875 
Q 35.15625 22.421875 37.84375 25.078125 
Q 40.53125 27.734375 40.53125 31.59375 
Q 40.53125 35.453125 37.8125 38.1875 
Q 35.109375 40.921875 31.25 40.921875 
M 31.25 47.21875 
Q 34.375 47.21875 37.25 46.015625 
Q 40.140625 44.828125 42.234375 42.578125 
Q 44.484375 40.390625 45.609375 37.59375 
Q 46.734375 34.8125 46.734375 31.59375 
Q 46.734375 25.15625 42.21875 20.6875 
Q 37.703125 16.21875 31.15625 16.21875 
Q 24.5625 16.21875 20.15625 20.609375 
Q 15.765625 25 15.765625 31.59375 
Q 15.765625 38.140625 20.25 42.671875 
Q 24.75 47.21875 31.25 47.21875 
" id="DejaVuSans-2218"/>
      <path d="M 60.203125 67.71875 
L 61.71875 45.21875 
L 60.203125 45.21875 
Q 57.171875 55.328125 51.5625 59.765625 
Q 45.953125 64.203125 38.09375 64.203125 
Q 31.5 64.203125 26.171875 60.859375 
Q 20.84375 57.515625 17.796875 50.1875 
Q 14.75 42.875 14.75 31.984375 
Q 14.75 23 17.625 16.40625 
Q 20.515625 9.8125 26.296875 6.296875 
Q 32.078125 2.78125 39.5 2.78125 
Q 45.953125 2.78125 50.875 5.53125 
Q 55.8125 8.296875 61.71875 16.5 
L 63.234375 15.53125 
Q 58.25 6.6875 51.609375 2.578125 
Q 44.96875 -1.515625 35.84375 -1.515625 
Q 19.390625 -1.515625 10.359375 10.6875 
Q 3.609375 19.78125 3.609375 32.078125 
Q 3.609375 42 8.046875 50.296875 
Q 12.5 58.59375 20.28125 63.15625 
Q 28.078125 67.71875 37.3125 67.71875 
Q 44.484375 67.71875 51.46875 64.203125 
Q 53.515625 63.140625 54.390625 63.140625 
Q 55.71875 63.140625 56.6875 64.0625 
Q 57.953125 65.375 58.5 67.71875 
z
" id="TimesNewRomanPSMT-43"/>
      <path d="M 3.65625 67.71875 
L 25.140625 67.71875 
L 25.140625 -19.875 
L 3.65625 -19.875 
L 3.65625 -16.015625 
L 17.828125 -16.015625 
L 17.828125 63.875 
L 3.65625 63.875 
z
" id="TimesNewRomanPSMT-5d"/>
     </defs>
     <g transform="translate(36.6 225.14)rotate(-90)scale(0.2 -0.2)">
      <use transform="translate(0 0.28125)" xlink:href="#TimesNewRomanPSMT-52"/>
      <use transform="translate(66.699219 0.28125)" xlink:href="#TimesNewRomanPSMT-6f"/>
      <use transform="translate(116.699219 0.28125)" xlink:href="#TimesNewRomanPSMT-6f"/>
      <use transform="translate(166.699219 0.28125)" xlink:href="#TimesNewRomanPSMT-6d"/>
      <use transform="translate(244.482422 0.28125)" xlink:href="#TimesNewRomanPSMT-20"/>
      <use transform="translate(269.482422 0.28125)" xlink:href="#TimesNewRomanPSMT-54"/>
      <use transform="translate(330.566406 0.28125)" xlink:href="#TimesNewRomanPSMT-65"/>
      <use transform="translate(374.951172 0.28125)" xlink:href="#TimesNewRomanPSMT-6d"/>
      <use transform="translate(452.734375 0.28125)" xlink:href="#TimesNewRomanPSMT-70"/>
      <use transform="translate(502.734375 0.28125)" xlink:href="#TimesNewRomanPSMT-65"/>
      <use transform="translate(547.119141 0.28125)" xlink:href="#TimesNewRomanPSMT-72"/>
      <use transform="translate(580.419922 0.28125)" xlink:href="#TimesNewRomanPSMT-61"/>
      <use transform="translate(624.804688 0.28125)" xlink:href="#TimesNewRomanPSMT-74"/>
      <use transform="translate(652.587891 0.28125)" xlink:href="#TimesNewRomanPSMT-75"/>
      <use transform="translate(702.587891 0.28125)" xlink:href="#TimesNewRomanPSMT-72"/>
      <use transform="translate(735.888672 0.28125)" xlink:href="#TimesNewRomanPSMT-65"/>
      <use transform="translate(780.273438 0.28125)" xlink:href="#TimesNewRomanPSMT-5b"/>
      <use transform="translate(813.574219 0.28125)" xlink:href="#DejaVuSans-2218"/>
      <use transform="translate(876.171875 0.28125)" xlink:href="#TimesNewRomanPSMT-43"/>
      <use transform="translate(942.871094 0.28125)" xlink:href="#TimesNewRomanPSMT-5d"/>
     </g>
    </g>
   </g>
   <g id="line2d_17">
    <path clip-path="url(#pb2745830d1)" d="M 92.290909 196.167273 
L 108.523636 196.167273 
L 124.756364 196.167273 
L 140.989091 196.167273 
L 157.221818 196.167273 
L 173.454545 196.167273 
L 189.687273 193.264621 
L 205.92 185.94139 
L 222.152727 176.918725 
L 238.385455 167.896061 
L 254.618182 158.873396 
L 270.850909 149.850732 
L 287.083636 140.828067 
L 303.316364 131.805402 
L 319.549091 122.782738 
L 335.781818 113.760073 
L 352.014545 104.737409 
L 368.247273 95.714744 
L 384.48 86.69208 
L 400.712727 77.669415 
L 416.945455 68.646751 
L 433.178182 65.56421 
L 449.410909 63.851339 
L 465.643636 62.138468 
L 481.876364 60.425598 
L 498.109091 58.712727 
" style="fill:none;opacity:0.8;stroke:#000000;stroke-dasharray:6,10,2,10,2,10;stroke-dashoffset:0;"/>
    <defs>
     <path d="M 0 6 
C 1.591219 6 3.117479 5.367802 4.242641 4.242641 
C 5.367802 3.117479 6 1.591219 6 0 
C 6 -1.591219 5.367802 -3.117479 4.242641 -4.242641 
C 3.117479 -5.367802 1.591219 -6 0 -6 
C -1.591219 -6 -3.117479 -5.367802 -4.242641 -4.242641 
C -5.367802 -3.117479 -6 -1.591219 -6 0 
C -6 1.591219 -5.367802 3.117479 -4.242641 4.242641 
C -3.117479 5.367802 -1.591219 6 0 6 
z
" id="m8e17d8c2f5" style="stroke:#000000;"/>
    </defs>
    <g clip-path="url(#pb2745830d1)">
     <use style="fill:none;opacity:0.8;stroke:#000000;" x="92.290909" xlink:href="#m8e17d8c2f5" y="196.167273"/>
     <use style="fill:none;opacity:0.8;stroke:#000000;" x="140.989091" xlink:href="#m8e17d8c2f5" y="196.167273"/>
     <use style="fill:none;opacity:0.8;stroke:#000000;" x="189.687273" xlink:href="#m8e17d8c2f5" y="193.264621"/>
     <use style="fill:none;opacity:0.8;stroke:#000000;" x="238.385455" xlink:href="#m8e17d8c2f5" y="167.896061"/>
     <use style="fill:none;opacity:0.8;stroke:#000000;" x="287.083636" xlink:href="#m8e17d8c2f5" y="140.828067"/>
     <use style="fill:none;opacity:0.8;stroke:#000000;" x="335.781818" xlink:href="#m8e17d8c2f5" y="113.760073"/>
     <use style="fill:none;opacity:0.8;stroke:#000000;" x="384.48" xlink:href="#m8e17d8c2f5" y="86.69208"/>
     <use style="fill:none;opacity:0.8;stroke:#000000;" x="433.178182" xlink:href="#m8e17d8c2f5" y="65.56421"/>
     <use style="fill:none;opacity:0.8;stroke:#000000;" x="481.876364" xlink:href="#m8e17d8c2f5" y="60.425598"/>
    </g>
   </g>
   <g id="line2d_18">
    <path clip-path="url(#pb2745830d1)" d="M 92.290909 196.167273 
L 108.523636 196.167273 
L 124.756364 196.167273 
L 140.989091 196.167273 
L 157.221818 196.167273 
L 173.454545 196.167273 
L 189.687273 190.697602 
L 205.92 185.227932 
L 222.152727 179.758261 
L 238.385455 173.357741 
L 254.618182 166.814013 
L 270.850909 160.270286 
L 287.083636 153.726558 
L 303.316364 147.18283 
L 319.549091 140.639102 
L 335.781818 134.095375 
L 352.014545 127.551647 
L 368.247273 121.007919 
L 384.48 114.464192 
L 400.712727 107.920464 
L 416.945455 101.376736 
L 433.178182 98.052279 
L 449.410909 94.72782 
L 465.643636 91.403361 
L 481.876364 88.078902 
L 498.109091 84.754443 
" style="fill:none;opacity:0.8;stroke:#000000;stroke-dasharray:4,2;stroke-dashoffset:0;"/>
    <defs>
     <path d="M 0 3.5 
C 0.928211 3.5 1.81853 3.131218 2.474874 2.474874 
C 3.131218 1.81853 3.5 0.928211 3.5 0 
C 3.5 -0.928211 3.131218 -1.81853 2.474874 -2.474874 
C 1.81853 -3.131218 0.928211 -3.5 0 -3.5 
C -0.928211 -3.5 -1.81853 -3.131218 -2.474874 -2.474874 
C -3.131218 -1.81853 -3.5 -0.928211 -3.5 0 
C -3.5 0.928211 -3.131218 1.81853 -2.474874 2.474874 
C -1.81853 3.131218 -0.928211 3.5 0 3.5 
z
" id="m1571586cb4" style="stroke:#000000;"/>
    </defs>
    <g clip-path="url(#pb2745830d1)">
     <use style="opacity:0.8;stroke:#000000;" x="92.290909" xlink:href="#m1571586cb4" y="196.167273"/>
     <use style="opacity:0.8;stroke:#000000;" x="140.989091" xlink:href="#m1571586cb4" y="196.167273"/>
     <use style="opacity:0.8;stroke:#000000;" x="189.687273" xlink:href="#m1571586cb4" y="190.697602"/>
     <use style="opacity:0.8;stroke:#000000;" x="238.385455" xlink:href="#m1571586cb4" y="173.357741"/>
     <use style="opacity:0.8;stroke:#000000;" x="287.083636" xlink:href="#m1571586cb4" y="153.726558"/>
     <use style="opacity:0.8;stroke:#000000;" x="335.781818" xlink:href="#m1571586cb4" y="134.095375"/>
     <use style="opacity:0.8;stroke:#000000;" x="384.48" xlink:href="#m1571586cb4" y="114.464192"/>
     <use style="opacity:0.8;stroke:#000000;" x="433.178182" xlink:href="#m1571586cb4" y="98.052279"/>
     <use style="opacity:0.8;stroke:#000000;" x="481.876364" xlink:href="#m1571586cb4" y="88.078902"/>
    </g>
   </g>
   <g id="line2d_19">
    <path clip-path="url(#pb2745830d1)" d="M 92.290909 196.167273 
L 108.523636 196.167273 
L 124.756364 196.167273 
L 140.989091 196.167273 
L 157.221818 196.167273 
L 173.454545 196.167273 
L 189.687273 190.697602 
L 205.92 185.227932 
L 222.152727 179.758261 
L 238.385455 173.16475 
L 254.618182 166.398341 
L 270.850909 159.631931 
L 287.083636 152.865522 
L 303.316364 146.099112 
L 319.549091 139.332703 
L 335.781818 132.566293 
L 352.014545 125.799884 
L 368.247273 119.033474 
L 384.48 112.267065 
L 400.712727 105.095861 
L 416.945455 96.139195 
L 433.178182 91.808217 
L 449.410909 88.487443 
L 465.643636 85.166668 
L 481.876364 81.845894 
L 498.109091 78.525119 
" style="fill:none;opacity:0.8;stroke:#000000;stroke-dasharray:8,8;stroke-dashoffset:0;"/>
    <defs>
     <path d="M -0 6 
L 6 -6 
L -6 -6 
z
" id="mcce8915c92" style="stroke:#000000;stroke-linejoin:miter;"/>
    </defs>
    <g clip-path="url(#pb2745830d1)">
     <use style="fill:none;opacity:0.8;stroke:#000000;stroke-linejoin:miter;" x="124.756364" xlink:href="#mcce8915c92" y="196.167273"/>
     <use style="fill:none;opacity:0.8;stroke:#000000;stroke-linejoin:miter;" x="173.454545" xlink:href="#mcce8915c92" y="196.167273"/>
     <use style="fill:none;opacity:0.8;stroke:#000000;stroke-linejoin:miter;" x="222.152727" xlink:href="#mcce8915c92" y="179.758261"/>
     <use style="fill:none;opacity:0.8;stroke:#000000;stroke-linejoin:miter;" x="270.850909" xlink:href="#mcce8915c92" y="159.631931"/>
     <use style="fill:none;opacity:0.8;stroke:#000000;stroke-linejoin:miter;" x="319.549091" xlink:href="#mcce8915c92" y="139.332703"/>
     <use style="fill:none;opacity:0.8;stroke:#000000;stroke-linejoin:miter;" x="368.247273" xlink:href="#mcce8915c92" y="119.033474"/>
     <use style="fill:none;opacity:0.8;stroke:#000000;stroke-linejoin:miter;" x="416.945455" xlink:href="#mcce8915c92" y="96.139195"/>
     <use style="fill:none;opacity:0.8;stroke:#000000;stroke-linejoin:miter;" x="465.643636" xlink:href="#mcce8915c92" y="85.166668"/>
    </g>
   </g>
   <g id="line2d_20">
    <path clip-path="url(#pb2745830d1)" d="M 92.290909 194.264826 
L 108.523636 194.264826 
L 124.756364 194.264826 
L 140.989091 194.264826 
L 157.221818 194.264826 
L 173.454545 194.264826 
L 189.687273 194.264826 
L 205.92 194.264826 
L 222.152727 194.264826 
L 238.385455 194.264826 
L 254.618182 194.264826 
L 270.850909 194.264826 
L 287.083636 194.264826 
L 303.316364 194.264826 
L 319.549091 194.264826 
L 335.781818 194.264826 
L 352.014545 194.264826 
L 368.247273 194.264826 
L 384.48 194.264826 
L 400.712727 194.264826 
L 416.945455 194.264826 
L 433.178182 194.264826 
L 449.410909 194.264826 
L 465.643636 194.264826 
L 481.876364 194.264826 
L 498.109091 194.264826 
" style="fill:none;opacity:0.8;stroke:#000000;stroke-dasharray:;stroke-dashoffset:0;"/>
   </g>
   <g id="patch_3">
    <path d="M 72 203.04 
L 72 51.84 
" style="fill:none;stroke:#000000;stroke-linecap:square;stroke-linejoin:miter;stroke-width:0.8;"/>
   </g>
   <g id="patch_4">
    <path d="M 518.4 203.04 
L 518.4 51.84 
" style="fill:none;stroke:#000000;stroke-linecap:square;stroke-linejoin:miter;stroke-width:0.8;"/>
   </g>
   <g id="patch_5">
    <path d="M 72 203.04 
L 518.4 203.04 
" style="fill:none;stroke:#000000;stroke-linecap:square;stroke-linejoin:miter;stroke-width:0.8;"/>
   </g>
   <g id="patch_6">
    <path d="M 72 51.84 
L 518.4 51.84 
" style="fill:none;stroke:#000000;stroke-linecap:square;stroke-linejoin:miter;stroke-width:0.8;"/>
   </g>
   <g id="legend_1">
    <g id="patch_7">
     <path d="M 83.2 155.13 
L 201.5 155.13 
Q 204.7 155.13 204.7 151.93 
L 204.7 63.04 
Q 204.7 59.84 201.5 59.84 
L 83.2 59.84 
Q 80 59.84 80 63.04 
L 80 151.93 
Q 80 155.13 83.2 155.13 
z
" style="fill:#ffffff;opacity:0.8;stroke:#cccccc;stroke-linejoin:miter;"/>
    </g>
    <g id="line2d_21">
     <path d="M 86.4 71.84 
L 118.4 71.84 
" style="fill:none;opacity:0.8;stroke:#000000;stroke-dasharray:6,10,2,10,2,10;stroke-dashoffset:0;"/>
    </g>
    <g id="line2d_22">
     <g>
      <use style="fill:none;opacity:0.8;stroke:#000000;" x="102.4" xlink:href="#m8e17d8c2f5" y="71.84"/>
     </g>
    </g>
    <g id="text_5">
     <!-- Option (a) -->
     <defs>
      <path d="M 36.578125 67.71875 
Q 49.46875 67.71875 58.90625 57.921875 
Q 68.359375 48.140625 68.359375 33.5 
Q 68.359375 18.40625 58.828125 8.4375 
Q 49.3125 -1.515625 35.796875 -1.515625 
Q 22.125 -1.515625 12.8125 8.203125 
Q 3.515625 17.921875 3.515625 33.34375 
Q 3.515625 49.125 14.265625 59.078125 
Q 23.578125 67.71875 36.578125 67.71875 
M 35.640625 64.15625 
Q 26.765625 64.15625 21.390625 57.5625 
Q 14.703125 49.359375 14.703125 33.546875 
Q 14.703125 17.328125 21.625 8.59375 
Q 26.953125 1.953125 35.6875 1.953125 
Q 45.015625 1.953125 51.09375 9.21875 
Q 57.171875 16.5 57.171875 32.171875 
Q 57.171875 49.171875 50.484375 57.515625 
Q 45.125 64.15625 35.640625 64.15625 
" id="TimesNewRomanPSMT-4f"/>
      <path d="M 14.5 69.4375 
Q 16.546875 69.4375 17.984375 67.984375 
Q 19.4375 66.546875 19.4375 64.5 
Q 19.4375 62.453125 17.984375 60.984375 
Q 16.546875 59.515625 14.5 59.515625 
Q 12.453125 59.515625 10.984375 60.984375 
Q 9.515625 62.453125 9.515625 64.5 
Q 9.515625 66.546875 10.953125 67.984375 
Q 12.40625 69.4375 14.5 69.4375 
M 18.5625 46.046875 
L 18.5625 10.109375 
Q 18.5625 5.90625 19.171875 4.515625 
Q 19.78125 3.125 20.96875 2.4375 
Q 22.171875 1.765625 25.34375 1.765625 
L 25.34375 0 
L 3.609375 0 
L 3.609375 1.765625 
Q 6.890625 1.765625 8 2.390625 
Q 9.125 3.03125 9.78125 4.484375 
Q 10.453125 5.953125 10.453125 10.109375 
L 10.453125 27.34375 
Q 10.453125 34.625 10.015625 36.765625 
Q 9.671875 38.328125 8.9375 38.9375 
Q 8.203125 39.546875 6.9375 39.546875 
Q 5.5625 39.546875 3.609375 38.8125 
L 2.9375 40.578125 
L 16.40625 46.046875 
z
" id="TimesNewRomanPSMT-69"/>
      <path d="M 16.15625 36.578125 
Q 24.03125 46.046875 31.15625 46.046875 
Q 34.8125 46.046875 37.453125 44.21875 
Q 40.09375 42.390625 41.65625 38.1875 
Q 42.71875 35.25 42.71875 29.203125 
L 42.71875 10.109375 
Q 42.71875 5.859375 43.40625 4.34375 
Q 43.953125 3.125 45.140625 2.4375 
Q 46.34375 1.765625 49.5625 1.765625 
L 49.5625 0 
L 27.4375 0 
L 27.4375 1.765625 
L 28.375 1.765625 
Q 31.5 1.765625 32.734375 2.703125 
Q 33.984375 3.65625 34.46875 5.515625 
Q 34.671875 6.25 34.671875 10.109375 
L 34.671875 28.421875 
Q 34.671875 34.515625 33.078125 37.28125 
Q 31.5 40.046875 27.734375 40.046875 
Q 21.921875 40.046875 16.15625 33.6875 
L 16.15625 10.109375 
Q 16.15625 5.5625 16.703125 4.5 
Q 17.390625 3.078125 18.578125 2.421875 
Q 19.78125 1.765625 23.4375 1.765625 
L 23.4375 0 
L 1.3125 0 
L 1.3125 1.765625 
L 2.296875 1.765625 
Q 5.71875 1.765625 6.90625 3.484375 
Q 8.109375 5.21875 8.109375 10.109375 
L 8.109375 26.703125 
Q 8.109375 34.765625 7.734375 36.515625 
Q 7.375 38.28125 6.609375 38.90625 
Q 5.859375 39.546875 4.59375 39.546875 
Q 3.21875 39.546875 1.3125 38.8125 
L 0.59375 40.578125 
L 14.0625 46.046875 
L 16.15625 46.046875 
z
" id="TimesNewRomanPSMT-6e"/>
      <path d="M 31.0625 -19.578125 
L 31.0625 -21.390625 
Q 23.6875 -17.671875 18.75 -12.703125 
Q 11.71875 -5.609375 7.90625 4 
Q 4.109375 13.625 4.109375 23.96875 
Q 4.109375 39.109375 11.578125 51.578125 
Q 19.046875 64.0625 31.0625 69.4375 
L 31.0625 67.390625 
Q 25.046875 64.0625 21.1875 58.296875 
Q 17.328125 52.546875 15.421875 43.703125 
Q 13.53125 34.859375 13.53125 25.25 
Q 13.53125 14.796875 15.140625 6.25 
Q 16.40625 -0.484375 18.203125 -4.5625 
Q 20.015625 -8.640625 23.0625 -12.390625 
Q 26.125 -16.15625 31.0625 -19.578125 
" id="TimesNewRomanPSMT-28"/>
      <path d="M 2.25 67.390625 
L 2.25 69.4375 
Q 9.671875 65.765625 14.59375 60.796875 
Q 21.578125 53.65625 25.390625 44.0625 
Q 29.203125 34.46875 29.203125 24.078125 
Q 29.203125 8.9375 21.75 -3.53125 
Q 14.3125 -16.015625 2.25 -21.390625 
L 2.25 -19.578125 
Q 8.25 -16.21875 12.125 -10.46875 
Q 16.015625 -4.734375 17.890625 4.125 
Q 19.78125 12.984375 19.78125 22.609375 
Q 19.78125 33.015625 18.171875 41.609375 
Q 16.9375 48.34375 15.109375 52.390625 
Q 13.28125 56.453125 10.25 60.203125 
Q 7.234375 63.96875 2.25 67.390625 
" id="TimesNewRomanPSMT-29"/>
     </defs>
     <g transform="translate(131.2 77.44)scale(0.16 -0.16)">
      <use xlink:href="#TimesNewRomanPSMT-4f"/>
      <use x="72.216797" xlink:href="#TimesNewRomanPSMT-70"/>
      <use x="122.216797" xlink:href="#TimesNewRomanPSMT-74"/>
      <use x="150" xlink:href="#TimesNewRomanPSMT-69"/>
      <use x="177.783203" xlink:href="#TimesNewRomanPSMT-6f"/>
      <use x="227.783203" xlink:href="#TimesNewRomanPSMT-6e"/>
      <use x="277.783203" xlink:href="#TimesNewRomanPSMT-20"/>
      <use x="302.783203" xlink:href="#TimesNewRomanPSMT-28"/>
      <use x="336.083984" xlink:href="#TimesNewRomanPSMT-61"/>
      <use x="380.46875" xlink:href="#TimesNewRomanPSMT-29"/>
     </g>
    </g>
    <g id="line2d_23">
     <path d="M 86.4 94.4625 
L 118.4 94.4625 
" style="fill:none;opacity:0.8;stroke:#000000;stroke-dasharray:4,2;stroke-dashoffset:0;"/>
    </g>
    <g id="line2d_24">
     <g>
      <use style="opacity:0.8;stroke:#000000;" x="102.4" xlink:href="#m1571586cb4" y="94.4625"/>
     </g>
    </g>
    <g id="text_6">
     <!-- Option (b) -->
     <defs>
      <path d="M 15.375 37.015625 
Q 21.875 46.046875 29.390625 46.046875 
Q 36.28125 46.046875 41.40625 40.15625 
Q 46.53125 34.28125 46.53125 24.078125 
Q 46.53125 12.15625 38.625 4.890625 
Q 31.84375 -1.375 23.484375 -1.375 
Q 19.578125 -1.375 15.546875 0.046875 
Q 11.53125 1.46875 7.328125 4.296875 
L 7.328125 50.640625 
Q 7.328125 58.25 6.953125 60 
Q 6.59375 61.765625 5.8125 62.390625 
Q 5.03125 63.03125 3.859375 63.03125 
Q 2.484375 63.03125 0.4375 62.25 
L -0.25 63.96875 
L 13.1875 69.4375 
L 15.375 69.4375 
z
M 15.375 33.890625 
L 15.375 7.125 
Q 17.875 4.6875 20.53125 3.4375 
Q 23.1875 2.203125 25.984375 2.203125 
Q 30.421875 2.203125 34.25 7.078125 
Q 38.09375 11.96875 38.09375 21.296875 
Q 38.09375 29.890625 34.25 34.5 
Q 30.421875 39.109375 25.53125 39.109375 
Q 22.953125 39.109375 20.359375 37.796875 
Q 18.40625 36.8125 15.375 33.890625 
" id="TimesNewRomanPSMT-62"/>
     </defs>
     <g transform="translate(131.2 100.0625)scale(0.16 -0.16)">
      <use xlink:href="#TimesNewRomanPSMT-4f"/>
      <use x="72.216797" xlink:href="#TimesNewRomanPSMT-70"/>
      <use x="122.216797" xlink:href="#TimesNewRomanPSMT-74"/>
      <use x="150" xlink:href="#TimesNewRomanPSMT-69"/>
      <use x="177.783203" xlink:href="#TimesNewRomanPSMT-6f"/>
      <use x="227.783203" xlink:href="#TimesNewRomanPSMT-6e"/>
      <use x="277.783203" xlink:href="#TimesNewRomanPSMT-20"/>
      <use x="302.783203" xlink:href="#TimesNewRomanPSMT-28"/>
      <use x="336.083984" xlink:href="#TimesNewRomanPSMT-62"/>
      <use x="386.083984" xlink:href="#TimesNewRomanPSMT-29"/>
     </g>
    </g>
    <g id="line2d_25">
     <path d="M 86.4 117.085 
L 118.4 117.085 
" style="fill:none;opacity:0.8;stroke:#000000;stroke-dasharray:8,8;stroke-dashoffset:0;"/>
    </g>
    <g id="line2d_26">
     <g>
      <use style="fill:none;opacity:0.8;stroke:#000000;stroke-linejoin:miter;" x="102.4" xlink:href="#mcce8915c92" y="117.085"/>
     </g>
    </g>
    <g id="text_7">
     <!-- Option (c) -->
     <defs>
      <path d="M 41.109375 17 
Q 39.3125 8.15625 34.03125 3.390625 
Q 28.765625 -1.375 22.359375 -1.375 
Q 14.75 -1.375 9.078125 5.015625 
Q 3.421875 11.421875 3.421875 22.3125 
Q 3.421875 32.859375 9.6875 39.453125 
Q 15.96875 46.046875 24.75 46.046875 
Q 31.34375 46.046875 35.59375 42.546875 
Q 39.84375 39.0625 39.84375 35.296875 
Q 39.84375 33.453125 38.640625 32.296875 
Q 37.453125 31.15625 35.296875 31.15625 
Q 32.421875 31.15625 30.953125 33.015625 
Q 30.125 34.03125 29.859375 36.90625 
Q 29.59375 39.796875 27.875 41.3125 
Q 26.171875 42.78125 23.140625 42.78125 
Q 18.265625 42.78125 15.28125 39.15625 
Q 11.328125 34.375 11.328125 26.515625 
Q 11.328125 18.5 15.25 12.375 
Q 19.1875 6.25 25.875 6.25 
Q 30.671875 6.25 34.46875 9.515625 
Q 37.15625 11.765625 39.703125 17.671875 
z
" id="TimesNewRomanPSMT-63"/>
     </defs>
     <g transform="translate(131.2 122.685)scale(0.16 -0.16)">
      <use xlink:href="#TimesNewRomanPSMT-4f"/>
      <use x="72.216797" xlink:href="#TimesNewRomanPSMT-70"/>
      <use x="122.216797" xlink:href="#TimesNewRomanPSMT-74"/>
      <use x="150" xlink:href="#TimesNewRomanPSMT-69"/>
      <use x="177.783203" xlink:href="#TimesNewRomanPSMT-6f"/>
      <use x="227.783203" xlink:href="#TimesNewRomanPSMT-6e"/>
      <use x="277.783203" xlink:href="#TimesNewRomanPSMT-20"/>
      <use x="302.783203" xlink:href="#TimesNewRomanPSMT-28"/>
      <use x="336.083984" xlink:href="#TimesNewRomanPSMT-63"/>
      <use x="380.46875" xlink:href="#TimesNewRomanPSMT-29"/>
     </g>
    </g>
    <g id="line2d_27">
     <path d="M 86.4 139.7075 
L 118.4 139.7075 
" style="fill:none;opacity:0.8;stroke:#000000;stroke-dasharray:;stroke-dashoffset:0;"/>
    </g>
    <g id="line2d_28"/>
    <g id="text_8">
     <!-- Normal -->
     <defs>
      <path d="M -1.3125 66.21875 
L 16.65625 66.21875 
L 57.125 16.546875 
L 57.125 54.734375 
Q 57.125 60.84375 55.765625 62.359375 
Q 53.953125 64.40625 50.046875 64.40625 
L 47.75 64.40625 
L 47.75 66.21875 
L 70.796875 66.21875 
L 70.796875 64.40625 
L 68.453125 64.40625 
Q 64.265625 64.40625 62.5 61.859375 
Q 61.421875 60.296875 61.421875 54.734375 
L 61.421875 -1.078125 
L 59.671875 -1.078125 
L 16.015625 52.25 
L 16.015625 11.46875 
Q 16.015625 5.375 17.328125 3.859375 
Q 19.1875 1.8125 23.046875 1.8125 
L 25.390625 1.8125 
L 25.390625 0 
L 2.34375 0 
L 2.34375 1.8125 
L 4.640625 1.8125 
Q 8.890625 1.8125 10.640625 4.34375 
Q 11.71875 5.90625 11.71875 11.46875 
L 11.71875 57.515625 
Q 8.84375 60.890625 7.34375 61.953125 
Q 5.859375 63.03125 2.984375 63.96875 
Q 1.5625 64.40625 -1.3125 64.40625 
z
" id="TimesNewRomanPSMT-4e"/>
      <path d="M 18.5 69.4375 
L 18.5 10.109375 
Q 18.5 5.90625 19.109375 4.53125 
Q 19.734375 3.171875 21 2.46875 
Q 22.265625 1.765625 25.734375 1.765625 
L 25.734375 0 
L 3.8125 0 
L 3.8125 1.765625 
Q 6.890625 1.765625 8 2.390625 
Q 9.125 3.03125 9.765625 4.484375 
Q 10.40625 5.953125 10.40625 10.109375 
L 10.40625 50.734375 
Q 10.40625 58.296875 10.0625 60.03125 
Q 9.71875 61.765625 8.953125 62.390625 
Q 8.203125 63.03125 7.03125 63.03125 
Q 5.765625 63.03125 3.8125 62.25 
L 2.984375 63.96875 
L 16.3125 69.4375 
z
" id="TimesNewRomanPSMT-6c"/>
     </defs>
     <g transform="translate(131.2 145.3075)scale(0.16 -0.16)">
      <use xlink:href="#TimesNewRomanPSMT-4e"/>
      <use x="72.216797" xlink:href="#TimesNewRomanPSMT-6f"/>
      <use x="122.216797" xlink:href="#TimesNewRomanPSMT-72"/>
      <use x="155.517578" xlink:href="#TimesNewRomanPSMT-6d"/>
      <use x="233.300781" xlink:href="#TimesNewRomanPSMT-61"/>
      <use x="277.685547" xlink:href="#TimesNewRomanPSMT-6c"/>
     </g>
    </g>
   </g>
  </g>
  <g id="axes_2">
   <g id="patch_8">
    <path d="M 72 384.48 
L 518.4 384.48 
L 518.4 233.28 
L 72 233.28 
z
" style="fill:#ffffff;"/>
   </g>
   <g id="matplotlib.axis_3">
    <g id="xtick_6">
     <g id="line2d_29">
      <path clip-path="url(#p4f13bf71d7)" d="M 173.454545 384.48 
L 173.454545 233.28 
" style="fill:none;stroke:#b0b0b0;stroke-linecap:square;stroke-width:0.8;"/>
     </g>
     <g id="line2d_30">
      <g>
       <use style="stroke:#000000;stroke-width:0.8;" x="173.454545" xlink:href="#m2cca05aa9c" y="384.48"/>
      </g>
     </g>
     <g id="text_9">
      <!-- 14:00:00 -->
      <defs>
       <path d="M 11.71875 59.71875 
L 27.828125 67.578125 
L 29.4375 67.578125 
L 29.4375 11.671875 
Q 29.4375 6.109375 29.90625 4.734375 
Q 30.375 3.375 31.828125 2.640625 
Q 33.296875 1.90625 37.796875 1.8125 
L 37.796875 0 
L 12.890625 0 
L 12.890625 1.8125 
Q 17.578125 1.90625 18.9375 2.609375 
Q 20.3125 3.328125 20.84375 4.515625 
Q 21.390625 5.71875 21.390625 11.671875 
L 21.390625 47.40625 
Q 21.390625 54.640625 20.90625 56.6875 
Q 20.5625 58.25 19.65625 58.984375 
Q 18.75 59.71875 17.484375 59.71875 
Q 15.671875 59.71875 12.453125 58.203125 
z
" id="TimesNewRomanPSMT-31"/>
       <path d="M 46.53125 24.421875 
L 46.53125 17.484375 
L 37.640625 17.484375 
L 37.640625 0 
L 29.59375 0 
L 29.59375 17.484375 
L 1.5625 17.484375 
L 1.5625 23.734375 
L 32.28125 67.578125 
L 37.640625 67.578125 
L 37.640625 24.421875 
z
M 29.59375 24.421875 
L 29.59375 57.28125 
L 6.34375 24.421875 
z
" id="TimesNewRomanPSMT-34"/>
       <path d="M 14.109375 46.09375 
Q 16.359375 46.09375 17.9375 44.5 
Q 19.53125 42.921875 19.53125 40.671875 
Q 19.53125 38.421875 17.9375 36.828125 
Q 16.359375 35.25 14.109375 35.25 
Q 11.859375 35.25 10.265625 36.828125 
Q 8.6875 38.421875 8.6875 40.671875 
Q 8.6875 42.921875 10.265625 44.5 
Q 11.859375 46.09375 14.109375 46.09375 
M 14.015625 9.515625 
Q 16.3125 9.515625 17.890625 7.90625 
Q 19.484375 6.296875 19.484375 4.046875 
Q 19.484375 1.8125 17.875 0.21875 
Q 16.265625 -1.375 14.015625 -1.375 
Q 11.765625 -1.375 10.171875 0.21875 
Q 8.59375 1.8125 8.59375 4.046875 
Q 8.59375 6.296875 10.171875 7.90625 
Q 11.765625 9.515625 14.015625 9.515625 
" id="TimesNewRomanPSMT-3a"/>
      </defs>
      <g transform="translate(145.009545 402.59)scale(0.16 -0.16)">
       <use xlink:href="#TimesNewRomanPSMT-31"/>
       <use x="50" xlink:href="#TimesNewRomanPSMT-34"/>
       <use x="100" xlink:href="#TimesNewRomanPSMT-3a"/>
       <use x="127.783203" xlink:href="#TimesNewRomanPSMT-30"/>
       <use x="177.783203" xlink:href="#TimesNewRomanPSMT-30"/>
       <use x="227.783203" xlink:href="#TimesNewRomanPSMT-3a"/>
       <use x="255.566406" xlink:href="#TimesNewRomanPSMT-30"/>
       <use x="305.566406" xlink:href="#TimesNewRomanPSMT-30"/>
      </g>
     </g>
    </g>
    <g id="xtick_7">
     <g id="line2d_31">
      <path clip-path="url(#p4f13bf71d7)" d="M 254.618182 384.48 
L 254.618182 233.28 
" style="fill:none;stroke:#b0b0b0;stroke-linecap:square;stroke-width:0.8;"/>
     </g>
     <g id="line2d_32">
      <g>
       <use style="stroke:#000000;stroke-width:0.8;" x="254.618182" xlink:href="#m2cca05aa9c" y="384.48"/>
      </g>
     </g>
     <g id="text_10">
      <!-- 14:05:00 -->
      <defs>
       <path d="M 43.40625 66.21875 
L 39.59375 57.90625 
L 19.671875 57.90625 
L 15.328125 49.03125 
Q 28.265625 47.125 35.84375 39.40625 
Q 42.328125 32.765625 42.328125 23.78125 
Q 42.328125 18.5625 40.203125 14.109375 
Q 38.09375 9.671875 34.859375 6.546875 
Q 31.640625 3.421875 27.6875 1.515625 
Q 22.078125 -1.171875 16.15625 -1.171875 
Q 10.203125 -1.171875 7.484375 0.84375 
Q 4.78125 2.875 4.78125 5.328125 
Q 4.78125 6.6875 5.90625 7.734375 
Q 7.03125 8.796875 8.734375 8.796875 
Q 10.015625 8.796875 10.96875 8.40625 
Q 11.921875 8.015625 14.203125 6.390625 
Q 17.875 3.859375 21.625 3.859375 
Q 27.34375 3.859375 31.65625 8.171875 
Q 35.984375 12.5 35.984375 18.703125 
Q 35.984375 24.703125 32.125 29.90625 
Q 28.265625 35.109375 21.484375 37.9375 
Q 16.15625 40.140625 6.984375 40.484375 
L 19.671875 66.21875 
z
" id="TimesNewRomanPSMT-35"/>
      </defs>
      <g transform="translate(226.173182 402.59)scale(0.16 -0.16)">
       <use xlink:href="#TimesNewRomanPSMT-31"/>
       <use x="50" xlink:href="#TimesNewRomanPSMT-34"/>
       <use x="100" xlink:href="#TimesNewRomanPSMT-3a"/>
       <use x="127.783203" xlink:href="#TimesNewRomanPSMT-30"/>
       <use x="177.783203" xlink:href="#TimesNewRomanPSMT-35"/>
       <use x="227.783203" xlink:href="#TimesNewRomanPSMT-3a"/>
       <use x="255.566406" xlink:href="#TimesNewRomanPSMT-30"/>
       <use x="305.566406" xlink:href="#TimesNewRomanPSMT-30"/>
      </g>
     </g>
    </g>
    <g id="xtick_8">
     <g id="line2d_33">
      <path clip-path="url(#p4f13bf71d7)" d="M 335.781818 384.48 
L 335.781818 233.28 
" style="fill:none;stroke:#b0b0b0;stroke-linecap:square;stroke-width:0.8;"/>
     </g>
     <g id="line2d_34">
      <g>
       <use style="stroke:#000000;stroke-width:0.8;" x="335.781818" xlink:href="#m2cca05aa9c" y="384.48"/>
      </g>
     </g>
     <g id="text_11">
      <!-- 14:10:00 -->
      <g transform="translate(307.336818 402.59)scale(0.16 -0.16)">
       <use xlink:href="#TimesNewRomanPSMT-31"/>
       <use x="50" xlink:href="#TimesNewRomanPSMT-34"/>
       <use x="100" xlink:href="#TimesNewRomanPSMT-3a"/>
       <use x="127.783203" xlink:href="#TimesNewRomanPSMT-31"/>
       <use x="177.783203" xlink:href="#TimesNewRomanPSMT-30"/>
       <use x="227.783203" xlink:href="#TimesNewRomanPSMT-3a"/>
       <use x="255.566406" xlink:href="#TimesNewRomanPSMT-30"/>
       <use x="305.566406" xlink:href="#TimesNewRomanPSMT-30"/>
      </g>
     </g>
    </g>
    <g id="xtick_9">
     <g id="line2d_35">
      <path clip-path="url(#p4f13bf71d7)" d="M 416.945455 384.48 
L 416.945455 233.28 
" style="fill:none;stroke:#b0b0b0;stroke-linecap:square;stroke-width:0.8;"/>
     </g>
     <g id="line2d_36">
      <g>
       <use style="stroke:#000000;stroke-width:0.8;" x="416.945455" xlink:href="#m2cca05aa9c" y="384.48"/>
      </g>
     </g>
     <g id="text_12">
      <!-- 14:15:00 -->
      <g transform="translate(388.500455 402.59)scale(0.16 -0.16)">
       <use xlink:href="#TimesNewRomanPSMT-31"/>
       <use x="50" xlink:href="#TimesNewRomanPSMT-34"/>
       <use x="100" xlink:href="#TimesNewRomanPSMT-3a"/>
       <use x="127.783203" xlink:href="#TimesNewRomanPSMT-31"/>
       <use x="177.783203" xlink:href="#TimesNewRomanPSMT-35"/>
       <use x="227.783203" xlink:href="#TimesNewRomanPSMT-3a"/>
       <use x="255.566406" xlink:href="#TimesNewRomanPSMT-30"/>
       <use x="305.566406" xlink:href="#TimesNewRomanPSMT-30"/>
      </g>
     </g>
    </g>
    <g id="xtick_10">
     <g id="line2d_37">
      <path clip-path="url(#p4f13bf71d7)" d="M 498.109091 384.48 
L 498.109091 233.28 
" style="fill:none;stroke:#b0b0b0;stroke-linecap:square;stroke-width:0.8;"/>
     </g>
     <g id="line2d_38">
      <g>
       <use style="stroke:#000000;stroke-width:0.8;" x="498.109091" xlink:href="#m2cca05aa9c" y="384.48"/>
      </g>
     </g>
     <g id="text_13">
      <!-- 14:20:00 -->
      <g transform="translate(469.664091 402.59)scale(0.16 -0.16)">
       <use xlink:href="#TimesNewRomanPSMT-31"/>
       <use x="50" xlink:href="#TimesNewRomanPSMT-34"/>
       <use x="100" xlink:href="#TimesNewRomanPSMT-3a"/>
       <use x="127.783203" xlink:href="#TimesNewRomanPSMT-32"/>
       <use x="177.783203" xlink:href="#TimesNewRomanPSMT-30"/>
       <use x="227.783203" xlink:href="#TimesNewRomanPSMT-3a"/>
       <use x="255.566406" xlink:href="#TimesNewRomanPSMT-30"/>
       <use x="305.566406" xlink:href="#TimesNewRomanPSMT-30"/>
      </g>
     </g>
    </g>
    <g id="text_14">
     <!-- Time -->
     <g transform="translate(274.101562 423.9)scale(0.2 -0.2)">
      <use xlink:href="#TimesNewRomanPSMT-54"/>
      <use x="61.037109" xlink:href="#TimesNewRomanPSMT-69"/>
      <use x="88.820312" xlink:href="#TimesNewRomanPSMT-6d"/>
      <use x="166.603516" xlink:href="#TimesNewRomanPSMT-65"/>
     </g>
    </g>
   </g>
   <g id="matplotlib.axis_4">
    <g id="ytick_4">
     <g id="line2d_39">
      <path clip-path="url(#p4f13bf71d7)" d="M 72 359.298279 
L 518.4 359.298279 
" style="fill:none;stroke:#b0b0b0;stroke-linecap:square;stroke-width:0.8;"/>
     </g>
     <g id="line2d_40">
      <g>
       <use style="stroke:#000000;stroke-width:0.8;" x="72" xlink:href="#m202f4f06ef" y="359.298279"/>
      </g>
     </g>
     <g id="text_15">
      <!-- 0.50 -->
      <defs>
       <path d="M 12.5 9.46875 
Q 14.796875 9.46875 16.359375 7.875 
Q 17.921875 6.296875 17.921875 4.046875 
Q 17.921875 1.8125 16.328125 0.21875 
Q 14.75 -1.375 12.5 -1.375 
Q 10.25 -1.375 8.65625 0.21875 
Q 7.078125 1.8125 7.078125 4.046875 
Q 7.078125 6.34375 8.65625 7.90625 
Q 10.25 9.46875 12.5 9.46875 
" id="TimesNewRomanPSMT-2e"/>
      </defs>
      <g transform="translate(30 366.242029)scale(0.2 -0.2)">
       <use xlink:href="#TimesNewRomanPSMT-30"/>
       <use x="50" xlink:href="#TimesNewRomanPSMT-2e"/>
       <use x="75" xlink:href="#TimesNewRomanPSMT-35"/>
       <use x="125" xlink:href="#TimesNewRomanPSMT-30"/>
      </g>
     </g>
    </g>
    <g id="ytick_5">
     <g id="line2d_41">
      <path clip-path="url(#p4f13bf71d7)" d="M 72 298.509733 
L 518.4 298.509733 
" style="fill:none;stroke:#b0b0b0;stroke-linecap:square;stroke-width:0.8;"/>
     </g>
     <g id="line2d_42">
      <g>
       <use style="stroke:#000000;stroke-width:0.8;" x="72" xlink:href="#m202f4f06ef" y="298.509733"/>
      </g>
     </g>
     <g id="text_16">
      <!-- 0.75 -->
      <defs>
       <path d="M 10.0625 66.21875 
L 45.5625 66.21875 
L 45.5625 64.359375 
L 23.484375 -1.375 
L 18.015625 -1.375 
L 37.796875 58.25 
L 19.578125 58.25 
Q 14.0625 58.25 11.71875 56.9375 
Q 7.625 54.6875 5.125 50 
L 3.71875 50.53125 
z
" id="TimesNewRomanPSMT-37"/>
      </defs>
      <g transform="translate(30 305.453483)scale(0.2 -0.2)">
       <use xlink:href="#TimesNewRomanPSMT-30"/>
       <use x="50" xlink:href="#TimesNewRomanPSMT-2e"/>
       <use x="75" xlink:href="#TimesNewRomanPSMT-37"/>
       <use x="125" xlink:href="#TimesNewRomanPSMT-35"/>
      </g>
     </g>
    </g>
    <g id="ytick_6">
     <g id="line2d_43">
      <path clip-path="url(#p4f13bf71d7)" d="M 72 237.721188 
L 518.4 237.721188 
" style="fill:none;stroke:#b0b0b0;stroke-linecap:square;stroke-width:0.8;"/>
     </g>
     <g id="line2d_44">
      <g>
       <use style="stroke:#000000;stroke-width:0.8;" x="72" xlink:href="#m202f4f06ef" y="237.721188"/>
      </g>
     </g>
     <g id="text_17">
      <!-- 1.00 -->
      <g transform="translate(30 244.664938)scale(0.2 -0.2)">
       <use xlink:href="#TimesNewRomanPSMT-31"/>
       <use x="50" xlink:href="#TimesNewRomanPSMT-2e"/>
       <use x="75" xlink:href="#TimesNewRomanPSMT-30"/>
       <use x="125" xlink:href="#TimesNewRomanPSMT-30"/>
      </g>
     </g>
    </g>
    <g id="text_18">
     <!-- SOC -->
     <defs>
      <path d="M 45.84375 67.71875 
L 45.84375 44.828125 
L 44.046875 44.828125 
Q 43.171875 51.421875 40.890625 55.328125 
Q 38.625 59.234375 34.421875 61.515625 
Q 30.21875 63.8125 25.734375 63.8125 
Q 20.65625 63.8125 17.328125 60.71875 
Q 14.015625 57.625 14.015625 53.65625 
Q 14.015625 50.640625 16.109375 48.140625 
Q 19.140625 44.484375 30.515625 38.375 
Q 39.796875 33.40625 43.1875 30.734375 
Q 46.578125 28.078125 48.40625 24.453125 
Q 50.25 20.84375 50.25 16.890625 
Q 50.25 9.375 44.40625 3.921875 
Q 38.578125 -1.515625 29.390625 -1.515625 
Q 26.515625 -1.515625 23.96875 -1.078125 
Q 22.46875 -0.828125 17.703125 0.703125 
Q 12.9375 2.25 11.671875 2.25 
Q 10.453125 2.25 9.734375 1.515625 
Q 9.03125 0.78125 8.6875 -1.515625 
L 6.890625 -1.515625 
L 6.890625 21.1875 
L 8.6875 21.1875 
Q 9.96875 14.0625 12.109375 10.515625 
Q 14.265625 6.984375 18.671875 4.640625 
Q 23.09375 2.296875 28.375 2.296875 
Q 34.46875 2.296875 38 5.515625 
Q 41.546875 8.734375 41.546875 13.140625 
Q 41.546875 15.578125 40.203125 18.0625 
Q 38.875 20.5625 36.03125 22.703125 
Q 34.125 24.171875 25.625 28.921875 
Q 17.140625 33.6875 13.546875 36.515625 
Q 9.96875 39.359375 8.109375 42.765625 
Q 6.25 46.1875 6.25 50.296875 
Q 6.25 57.421875 11.71875 62.5625 
Q 17.1875 67.71875 25.640625 67.71875 
Q 30.90625 67.71875 36.8125 65.140625 
Q 39.546875 63.921875 40.671875 63.921875 
Q 41.9375 63.921875 42.75 64.671875 
Q 43.5625 65.4375 44.046875 67.71875 
z
" id="TimesNewRomanPSMT-53"/>
     </defs>
     <g transform="translate(21.721875 328.333125)rotate(-90)scale(0.2 -0.2)">
      <use xlink:href="#TimesNewRomanPSMT-53"/>
      <use x="55.615234" xlink:href="#TimesNewRomanPSMT-4f"/>
      <use x="127.832031" xlink:href="#TimesNewRomanPSMT-43"/>
     </g>
    </g>
   </g>
   <g id="line2d_45">
    <path clip-path="url(#p4f13bf71d7)" d="M 92.290909 240.152727 
L 108.523636 240.152727 
L 124.756364 240.152727 
L 140.989091 240.152727 
L 157.221818 240.152727 
L 173.454545 240.152727 
L 189.687273 246.916145 
L 205.92 254.503459 
L 222.152727 263.020172 
L 238.385455 271.536885 
L 254.618182 280.053599 
L 270.850909 288.570312 
L 287.083636 297.087025 
L 303.316364 305.603739 
L 319.549091 314.120452 
L 335.781818 322.637165 
L 352.014545 331.153879 
L 368.247273 339.670592 
L 384.48 348.187305 
L 400.712727 356.704019 
L 416.945455 365.220732 
L 433.178182 362.629871 
L 449.410909 360.054964 
L 465.643636 357.480057 
L 481.876364 354.90515 
L 498.109091 352.330243 
" style="fill:none;opacity:0.8;stroke:#000000;stroke-dasharray:6,10,2,10,2,10;stroke-dashoffset:0;"/>
    <g clip-path="url(#p4f13bf71d7)">
     <use style="fill:none;opacity:0.8;stroke:#000000;" x="92.290909" xlink:href="#m8e17d8c2f5" y="240.152727"/>
     <use style="fill:none;opacity:0.8;stroke:#000000;" x="140.989091" xlink:href="#m8e17d8c2f5" y="240.152727"/>
     <use style="fill:none;opacity:0.8;stroke:#000000;" x="189.687273" xlink:href="#m8e17d8c2f5" y="246.916145"/>
     <use style="fill:none;opacity:0.8;stroke:#000000;" x="238.385455" xlink:href="#m8e17d8c2f5" y="271.536885"/>
     <use style="fill:none;opacity:0.8;stroke:#000000;" x="287.083636" xlink:href="#m8e17d8c2f5" y="297.087025"/>
     <use style="fill:none;opacity:0.8;stroke:#000000;" x="335.781818" xlink:href="#m8e17d8c2f5" y="322.637165"/>
     <use style="fill:none;opacity:0.8;stroke:#000000;" x="384.48" xlink:href="#m8e17d8c2f5" y="348.187305"/>
     <use style="fill:none;opacity:0.8;stroke:#000000;" x="433.178182" xlink:href="#m8e17d8c2f5" y="362.629871"/>
     <use style="fill:none;opacity:0.8;stroke:#000000;" x="481.876364" xlink:href="#m8e17d8c2f5" y="354.90515"/>
    </g>
   </g>
   <g id="line2d_46">
    <path clip-path="url(#p4f13bf71d7)" d="M 92.290909 240.152727 
L 108.523636 240.152727 
L 124.756364 240.152727 
L 140.989091 240.152727 
L 157.221818 240.152727 
L 173.454545 240.152727 
L 189.687273 247.904588 
L 205.92 255.656448 
L 222.152727 263.408309 
L 238.385455 272.706777 
L 254.618182 282.243186 
L 270.850909 291.779595 
L 287.083636 301.316003 
L 303.316364 310.852412 
L 319.549091 320.388821 
L 335.781818 329.925229 
L 352.014545 339.461638 
L 368.247273 348.998047 
L 384.48 358.534455 
L 400.712727 368.070864 
L 416.945455 377.607273 
L 433.178182 375.03042 
L 449.410909 372.45357 
L 465.643636 369.876721 
L 481.876364 367.299871 
L 498.109091 364.723022 
" style="fill:none;opacity:0.8;stroke:#000000;stroke-dasharray:4,2;stroke-dashoffset:0;"/>
    <g clip-path="url(#p4f13bf71d7)">
     <use style="opacity:0.8;stroke:#000000;" x="92.290909" xlink:href="#m1571586cb4" y="240.152727"/>
     <use style="opacity:0.8;stroke:#000000;" x="140.989091" xlink:href="#m1571586cb4" y="240.152727"/>
     <use style="opacity:0.8;stroke:#000000;" x="189.687273" xlink:href="#m1571586cb4" y="247.904588"/>
     <use style="opacity:0.8;stroke:#000000;" x="238.385455" xlink:href="#m1571586cb4" y="272.706777"/>
     <use style="opacity:0.8;stroke:#000000;" x="287.083636" xlink:href="#m1571586cb4" y="301.316003"/>
     <use style="opacity:0.8;stroke:#000000;" x="335.781818" xlink:href="#m1571586cb4" y="329.925229"/>
     <use style="opacity:0.8;stroke:#000000;" x="384.48" xlink:href="#m1571586cb4" y="358.534455"/>
     <use style="opacity:0.8;stroke:#000000;" x="433.178182" xlink:href="#m1571586cb4" y="375.03042"/>
     <use style="opacity:0.8;stroke:#000000;" x="481.876364" xlink:href="#m1571586cb4" y="367.299871"/>
    </g>
   </g>
   <g id="line2d_47">
    <path clip-path="url(#p4f13bf71d7)" d="M 92.290909 240.152727 
L 108.523636 240.152727 
L 124.756364 240.152727 
L 140.989091 240.152727 
L 157.221818 240.152727 
L 173.454545 240.152727 
L 189.687273 247.904736 
L 205.92 255.656744 
L 222.152727 263.408752 
L 238.385455 272.608758 
L 254.618182 282.031531 
L 270.850909 291.454305 
L 287.083636 300.877079 
L 303.316364 310.299853 
L 319.549091 319.722627 
L 335.781818 329.145401 
L 352.014545 338.568175 
L 368.247273 347.990948 
L 384.48 357.413722 
L 400.712727 366.707627 
L 416.945455 376.064803 
L 433.178182 373.47539 
L 449.410909 370.897733 
L 465.643636 368.320077 
L 481.876364 365.74242 
L 498.109091 363.164764 
" style="fill:none;opacity:0.8;stroke:#000000;stroke-dasharray:8,8;stroke-dashoffset:0;"/>
    <g clip-path="url(#p4f13bf71d7)">
     <use style="fill:none;opacity:0.8;stroke:#000000;stroke-linejoin:miter;" x="124.756364" xlink:href="#mcce8915c92" y="240.152727"/>
     <use style="fill:none;opacity:0.8;stroke:#000000;stroke-linejoin:miter;" x="173.454545" xlink:href="#mcce8915c92" y="240.152727"/>
     <use style="fill:none;opacity:0.8;stroke:#000000;stroke-linejoin:miter;" x="222.152727" xlink:href="#mcce8915c92" y="263.408752"/>
     <use style="fill:none;opacity:0.8;stroke:#000000;stroke-linejoin:miter;" x="270.850909" xlink:href="#mcce8915c92" y="291.454305"/>
     <use style="fill:none;opacity:0.8;stroke:#000000;stroke-linejoin:miter;" x="319.549091" xlink:href="#mcce8915c92" y="319.722627"/>
     <use style="fill:none;opacity:0.8;stroke:#000000;stroke-linejoin:miter;" x="368.247273" xlink:href="#mcce8915c92" y="347.990948"/>
     <use style="fill:none;opacity:0.8;stroke:#000000;stroke-linejoin:miter;" x="416.945455" xlink:href="#mcce8915c92" y="376.064803"/>
     <use style="fill:none;opacity:0.8;stroke:#000000;stroke-linejoin:miter;" x="465.643636" xlink:href="#mcce8915c92" y="368.320077"/>
    </g>
   </g>
   <g id="line2d_48">
    <path clip-path="url(#p4f13bf71d7)" d="M 92.290909 240.15273 
L 108.523636 240.15273 
L 124.756364 240.15273 
L 140.989091 240.15273 
L 157.221818 240.15273 
L 173.454545 240.15273 
L 189.687273 240.15273 
L 205.92 240.15273 
L 222.152727 240.15273 
L 238.385455 240.15273 
L 254.618182 240.15273 
L 270.850909 240.15273 
L 287.083636 240.15273 
L 303.316364 240.15273 
L 319.549091 240.15273 
L 335.781818 240.15273 
L 352.014545 240.15273 
L 368.247273 240.15273 
L 384.48 240.15273 
L 400.712727 240.15273 
L 416.945455 240.15273 
L 433.178182 240.15273 
L 449.410909 240.15273 
L 465.643636 240.15273 
L 481.876364 240.15273 
L 498.109091 240.15273 
" style="fill:none;opacity:0.8;stroke:#000000;stroke-dasharray:;stroke-dashoffset:0;"/>
   </g>
   <g id="patch_9">
    <path d="M 72 384.48 
L 72 233.28 
" style="fill:none;stroke:#000000;stroke-linecap:square;stroke-linejoin:miter;stroke-width:0.8;"/>
   </g>
   <g id="patch_10">
    <path d="M 518.4 384.48 
L 518.4 233.28 
" style="fill:none;stroke:#000000;stroke-linecap:square;stroke-linejoin:miter;stroke-width:0.8;"/>
   </g>
   <g id="patch_11">
    <path d="M 72 384.48 
L 518.4 384.48 
" style="fill:none;stroke:#000000;stroke-linecap:square;stroke-linejoin:miter;stroke-width:0.8;"/>
   </g>
   <g id="patch_12">
    <path d="M 72 233.28 
L 518.4 233.28 
" style="fill:none;stroke:#000000;stroke-linecap:square;stroke-linejoin:miter;stroke-width:0.8;"/>
   </g>
   <g id="legend_2">
    <g id="patch_13">
     <path d="M 83.2 376.48 
L 201.5 376.48 
Q 204.7 376.48 204.7 373.28 
L 204.7 284.39 
Q 204.7 281.19 201.5 281.19 
L 83.2 281.19 
Q 80 281.19 80 284.39 
L 80 373.28 
Q 80 376.48 83.2 376.48 
z
" style="fill:#ffffff;opacity:0.8;stroke:#cccccc;stroke-linejoin:miter;"/>
    </g>
    <g id="line2d_49">
     <path d="M 86.4 293.19 
L 118.4 293.19 
" style="fill:none;opacity:0.8;stroke:#000000;stroke-dasharray:6,10,2,10,2,10;stroke-dashoffset:0;"/>
    </g>
    <g id="line2d_50">
     <g>
      <use style="fill:none;opacity:0.8;stroke:#000000;" x="102.4" xlink:href="#m8e17d8c2f5" y="293.19"/>
     </g>
    </g>
    <g id="text_19">
     <!-- Option (a) -->
     <g transform="translate(131.2 298.79)scale(0.16 -0.16)">
      <use xlink:href="#TimesNewRomanPSMT-4f"/>
      <use x="72.216797" xlink:href="#TimesNewRomanPSMT-70"/>
      <use x="122.216797" xlink:href="#TimesNewRomanPSMT-74"/>
      <use x="150" xlink:href="#TimesNewRomanPSMT-69"/>
      <use x="177.783203" xlink:href="#TimesNewRomanPSMT-6f"/>
      <use x="227.783203" xlink:href="#TimesNewRomanPSMT-6e"/>
      <use x="277.783203" xlink:href="#TimesNewRomanPSMT-20"/>
      <use x="302.783203" xlink:href="#TimesNewRomanPSMT-28"/>
      <use x="336.083984" xlink:href="#TimesNewRomanPSMT-61"/>
      <use x="380.46875" xlink:href="#TimesNewRomanPSMT-29"/>
     </g>
    </g>
    <g id="line2d_51">
     <path d="M 86.4 315.8125 
L 118.4 315.8125 
" style="fill:none;opacity:0.8;stroke:#000000;stroke-dasharray:4,2;stroke-dashoffset:0;"/>
    </g>
    <g id="line2d_52">
     <g>
      <use style="opacity:0.8;stroke:#000000;" x="102.4" xlink:href="#m1571586cb4" y="315.8125"/>
     </g>
    </g>
    <g id="text_20">
     <!-- Option (b) -->
     <g transform="translate(131.2 321.4125)scale(0.16 -0.16)">
      <use xlink:href="#TimesNewRomanPSMT-4f"/>
      <use x="72.216797" xlink:href="#TimesNewRomanPSMT-70"/>
      <use x="122.216797" xlink:href="#TimesNewRomanPSMT-74"/>
      <use x="150" xlink:href="#TimesNewRomanPSMT-69"/>
      <use x="177.783203" xlink:href="#TimesNewRomanPSMT-6f"/>
      <use x="227.783203" xlink:href="#TimesNewRomanPSMT-6e"/>
      <use x="277.783203" xlink:href="#TimesNewRomanPSMT-20"/>
      <use x="302.783203" xlink:href="#TimesNewRomanPSMT-28"/>
      <use x="336.083984" xlink:href="#TimesNewRomanPSMT-62"/>
      <use x="386.083984" xlink:href="#TimesNewRomanPSMT-29"/>
     </g>
    </g>
    <g id="line2d_53">
     <path d="M 86.4 338.435 
L 118.4 338.435 
" style="fill:none;opacity:0.8;stroke:#000000;stroke-dasharray:8,8;stroke-dashoffset:0;"/>
    </g>
    <g id="line2d_54">
     <g>
      <use style="fill:none;opacity:0.8;stroke:#000000;stroke-linejoin:miter;" x="102.4" xlink:href="#mcce8915c92" y="338.435"/>
     </g>
    </g>
    <g id="text_21">
     <!-- Option (c) -->
     <g transform="translate(131.2 344.035)scale(0.16 -0.16)">
      <use xlink:href="#TimesNewRomanPSMT-4f"/>
      <use x="72.216797" xlink:href="#TimesNewRomanPSMT-70"/>
      <use x="122.216797" xlink:href="#TimesNewRomanPSMT-74"/>
      <use x="150" xlink:href="#TimesNewRomanPSMT-69"/>
      <use x="177.783203" xlink:href="#TimesNewRomanPSMT-6f"/>
      <use x="227.783203" xlink:href="#TimesNewRomanPSMT-6e"/>
      <use x="277.783203" xlink:href="#TimesNewRomanPSMT-20"/>
      <use x="302.783203" xlink:href="#TimesNewRomanPSMT-28"/>
      <use x="336.083984" xlink:href="#TimesNewRomanPSMT-63"/>
      <use x="380.46875" xlink:href="#TimesNewRomanPSMT-29"/>
     </g>
    </g>
    <g id="line2d_55">
     <path d="M 86.4 361.0575 
L 118.4 361.0575 
" style="fill:none;opacity:0.8;stroke:#000000;stroke-dasharray:;stroke-dashoffset:0;"/>
    </g>
    <g id="line2d_56"/>
    <g id="text_22">
     <!-- Normal -->
     <g transform="translate(131.2 366.6575)scale(0.16 -0.16)">
      <use xlink:href="#TimesNewRomanPSMT-4e"/>
      <use x="72.216797" xlink:href="#TimesNewRomanPSMT-6f"/>
      <use x="122.216797" xlink:href="#TimesNewRomanPSMT-72"/>
      <use x="155.517578" xlink:href="#TimesNewRomanPSMT-6d"/>
      <use x="233.300781" xlink:href="#TimesNewRomanPSMT-61"/>
      <use x="277.685547" xlink:href="#TimesNewRomanPSMT-6c"/>
     </g>
    </g>
   </g>
  </g>
 </g>
 <defs>
  <clipPath id="pb2745830d1">
   <rect height="151.2" width="446.4" x="72" y="51.84"/>
  </clipPath>
  <clipPath id="p4f13bf71d7">
   <rect height="151.2" width="446.4" x="72" y="233.28"/>
  </clipPath>
 </defs>
</svg>
