<?xml version="1.0" encoding="utf-8" standalone="no"?>
<!DOCTYPE svg PUBLIC "-//W3C//DTD SVG 1.1//EN"
  "http://www.w3.org/Graphics/SVG/1.1/DTD/svg11.dtd">
<!-- Created with matplotlib (http://matplotlib.org/) -->
<svg height="432pt" version="1.1" viewBox="0 0 576 432" width="576pt" xmlns="http://www.w3.org/2000/svg" xmlns:xlink="http://www.w3.org/1999/xlink">
 <defs>
  <style type="text/css">
*{stroke-linecap:butt;stroke-linejoin:round;}
  </style>
 </defs>
 <g id="figure_1">
  <g id="patch_1">
   <path d="M 0 432 
L 576 432 
L 576 0 
L 0 0 
z
" style="fill:#ffffff;"/>
  </g>
  <g id="axes_1">
   <g id="patch_2">
    <path d="M 72 384.48 
L 518.4 384.48 
L 518.4 51.84 
L 72 51.84 
z
" style="fill:#ffffff;"/>
   </g>
   <g id="patch_3">
    <path clip-path="url(#p3b609d79bb)" d="M 99.9 384.48 
L 155.7 384.48 
L 155.7 338.440099 
L 99.9 338.440099 
z
" style="fill:url(#hd62f424d17);stroke:#000000;stroke-linejoin:miter;"/>
   </g>
   <g id="patch_4">
    <path clip-path="url(#p3b609d79bb)" d="M 211.5 384.48 
L 267.3 384.48 
L 267.3 355.19377 
L 211.5 355.19377 
z
" style="fill:url(#hd62f424d17);stroke:#000000;stroke-linejoin:miter;"/>
   </g>
   <g id="patch_5">
    <path clip-path="url(#p3b609d79bb)" d="M 323.1 384.48 
L 378.9 384.48 
L 378.9 366.319965 
L 323.1 366.319965 
z
" style="fill:url(#hd62f424d17);stroke:#000000;stroke-linejoin:miter;"/>
   </g>
   <g id="patch_6">
    <path clip-path="url(#p3b609d79bb)" d="M 434.7 384.48 
L 490.5 384.48 
L 490.5 374.127778 
L 434.7 374.127778 
z
" style="fill:url(#hd62f424d17);stroke:#000000;stroke-linejoin:miter;"/>
   </g>
   <g id="patch_7">
    <path clip-path="url(#p3b609d79bb)" d="M 99.9 338.440099 
L 155.7 338.440099 
L 155.7 148.439681 
L 99.9 148.439681 
z
" style="fill:url(#ha153a5dda3);stroke:#000000;stroke-linejoin:miter;"/>
   </g>
   <g id="patch_8">
    <path clip-path="url(#p3b609d79bb)" d="M 211.5 355.19377 
L 267.3 355.19377 
L 267.3 181.844371 
L 211.5 181.844371 
z
" style="fill:url(#ha153a5dda3);stroke:#000000;stroke-linejoin:miter;"/>
   </g>
   <g id="patch_9">
    <path clip-path="url(#p3b609d79bb)" d="M 323.1 366.319965 
L 378.9 366.319965 
L 378.9 217.607335 
L 323.1 217.607335 
z
" style="fill:url(#ha153a5dda3);stroke:#000000;stroke-linejoin:miter;"/>
   </g>
   <g id="patch_10">
    <path clip-path="url(#p3b609d79bb)" d="M 434.7 374.127778 
L 490.5 374.127778 
L 490.5 248.709023 
L 434.7 248.709023 
z
" style="fill:url(#ha153a5dda3);stroke:#000000;stroke-linejoin:miter;"/>
   </g>
   <g id="patch_11">
    <path clip-path="url(#p3b609d79bb)" d="M 99.9 148.439681 
L 155.7 148.439681 
L 155.7 67.68 
L 99.9 67.68 
z
" style="fill:url(#h31246d4fc1);stroke:#000000;stroke-linejoin:miter;"/>
   </g>
   <g id="patch_12">
    <path clip-path="url(#p3b609d79bb)" d="M 211.5 181.844371 
L 267.3 181.844371 
L 267.3 67.68 
L 211.5 67.68 
z
" style="fill:url(#h31246d4fc1);stroke:#000000;stroke-linejoin:miter;"/>
   </g>
   <g id="patch_13">
    <path clip-path="url(#p3b609d79bb)" d="M 323.1 217.607335 
L 378.9 217.607335 
L 378.9 67.68 
L 323.1 67.68 
z
" style="fill:url(#h31246d4fc1);stroke:#000000;stroke-linejoin:miter;"/>
   </g>
   <g id="patch_14">
    <path clip-path="url(#p3b609d79bb)" d="M 434.7 248.709023 
L 490.5 248.709023 
L 490.5 67.68 
L 434.7 67.68 
z
" style="fill:url(#h31246d4fc1);stroke:#000000;stroke-linejoin:miter;"/>
   </g>
   <g id="matplotlib.axis_1">
    <g id="xtick_1">
     <g id="line2d_1">
      <defs>
       <path d="M 0 0 
L 0 3.5 
" id="m1b8d441d32" style="stroke:#000000;stroke-width:0.8;"/>
      </defs>
      <g>
       <use style="stroke:#000000;stroke-width:0.8;" x="127.8" xlink:href="#m1b8d441d32" y="384.48"/>
      </g>
     </g>
     <g id="text_1">
      <!-- 0.25 -->
      <defs>
       <path d="M 3.609375 32.71875 
Q 3.609375 44.046875 7.03125 52.21875 
Q 10.453125 60.40625 16.109375 64.40625 
Q 20.515625 67.578125 25.203125 67.578125 
Q 32.8125 67.578125 38.875 59.8125 
Q 46.4375 50.203125 46.4375 33.734375 
Q 46.4375 22.21875 43.109375 14.15625 
Q 39.796875 6.109375 34.640625 2.46875 
Q 29.5 -1.171875 24.703125 -1.171875 
Q 15.234375 -1.171875 8.9375 10.015625 
Q 3.609375 19.4375 3.609375 32.71875 
M 13.1875 31.5 
Q 13.1875 17.828125 16.546875 9.1875 
Q 19.34375 1.90625 24.859375 1.90625 
Q 27.484375 1.90625 30.3125 4.265625 
Q 33.15625 6.640625 34.625 12.203125 
Q 36.859375 20.609375 36.859375 35.890625 
Q 36.859375 47.21875 34.515625 54.78125 
Q 32.765625 60.40625 29.984375 62.75 
Q 27.984375 64.359375 25.140625 64.359375 
Q 21.828125 64.359375 19.234375 61.375 
Q 15.71875 57.328125 14.453125 48.625 
Q 13.1875 39.9375 13.1875 31.5 
" id="TimesNewRomanPSMT-30"/>
       <path d="M 12.5 9.46875 
Q 14.796875 9.46875 16.359375 7.875 
Q 17.921875 6.296875 17.921875 4.046875 
Q 17.921875 1.8125 16.328125 0.21875 
Q 14.75 -1.375 12.5 -1.375 
Q 10.25 -1.375 8.65625 0.21875 
Q 7.078125 1.8125 7.078125 4.046875 
Q 7.078125 6.34375 8.65625 7.90625 
Q 10.25 9.46875 12.5 9.46875 
" id="TimesNewRomanPSMT-2e"/>
       <path d="M 45.84375 12.75 
L 41.21875 0 
L 2.15625 0 
L 2.15625 1.8125 
Q 19.390625 17.53125 26.421875 27.484375 
Q 33.453125 37.453125 33.453125 45.703125 
Q 33.453125 52 29.59375 56.046875 
Q 25.734375 60.109375 20.359375 60.109375 
Q 15.484375 60.109375 11.59375 57.25 
Q 7.71875 54.390625 5.859375 48.875 
L 4.046875 48.875 
Q 5.28125 57.90625 10.328125 62.734375 
Q 15.375 67.578125 22.953125 67.578125 
Q 31 67.578125 36.390625 62.40625 
Q 41.796875 57.234375 41.796875 50.203125 
Q 41.796875 45.171875 39.453125 40.140625 
Q 35.84375 32.234375 27.734375 23.390625 
Q 15.578125 10.109375 12.546875 7.375 
L 29.828125 7.375 
Q 35.109375 7.375 37.234375 7.765625 
Q 39.359375 8.15625 41.0625 9.34375 
Q 42.78125 10.546875 44.046875 12.75 
z
" id="TimesNewRomanPSMT-32"/>
       <path d="M 43.40625 66.21875 
L 39.59375 57.90625 
L 19.671875 57.90625 
L 15.328125 49.03125 
Q 28.265625 47.125 35.84375 39.40625 
Q 42.328125 32.765625 42.328125 23.78125 
Q 42.328125 18.5625 40.203125 14.109375 
Q 38.09375 9.671875 34.859375 6.546875 
Q 31.640625 3.421875 27.6875 1.515625 
Q 22.078125 -1.171875 16.15625 -1.171875 
Q 10.203125 -1.171875 7.484375 0.84375 
Q 4.78125 2.875 4.78125 5.328125 
Q 4.78125 6.6875 5.90625 7.734375 
Q 7.03125 8.796875 8.734375 8.796875 
Q 10.015625 8.796875 10.96875 8.40625 
Q 11.921875 8.015625 14.203125 6.390625 
Q 17.875 3.859375 21.625 3.859375 
Q 27.34375 3.859375 31.65625 8.171875 
Q 35.984375 12.5 35.984375 18.703125 
Q 35.984375 24.703125 32.125 29.90625 
Q 28.265625 35.109375 21.484375 37.9375 
Q 16.15625 40.140625 6.984375 40.484375 
L 19.671875 66.21875 
z
" id="TimesNewRomanPSMT-35"/>
      </defs>
      <g transform="translate(113.8 402.59)scale(0.16 -0.16)">
       <use xlink:href="#TimesNewRomanPSMT-30"/>
       <use x="50" xlink:href="#TimesNewRomanPSMT-2e"/>
       <use x="75" xlink:href="#TimesNewRomanPSMT-32"/>
       <use x="125" xlink:href="#TimesNewRomanPSMT-35"/>
      </g>
     </g>
    </g>
    <g id="xtick_2">
     <g id="line2d_2">
      <g>
       <use style="stroke:#000000;stroke-width:0.8;" x="239.4" xlink:href="#m1b8d441d32" y="384.48"/>
      </g>
     </g>
     <g id="text_2">
      <!-- 0.5 -->
      <g transform="translate(229.4 402.59)scale(0.16 -0.16)">
       <use xlink:href="#TimesNewRomanPSMT-30"/>
       <use x="50" xlink:href="#TimesNewRomanPSMT-2e"/>
       <use x="75" xlink:href="#TimesNewRomanPSMT-35"/>
      </g>
     </g>
    </g>
    <g id="xtick_3">
     <g id="line2d_3">
      <g>
       <use style="stroke:#000000;stroke-width:0.8;" x="351" xlink:href="#m1b8d441d32" y="384.48"/>
      </g>
     </g>
     <g id="text_3">
      <!-- 0.75 -->
      <defs>
       <path d="M 10.0625 66.21875 
L 45.5625 66.21875 
L 45.5625 64.359375 
L 23.484375 -1.375 
L 18.015625 -1.375 
L 37.796875 58.25 
L 19.578125 58.25 
Q 14.0625 58.25 11.71875 56.9375 
Q 7.625 54.6875 5.125 50 
L 3.71875 50.53125 
z
" id="TimesNewRomanPSMT-37"/>
      </defs>
      <g transform="translate(337 402.59)scale(0.16 -0.16)">
       <use xlink:href="#TimesNewRomanPSMT-30"/>
       <use x="50" xlink:href="#TimesNewRomanPSMT-2e"/>
       <use x="75" xlink:href="#TimesNewRomanPSMT-37"/>
       <use x="125" xlink:href="#TimesNewRomanPSMT-35"/>
      </g>
     </g>
    </g>
    <g id="xtick_4">
     <g id="line2d_4">
      <g>
       <use style="stroke:#000000;stroke-width:0.8;" x="462.6" xlink:href="#m1b8d441d32" y="384.48"/>
      </g>
     </g>
     <g id="text_4">
      <!-- 1.0 -->
      <defs>
       <path d="M 11.71875 59.71875 
L 27.828125 67.578125 
L 29.4375 67.578125 
L 29.4375 11.671875 
Q 29.4375 6.109375 29.90625 4.734375 
Q 30.375 3.375 31.828125 2.640625 
Q 33.296875 1.90625 37.796875 1.8125 
L 37.796875 0 
L 12.890625 0 
L 12.890625 1.8125 
Q 17.578125 1.90625 18.9375 2.609375 
Q 20.3125 3.328125 20.84375 4.515625 
Q 21.390625 5.71875 21.390625 11.671875 
L 21.390625 47.40625 
Q 21.390625 54.640625 20.90625 56.6875 
Q 20.5625 58.25 19.65625 58.984375 
Q 18.75 59.71875 17.484375 59.71875 
Q 15.671875 59.71875 12.453125 58.203125 
z
" id="TimesNewRomanPSMT-31"/>
      </defs>
      <g transform="translate(452.6 402.59)scale(0.16 -0.16)">
       <use xlink:href="#TimesNewRomanPSMT-31"/>
       <use x="50" xlink:href="#TimesNewRomanPSMT-2e"/>
       <use x="75" xlink:href="#TimesNewRomanPSMT-30"/>
      </g>
     </g>
    </g>
    <g id="text_5">
     <!-- PLR -->
     <defs>
      <path d="M 20.515625 31 
L 20.515625 11.71875 
Q 20.515625 5.46875 21.875 3.953125 
Q 23.734375 1.8125 27.484375 1.8125 
L 30.03125 1.8125 
L 30.03125 0 
L 1.65625 0 
L 1.65625 1.8125 
L 4.15625 1.8125 
Q 8.34375 1.8125 10.15625 4.546875 
Q 11.140625 6.0625 11.140625 11.71875 
L 11.140625 54.5 
Q 11.140625 60.75 9.8125 62.25 
Q 7.90625 64.40625 4.15625 64.40625 
L 1.65625 64.40625 
L 1.65625 66.21875 
L 25.921875 66.21875 
Q 34.8125 66.21875 39.9375 64.375 
Q 45.0625 62.546875 48.578125 58.203125 
Q 52.09375 53.859375 52.09375 47.90625 
Q 52.09375 39.796875 46.75 34.71875 
Q 41.40625 29.640625 31.640625 29.640625 
Q 29.25 29.640625 26.46875 29.984375 
Q 23.6875 30.328125 20.515625 31 
M 20.515625 33.796875 
Q 23.09375 33.296875 25.09375 33.046875 
Q 27.09375 32.8125 28.515625 32.8125 
Q 33.59375 32.8125 37.28125 36.734375 
Q 40.96875 40.671875 40.96875 46.921875 
Q 40.96875 51.21875 39.203125 54.90625 
Q 37.453125 58.59375 34.21875 60.421875 
Q 31 62.25 26.90625 62.25 
Q 24.421875 62.25 20.515625 61.328125 
z
" id="TimesNewRomanPSMT-50"/>
      <path d="M 57.328125 18.3125 
L 58.9375 17.96875 
L 53.265625 0 
L 2 0 
L 2 1.8125 
L 4.5 1.8125 
Q 8.6875 1.8125 10.5 4.546875 
Q 11.53125 6.109375 11.53125 11.765625 
L 11.53125 54.5 
Q 11.53125 60.6875 10.15625 62.25 
Q 8.25 64.40625 4.5 64.40625 
L 2 64.40625 
L 2 66.21875 
L 31.984375 66.21875 
L 31.984375 64.40625 
Q 26.703125 64.453125 24.578125 63.421875 
Q 22.46875 62.40625 21.6875 60.84375 
Q 20.90625 59.28125 20.90625 53.375 
L 20.90625 11.765625 
Q 20.90625 7.71875 21.6875 6.203125 
Q 22.265625 5.171875 23.484375 4.6875 
Q 24.703125 4.203125 31.109375 4.203125 
L 35.9375 4.203125 
Q 43.5625 4.203125 46.625 5.328125 
Q 49.703125 6.453125 52.234375 9.296875 
Q 54.78125 12.15625 57.328125 18.3125 
" id="TimesNewRomanPSMT-4c"/>
      <path d="M 67.578125 0 
L 49.90625 0 
L 27.484375 30.953125 
Q 25 30.859375 23.4375 30.859375 
Q 22.796875 30.859375 22.0625 30.875 
Q 21.34375 30.90625 20.5625 30.953125 
L 20.5625 11.71875 
Q 20.5625 5.46875 21.921875 3.953125 
Q 23.78125 1.8125 27.484375 1.8125 
L 30.078125 1.8125 
L 30.078125 0 
L 1.703125 0 
L 1.703125 1.8125 
L 4.203125 1.8125 
Q 8.40625 1.8125 10.203125 4.546875 
Q 11.234375 6.0625 11.234375 11.71875 
L 11.234375 54.5 
Q 11.234375 60.75 9.859375 62.25 
Q 7.953125 64.40625 4.203125 64.40625 
L 1.703125 64.40625 
L 1.703125 66.21875 
L 25.828125 66.21875 
Q 36.375 66.21875 41.375 64.671875 
Q 46.390625 63.140625 49.875 59.015625 
Q 53.375 54.890625 53.375 49.171875 
Q 53.375 43.0625 49.390625 38.5625 
Q 45.40625 34.078125 37.0625 32.234375 
L 50.734375 13.234375 
Q 55.421875 6.6875 58.78125 4.53125 
Q 62.15625 2.390625 67.578125 1.8125 
z
M 20.5625 34.03125 
Q 21.484375 34.03125 22.171875 34 
Q 22.859375 33.984375 23.296875 33.984375 
Q 32.765625 33.984375 37.578125 38.078125 
Q 42.390625 42.1875 42.390625 48.53125 
Q 42.390625 54.734375 38.5 58.609375 
Q 34.625 62.5 28.21875 62.5 
Q 25.390625 62.5 20.5625 61.578125 
z
" id="TimesNewRomanPSMT-52"/>
     </defs>
     <g transform="translate(280.52875 421.1225)scale(0.16 -0.16)">
      <use xlink:href="#TimesNewRomanPSMT-50"/>
      <use x="55.615234" xlink:href="#TimesNewRomanPSMT-4c"/>
      <use x="116.699219" xlink:href="#TimesNewRomanPSMT-52"/>
     </g>
    </g>
   </g>
   <g id="matplotlib.axis_2">
    <g id="ytick_1">
     <g id="line2d_5">
      <path clip-path="url(#p3b609d79bb)" d="M 72 384.48 
L 518.4 384.48 
" style="fill:none;opacity:0.4;stroke:#b0b0b0;stroke-linecap:square;stroke-width:0.8;"/>
     </g>
     <g id="line2d_6">
      <defs>
       <path d="M 0 0 
L -3.5 0 
" id="ma12f6c2374" style="stroke:#000000;stroke-width:0.8;"/>
      </defs>
      <g>
       <use style="stroke:#000000;stroke-width:0.8;" x="72" xlink:href="#ma12f6c2374" y="384.48"/>
      </g>
     </g>
     <g id="text_6">
      <!-- 0.0 -->
      <g transform="translate(45 390.035)scale(0.16 -0.16)">
       <use xlink:href="#TimesNewRomanPSMT-30"/>
       <use x="50" xlink:href="#TimesNewRomanPSMT-2e"/>
       <use x="75" xlink:href="#TimesNewRomanPSMT-30"/>
      </g>
     </g>
    </g>
    <g id="ytick_2">
     <g id="line2d_7">
      <path clip-path="url(#p3b609d79bb)" d="M 72 321.12 
L 518.4 321.12 
" style="fill:none;opacity:0.4;stroke:#b0b0b0;stroke-linecap:square;stroke-width:0.8;"/>
     </g>
     <g id="line2d_8">
      <g>
       <use style="stroke:#000000;stroke-width:0.8;" x="72" xlink:href="#ma12f6c2374" y="321.12"/>
      </g>
     </g>
     <g id="text_7">
      <!-- 0.2 -->
      <g transform="translate(45 326.675)scale(0.16 -0.16)">
       <use xlink:href="#TimesNewRomanPSMT-30"/>
       <use x="50" xlink:href="#TimesNewRomanPSMT-2e"/>
       <use x="75" xlink:href="#TimesNewRomanPSMT-32"/>
      </g>
     </g>
    </g>
    <g id="ytick_3">
     <g id="line2d_9">
      <path clip-path="url(#p3b609d79bb)" d="M 72 257.76 
L 518.4 257.76 
" style="fill:none;opacity:0.4;stroke:#b0b0b0;stroke-linecap:square;stroke-width:0.8;"/>
     </g>
     <g id="line2d_10">
      <g>
       <use style="stroke:#000000;stroke-width:0.8;" x="72" xlink:href="#ma12f6c2374" y="257.76"/>
      </g>
     </g>
     <g id="text_8">
      <!-- 0.4 -->
      <defs>
       <path d="M 46.53125 24.421875 
L 46.53125 17.484375 
L 37.640625 17.484375 
L 37.640625 0 
L 29.59375 0 
L 29.59375 17.484375 
L 1.5625 17.484375 
L 1.5625 23.734375 
L 32.28125 67.578125 
L 37.640625 67.578125 
L 37.640625 24.421875 
z
M 29.59375 24.421875 
L 29.59375 57.28125 
L 6.34375 24.421875 
z
" id="TimesNewRomanPSMT-34"/>
      </defs>
      <g transform="translate(45 263.315)scale(0.16 -0.16)">
       <use xlink:href="#TimesNewRomanPSMT-30"/>
       <use x="50" xlink:href="#TimesNewRomanPSMT-2e"/>
       <use x="75" xlink:href="#TimesNewRomanPSMT-34"/>
      </g>
     </g>
    </g>
    <g id="ytick_4">
     <g id="line2d_11">
      <path clip-path="url(#p3b609d79bb)" d="M 72 194.4 
L 518.4 194.4 
" style="fill:none;opacity:0.4;stroke:#b0b0b0;stroke-linecap:square;stroke-width:0.8;"/>
     </g>
     <g id="line2d_12">
      <g>
       <use style="stroke:#000000;stroke-width:0.8;" x="72" xlink:href="#ma12f6c2374" y="194.4"/>
      </g>
     </g>
     <g id="text_9">
      <!-- 0.6 -->
      <defs>
       <path d="M 44.828125 67.578125 
L 44.828125 65.765625 
Q 38.375 65.140625 34.296875 63.203125 
Q 30.21875 61.28125 26.234375 57.328125 
Q 22.265625 53.375 19.65625 48.515625 
Q 17.046875 43.65625 15.28125 36.96875 
Q 22.3125 41.796875 29.390625 41.796875 
Q 36.1875 41.796875 41.15625 36.328125 
Q 46.140625 30.859375 46.140625 22.265625 
Q 46.140625 13.96875 41.109375 7.125 
Q 35.0625 -1.171875 25.09375 -1.171875 
Q 18.3125 -1.171875 13.578125 3.328125 
Q 4.296875 12.0625 4.296875 25.984375 
Q 4.296875 34.859375 7.859375 42.859375 
Q 11.421875 50.875 18.03125 57.078125 
Q 24.65625 63.28125 30.703125 65.421875 
Q 36.765625 67.578125 42 67.578125 
z
M 14.453125 33.40625 
Q 13.578125 26.8125 13.578125 22.75 
Q 13.578125 18.0625 15.3125 12.5625 
Q 17.046875 7.078125 20.453125 3.859375 
Q 22.953125 1.5625 26.515625 1.5625 
Q 30.765625 1.5625 34.109375 5.5625 
Q 37.453125 9.578125 37.453125 17 
Q 37.453125 25.34375 34.125 31.4375 
Q 30.8125 37.546875 24.703125 37.546875 
Q 22.859375 37.546875 20.734375 36.765625 
Q 18.609375 35.984375 14.453125 33.40625 
" id="TimesNewRomanPSMT-36"/>
      </defs>
      <g transform="translate(45 199.955)scale(0.16 -0.16)">
       <use xlink:href="#TimesNewRomanPSMT-30"/>
       <use x="50" xlink:href="#TimesNewRomanPSMT-2e"/>
       <use x="75" xlink:href="#TimesNewRomanPSMT-36"/>
      </g>
     </g>
    </g>
    <g id="ytick_5">
     <g id="line2d_13">
      <path clip-path="url(#p3b609d79bb)" d="M 72 131.04 
L 518.4 131.04 
" style="fill:none;opacity:0.4;stroke:#b0b0b0;stroke-linecap:square;stroke-width:0.8;"/>
     </g>
     <g id="line2d_14">
      <g>
       <use style="stroke:#000000;stroke-width:0.8;" x="72" xlink:href="#ma12f6c2374" y="131.04"/>
      </g>
     </g>
     <g id="text_10">
      <!-- 0.8 -->
      <defs>
       <path d="M 19.1875 33.34375 
Q 11.328125 39.796875 9.046875 43.703125 
Q 6.78125 47.609375 6.78125 51.8125 
Q 6.78125 58.25 11.765625 62.90625 
Q 16.75 67.578125 25 67.578125 
Q 33.015625 67.578125 37.890625 63.234375 
Q 42.78125 58.890625 42.78125 53.328125 
Q 42.78125 49.609375 40.140625 45.75 
Q 37.5 41.890625 29.15625 36.671875 
Q 37.75 30.03125 40.53125 26.21875 
Q 44.234375 21.234375 44.234375 15.71875 
Q 44.234375 8.734375 38.90625 3.78125 
Q 33.59375 -1.171875 24.953125 -1.171875 
Q 15.53125 -1.171875 10.25 4.734375 
Q 6.0625 9.46875 6.0625 15.09375 
Q 6.0625 19.484375 9.015625 23.796875 
Q 11.96875 28.125 19.1875 33.34375 
M 26.859375 38.578125 
Q 32.71875 43.84375 34.28125 46.890625 
Q 35.84375 49.953125 35.84375 53.8125 
Q 35.84375 58.9375 32.953125 61.84375 
Q 30.078125 64.75 25.09375 64.75 
Q 20.125 64.75 17 61.859375 
Q 13.875 58.984375 13.875 55.125 
Q 13.875 52.59375 15.15625 50.046875 
Q 16.453125 47.515625 18.84375 45.21875 
z
M 21.484375 31.5 
Q 17.4375 28.078125 15.484375 24.046875 
Q 13.53125 20.015625 13.53125 15.328125 
Q 13.53125 9.03125 16.96875 5.25 
Q 20.40625 1.46875 25.734375 1.46875 
Q 31 1.46875 34.171875 4.4375 
Q 37.359375 7.421875 37.359375 11.671875 
Q 37.359375 15.1875 35.5 17.96875 
Q 32.03125 23.140625 21.484375 31.5 
" id="TimesNewRomanPSMT-38"/>
      </defs>
      <g transform="translate(45 136.595)scale(0.16 -0.16)">
       <use xlink:href="#TimesNewRomanPSMT-30"/>
       <use x="50" xlink:href="#TimesNewRomanPSMT-2e"/>
       <use x="75" xlink:href="#TimesNewRomanPSMT-38"/>
      </g>
     </g>
    </g>
    <g id="ytick_6">
     <g id="line2d_15">
      <path clip-path="url(#p3b609d79bb)" d="M 72 67.68 
L 518.4 67.68 
" style="fill:none;opacity:0.4;stroke:#b0b0b0;stroke-linecap:square;stroke-width:0.8;"/>
     </g>
     <g id="line2d_16">
      <g>
       <use style="stroke:#000000;stroke-width:0.8;" x="72" xlink:href="#ma12f6c2374" y="67.68"/>
      </g>
     </g>
     <g id="text_11">
      <!-- 1.0 -->
      <g transform="translate(45 73.235)scale(0.16 -0.16)">
       <use xlink:href="#TimesNewRomanPSMT-31"/>
       <use x="50" xlink:href="#TimesNewRomanPSMT-2e"/>
       <use x="75" xlink:href="#TimesNewRomanPSMT-30"/>
      </g>
     </g>
    </g>
    <g id="text_12">
     <!-- Normalized Hours -->
     <defs>
      <path d="M -1.3125 66.21875 
L 16.65625 66.21875 
L 57.125 16.546875 
L 57.125 54.734375 
Q 57.125 60.84375 55.765625 62.359375 
Q 53.953125 64.40625 50.046875 64.40625 
L 47.75 64.40625 
L 47.75 66.21875 
L 70.796875 66.21875 
L 70.796875 64.40625 
L 68.453125 64.40625 
Q 64.265625 64.40625 62.5 61.859375 
Q 61.421875 60.296875 61.421875 54.734375 
L 61.421875 -1.078125 
L 59.671875 -1.078125 
L 16.015625 52.25 
L 16.015625 11.46875 
Q 16.015625 5.375 17.328125 3.859375 
Q 19.1875 1.8125 23.046875 1.8125 
L 25.390625 1.8125 
L 25.390625 0 
L 2.34375 0 
L 2.34375 1.8125 
L 4.640625 1.8125 
Q 8.890625 1.8125 10.640625 4.34375 
Q 11.71875 5.90625 11.71875 11.46875 
L 11.71875 57.515625 
Q 8.84375 60.890625 7.34375 61.953125 
Q 5.859375 63.03125 2.984375 63.96875 
Q 1.5625 64.40625 -1.3125 64.40625 
z
" id="TimesNewRomanPSMT-4e"/>
      <path d="M 25 46.046875 
Q 35.15625 46.046875 41.3125 38.328125 
Q 46.53125 31.734375 46.53125 23.1875 
Q 46.53125 17.1875 43.640625 11.03125 
Q 40.765625 4.890625 35.71875 1.75 
Q 30.671875 -1.375 24.46875 -1.375 
Q 14.359375 -1.375 8.40625 6.6875 
Q 3.375 13.484375 3.375 21.921875 
Q 3.375 28.078125 6.421875 34.15625 
Q 9.46875 40.234375 14.453125 43.140625 
Q 19.4375 46.046875 25 46.046875 
M 23.484375 42.875 
Q 20.90625 42.875 18.28125 41.328125 
Q 15.671875 39.796875 14.0625 35.9375 
Q 12.453125 32.078125 12.453125 26.03125 
Q 12.453125 16.265625 16.328125 9.171875 
Q 20.21875 2.09375 26.5625 2.09375 
Q 31.296875 2.09375 34.375 6 
Q 37.453125 9.90625 37.453125 19.4375 
Q 37.453125 31.34375 32.328125 38.1875 
Q 28.859375 42.875 23.484375 42.875 
" id="TimesNewRomanPSMT-6f"/>
      <path d="M 16.21875 46.046875 
L 16.21875 35.984375 
Q 21.828125 46.046875 27.734375 46.046875 
Q 30.421875 46.046875 32.171875 44.40625 
Q 33.9375 42.78125 33.9375 40.625 
Q 33.9375 38.71875 32.65625 37.390625 
Q 31.390625 36.078125 29.640625 36.078125 
Q 27.9375 36.078125 25.8125 37.765625 
Q 23.6875 39.453125 22.65625 39.453125 
Q 21.78125 39.453125 20.75 38.484375 
Q 18.5625 36.46875 16.21875 31.890625 
L 16.21875 10.453125 
Q 16.21875 6.734375 17.140625 4.828125 
Q 17.78125 3.515625 19.390625 2.640625 
Q 21 1.765625 24.03125 1.765625 
L 24.03125 0 
L 1.125 0 
L 1.125 1.765625 
Q 4.546875 1.765625 6.203125 2.828125 
Q 7.421875 3.609375 7.90625 5.328125 
Q 8.15625 6.15625 8.15625 10.0625 
L 8.15625 27.390625 
Q 8.15625 35.203125 7.828125 36.6875 
Q 7.515625 38.1875 6.65625 38.859375 
Q 5.8125 39.546875 4.546875 39.546875 
Q 3.03125 39.546875 1.125 38.8125 
L 0.640625 40.578125 
L 14.15625 46.046875 
z
" id="TimesNewRomanPSMT-72"/>
      <path d="M 16.40625 36.53125 
Q 21.296875 41.40625 22.171875 42.140625 
Q 24.359375 44 26.890625 45.015625 
Q 29.4375 46.046875 31.9375 46.046875 
Q 36.140625 46.046875 39.15625 43.59375 
Q 42.1875 41.15625 43.21875 36.53125 
Q 48.25 42.390625 51.703125 44.21875 
Q 55.171875 46.046875 58.84375 46.046875 
Q 62.40625 46.046875 65.15625 44.21875 
Q 67.921875 42.390625 69.53125 38.234375 
Q 70.609375 35.40625 70.609375 29.34375 
L 70.609375 10.109375 
Q 70.609375 5.90625 71.234375 4.34375 
Q 71.734375 3.265625 73.046875 2.515625 
Q 74.359375 1.765625 77.34375 1.765625 
L 77.34375 0 
L 55.28125 0 
L 55.28125 1.765625 
L 56.203125 1.765625 
Q 59.078125 1.765625 60.6875 2.875 
Q 61.8125 3.65625 62.3125 5.375 
Q 62.5 6.203125 62.5 10.109375 
L 62.5 29.34375 
Q 62.5 34.8125 61.1875 37.0625 
Q 59.28125 40.1875 55.078125 40.1875 
Q 52.484375 40.1875 49.875 38.890625 
Q 47.265625 37.59375 43.5625 34.078125 
L 43.453125 33.546875 
L 43.5625 31.453125 
L 43.5625 10.109375 
Q 43.5625 5.515625 44.0625 4.390625 
Q 44.578125 3.265625 45.984375 2.515625 
Q 47.40625 1.765625 50.828125 1.765625 
L 50.828125 0 
L 28.21875 0 
L 28.21875 1.765625 
Q 31.9375 1.765625 33.328125 2.640625 
Q 34.71875 3.515625 35.25 5.28125 
Q 35.5 6.109375 35.5 10.109375 
L 35.5 29.34375 
Q 35.5 34.8125 33.890625 37.203125 
Q 31.734375 40.328125 27.875 40.328125 
Q 25.25 40.328125 22.65625 38.921875 
Q 18.609375 36.765625 16.40625 34.078125 
L 16.40625 10.109375 
Q 16.40625 5.71875 17.015625 4.390625 
Q 17.625 3.078125 18.8125 2.421875 
Q 20.015625 1.765625 23.6875 1.765625 
L 23.6875 0 
L 1.5625 0 
L 1.5625 1.765625 
Q 4.640625 1.765625 5.859375 2.421875 
Q 7.078125 3.078125 7.703125 4.515625 
Q 8.34375 5.953125 8.34375 10.109375 
L 8.34375 27.203125 
Q 8.34375 34.578125 7.90625 36.71875 
Q 7.5625 38.328125 6.828125 38.9375 
Q 6.109375 39.546875 4.828125 39.546875 
Q 3.46875 39.546875 1.5625 38.8125 
L 0.828125 40.578125 
L 14.3125 46.046875 
L 16.40625 46.046875 
z
" id="TimesNewRomanPSMT-6d"/>
      <path d="M 28.46875 6.453125 
Q 21.578125 1.125 19.828125 0.296875 
Q 17.1875 -0.921875 14.203125 -0.921875 
Q 9.578125 -0.921875 6.5625 2.25 
Q 3.5625 5.421875 3.5625 10.59375 
Q 3.5625 13.875 5.03125 16.265625 
Q 7.03125 19.578125 11.984375 22.5 
Q 16.9375 25.4375 28.46875 29.640625 
L 28.46875 31.390625 
Q 28.46875 38.09375 26.34375 40.578125 
Q 24.21875 43.0625 20.171875 43.0625 
Q 17.09375 43.0625 15.28125 41.40625 
Q 13.421875 39.75 13.421875 37.59375 
L 13.53125 34.765625 
Q 13.53125 32.515625 12.375 31.296875 
Q 11.234375 30.078125 9.375 30.078125 
Q 7.5625 30.078125 6.421875 31.34375 
Q 5.28125 32.625 5.28125 34.8125 
Q 5.28125 39.015625 9.578125 42.53125 
Q 13.875 46.046875 21.625 46.046875 
Q 27.59375 46.046875 31.390625 44.046875 
Q 34.28125 42.53125 35.640625 39.3125 
Q 36.53125 37.203125 36.53125 30.71875 
L 36.53125 15.53125 
Q 36.53125 9.125 36.765625 7.6875 
Q 37.015625 6.25 37.578125 5.765625 
Q 38.140625 5.28125 38.875 5.28125 
Q 39.65625 5.28125 40.234375 5.609375 
Q 41.265625 6.25 44.1875 9.1875 
L 44.1875 6.453125 
Q 38.71875 -0.875 33.734375 -0.875 
Q 31.34375 -0.875 29.921875 0.78125 
Q 28.515625 2.4375 28.46875 6.453125 
M 28.46875 9.625 
L 28.46875 26.65625 
Q 21.09375 23.734375 18.953125 22.515625 
Q 15.09375 20.359375 13.421875 18.015625 
Q 11.765625 15.671875 11.765625 12.890625 
Q 11.765625 9.375 13.859375 7.046875 
Q 15.96875 4.734375 18.703125 4.734375 
Q 22.40625 4.734375 28.46875 9.625 
" id="TimesNewRomanPSMT-61"/>
      <path d="M 18.5 69.4375 
L 18.5 10.109375 
Q 18.5 5.90625 19.109375 4.53125 
Q 19.734375 3.171875 21 2.46875 
Q 22.265625 1.765625 25.734375 1.765625 
L 25.734375 0 
L 3.8125 0 
L 3.8125 1.765625 
Q 6.890625 1.765625 8 2.390625 
Q 9.125 3.03125 9.765625 4.484375 
Q 10.40625 5.953125 10.40625 10.109375 
L 10.40625 50.734375 
Q 10.40625 58.296875 10.0625 60.03125 
Q 9.71875 61.765625 8.953125 62.390625 
Q 8.203125 63.03125 7.03125 63.03125 
Q 5.765625 63.03125 3.8125 62.25 
L 2.984375 63.96875 
L 16.3125 69.4375 
z
" id="TimesNewRomanPSMT-6c"/>
      <path d="M 14.5 69.4375 
Q 16.546875 69.4375 17.984375 67.984375 
Q 19.4375 66.546875 19.4375 64.5 
Q 19.4375 62.453125 17.984375 60.984375 
Q 16.546875 59.515625 14.5 59.515625 
Q 12.453125 59.515625 10.984375 60.984375 
Q 9.515625 62.453125 9.515625 64.5 
Q 9.515625 66.546875 10.953125 67.984375 
Q 12.40625 69.4375 14.5 69.4375 
M 18.5625 46.046875 
L 18.5625 10.109375 
Q 18.5625 5.90625 19.171875 4.515625 
Q 19.78125 3.125 20.96875 2.4375 
Q 22.171875 1.765625 25.34375 1.765625 
L 25.34375 0 
L 3.609375 0 
L 3.609375 1.765625 
Q 6.890625 1.765625 8 2.390625 
Q 9.125 3.03125 9.78125 4.484375 
Q 10.453125 5.953125 10.453125 10.109375 
L 10.453125 27.34375 
Q 10.453125 34.625 10.015625 36.765625 
Q 9.671875 38.328125 8.9375 38.9375 
Q 8.203125 39.546875 6.9375 39.546875 
Q 5.5625 39.546875 3.609375 38.8125 
L 2.9375 40.578125 
L 16.40625 46.046875 
z
" id="TimesNewRomanPSMT-69"/>
      <path d="M 42 13.71875 
L 41.453125 0 
L 2 0 
L 2 1.765625 
L 31.6875 41.3125 
L 17.046875 41.3125 
Q 12.3125 41.3125 10.84375 40.703125 
Q 9.375 40.09375 8.453125 38.375 
Q 7.125 35.9375 6.9375 32.328125 
L 4.984375 32.328125 
L 5.28125 44.734375 
L 42.78125 44.734375 
L 42.78125 42.921875 
L 12.796875 3.265625 
L 29.109375 3.265625 
Q 34.234375 3.265625 36.0625 4.125 
Q 37.890625 4.984375 39.015625 7.125 
Q 39.796875 8.6875 40.328125 13.71875 
z
" id="TimesNewRomanPSMT-7a"/>
      <path d="M 10.640625 27.875 
Q 10.59375 17.921875 15.484375 12.25 
Q 20.359375 6.59375 26.953125 6.59375 
Q 31.34375 6.59375 34.59375 9 
Q 37.84375 11.421875 40.046875 17.28125 
L 41.546875 16.3125 
Q 40.53125 9.625 35.59375 4.125 
Q 30.671875 -1.375 23.25 -1.375 
Q 15.1875 -1.375 9.453125 4.90625 
Q 3.71875 11.1875 3.71875 21.78125 
Q 3.71875 33.25 9.59375 39.671875 
Q 15.484375 46.09375 24.359375 46.09375 
Q 31.890625 46.09375 36.71875 41.140625 
Q 41.546875 36.1875 41.546875 27.875 
z
M 10.640625 30.71875 
L 31.34375 30.71875 
Q 31.109375 35.015625 30.328125 36.765625 
Q 29.109375 39.5 26.6875 41.0625 
Q 24.265625 42.625 21.625 42.625 
Q 17.578125 42.625 14.375 39.46875 
Q 11.1875 36.328125 10.640625 30.71875 
" id="TimesNewRomanPSMT-65"/>
      <path d="M 34.71875 5.03125 
Q 31.453125 1.609375 28.328125 0.109375 
Q 25.203125 -1.375 21.578125 -1.375 
Q 14.265625 -1.375 8.796875 4.75 
Q 3.328125 10.890625 3.328125 20.515625 
Q 3.328125 30.125 9.375 38.109375 
Q 15.4375 46.09375 24.953125 46.09375 
Q 30.859375 46.09375 34.71875 42.328125 
L 34.71875 50.59375 
Q 34.71875 58.25 34.34375 60 
Q 33.984375 61.765625 33.203125 62.390625 
Q 32.421875 63.03125 31.25 63.03125 
Q 29.984375 63.03125 27.875 62.25 
L 27.25 63.96875 
L 40.578125 69.4375 
L 42.78125 69.4375 
L 42.78125 17.71875 
Q 42.78125 9.859375 43.140625 8.125 
Q 43.5 6.390625 44.3125 5.703125 
Q 45.125 5.03125 46.1875 5.03125 
Q 47.515625 5.03125 49.703125 5.859375 
L 50.25 4.15625 
L 36.96875 -1.375 
L 34.71875 -1.375 
z
M 34.71875 8.453125 
L 34.71875 31.5 
Q 34.421875 34.8125 32.953125 37.546875 
Q 31.5 40.28125 29.078125 41.671875 
Q 26.65625 43.0625 24.359375 43.0625 
Q 20.0625 43.0625 16.703125 39.203125 
Q 12.25 34.125 12.25 24.359375 
Q 12.25 14.5 16.546875 9.25 
Q 20.84375 4 26.125 4 
Q 30.5625 4 34.71875 8.453125 
" id="TimesNewRomanPSMT-64"/>
      <path id="TimesNewRomanPSMT-20"/>
      <path d="M 20.5625 35.5 
L 51.3125 35.5 
L 51.3125 54.4375 
Q 51.3125 59.515625 50.6875 61.140625 
Q 50.203125 62.359375 48.640625 63.234375 
Q 46.53125 64.40625 44.1875 64.40625 
L 41.84375 64.40625 
L 41.84375 66.21875 
L 70.171875 66.21875 
L 70.171875 64.40625 
L 67.828125 64.40625 
Q 65.484375 64.40625 63.375 63.28125 
Q 61.8125 62.5 61.25 60.90625 
Q 60.6875 59.328125 60.6875 54.4375 
L 60.6875 11.71875 
Q 60.6875 6.6875 61.328125 5.078125 
Q 61.8125 3.859375 63.328125 2.984375 
Q 65.484375 1.8125 67.828125 1.8125 
L 70.171875 1.8125 
L 70.171875 0 
L 41.84375 0 
L 41.84375 1.8125 
L 44.1875 1.8125 
Q 48.25 1.8125 50.09375 4.203125 
Q 51.3125 5.765625 51.3125 11.71875 
L 51.3125 31.890625 
L 20.5625 31.890625 
L 20.5625 11.71875 
Q 20.5625 6.6875 21.1875 5.078125 
Q 21.6875 3.859375 23.25 2.984375 
Q 25.34375 1.8125 27.6875 1.8125 
L 30.078125 1.8125 
L 30.078125 0 
L 1.703125 0 
L 1.703125 1.8125 
L 4.046875 1.8125 
Q 8.15625 1.8125 10.015625 4.203125 
Q 11.1875 5.765625 11.1875 11.71875 
L 11.1875 54.4375 
Q 11.1875 59.515625 10.546875 61.140625 
Q 10.0625 62.359375 8.546875 63.234375 
Q 6.390625 64.40625 4.046875 64.40625 
L 1.703125 64.40625 
L 1.703125 66.21875 
L 30.078125 66.21875 
L 30.078125 64.40625 
L 27.6875 64.40625 
Q 25.34375 64.40625 23.25 63.28125 
Q 21.734375 62.5 21.140625 60.90625 
Q 20.5625 59.328125 20.5625 54.4375 
z
" id="TimesNewRomanPSMT-48"/>
      <path d="M 42.328125 44.734375 
L 42.328125 17.625 
Q 42.328125 9.859375 42.6875 8.125 
Q 43.0625 6.390625 43.859375 5.703125 
Q 44.671875 5.03125 45.75 5.03125 
Q 47.265625 5.03125 49.171875 5.859375 
L 49.859375 4.15625 
L 36.46875 -1.375 
L 34.28125 -1.375 
L 34.28125 8.109375 
Q 28.515625 1.859375 25.484375 0.234375 
Q 22.46875 -1.375 19.09375 -1.375 
Q 15.328125 -1.375 12.5625 0.796875 
Q 9.8125 2.984375 8.734375 6.390625 
Q 7.671875 9.8125 7.671875 16.0625 
L 7.671875 36.03125 
Q 7.671875 39.203125 6.984375 40.421875 
Q 6.296875 41.65625 4.953125 42.3125 
Q 3.609375 42.96875 0.09375 42.921875 
L 0.09375 44.734375 
L 15.765625 44.734375 
L 15.765625 14.796875 
Q 15.765625 8.546875 17.9375 6.59375 
Q 20.125 4.640625 23.1875 4.640625 
Q 25.296875 4.640625 27.953125 5.953125 
Q 30.609375 7.28125 34.28125 10.984375 
L 34.28125 36.328125 
Q 34.28125 40.140625 32.890625 41.484375 
Q 31.5 42.828125 27.09375 42.921875 
L 27.09375 44.734375 
z
" id="TimesNewRomanPSMT-75"/>
      <path d="M 32.03125 46.046875 
L 32.03125 30.8125 
L 30.421875 30.8125 
Q 28.5625 37.984375 25.65625 40.578125 
Q 22.75 43.171875 18.265625 43.171875 
Q 14.84375 43.171875 12.734375 41.359375 
Q 10.640625 39.546875 10.640625 37.359375 
Q 10.640625 34.625 12.203125 32.671875 
Q 13.71875 30.671875 18.359375 28.421875 
L 25.484375 24.953125 
Q 35.40625 20.125 35.40625 12.203125 
Q 35.40625 6.109375 30.78125 2.359375 
Q 26.171875 -1.375 20.453125 -1.375 
Q 16.359375 -1.375 11.078125 0.09375 
Q 9.46875 0.59375 8.453125 0.59375 
Q 7.328125 0.59375 6.6875 -0.6875 
L 5.078125 -0.6875 
L 5.078125 15.28125 
L 6.6875 15.28125 
Q 8.0625 8.453125 11.90625 4.984375 
Q 15.765625 1.515625 20.5625 1.515625 
Q 23.921875 1.515625 26.046875 3.484375 
Q 28.171875 5.46875 28.171875 8.25 
Q 28.171875 11.625 25.796875 13.921875 
Q 23.4375 16.21875 16.359375 19.734375 
Q 9.28125 23.25 7.078125 26.078125 
Q 4.890625 28.859375 4.890625 33.109375 
Q 4.890625 38.625 8.671875 42.328125 
Q 12.453125 46.046875 18.453125 46.046875 
Q 21.09375 46.046875 24.859375 44.921875 
Q 27.34375 44.1875 28.171875 44.1875 
Q 28.953125 44.1875 29.390625 44.53125 
Q 29.828125 44.875 30.421875 46.046875 
z
" id="TimesNewRomanPSMT-73"/>
     </defs>
     <g transform="translate(37.5775 277.4775)rotate(-90)scale(0.16 -0.16)">
      <use xlink:href="#TimesNewRomanPSMT-4e"/>
      <use x="72.216797" xlink:href="#TimesNewRomanPSMT-6f"/>
      <use x="122.216797" xlink:href="#TimesNewRomanPSMT-72"/>
      <use x="155.517578" xlink:href="#TimesNewRomanPSMT-6d"/>
      <use x="233.300781" xlink:href="#TimesNewRomanPSMT-61"/>
      <use x="277.685547" xlink:href="#TimesNewRomanPSMT-6c"/>
      <use x="305.46875" xlink:href="#TimesNewRomanPSMT-69"/>
      <use x="333.251953" xlink:href="#TimesNewRomanPSMT-7a"/>
      <use x="377.636719" xlink:href="#TimesNewRomanPSMT-65"/>
      <use x="422.021484" xlink:href="#TimesNewRomanPSMT-64"/>
      <use x="472.021484" xlink:href="#TimesNewRomanPSMT-20"/>
      <use x="497.021484" xlink:href="#TimesNewRomanPSMT-48"/>
      <use x="569.238281" xlink:href="#TimesNewRomanPSMT-6f"/>
      <use x="619.238281" xlink:href="#TimesNewRomanPSMT-75"/>
      <use x="669.238281" xlink:href="#TimesNewRomanPSMT-72"/>
      <use x="702.539062" xlink:href="#TimesNewRomanPSMT-73"/>
     </g>
    </g>
   </g>
   <g id="patch_15">
    <path d="M 72 384.48 
L 72 51.84 
" style="fill:none;stroke:#000000;stroke-linecap:square;stroke-linejoin:miter;stroke-width:0.8;"/>
   </g>
   <g id="patch_16">
    <path d="M 518.4 384.48 
L 518.4 51.84 
" style="fill:none;stroke:#000000;stroke-linecap:square;stroke-linejoin:miter;stroke-width:0.8;"/>
   </g>
   <g id="patch_17">
    <path d="M 72 384.48 
L 518.4 384.48 
" style="fill:none;stroke:#000000;stroke-linecap:square;stroke-linejoin:miter;stroke-width:0.8;"/>
   </g>
   <g id="patch_18">
    <path d="M 72 51.84 
L 518.4 51.84 
" style="fill:none;stroke:#000000;stroke-linecap:square;stroke-linejoin:miter;stroke-width:0.8;"/>
   </g>
   <g id="legend_1">
    <g id="patch_19">
     <path d="M 215.235 65.55125 
L 507.2 65.55125 
Q 510.4 65.55125 510.4 62.35125 
L 510.4 41.32875 
Q 510.4 38.12875 507.2 38.12875 
L 215.235 38.12875 
Q 212.035 38.12875 212.035 41.32875 
L 212.035 62.35125 
Q 212.035 65.55125 215.235 65.55125 
z
" style="fill:#ffffff;opacity:0.8;stroke:#cccccc;stroke-linejoin:miter;"/>
    </g>
    <g id="patch_20">
     <path d="M 218.435 55.72875 
L 250.435 55.72875 
L 250.435 44.52875 
L 218.435 44.52875 
z
" style="fill:url(#hd62f424d17);stroke:#000000;stroke-linejoin:miter;"/>
    </g>
    <g id="text_13">
     <!-- FC -->
     <defs>
      <path d="M 20.453125 62.59375 
L 20.453125 36.578125 
L 32.515625 36.578125 
Q 36.671875 36.578125 38.59375 38.40625 
Q 40.53125 40.234375 41.15625 45.65625 
L 42.96875 45.65625 
L 42.96875 23.25 
L 41.15625 23.25 
Q 41.109375 27.09375 40.15625 28.90625 
Q 39.203125 30.71875 37.515625 31.609375 
Q 35.84375 32.515625 32.515625 32.515625 
L 20.453125 32.515625 
L 20.453125 11.71875 
Q 20.453125 6.6875 21.09375 5.078125 
Q 21.578125 3.859375 23.140625 2.984375 
Q 25.296875 1.8125 27.640625 1.8125 
L 30.03125 1.8125 
L 30.03125 0 
L 1.609375 0 
L 1.609375 1.8125 
L 3.953125 1.8125 
Q 8.0625 1.8125 9.90625 4.203125 
Q 11.078125 5.765625 11.078125 11.71875 
L 11.078125 54.5 
Q 11.078125 59.515625 10.453125 61.140625 
Q 9.96875 62.359375 8.453125 63.234375 
Q 6.34375 64.40625 3.953125 64.40625 
L 1.609375 64.40625 
L 1.609375 66.21875 
L 50.875 66.21875 
L 51.515625 51.65625 
L 49.8125 51.65625 
Q 48.53125 56.296875 46.84375 58.46875 
Q 45.171875 60.640625 42.703125 61.609375 
Q 40.234375 62.59375 35.0625 62.59375 
z
" id="TimesNewRomanPSMT-46"/>
      <path d="M 60.203125 67.71875 
L 61.71875 45.21875 
L 60.203125 45.21875 
Q 57.171875 55.328125 51.5625 59.765625 
Q 45.953125 64.203125 38.09375 64.203125 
Q 31.5 64.203125 26.171875 60.859375 
Q 20.84375 57.515625 17.796875 50.1875 
Q 14.75 42.875 14.75 31.984375 
Q 14.75 23 17.625 16.40625 
Q 20.515625 9.8125 26.296875 6.296875 
Q 32.078125 2.78125 39.5 2.78125 
Q 45.953125 2.78125 50.875 5.53125 
Q 55.8125 8.296875 61.71875 16.5 
L 63.234375 15.53125 
Q 58.25 6.6875 51.609375 2.578125 
Q 44.96875 -1.515625 35.84375 -1.515625 
Q 19.390625 -1.515625 10.359375 10.6875 
Q 3.609375 19.78125 3.609375 32.078125 
Q 3.609375 42 8.046875 50.296875 
Q 12.5 58.59375 20.28125 63.15625 
Q 28.078125 67.71875 37.3125 67.71875 
Q 44.484375 67.71875 51.46875 64.203125 
Q 53.515625 63.140625 54.390625 63.140625 
Q 55.71875 63.140625 56.6875 64.0625 
Q 57.953125 65.375 58.5 67.71875 
z
" id="TimesNewRomanPSMT-43"/>
     </defs>
     <g transform="translate(263.235 55.72875)scale(0.16 -0.16)">
      <use xlink:href="#TimesNewRomanPSMT-46"/>
      <use x="55.615234" xlink:href="#TimesNewRomanPSMT-43"/>
     </g>
    </g>
    <g id="patch_21">
     <path d="M 314.805 55.72875 
L 346.805 55.72875 
L 346.805 44.52875 
L 314.805 44.52875 
z
" style="fill:url(#ha153a5dda3);stroke:#000000;stroke-linejoin:miter;"/>
    </g>
    <g id="text_14">
     <!-- PMC -->
     <defs>
      <path d="M 40.921875 0 
L 15.328125 55.71875 
L 15.328125 11.46875 
Q 15.328125 5.375 16.65625 3.859375 
Q 18.453125 1.8125 22.359375 1.8125 
L 24.703125 1.8125 
L 24.703125 0 
L 1.65625 0 
L 1.65625 1.8125 
L 4 1.8125 
Q 8.203125 1.8125 9.96875 4.34375 
Q 11.03125 5.90625 11.03125 11.46875 
L 11.03125 54.734375 
Q 11.03125 59.125 10.0625 61.078125 
Q 9.375 62.5 7.546875 63.453125 
Q 5.71875 64.40625 1.65625 64.40625 
L 1.65625 66.21875 
L 20.40625 66.21875 
L 44.4375 14.40625 
L 68.0625 66.21875 
L 86.8125 66.21875 
L 86.8125 64.40625 
L 84.515625 64.40625 
Q 80.28125 64.40625 78.515625 61.859375 
Q 77.4375 60.296875 77.4375 54.734375 
L 77.4375 11.46875 
Q 77.4375 5.375 78.8125 3.859375 
Q 80.609375 1.8125 84.515625 1.8125 
L 86.8125 1.8125 
L 86.8125 0 
L 58.6875 0 
L 58.6875 1.8125 
L 61.03125 1.8125 
Q 65.28125 1.8125 67 4.34375 
Q 68.0625 5.90625 68.0625 11.46875 
L 68.0625 55.71875 
L 42.53125 0 
z
" id="TimesNewRomanPSMT-4d"/>
     </defs>
     <g transform="translate(359.605 55.72875)scale(0.16 -0.16)">
      <use xlink:href="#TimesNewRomanPSMT-50"/>
      <use x="55.615234" xlink:href="#TimesNewRomanPSMT-4d"/>
      <use x="144.53125" xlink:href="#TimesNewRomanPSMT-43"/>
     </g>
    </g>
    <g id="patch_22">
     <path d="M 425.4025 55.72875 
L 457.4025 55.72875 
L 457.4025 44.52875 
L 425.4025 44.52875 
z
" style="fill:url(#h31246d4fc1);stroke:#000000;stroke-linejoin:miter;"/>
    </g>
    <g id="text_15">
     <!-- FMC -->
     <g transform="translate(470.2025 55.72875)scale(0.16 -0.16)">
      <use xlink:href="#TimesNewRomanPSMT-46"/>
      <use x="55.615234" xlink:href="#TimesNewRomanPSMT-4d"/>
      <use x="144.53125" xlink:href="#TimesNewRomanPSMT-43"/>
     </g>
    </g>
   </g>
  </g>
 </g>
 <defs>
  <clipPath id="p3b609d79bb">
   <rect height="332.64" width="446.4" x="72" y="51.84"/>
  </clipPath>
 </defs>
 <defs>
  <pattern height="72" id="hd62f424d17" patternUnits="userSpaceOnUse" width="72" x="0" y="0">
   <rect fill="none" height="73" width="73" x="0" y="0"/>
   <path d="M -36 36 
L 36 108 
M -24 24 
L 48 96 
M -12 12 
L 60 84 
M 0 0 
L 72 72 
M 12 -12 
L 84 60 
M 24 -24 
L 96 48 
M 36 -36 
L 108 36 
" style="fill:#000000;stroke:#000000;stroke-linecap:butt;stroke-linejoin:miter;stroke-width:1.0;"/>
  </pattern>
  <pattern height="72" id="ha153a5dda3" patternUnits="userSpaceOnUse" width="72" x="0" y="0">
   <rect fill="none" height="73" width="73" x="0" y="0"/>
   <path d="M 0 76.2 
C 1.113853 76.2 2.182235 75.757462 2.969848 74.969848 
C 3.757462 74.182235 4.2 73.113853 4.2 72 
C 4.2 70.886147 3.757462 69.817765 2.969848 69.030152 
C 2.182235 68.242538 1.113853 67.8 0 67.8 
C -1.113853 67.8 -2.182235 68.242538 -2.969848 69.030152 
C -3.757462 69.817765 -4.2 70.886147 -4.2 72 
C -4.2 73.113853 -3.757462 74.182235 -2.969848 74.969848 
C -2.182235 75.757462 -1.113853 76.2 0 76.2 
z
M 0 75.78 
C 0 75.78 -1.002468 75.78 -1.964012 75.381715 
C -2.672864 74.672864 -3.381715 73.964012 -3.78 73.002468 
C -3.78 72 -3.78 70.997532 -3.381715 70.035988 
C -2.672864 69.327136 -1.964012 68.618285 -1.002468 68.22 
C 0 68.22 1.002468 68.22 1.964012 68.618285 
C 2.672864 69.327136 3.381715 70.035988 3.78 70.997532 
C 3.78 72 3.78 73.002468 3.381715 73.964012 
C 2.672864 74.672864 1.964012 75.381715 1.002468 75.78 
z
M 12 76.2 
C 13.113853 76.2 14.182235 75.757462 14.969848 74.969848 
C 15.757462 74.182235 16.2 73.113853 16.2 72 
C 16.2 70.886147 15.757462 69.817765 14.969848 69.030152 
C 14.182235 68.242538 13.113853 67.8 12 67.8 
C 10.886147 67.8 9.817765 68.242538 9.030152 69.030152 
C 8.242538 69.817765 7.8 70.886147 7.8 72 
C 7.8 73.113853 8.242538 74.182235 9.030152 74.969848 
C 9.817765 75.757462 10.886147 76.2 12 76.2 
z
M 12 75.78 
C 12 75.78 10.997532 75.78 10.035988 75.381715 
C 9.327136 74.672864 8.618285 73.964012 8.22 73.002468 
C 8.22 72 8.22 70.997532 8.618285 70.035988 
C 9.327136 69.327136 10.035988 68.618285 10.997532 68.22 
C 12 68.22 13.002468 68.22 13.964012 68.618285 
C 14.672864 69.327136 15.381715 70.035988 15.78 70.997532 
C 15.78 72 15.78 73.002468 15.381715 73.964012 
C 14.672864 74.672864 13.964012 75.381715 13.002468 75.78 
z
M 24 76.2 
C 25.113853 76.2 26.182235 75.757462 26.969848 74.969848 
C 27.757462 74.182235 28.2 73.113853 28.2 72 
C 28.2 70.886147 27.757462 69.817765 26.969848 69.030152 
C 26.182235 68.242538 25.113853 67.8 24 67.8 
C 22.886147 67.8 21.817765 68.242538 21.030152 69.030152 
C 20.242538 69.817765 19.8 70.886147 19.8 72 
C 19.8 73.113853 20.242538 74.182235 21.030152 74.969848 
C 21.817765 75.757462 22.886147 76.2 24 76.2 
z
M 24 75.78 
C 24 75.78 22.997532 75.78 22.035988 75.381715 
C 21.327136 74.672864 20.618285 73.964012 20.22 73.002468 
C 20.22 72 20.22 70.997532 20.618285 70.035988 
C 21.327136 69.327136 22.035988 68.618285 22.997532 68.22 
C 24 68.22 25.002468 68.22 25.964012 68.618285 
C 26.672864 69.327136 27.381715 70.035988 27.78 70.997532 
C 27.78 72 27.78 73.002468 27.381715 73.964012 
C 26.672864 74.672864 25.964012 75.381715 25.002468 75.78 
z
M 36 76.2 
C 37.113853 76.2 38.182235 75.757462 38.969848 74.969848 
C 39.757462 74.182235 40.2 73.113853 40.2 72 
C 40.2 70.886147 39.757462 69.817765 38.969848 69.030152 
C 38.182235 68.242538 37.113853 67.8 36 67.8 
C 34.886147 67.8 33.817765 68.242538 33.030152 69.030152 
C 32.242538 69.817765 31.8 70.886147 31.8 72 
C 31.8 73.113853 32.242538 74.182235 33.030152 74.969848 
C 33.817765 75.757462 34.886147 76.2 36 76.2 
z
M 36 75.78 
C 36 75.78 34.997532 75.78 34.035988 75.381715 
C 33.327136 74.672864 32.618285 73.964012 32.22 73.002468 
C 32.22 72 32.22 70.997532 32.618285 70.035988 
C 33.327136 69.327136 34.035988 68.618285 34.997532 68.22 
C 36 68.22 37.002468 68.22 37.964012 68.618285 
C 38.672864 69.327136 39.381715 70.035988 39.78 70.997532 
C 39.78 72 39.78 73.002468 39.381715 73.964012 
C 38.672864 74.672864 37.964012 75.381715 37.002468 75.78 
z
M 48 76.2 
C 49.113853 76.2 50.182235 75.757462 50.969848 74.969848 
C 51.757462 74.182235 52.2 73.113853 52.2 72 
C 52.2 70.886147 51.757462 69.817765 50.969848 69.030152 
C 50.182235 68.242538 49.113853 67.8 48 67.8 
C 46.886147 67.8 45.817765 68.242538 45.030152 69.030152 
C 44.242538 69.817765 43.8 70.886147 43.8 72 
C 43.8 73.113853 44.242538 74.182235 45.030152 74.969848 
C 45.817765 75.757462 46.886147 76.2 48 76.2 
z
M 48 75.78 
C 48 75.78 46.997532 75.78 46.035988 75.381715 
C 45.327136 74.672864 44.618285 73.964012 44.22 73.002468 
C 44.22 72 44.22 70.997532 44.618285 70.035988 
C 45.327136 69.327136 46.035988 68.618285 46.997532 68.22 
C 48 68.22 49.002468 68.22 49.964012 68.618285 
C 50.672864 69.327136 51.381715 70.035988 51.78 70.997532 
C 51.78 72 51.78 73.002468 51.381715 73.964012 
C 50.672864 74.672864 49.964012 75.381715 49.002468 75.78 
z
M 60 76.2 
C 61.113853 76.2 62.182235 75.757462 62.969848 74.969848 
C 63.757462 74.182235 64.2 73.113853 64.2 72 
C 64.2 70.886147 63.757462 69.817765 62.969848 69.030152 
C 62.182235 68.242538 61.113853 67.8 60 67.8 
C 58.886147 67.8 57.817765 68.242538 57.030152 69.030152 
C 56.242538 69.817765 55.8 70.886147 55.8 72 
C 55.8 73.113853 56.242538 74.182235 57.030152 74.969848 
C 57.817765 75.757462 58.886147 76.2 60 76.2 
z
M 60 75.78 
C 60 75.78 58.997532 75.78 58.035988 75.381715 
C 57.327136 74.672864 56.618285 73.964012 56.22 73.002468 
C 56.22 72 56.22 70.997532 56.618285 70.035988 
C 57.327136 69.327136 58.035988 68.618285 58.997532 68.22 
C 60 68.22 61.002468 68.22 61.964012 68.618285 
C 62.672864 69.327136 63.381715 70.035988 63.78 70.997532 
C 63.78 72 63.78 73.002468 63.381715 73.964012 
C 62.672864 74.672864 61.964012 75.381715 61.002468 75.78 
z
M 72 76.2 
C 73.113853 76.2 74.182235 75.757462 74.969848 74.969848 
C 75.757462 74.182235 76.2 73.113853 76.2 72 
C 76.2 70.886147 75.757462 69.817765 74.969848 69.030152 
C 74.182235 68.242538 73.113853 67.8 72 67.8 
C 70.886147 67.8 69.817765 68.242538 69.030152 69.030152 
C 68.242538 69.817765 67.8 70.886147 67.8 72 
C 67.8 73.113853 68.242538 74.182235 69.030152 74.969848 
C 69.817765 75.757462 70.886147 76.2 72 76.2 
z
M 72 75.78 
C 72 75.78 70.997532 75.78 70.035988 75.381715 
C 69.327136 74.672864 68.618285 73.964012 68.22 73.002468 
C 68.22 72 68.22 70.997532 68.618285 70.035988 
C 69.327136 69.327136 70.035988 68.618285 70.997532 68.22 
C 72 68.22 73.002468 68.22 73.964012 68.618285 
C 74.672864 69.327136 75.381715 70.035988 75.78 70.997532 
C 75.78 72 75.78 73.002468 75.381715 73.964012 
C 74.672864 74.672864 73.964012 75.381715 73.002468 75.78 
z
M 6 64.2 
C 7.113853 64.2 8.182235 63.757462 8.969848 62.969848 
C 9.757462 62.182235 10.2 61.113853 10.2 60 
C 10.2 58.886147 9.757462 57.817765 8.969848 57.030152 
C 8.182235 56.242538 7.113853 55.8 6 55.8 
C 4.886147 55.8 3.817765 56.242538 3.030152 57.030152 
C 2.242538 57.817765 1.8 58.886147 1.8 60 
C 1.8 61.113853 2.242538 62.182235 3.030152 62.969848 
C 3.817765 63.757462 4.886147 64.2 6 64.2 
z
M 6 63.78 
C 6 63.78 4.997532 63.78 4.035988 63.381715 
C 3.327136 62.672864 2.618285 61.964012 2.22 61.002468 
C 2.22 60 2.22 58.997532 2.618285 58.035988 
C 3.327136 57.327136 4.035988 56.618285 4.997532 56.22 
C 6 56.22 7.002468 56.22 7.964012 56.618285 
C 8.672864 57.327136 9.381715 58.035988 9.78 58.997532 
C 9.78 60 9.78 61.002468 9.381715 61.964012 
C 8.672864 62.672864 7.964012 63.381715 7.002468 63.78 
z
M 18 64.2 
C 19.113853 64.2 20.182235 63.757462 20.969848 62.969848 
C 21.757462 62.182235 22.2 61.113853 22.2 60 
C 22.2 58.886147 21.757462 57.817765 20.969848 57.030152 
C 20.182235 56.242538 19.113853 55.8 18 55.8 
C 16.886147 55.8 15.817765 56.242538 15.030152 57.030152 
C 14.242538 57.817765 13.8 58.886147 13.8 60 
C 13.8 61.113853 14.242538 62.182235 15.030152 62.969848 
C 15.817765 63.757462 16.886147 64.2 18 64.2 
z
M 18 63.78 
C 18 63.78 16.997532 63.78 16.035988 63.381715 
C 15.327136 62.672864 14.618285 61.964012 14.22 61.002468 
C 14.22 60 14.22 58.997532 14.618285 58.035988 
C 15.327136 57.327136 16.035988 56.618285 16.997532 56.22 
C 18 56.22 19.002468 56.22 19.964012 56.618285 
C 20.672864 57.327136 21.381715 58.035988 21.78 58.997532 
C 21.78 60 21.78 61.002468 21.381715 61.964012 
C 20.672864 62.672864 19.964012 63.381715 19.002468 63.78 
z
M 30 64.2 
C 31.113853 64.2 32.182235 63.757462 32.969848 62.969848 
C 33.757462 62.182235 34.2 61.113853 34.2 60 
C 34.2 58.886147 33.757462 57.817765 32.969848 57.030152 
C 32.182235 56.242538 31.113853 55.8 30 55.8 
C 28.886147 55.8 27.817765 56.242538 27.030152 57.030152 
C 26.242538 57.817765 25.8 58.886147 25.8 60 
C 25.8 61.113853 26.242538 62.182235 27.030152 62.969848 
C 27.817765 63.757462 28.886147 64.2 30 64.2 
z
M 30 63.78 
C 30 63.78 28.997532 63.78 28.035988 63.381715 
C 27.327136 62.672864 26.618285 61.964012 26.22 61.002468 
C 26.22 60 26.22 58.997532 26.618285 58.035988 
C 27.327136 57.327136 28.035988 56.618285 28.997532 56.22 
C 30 56.22 31.002468 56.22 31.964012 56.618285 
C 32.672864 57.327136 33.381715 58.035988 33.78 58.997532 
C 33.78 60 33.78 61.002468 33.381715 61.964012 
C 32.672864 62.672864 31.964012 63.381715 31.002468 63.78 
z
M 42 64.2 
C 43.113853 64.2 44.182235 63.757462 44.969848 62.969848 
C 45.757462 62.182235 46.2 61.113853 46.2 60 
C 46.2 58.886147 45.757462 57.817765 44.969848 57.030152 
C 44.182235 56.242538 43.113853 55.8 42 55.8 
C 40.886147 55.8 39.817765 56.242538 39.030152 57.030152 
C 38.242538 57.817765 37.8 58.886147 37.8 60 
C 37.8 61.113853 38.242538 62.182235 39.030152 62.969848 
C 39.817765 63.757462 40.886147 64.2 42 64.2 
z
M 42 63.78 
C 42 63.78 40.997532 63.78 40.035988 63.381715 
C 39.327136 62.672864 38.618285 61.964012 38.22 61.002468 
C 38.22 60 38.22 58.997532 38.618285 58.035988 
C 39.327136 57.327136 40.035988 56.618285 40.997532 56.22 
C 42 56.22 43.002468 56.22 43.964012 56.618285 
C 44.672864 57.327136 45.381715 58.035988 45.78 58.997532 
C 45.78 60 45.78 61.002468 45.381715 61.964012 
C 44.672864 62.672864 43.964012 63.381715 43.002468 63.78 
z
M 54 64.2 
C 55.113853 64.2 56.182235 63.757462 56.969848 62.969848 
C 57.757462 62.182235 58.2 61.113853 58.2 60 
C 58.2 58.886147 57.757462 57.817765 56.969848 57.030152 
C 56.182235 56.242538 55.113853 55.8 54 55.8 
C 52.886147 55.8 51.817765 56.242538 51.030152 57.030152 
C 50.242538 57.817765 49.8 58.886147 49.8 60 
C 49.8 61.113853 50.242538 62.182235 51.030152 62.969848 
C 51.817765 63.757462 52.886147 64.2 54 64.2 
z
M 54 63.78 
C 54 63.78 52.997532 63.78 52.035988 63.381715 
C 51.327136 62.672864 50.618285 61.964012 50.22 61.002468 
C 50.22 60 50.22 58.997532 50.618285 58.035988 
C 51.327136 57.327136 52.035988 56.618285 52.997532 56.22 
C 54 56.22 55.002468 56.22 55.964012 56.618285 
C 56.672864 57.327136 57.381715 58.035988 57.78 58.997532 
C 57.78 60 57.78 61.002468 57.381715 61.964012 
C 56.672864 62.672864 55.964012 63.381715 55.002468 63.78 
z
M 66 64.2 
C 67.113853 64.2 68.182235 63.757462 68.969848 62.969848 
C 69.757462 62.182235 70.2 61.113853 70.2 60 
C 70.2 58.886147 69.757462 57.817765 68.969848 57.030152 
C 68.182235 56.242538 67.113853 55.8 66 55.8 
C 64.886147 55.8 63.817765 56.242538 63.030152 57.030152 
C 62.242538 57.817765 61.8 58.886147 61.8 60 
C 61.8 61.113853 62.242538 62.182235 63.030152 62.969848 
C 63.817765 63.757462 64.886147 64.2 66 64.2 
z
M 66 63.78 
C 66 63.78 64.997532 63.78 64.035988 63.381715 
C 63.327136 62.672864 62.618285 61.964012 62.22 61.002468 
C 62.22 60 62.22 58.997532 62.618285 58.035988 
C 63.327136 57.327136 64.035988 56.618285 64.997532 56.22 
C 66 56.22 67.002468 56.22 67.964012 56.618285 
C 68.672864 57.327136 69.381715 58.035988 69.78 58.997532 
C 69.78 60 69.78 61.002468 69.381715 61.964012 
C 68.672864 62.672864 67.964012 63.381715 67.002468 63.78 
z
M 0 52.2 
C 1.113853 52.2 2.182235 51.757462 2.969848 50.969848 
C 3.757462 50.182235 4.2 49.113853 4.2 48 
C 4.2 46.886147 3.757462 45.817765 2.969848 45.030152 
C 2.182235 44.242538 1.113853 43.8 0 43.8 
C -1.113853 43.8 -2.182235 44.242538 -2.969848 45.030152 
C -3.757462 45.817765 -4.2 46.886147 -4.2 48 
C -4.2 49.113853 -3.757462 50.182235 -2.969848 50.969848 
C -2.182235 51.757462 -1.113853 52.2 0 52.2 
z
M 0 51.78 
C 0 51.78 -1.002468 51.78 -1.964012 51.381715 
C -2.672864 50.672864 -3.381715 49.964012 -3.78 49.002468 
C -3.78 48 -3.78 46.997532 -3.381715 46.035988 
C -2.672864 45.327136 -1.964012 44.618285 -1.002468 44.22 
C 0 44.22 1.002468 44.22 1.964012 44.618285 
C 2.672864 45.327136 3.381715 46.035988 3.78 46.997532 
C 3.78 48 3.78 49.002468 3.381715 49.964012 
C 2.672864 50.672864 1.964012 51.381715 1.002468 51.78 
z
M 12 52.2 
C 13.113853 52.2 14.182235 51.757462 14.969848 50.969848 
C 15.757462 50.182235 16.2 49.113853 16.2 48 
C 16.2 46.886147 15.757462 45.817765 14.969848 45.030152 
C 14.182235 44.242538 13.113853 43.8 12 43.8 
C 10.886147 43.8 9.817765 44.242538 9.030152 45.030152 
C 8.242538 45.817765 7.8 46.886147 7.8 48 
C 7.8 49.113853 8.242538 50.182235 9.030152 50.969848 
C 9.817765 51.757462 10.886147 52.2 12 52.2 
z
M 12 51.78 
C 12 51.78 10.997532 51.78 10.035988 51.381715 
C 9.327136 50.672864 8.618285 49.964012 8.22 49.002468 
C 8.22 48 8.22 46.997532 8.618285 46.035988 
C 9.327136 45.327136 10.035988 44.618285 10.997532 44.22 
C 12 44.22 13.002468 44.22 13.964012 44.618285 
C 14.672864 45.327136 15.381715 46.035988 15.78 46.997532 
C 15.78 48 15.78 49.002468 15.381715 49.964012 
C 14.672864 50.672864 13.964012 51.381715 13.002468 51.78 
z
M 24 52.2 
C 25.113853 52.2 26.182235 51.757462 26.969848 50.969848 
C 27.757462 50.182235 28.2 49.113853 28.2 48 
C 28.2 46.886147 27.757462 45.817765 26.969848 45.030152 
C 26.182235 44.242538 25.113853 43.8 24 43.8 
C 22.886147 43.8 21.817765 44.242538 21.030152 45.030152 
C 20.242538 45.817765 19.8 46.886147 19.8 48 
C 19.8 49.113853 20.242538 50.182235 21.030152 50.969848 
C 21.817765 51.757462 22.886147 52.2 24 52.2 
z
M 24 51.78 
C 24 51.78 22.997532 51.78 22.035988 51.381715 
C 21.327136 50.672864 20.618285 49.964012 20.22 49.002468 
C 20.22 48 20.22 46.997532 20.618285 46.035988 
C 21.327136 45.327136 22.035988 44.618285 22.997532 44.22 
C 24 44.22 25.002468 44.22 25.964012 44.618285 
C 26.672864 45.327136 27.381715 46.035988 27.78 46.997532 
C 27.78 48 27.78 49.002468 27.381715 49.964012 
C 26.672864 50.672864 25.964012 51.381715 25.002468 51.78 
z
M 36 52.2 
C 37.113853 52.2 38.182235 51.757462 38.969848 50.969848 
C 39.757462 50.182235 40.2 49.113853 40.2 48 
C 40.2 46.886147 39.757462 45.817765 38.969848 45.030152 
C 38.182235 44.242538 37.113853 43.8 36 43.8 
C 34.886147 43.8 33.817765 44.242538 33.030152 45.030152 
C 32.242538 45.817765 31.8 46.886147 31.8 48 
C 31.8 49.113853 32.242538 50.182235 33.030152 50.969848 
C 33.817765 51.757462 34.886147 52.2 36 52.2 
z
M 36 51.78 
C 36 51.78 34.997532 51.78 34.035988 51.381715 
C 33.327136 50.672864 32.618285 49.964012 32.22 49.002468 
C 32.22 48 32.22 46.997532 32.618285 46.035988 
C 33.327136 45.327136 34.035988 44.618285 34.997532 44.22 
C 36 44.22 37.002468 44.22 37.964012 44.618285 
C 38.672864 45.327136 39.381715 46.035988 39.78 46.997532 
C 39.78 48 39.78 49.002468 39.381715 49.964012 
C 38.672864 50.672864 37.964012 51.381715 37.002468 51.78 
z
M 48 52.2 
C 49.113853 52.2 50.182235 51.757462 50.969848 50.969848 
C 51.757462 50.182235 52.2 49.113853 52.2 48 
C 52.2 46.886147 51.757462 45.817765 50.969848 45.030152 
C 50.182235 44.242538 49.113853 43.8 48 43.8 
C 46.886147 43.8 45.817765 44.242538 45.030152 45.030152 
C 44.242538 45.817765 43.8 46.886147 43.8 48 
C 43.8 49.113853 44.242538 50.182235 45.030152 50.969848 
C 45.817765 51.757462 46.886147 52.2 48 52.2 
z
M 48 51.78 
C 48 51.78 46.997532 51.78 46.035988 51.381715 
C 45.327136 50.672864 44.618285 49.964012 44.22 49.002468 
C 44.22 48 44.22 46.997532 44.618285 46.035988 
C 45.327136 45.327136 46.035988 44.618285 46.997532 44.22 
C 48 44.22 49.002468 44.22 49.964012 44.618285 
C 50.672864 45.327136 51.381715 46.035988 51.78 46.997532 
C 51.78 48 51.78 49.002468 51.381715 49.964012 
C 50.672864 50.672864 49.964012 51.381715 49.002468 51.78 
z
M 60 52.2 
C 61.113853 52.2 62.182235 51.757462 62.969848 50.969848 
C 63.757462 50.182235 64.2 49.113853 64.2 48 
C 64.2 46.886147 63.757462 45.817765 62.969848 45.030152 
C 62.182235 44.242538 61.113853 43.8 60 43.8 
C 58.886147 43.8 57.817765 44.242538 57.030152 45.030152 
C 56.242538 45.817765 55.8 46.886147 55.8 48 
C 55.8 49.113853 56.242538 50.182235 57.030152 50.969848 
C 57.817765 51.757462 58.886147 52.2 60 52.2 
z
M 60 51.78 
C 60 51.78 58.997532 51.78 58.035988 51.381715 
C 57.327136 50.672864 56.618285 49.964012 56.22 49.002468 
C 56.22 48 56.22 46.997532 56.618285 46.035988 
C 57.327136 45.327136 58.035988 44.618285 58.997532 44.22 
C 60 44.22 61.002468 44.22 61.964012 44.618285 
C 62.672864 45.327136 63.381715 46.035988 63.78 46.997532 
C 63.78 48 63.78 49.002468 63.381715 49.964012 
C 62.672864 50.672864 61.964012 51.381715 61.002468 51.78 
z
M 72 52.2 
C 73.113853 52.2 74.182235 51.757462 74.969848 50.969848 
C 75.757462 50.182235 76.2 49.113853 76.2 48 
C 76.2 46.886147 75.757462 45.817765 74.969848 45.030152 
C 74.182235 44.242538 73.113853 43.8 72 43.8 
C 70.886147 43.8 69.817765 44.242538 69.030152 45.030152 
C 68.242538 45.817765 67.8 46.886147 67.8 48 
C 67.8 49.113853 68.242538 50.182235 69.030152 50.969848 
C 69.817765 51.757462 70.886147 52.2 72 52.2 
z
M 72 51.78 
C 72 51.78 70.997532 51.78 70.035988 51.381715 
C 69.327136 50.672864 68.618285 49.964012 68.22 49.002468 
C 68.22 48 68.22 46.997532 68.618285 46.035988 
C 69.327136 45.327136 70.035988 44.618285 70.997532 44.22 
C 72 44.22 73.002468 44.22 73.964012 44.618285 
C 74.672864 45.327136 75.381715 46.035988 75.78 46.997532 
C 75.78 48 75.78 49.002468 75.381715 49.964012 
C 74.672864 50.672864 73.964012 51.381715 73.002468 51.78 
z
M 6 40.2 
C 7.113853 40.2 8.182235 39.757462 8.969848 38.969848 
C 9.757462 38.182235 10.2 37.113853 10.2 36 
C 10.2 34.886147 9.757462 33.817765 8.969848 33.030152 
C 8.182235 32.242538 7.113853 31.8 6 31.8 
C 4.886147 31.8 3.817765 32.242538 3.030152 33.030152 
C 2.242538 33.817765 1.8 34.886147 1.8 36 
C 1.8 37.113853 2.242538 38.182235 3.030152 38.969848 
C 3.817765 39.757462 4.886147 40.2 6 40.2 
z
M 6 39.78 
C 6 39.78 4.997532 39.78 4.035988 39.381715 
C 3.327136 38.672864 2.618285 37.964012 2.22 37.002468 
C 2.22 36 2.22 34.997532 2.618285 34.035988 
C 3.327136 33.327136 4.035988 32.618285 4.997532 32.22 
C 6 32.22 7.002468 32.22 7.964012 32.618285 
C 8.672864 33.327136 9.381715 34.035988 9.78 34.997532 
C 9.78 36 9.78 37.002468 9.381715 37.964012 
C 8.672864 38.672864 7.964012 39.381715 7.002468 39.78 
z
M 18 40.2 
C 19.113853 40.2 20.182235 39.757462 20.969848 38.969848 
C 21.757462 38.182235 22.2 37.113853 22.2 36 
C 22.2 34.886147 21.757462 33.817765 20.969848 33.030152 
C 20.182235 32.242538 19.113853 31.8 18 31.8 
C 16.886147 31.8 15.817765 32.242538 15.030152 33.030152 
C 14.242538 33.817765 13.8 34.886147 13.8 36 
C 13.8 37.113853 14.242538 38.182235 15.030152 38.969848 
C 15.817765 39.757462 16.886147 40.2 18 40.2 
z
M 18 39.78 
C 18 39.78 16.997532 39.78 16.035988 39.381715 
C 15.327136 38.672864 14.618285 37.964012 14.22 37.002468 
C 14.22 36 14.22 34.997532 14.618285 34.035988 
C 15.327136 33.327136 16.035988 32.618285 16.997532 32.22 
C 18 32.22 19.002468 32.22 19.964012 32.618285 
C 20.672864 33.327136 21.381715 34.035988 21.78 34.997532 
C 21.78 36 21.78 37.002468 21.381715 37.964012 
C 20.672864 38.672864 19.964012 39.381715 19.002468 39.78 
z
M 30 40.2 
C 31.113853 40.2 32.182235 39.757462 32.969848 38.969848 
C 33.757462 38.182235 34.2 37.113853 34.2 36 
C 34.2 34.886147 33.757462 33.817765 32.969848 33.030152 
C 32.182235 32.242538 31.113853 31.8 30 31.8 
C 28.886147 31.8 27.817765 32.242538 27.030152 33.030152 
C 26.242538 33.817765 25.8 34.886147 25.8 36 
C 25.8 37.113853 26.242538 38.182235 27.030152 38.969848 
C 27.817765 39.757462 28.886147 40.2 30 40.2 
z
M 30 39.78 
C 30 39.78 28.997532 39.78 28.035988 39.381715 
C 27.327136 38.672864 26.618285 37.964012 26.22 37.002468 
C 26.22 36 26.22 34.997532 26.618285 34.035988 
C 27.327136 33.327136 28.035988 32.618285 28.997532 32.22 
C 30 32.22 31.002468 32.22 31.964012 32.618285 
C 32.672864 33.327136 33.381715 34.035988 33.78 34.997532 
C 33.78 36 33.78 37.002468 33.381715 37.964012 
C 32.672864 38.672864 31.964012 39.381715 31.002468 39.78 
z
M 42 40.2 
C 43.113853 40.2 44.182235 39.757462 44.969848 38.969848 
C 45.757462 38.182235 46.2 37.113853 46.2 36 
C 46.2 34.886147 45.757462 33.817765 44.969848 33.030152 
C 44.182235 32.242538 43.113853 31.8 42 31.8 
C 40.886147 31.8 39.817765 32.242538 39.030152 33.030152 
C 38.242538 33.817765 37.8 34.886147 37.8 36 
C 37.8 37.113853 38.242538 38.182235 39.030152 38.969848 
C 39.817765 39.757462 40.886147 40.2 42 40.2 
z
M 42 39.78 
C 42 39.78 40.997532 39.78 40.035988 39.381715 
C 39.327136 38.672864 38.618285 37.964012 38.22 37.002468 
C 38.22 36 38.22 34.997532 38.618285 34.035988 
C 39.327136 33.327136 40.035988 32.618285 40.997532 32.22 
C 42 32.22 43.002468 32.22 43.964012 32.618285 
C 44.672864 33.327136 45.381715 34.035988 45.78 34.997532 
C 45.78 36 45.78 37.002468 45.381715 37.964012 
C 44.672864 38.672864 43.964012 39.381715 43.002468 39.78 
z
M 54 40.2 
C 55.113853 40.2 56.182235 39.757462 56.969848 38.969848 
C 57.757462 38.182235 58.2 37.113853 58.2 36 
C 58.2 34.886147 57.757462 33.817765 56.969848 33.030152 
C 56.182235 32.242538 55.113853 31.8 54 31.8 
C 52.886147 31.8 51.817765 32.242538 51.030152 33.030152 
C 50.242538 33.817765 49.8 34.886147 49.8 36 
C 49.8 37.113853 50.242538 38.182235 51.030152 38.969848 
C 51.817765 39.757462 52.886147 40.2 54 40.2 
z
M 54 39.78 
C 54 39.78 52.997532 39.78 52.035988 39.381715 
C 51.327136 38.672864 50.618285 37.964012 50.22 37.002468 
C 50.22 36 50.22 34.997532 50.618285 34.035988 
C 51.327136 33.327136 52.035988 32.618285 52.997532 32.22 
C 54 32.22 55.002468 32.22 55.964012 32.618285 
C 56.672864 33.327136 57.381715 34.035988 57.78 34.997532 
C 57.78 36 57.78 37.002468 57.381715 37.964012 
C 56.672864 38.672864 55.964012 39.381715 55.002468 39.78 
z
M 66 40.2 
C 67.113853 40.2 68.182235 39.757462 68.969848 38.969848 
C 69.757462 38.182235 70.2 37.113853 70.2 36 
C 70.2 34.886147 69.757462 33.817765 68.969848 33.030152 
C 68.182235 32.242538 67.113853 31.8 66 31.8 
C 64.886147 31.8 63.817765 32.242538 63.030152 33.030152 
C 62.242538 33.817765 61.8 34.886147 61.8 36 
C 61.8 37.113853 62.242538 38.182235 63.030152 38.969848 
C 63.817765 39.757462 64.886147 40.2 66 40.2 
z
M 66 39.78 
C 66 39.78 64.997532 39.78 64.035988 39.381715 
C 63.327136 38.672864 62.618285 37.964012 62.22 37.002468 
C 62.22 36 62.22 34.997532 62.618285 34.035988 
C 63.327136 33.327136 64.035988 32.618285 64.997532 32.22 
C 66 32.22 67.002468 32.22 67.964012 32.618285 
C 68.672864 33.327136 69.381715 34.035988 69.78 34.997532 
C 69.78 36 69.78 37.002468 69.381715 37.964012 
C 68.672864 38.672864 67.964012 39.381715 67.002468 39.78 
z
M 0 28.2 
C 1.113853 28.2 2.182235 27.757462 2.969848 26.969848 
C 3.757462 26.182235 4.2 25.113853 4.2 24 
C 4.2 22.886147 3.757462 21.817765 2.969848 21.030152 
C 2.182235 20.242538 1.113853 19.8 0 19.8 
C -1.113853 19.8 -2.182235 20.242538 -2.969848 21.030152 
C -3.757462 21.817765 -4.2 22.886147 -4.2 24 
C -4.2 25.113853 -3.757462 26.182235 -2.969848 26.969848 
C -2.182235 27.757462 -1.113853 28.2 0 28.2 
z
M 0 27.78 
C 0 27.78 -1.002468 27.78 -1.964012 27.381715 
C -2.672864 26.672864 -3.381715 25.964012 -3.78 25.002468 
C -3.78 24 -3.78 22.997532 -3.381715 22.035988 
C -2.672864 21.327136 -1.964012 20.618285 -1.002468 20.22 
C 0 20.22 1.002468 20.22 1.964012 20.618285 
C 2.672864 21.327136 3.381715 22.035988 3.78 22.997532 
C 3.78 24 3.78 25.002468 3.381715 25.964012 
C 2.672864 26.672864 1.964012 27.381715 1.002468 27.78 
z
M 12 28.2 
C 13.113853 28.2 14.182235 27.757462 14.969848 26.969848 
C 15.757462 26.182235 16.2 25.113853 16.2 24 
C 16.2 22.886147 15.757462 21.817765 14.969848 21.030152 
C 14.182235 20.242538 13.113853 19.8 12 19.8 
C 10.886147 19.8 9.817765 20.242538 9.030152 21.030152 
C 8.242538 21.817765 7.8 22.886147 7.8 24 
C 7.8 25.113853 8.242538 26.182235 9.030152 26.969848 
C 9.817765 27.757462 10.886147 28.2 12 28.2 
z
M 12 27.78 
C 12 27.78 10.997532 27.78 10.035988 27.381715 
C 9.327136 26.672864 8.618285 25.964012 8.22 25.002468 
C 8.22 24 8.22 22.997532 8.618285 22.035988 
C 9.327136 21.327136 10.035988 20.618285 10.997532 20.22 
C 12 20.22 13.002468 20.22 13.964012 20.618285 
C 14.672864 21.327136 15.381715 22.035988 15.78 22.997532 
C 15.78 24 15.78 25.002468 15.381715 25.964012 
C 14.672864 26.672864 13.964012 27.381715 13.002468 27.78 
z
M 24 28.2 
C 25.113853 28.2 26.182235 27.757462 26.969848 26.969848 
C 27.757462 26.182235 28.2 25.113853 28.2 24 
C 28.2 22.886147 27.757462 21.817765 26.969848 21.030152 
C 26.182235 20.242538 25.113853 19.8 24 19.8 
C 22.886147 19.8 21.817765 20.242538 21.030152 21.030152 
C 20.242538 21.817765 19.8 22.886147 19.8 24 
C 19.8 25.113853 20.242538 26.182235 21.030152 26.969848 
C 21.817765 27.757462 22.886147 28.2 24 28.2 
z
M 24 27.78 
C 24 27.78 22.997532 27.78 22.035988 27.381715 
C 21.327136 26.672864 20.618285 25.964012 20.22 25.002468 
C 20.22 24 20.22 22.997532 20.618285 22.035988 
C 21.327136 21.327136 22.035988 20.618285 22.997532 20.22 
C 24 20.22 25.002468 20.22 25.964012 20.618285 
C 26.672864 21.327136 27.381715 22.035988 27.78 22.997532 
C 27.78 24 27.78 25.002468 27.381715 25.964012 
C 26.672864 26.672864 25.964012 27.381715 25.002468 27.78 
z
M 36 28.2 
C 37.113853 28.2 38.182235 27.757462 38.969848 26.969848 
C 39.757462 26.182235 40.2 25.113853 40.2 24 
C 40.2 22.886147 39.757462 21.817765 38.969848 21.030152 
C 38.182235 20.242538 37.113853 19.8 36 19.8 
C 34.886147 19.8 33.817765 20.242538 33.030152 21.030152 
C 32.242538 21.817765 31.8 22.886147 31.8 24 
C 31.8 25.113853 32.242538 26.182235 33.030152 26.969848 
C 33.817765 27.757462 34.886147 28.2 36 28.2 
z
M 36 27.78 
C 36 27.78 34.997532 27.78 34.035988 27.381715 
C 33.327136 26.672864 32.618285 25.964012 32.22 25.002468 
C 32.22 24 32.22 22.997532 32.618285 22.035988 
C 33.327136 21.327136 34.035988 20.618285 34.997532 20.22 
C 36 20.22 37.002468 20.22 37.964012 20.618285 
C 38.672864 21.327136 39.381715 22.035988 39.78 22.997532 
C 39.78 24 39.78 25.002468 39.381715 25.964012 
C 38.672864 26.672864 37.964012 27.381715 37.002468 27.78 
z
M 48 28.2 
C 49.113853 28.2 50.182235 27.757462 50.969848 26.969848 
C 51.757462 26.182235 52.2 25.113853 52.2 24 
C 52.2 22.886147 51.757462 21.817765 50.969848 21.030152 
C 50.182235 20.242538 49.113853 19.8 48 19.8 
C 46.886147 19.8 45.817765 20.242538 45.030152 21.030152 
C 44.242538 21.817765 43.8 22.886147 43.8 24 
C 43.8 25.113853 44.242538 26.182235 45.030152 26.969848 
C 45.817765 27.757462 46.886147 28.2 48 28.2 
z
M 48 27.78 
C 48 27.78 46.997532 27.78 46.035988 27.381715 
C 45.327136 26.672864 44.618285 25.964012 44.22 25.002468 
C 44.22 24 44.22 22.997532 44.618285 22.035988 
C 45.327136 21.327136 46.035988 20.618285 46.997532 20.22 
C 48 20.22 49.002468 20.22 49.964012 20.618285 
C 50.672864 21.327136 51.381715 22.035988 51.78 22.997532 
C 51.78 24 51.78 25.002468 51.381715 25.964012 
C 50.672864 26.672864 49.964012 27.381715 49.002468 27.78 
z
M 60 28.2 
C 61.113853 28.2 62.182235 27.757462 62.969848 26.969848 
C 63.757462 26.182235 64.2 25.113853 64.2 24 
C 64.2 22.886147 63.757462 21.817765 62.969848 21.030152 
C 62.182235 20.242538 61.113853 19.8 60 19.8 
C 58.886147 19.8 57.817765 20.242538 57.030152 21.030152 
C 56.242538 21.817765 55.8 22.886147 55.8 24 
C 55.8 25.113853 56.242538 26.182235 57.030152 26.969848 
C 57.817765 27.757462 58.886147 28.2 60 28.2 
z
M 60 27.78 
C 60 27.78 58.997532 27.78 58.035988 27.381715 
C 57.327136 26.672864 56.618285 25.964012 56.22 25.002468 
C 56.22 24 56.22 22.997532 56.618285 22.035988 
C 57.327136 21.327136 58.035988 20.618285 58.997532 20.22 
C 60 20.22 61.002468 20.22 61.964012 20.618285 
C 62.672864 21.327136 63.381715 22.035988 63.78 22.997532 
C 63.78 24 63.78 25.002468 63.381715 25.964012 
C 62.672864 26.672864 61.964012 27.381715 61.002468 27.78 
z
M 72 28.2 
C 73.113853 28.2 74.182235 27.757462 74.969848 26.969848 
C 75.757462 26.182235 76.2 25.113853 76.2 24 
C 76.2 22.886147 75.757462 21.817765 74.969848 21.030152 
C 74.182235 20.242538 73.113853 19.8 72 19.8 
C 70.886147 19.8 69.817765 20.242538 69.030152 21.030152 
C 68.242538 21.817765 67.8 22.886147 67.8 24 
C 67.8 25.113853 68.242538 26.182235 69.030152 26.969848 
C 69.817765 27.757462 70.886147 28.2 72 28.2 
z
M 72 27.78 
C 72 27.78 70.997532 27.78 70.035988 27.381715 
C 69.327136 26.672864 68.618285 25.964012 68.22 25.002468 
C 68.22 24 68.22 22.997532 68.618285 22.035988 
C 69.327136 21.327136 70.035988 20.618285 70.997532 20.22 
C 72 20.22 73.002468 20.22 73.964012 20.618285 
C 74.672864 21.327136 75.381715 22.035988 75.78 22.997532 
C 75.78 24 75.78 25.002468 75.381715 25.964012 
C 74.672864 26.672864 73.964012 27.381715 73.002468 27.78 
z
M 6 16.2 
C 7.113853 16.2 8.182235 15.757462 8.969848 14.969848 
C 9.757462 14.182235 10.2 13.113853 10.2 12 
C 10.2 10.886147 9.757462 9.817765 8.969848 9.030152 
C 8.182235 8.242538 7.113853 7.8 6 7.8 
C 4.886147 7.8 3.817765 8.242538 3.030152 9.030152 
C 2.242538 9.817765 1.8 10.886147 1.8 12 
C 1.8 13.113853 2.242538 14.182235 3.030152 14.969848 
C 3.817765 15.757462 4.886147 16.2 6 16.2 
z
M 6 15.78 
C 6 15.78 4.997532 15.78 4.035988 15.381715 
C 3.327136 14.672864 2.618285 13.964012 2.22 13.002468 
C 2.22 12 2.22 10.997532 2.618285 10.035988 
C 3.327136 9.327136 4.035988 8.618285 4.997532 8.22 
C 6 8.22 7.002468 8.22 7.964012 8.618285 
C 8.672864 9.327136 9.381715 10.035988 9.78 10.997532 
C 9.78 12 9.78 13.002468 9.381715 13.964012 
C 8.672864 14.672864 7.964012 15.381715 7.002468 15.78 
z
M 18 16.2 
C 19.113853 16.2 20.182235 15.757462 20.969848 14.969848 
C 21.757462 14.182235 22.2 13.113853 22.2 12 
C 22.2 10.886147 21.757462 9.817765 20.969848 9.030152 
C 20.182235 8.242538 19.113853 7.8 18 7.8 
C 16.886147 7.8 15.817765 8.242538 15.030152 9.030152 
C 14.242538 9.817765 13.8 10.886147 13.8 12 
C 13.8 13.113853 14.242538 14.182235 15.030152 14.969848 
C 15.817765 15.757462 16.886147 16.2 18 16.2 
z
M 18 15.78 
C 18 15.78 16.997532 15.78 16.035988 15.381715 
C 15.327136 14.672864 14.618285 13.964012 14.22 13.002468 
C 14.22 12 14.22 10.997532 14.618285 10.035988 
C 15.327136 9.327136 16.035988 8.618285 16.997532 8.22 
C 18 8.22 19.002468 8.22 19.964012 8.618285 
C 20.672864 9.327136 21.381715 10.035988 21.78 10.997532 
C 21.78 12 21.78 13.002468 21.381715 13.964012 
C 20.672864 14.672864 19.964012 15.381715 19.002468 15.78 
z
M 30 16.2 
C 31.113853 16.2 32.182235 15.757462 32.969848 14.969848 
C 33.757462 14.182235 34.2 13.113853 34.2 12 
C 34.2 10.886147 33.757462 9.817765 32.969848 9.030152 
C 32.182235 8.242538 31.113853 7.8 30 7.8 
C 28.886147 7.8 27.817765 8.242538 27.030152 9.030152 
C 26.242538 9.817765 25.8 10.886147 25.8 12 
C 25.8 13.113853 26.242538 14.182235 27.030152 14.969848 
C 27.817765 15.757462 28.886147 16.2 30 16.2 
z
M 30 15.78 
C 30 15.78 28.997532 15.78 28.035988 15.381715 
C 27.327136 14.672864 26.618285 13.964012 26.22 13.002468 
C 26.22 12 26.22 10.997532 26.618285 10.035988 
C 27.327136 9.327136 28.035988 8.618285 28.997532 8.22 
C 30 8.22 31.002468 8.22 31.964012 8.618285 
C 32.672864 9.327136 33.381715 10.035988 33.78 10.997532 
C 33.78 12 33.78 13.002468 33.381715 13.964012 
C 32.672864 14.672864 31.964012 15.381715 31.002468 15.78 
z
M 42 16.2 
C 43.113853 16.2 44.182235 15.757462 44.969848 14.969848 
C 45.757462 14.182235 46.2 13.113853 46.2 12 
C 46.2 10.886147 45.757462 9.817765 44.969848 9.030152 
C 44.182235 8.242538 43.113853 7.8 42 7.8 
C 40.886147 7.8 39.817765 8.242538 39.030152 9.030152 
C 38.242538 9.817765 37.8 10.886147 37.8 12 
C 37.8 13.113853 38.242538 14.182235 39.030152 14.969848 
C 39.817765 15.757462 40.886147 16.2 42 16.2 
z
M 42 15.78 
C 42 15.78 40.997532 15.78 40.035988 15.381715 
C 39.327136 14.672864 38.618285 13.964012 38.22 13.002468 
C 38.22 12 38.22 10.997532 38.618285 10.035988 
C 39.327136 9.327136 40.035988 8.618285 40.997532 8.22 
C 42 8.22 43.002468 8.22 43.964012 8.618285 
C 44.672864 9.327136 45.381715 10.035988 45.78 10.997532 
C 45.78 12 45.78 13.002468 45.381715 13.964012 
C 44.672864 14.672864 43.964012 15.381715 43.002468 15.78 
z
M 54 16.2 
C 55.113853 16.2 56.182235 15.757462 56.969848 14.969848 
C 57.757462 14.182235 58.2 13.113853 58.2 12 
C 58.2 10.886147 57.757462 9.817765 56.969848 9.030152 
C 56.182235 8.242538 55.113853 7.8 54 7.8 
C 52.886147 7.8 51.817765 8.242538 51.030152 9.030152 
C 50.242538 9.817765 49.8 10.886147 49.8 12 
C 49.8 13.113853 50.242538 14.182235 51.030152 14.969848 
C 51.817765 15.757462 52.886147 16.2 54 16.2 
z
M 54 15.78 
C 54 15.78 52.997532 15.78 52.035988 15.381715 
C 51.327136 14.672864 50.618285 13.964012 50.22 13.002468 
C 50.22 12 50.22 10.997532 50.618285 10.035988 
C 51.327136 9.327136 52.035988 8.618285 52.997532 8.22 
C 54 8.22 55.002468 8.22 55.964012 8.618285 
C 56.672864 9.327136 57.381715 10.035988 57.78 10.997532 
C 57.78 12 57.78 13.002468 57.381715 13.964012 
C 56.672864 14.672864 55.964012 15.381715 55.002468 15.78 
z
M 66 16.2 
C 67.113853 16.2 68.182235 15.757462 68.969848 14.969848 
C 69.757462 14.182235 70.2 13.113853 70.2 12 
C 70.2 10.886147 69.757462 9.817765 68.969848 9.030152 
C 68.182235 8.242538 67.113853 7.8 66 7.8 
C 64.886147 7.8 63.817765 8.242538 63.030152 9.030152 
C 62.242538 9.817765 61.8 10.886147 61.8 12 
C 61.8 13.113853 62.242538 14.182235 63.030152 14.969848 
C 63.817765 15.757462 64.886147 16.2 66 16.2 
z
M 66 15.78 
C 66 15.78 64.997532 15.78 64.035988 15.381715 
C 63.327136 14.672864 62.618285 13.964012 62.22 13.002468 
C 62.22 12 62.22 10.997532 62.618285 10.035988 
C 63.327136 9.327136 64.035988 8.618285 64.997532 8.22 
C 66 8.22 67.002468 8.22 67.964012 8.618285 
C 68.672864 9.327136 69.381715 10.035988 69.78 10.997532 
C 69.78 12 69.78 13.002468 69.381715 13.964012 
C 68.672864 14.672864 67.964012 15.381715 67.002468 15.78 
z
M 0 4.2 
C 1.113853 4.2 2.182235 3.757462 2.969848 2.969848 
C 3.757462 2.182235 4.2 1.113853 4.2 0 
C 4.2 -1.113853 3.757462 -2.182235 2.969848 -2.969848 
C 2.182235 -3.757462 1.113853 -4.2 0 -4.2 
C -1.113853 -4.2 -2.182235 -3.757462 -2.969848 -2.969848 
C -3.757462 -2.182235 -4.2 -1.113853 -4.2 0 
C -4.2 1.113853 -3.757462 2.182235 -2.969848 2.969848 
C -2.182235 3.757462 -1.113853 4.2 0 4.2 
z
M 0 3.78 
C 0 3.78 -1.002468 3.78 -1.964012 3.381715 
C -2.672864 2.672864 -3.381715 1.964012 -3.78 1.002468 
C -3.78 0 -3.78 -1.002468 -3.381715 -1.964012 
C -2.672864 -2.672864 -1.964012 -3.381715 -1.002468 -3.78 
C 0 -3.78 1.002468 -3.78 1.964012 -3.381715 
C 2.672864 -2.672864 3.381715 -1.964012 3.78 -1.002468 
C 3.78 0 3.78 1.002468 3.381715 1.964012 
C 2.672864 2.672864 1.964012 3.381715 1.002468 3.78 
z
M 12 4.2 
C 13.113853 4.2 14.182235 3.757462 14.969848 2.969848 
C 15.757462 2.182235 16.2 1.113853 16.2 0 
C 16.2 -1.113853 15.757462 -2.182235 14.969848 -2.969848 
C 14.182235 -3.757462 13.113853 -4.2 12 -4.2 
C 10.886147 -4.2 9.817765 -3.757462 9.030152 -2.969848 
C 8.242538 -2.182235 7.8 -1.113853 7.8 0 
C 7.8 1.113853 8.242538 2.182235 9.030152 2.969848 
C 9.817765 3.757462 10.886147 4.2 12 4.2 
z
M 12 3.78 
C 12 3.78 10.997532 3.78 10.035988 3.381715 
C 9.327136 2.672864 8.618285 1.964012 8.22 1.002468 
C 8.22 0 8.22 -1.002468 8.618285 -1.964012 
C 9.327136 -2.672864 10.035988 -3.381715 10.997532 -3.78 
C 12 -3.78 13.002468 -3.78 13.964012 -3.381715 
C 14.672864 -2.672864 15.381715 -1.964012 15.78 -1.002468 
C 15.78 0 15.78 1.002468 15.381715 1.964012 
C 14.672864 2.672864 13.964012 3.381715 13.002468 3.78 
z
M 24 4.2 
C 25.113853 4.2 26.182235 3.757462 26.969848 2.969848 
C 27.757462 2.182235 28.2 1.113853 28.2 0 
C 28.2 -1.113853 27.757462 -2.182235 26.969848 -2.969848 
C 26.182235 -3.757462 25.113853 -4.2 24 -4.2 
C 22.886147 -4.2 21.817765 -3.757462 21.030152 -2.969848 
C 20.242538 -2.182235 19.8 -1.113853 19.8 0 
C 19.8 1.113853 20.242538 2.182235 21.030152 2.969848 
C 21.817765 3.757462 22.886147 4.2 24 4.2 
z
M 24 3.78 
C 24 3.78 22.997532 3.78 22.035988 3.381715 
C 21.327136 2.672864 20.618285 1.964012 20.22 1.002468 
C 20.22 0 20.22 -1.002468 20.618285 -1.964012 
C 21.327136 -2.672864 22.035988 -3.381715 22.997532 -3.78 
C 24 -3.78 25.002468 -3.78 25.964012 -3.381715 
C 26.672864 -2.672864 27.381715 -1.964012 27.78 -1.002468 
C 27.78 0 27.78 1.002468 27.381715 1.964012 
C 26.672864 2.672864 25.964012 3.381715 25.002468 3.78 
z
M 36 4.2 
C 37.113853 4.2 38.182235 3.757462 38.969848 2.969848 
C 39.757462 2.182235 40.2 1.113853 40.2 0 
C 40.2 -1.113853 39.757462 -2.182235 38.969848 -2.969848 
C 38.182235 -3.757462 37.113853 -4.2 36 -4.2 
C 34.886147 -4.2 33.817765 -3.757462 33.030152 -2.969848 
C 32.242538 -2.182235 31.8 -1.113853 31.8 0 
C 31.8 1.113853 32.242538 2.182235 33.030152 2.969848 
C 33.817765 3.757462 34.886147 4.2 36 4.2 
z
M 36 3.78 
C 36 3.78 34.997532 3.78 34.035988 3.381715 
C 33.327136 2.672864 32.618285 1.964012 32.22 1.002468 
C 32.22 0 32.22 -1.002468 32.618285 -1.964012 
C 33.327136 -2.672864 34.035988 -3.381715 34.997532 -3.78 
C 36 -3.78 37.002468 -3.78 37.964012 -3.381715 
C 38.672864 -2.672864 39.381715 -1.964012 39.78 -1.002468 
C 39.78 0 39.78 1.002468 39.381715 1.964012 
C 38.672864 2.672864 37.964012 3.381715 37.002468 3.78 
z
M 48 4.2 
C 49.113853 4.2 50.182235 3.757462 50.969848 2.969848 
C 51.757462 2.182235 52.2 1.113853 52.2 0 
C 52.2 -1.113853 51.757462 -2.182235 50.969848 -2.969848 
C 50.182235 -3.757462 49.113853 -4.2 48 -4.2 
C 46.886147 -4.2 45.817765 -3.757462 45.030152 -2.969848 
C 44.242538 -2.182235 43.8 -1.113853 43.8 0 
C 43.8 1.113853 44.242538 2.182235 45.030152 2.969848 
C 45.817765 3.757462 46.886147 4.2 48 4.2 
z
M 48 3.78 
C 48 3.78 46.997532 3.78 46.035988 3.381715 
C 45.327136 2.672864 44.618285 1.964012 44.22 1.002468 
C 44.22 0 44.22 -1.002468 44.618285 -1.964012 
C 45.327136 -2.672864 46.035988 -3.381715 46.997532 -3.78 
C 48 -3.78 49.002468 -3.78 49.964012 -3.381715 
C 50.672864 -2.672864 51.381715 -1.964012 51.78 -1.002468 
C 51.78 0 51.78 1.002468 51.381715 1.964012 
C 50.672864 2.672864 49.964012 3.381715 49.002468 3.78 
z
M 60 4.2 
C 61.113853 4.2 62.182235 3.757462 62.969848 2.969848 
C 63.757462 2.182235 64.2 1.113853 64.2 0 
C 64.2 -1.113853 63.757462 -2.182235 62.969848 -2.969848 
C 62.182235 -3.757462 61.113853 -4.2 60 -4.2 
C 58.886147 -4.2 57.817765 -3.757462 57.030152 -2.969848 
C 56.242538 -2.182235 55.8 -1.113853 55.8 0 
C 55.8 1.113853 56.242538 2.182235 57.030152 2.969848 
C 57.817765 3.757462 58.886147 4.2 60 4.2 
z
M 60 3.78 
C 60 3.78 58.997532 3.78 58.035988 3.381715 
C 57.327136 2.672864 56.618285 1.964012 56.22 1.002468 
C 56.22 0 56.22 -1.002468 56.618285 -1.964012 
C 57.327136 -2.672864 58.035988 -3.381715 58.997532 -3.78 
C 60 -3.78 61.002468 -3.78 61.964012 -3.381715 
C 62.672864 -2.672864 63.381715 -1.964012 63.78 -1.002468 
C 63.78 0 63.78 1.002468 63.381715 1.964012 
C 62.672864 2.672864 61.964012 3.381715 61.002468 3.78 
z
M 72 4.2 
C 73.113853 4.2 74.182235 3.757462 74.969848 2.969848 
C 75.757462 2.182235 76.2 1.113853 76.2 0 
C 76.2 -1.113853 75.757462 -2.182235 74.969848 -2.969848 
C 74.182235 -3.757462 73.113853 -4.2 72 -4.2 
C 70.886147 -4.2 69.817765 -3.757462 69.030152 -2.969848 
C 68.242538 -2.182235 67.8 -1.113853 67.8 0 
C 67.8 1.113853 68.242538 2.182235 69.030152 2.969848 
C 69.817765 3.757462 70.886147 4.2 72 4.2 
z
M 72 3.78 
C 72 3.78 70.997532 3.78 70.035988 3.381715 
C 69.327136 2.672864 68.618285 1.964012 68.22 1.002468 
C 68.22 0 68.22 -1.002468 68.618285 -1.964012 
C 69.327136 -2.672864 70.035988 -3.381715 70.997532 -3.78 
C 72 -3.78 73.002468 -3.78 73.964012 -3.381715 
C 74.672864 -2.672864 75.381715 -1.964012 75.78 -1.002468 
C 75.78 0 75.78 1.002468 75.381715 1.964012 
C 74.672864 2.672864 73.964012 3.381715 73.002468 3.78 
z
" style="fill:#000000;stroke:#000000;stroke-linecap:butt;stroke-linejoin:miter;stroke-width:1.0;"/>
  </pattern>
  <pattern height="72" id="h31246d4fc1" patternUnits="userSpaceOnUse" width="72" x="0" y="0">
   <rect fill="none" height="73" width="73" x="0" y="0"/>
   <path d="M -36 36 
L 36 -36 
M -24 48 
L 48 -24 
M -12 60 
L 60 -12 
M 0 72 
L 72 0 
M 12 84 
L 84 12 
M 24 96 
L 96 24 
M 36 108 
L 108 36 
" style="fill:#000000;stroke:#000000;stroke-linecap:butt;stroke-linejoin:miter;stroke-width:1.0;"/>
  </pattern>
 </defs>
</svg>
