<?xml version="1.0" encoding="utf-8" standalone="no"?>
<!DOCTYPE svg PUBLIC "-//W3C//DTD SVG 1.1//EN"
  "http://www.w3.org/Graphics/SVG/1.1/DTD/svg11.dtd">
<!-- Created with matplotlib (http://matplotlib.org/) -->
<svg height="432pt" version="1.1" viewBox="0 0 576 432" width="576pt" xmlns="http://www.w3.org/2000/svg" xmlns:xlink="http://www.w3.org/1999/xlink">
 <defs>
  <style type="text/css">
*{stroke-linecap:butt;stroke-linejoin:round;}
  </style>
 </defs>
 <g id="figure_1">
  <g id="patch_1">
   <path d="M 0 432 
L 576 432 
L 576 0 
L 0 0 
z
" style="fill:#ffffff;"/>
  </g>
  <g id="axes_1">
   <g id="patch_2">
    <path d="M 72 384.48 
L 518.4 384.48 
L 518.4 51.84 
L 72 51.84 
z
" style="fill:#ffffff;"/>
   </g>
   <g id="patch_3">
    <path clip-path="url(#p2b3b6453e5)" d="M 99.9 384.48 
L 155.7 384.48 
L 155.7 337.869977 
L 99.9 337.869977 
z
" style="fill:url(#hee48268aed);stroke:#000000;stroke-linejoin:miter;"/>
   </g>
   <g id="patch_4">
    <path clip-path="url(#p2b3b6453e5)" d="M 211.5 384.48 
L 267.3 384.48 
L 267.3 354.976248 
L 211.5 354.976248 
z
" style="fill:url(#hee48268aed);stroke:#000000;stroke-linejoin:miter;"/>
   </g>
   <g id="patch_5">
    <path clip-path="url(#p2b3b6453e5)" d="M 323.1 384.48 
L 378.9 384.48 
L 378.9 366.519892 
L 323.1 366.519892 
z
" style="fill:url(#hee48268aed);stroke:#000000;stroke-linejoin:miter;"/>
   </g>
   <g id="patch_6">
    <path clip-path="url(#p2b3b6453e5)" d="M 434.7 384.48 
L 490.5 384.48 
L 490.5 374.723142 
L 434.7 374.723142 
z
" style="fill:url(#hee48268aed);stroke:#000000;stroke-linejoin:miter;"/>
   </g>
   <g id="patch_7">
    <path clip-path="url(#p2b3b6453e5)" d="M 99.9 337.869977 
L 155.7 337.869977 
L 155.7 148.42476 
L 99.9 148.42476 
z
" style="fill:url(#hd65c2935d3);stroke:#000000;stroke-linejoin:miter;"/>
   </g>
   <g id="patch_8">
    <path clip-path="url(#p2b3b6453e5)" d="M 211.5 354.976248 
L 267.3 354.976248 
L 267.3 181.951088 
L 211.5 181.951088 
z
" style="fill:url(#hd65c2935d3);stroke:#000000;stroke-linejoin:miter;"/>
   </g>
   <g id="patch_9">
    <path clip-path="url(#p2b3b6453e5)" d="M 323.1 366.519892 
L 378.9 366.519892 
L 378.9 218.091517 
L 323.1 218.091517 
z
" style="fill:url(#hd65c2935d3);stroke:#000000;stroke-linejoin:miter;"/>
   </g>
   <g id="patch_10">
    <path clip-path="url(#p2b3b6453e5)" d="M 434.7 374.723142 
L 490.5 374.723142 
L 490.5 248.502417 
L 434.7 248.502417 
z
" style="fill:url(#hd65c2935d3);stroke:#000000;stroke-linejoin:miter;"/>
   </g>
   <g id="patch_11">
    <path clip-path="url(#p2b3b6453e5)" d="M 99.9 148.42476 
L 155.7 148.42476 
L 155.7 67.68 
L 99.9 67.68 
z
" style="fill:url(#ha4d8e518a0);stroke:#000000;stroke-linejoin:miter;"/>
   </g>
   <g id="patch_12">
    <path clip-path="url(#p2b3b6453e5)" d="M 211.5 181.951088 
L 267.3 181.951088 
L 267.3 67.68 
L 211.5 67.68 
z
" style="fill:url(#ha4d8e518a0);stroke:#000000;stroke-linejoin:miter;"/>
   </g>
   <g id="patch_13">
    <path clip-path="url(#p2b3b6453e5)" d="M 323.1 218.091517 
L 378.9 218.091517 
L 378.9 67.68 
L 323.1 67.68 
z
" style="fill:url(#ha4d8e518a0);stroke:#000000;stroke-linejoin:miter;"/>
   </g>
   <g id="patch_14">
    <path clip-path="url(#p2b3b6453e5)" d="M 434.7 248.502417 
L 490.5 248.502417 
L 490.5 67.68 
L 434.7 67.68 
z
" style="fill:url(#ha4d8e518a0);stroke:#000000;stroke-linejoin:miter;"/>
   </g>
   <g id="matplotlib.axis_1">
    <g id="xtick_1">
     <g id="line2d_1">
      <defs>
       <path d="M 0 0 
L 0 3.5 
" id="mcf6002f44d" style="stroke:#000000;stroke-width:0.8;"/>
      </defs>
      <g>
       <use style="stroke:#000000;stroke-width:0.8;" x="127.8" xlink:href="#mcf6002f44d" y="384.48"/>
      </g>
     </g>
     <g id="text_1">
      <!-- 0.25 -->
      <defs>
       <path d="M 31.78125 66.40625 
Q 24.171875 66.40625 20.328125 58.90625 
Q 16.5 51.421875 16.5 36.375 
Q 16.5 21.390625 20.328125 13.890625 
Q 24.171875 6.390625 31.78125 6.390625 
Q 39.453125 6.390625 43.28125 13.890625 
Q 47.125 21.390625 47.125 36.375 
Q 47.125 51.421875 43.28125 58.90625 
Q 39.453125 66.40625 31.78125 66.40625 
z
M 31.78125 74.21875 
Q 44.046875 74.21875 50.515625 64.515625 
Q 56.984375 54.828125 56.984375 36.375 
Q 56.984375 17.96875 50.515625 8.265625 
Q 44.046875 -1.421875 31.78125 -1.421875 
Q 19.53125 -1.421875 13.0625 8.265625 
Q 6.59375 17.96875 6.59375 36.375 
Q 6.59375 54.828125 13.0625 64.515625 
Q 19.53125 74.21875 31.78125 74.21875 
z
" id="DejaVuSans-30"/>
       <path d="M 10.6875 12.40625 
L 21 12.40625 
L 21 0 
L 10.6875 0 
z
" id="DejaVuSans-2e"/>
       <path d="M 19.1875 8.296875 
L 53.609375 8.296875 
L 53.609375 0 
L 7.328125 0 
L 7.328125 8.296875 
Q 12.9375 14.109375 22.625 23.890625 
Q 32.328125 33.6875 34.8125 36.53125 
Q 39.546875 41.84375 41.421875 45.53125 
Q 43.3125 49.21875 43.3125 52.78125 
Q 43.3125 58.59375 39.234375 62.25 
Q 35.15625 65.921875 28.609375 65.921875 
Q 23.96875 65.921875 18.8125 64.3125 
Q 13.671875 62.703125 7.8125 59.421875 
L 7.8125 69.390625 
Q 13.765625 71.78125 18.9375 73 
Q 24.125 74.21875 28.421875 74.21875 
Q 39.75 74.21875 46.484375 68.546875 
Q 53.21875 62.890625 53.21875 53.421875 
Q 53.21875 48.921875 51.53125 44.890625 
Q 49.859375 40.875 45.40625 35.40625 
Q 44.1875 33.984375 37.640625 27.21875 
Q 31.109375 20.453125 19.1875 8.296875 
z
" id="DejaVuSans-32"/>
       <path d="M 10.796875 72.90625 
L 49.515625 72.90625 
L 49.515625 64.59375 
L 19.828125 64.59375 
L 19.828125 46.734375 
Q 21.96875 47.46875 24.109375 47.828125 
Q 26.265625 48.1875 28.421875 48.1875 
Q 40.625 48.1875 47.75 41.5 
Q 54.890625 34.8125 54.890625 23.390625 
Q 54.890625 11.625 47.5625 5.09375 
Q 40.234375 -1.421875 26.90625 -1.421875 
Q 22.3125 -1.421875 17.546875 -0.640625 
Q 12.796875 0.140625 7.71875 1.703125 
L 7.71875 11.625 
Q 12.109375 9.234375 16.796875 8.0625 
Q 21.484375 6.890625 26.703125 6.890625 
Q 35.15625 6.890625 40.078125 11.328125 
Q 45.015625 15.765625 45.015625 23.390625 
Q 45.015625 31 40.078125 35.4375 
Q 35.15625 39.890625 26.703125 39.890625 
Q 22.75 39.890625 18.8125 39.015625 
Q 14.890625 38.140625 10.796875 36.28125 
z
" id="DejaVuSans-35"/>
      </defs>
      <g transform="translate(109.9875 403.6375)scale(0.16 -0.16)">
       <use xlink:href="#DejaVuSans-30"/>
       <use x="63.623047" xlink:href="#DejaVuSans-2e"/>
       <use x="95.410156" xlink:href="#DejaVuSans-32"/>
       <use x="159.033203" xlink:href="#DejaVuSans-35"/>
      </g>
     </g>
    </g>
    <g id="xtick_2">
     <g id="line2d_2">
      <g>
       <use style="stroke:#000000;stroke-width:0.8;" x="239.4" xlink:href="#mcf6002f44d" y="384.48"/>
      </g>
     </g>
     <g id="text_2">
      <!-- 0.5 -->
      <g transform="translate(226.6775 403.6375)scale(0.16 -0.16)">
       <use xlink:href="#DejaVuSans-30"/>
       <use x="63.623047" xlink:href="#DejaVuSans-2e"/>
       <use x="95.410156" xlink:href="#DejaVuSans-35"/>
      </g>
     </g>
    </g>
    <g id="xtick_3">
     <g id="line2d_3">
      <g>
       <use style="stroke:#000000;stroke-width:0.8;" x="351" xlink:href="#mcf6002f44d" y="384.48"/>
      </g>
     </g>
     <g id="text_3">
      <!-- 0.75 -->
      <defs>
       <path d="M 8.203125 72.90625 
L 55.078125 72.90625 
L 55.078125 68.703125 
L 28.609375 0 
L 18.3125 0 
L 43.21875 64.59375 
L 8.203125 64.59375 
z
" id="DejaVuSans-37"/>
      </defs>
      <g transform="translate(333.1875 403.6375)scale(0.16 -0.16)">
       <use xlink:href="#DejaVuSans-30"/>
       <use x="63.623047" xlink:href="#DejaVuSans-2e"/>
       <use x="95.410156" xlink:href="#DejaVuSans-37"/>
       <use x="159.033203" xlink:href="#DejaVuSans-35"/>
      </g>
     </g>
    </g>
    <g id="xtick_4">
     <g id="line2d_4">
      <g>
       <use style="stroke:#000000;stroke-width:0.8;" x="462.6" xlink:href="#mcf6002f44d" y="384.48"/>
      </g>
     </g>
     <g id="text_4">
      <!-- 1.0 -->
      <defs>
       <path d="M 12.40625 8.296875 
L 28.515625 8.296875 
L 28.515625 63.921875 
L 10.984375 60.40625 
L 10.984375 69.390625 
L 28.421875 72.90625 
L 38.28125 72.90625 
L 38.28125 8.296875 
L 54.390625 8.296875 
L 54.390625 0 
L 12.40625 0 
z
" id="DejaVuSans-31"/>
      </defs>
      <g transform="translate(449.8775 403.6375)scale(0.16 -0.16)">
       <use xlink:href="#DejaVuSans-31"/>
       <use x="63.623047" xlink:href="#DejaVuSans-2e"/>
       <use x="95.410156" xlink:href="#DejaVuSans-30"/>
      </g>
     </g>
    </g>
    <g id="text_5">
     <!-- PLR -->
     <defs>
      <path d="M 19.671875 64.796875 
L 19.671875 37.40625 
L 32.078125 37.40625 
Q 38.96875 37.40625 42.71875 40.96875 
Q 46.484375 44.53125 46.484375 51.125 
Q 46.484375 57.671875 42.71875 61.234375 
Q 38.96875 64.796875 32.078125 64.796875 
z
M 9.8125 72.90625 
L 32.078125 72.90625 
Q 44.34375 72.90625 50.609375 67.359375 
Q 56.890625 61.8125 56.890625 51.125 
Q 56.890625 40.328125 50.609375 34.8125 
Q 44.34375 29.296875 32.078125 29.296875 
L 19.671875 29.296875 
L 19.671875 0 
L 9.8125 0 
z
" id="DejaVuSans-50"/>
      <path d="M 9.8125 72.90625 
L 19.671875 72.90625 
L 19.671875 8.296875 
L 55.171875 8.296875 
L 55.171875 0 
L 9.8125 0 
z
" id="DejaVuSans-4c"/>
      <path d="M 44.390625 34.1875 
Q 47.5625 33.109375 50.5625 29.59375 
Q 53.5625 26.078125 56.59375 19.921875 
L 66.609375 0 
L 56 0 
L 46.6875 18.703125 
Q 43.0625 26.03125 39.671875 28.421875 
Q 36.28125 30.8125 30.421875 30.8125 
L 19.671875 30.8125 
L 19.671875 0 
L 9.8125 0 
L 9.8125 72.90625 
L 32.078125 72.90625 
Q 44.578125 72.90625 50.734375 67.671875 
Q 56.890625 62.453125 56.890625 51.90625 
Q 56.890625 45.015625 53.6875 40.46875 
Q 50.484375 35.9375 44.390625 34.1875 
z
M 19.671875 64.796875 
L 19.671875 38.921875 
L 32.078125 38.921875 
Q 39.203125 38.921875 42.84375 42.21875 
Q 46.484375 45.515625 46.484375 51.90625 
Q 46.484375 58.296875 42.84375 61.546875 
Q 39.203125 64.796875 32.078125 64.796875 
z
" id="DejaVuSans-52"/>
     </defs>
     <g transform="translate(280.36 423.1225)scale(0.16 -0.16)">
      <use xlink:href="#DejaVuSans-50"/>
      <use x="60.302734" xlink:href="#DejaVuSans-4c"/>
      <use x="116.015625" xlink:href="#DejaVuSans-52"/>
     </g>
    </g>
   </g>
   <g id="matplotlib.axis_2">
    <g id="ytick_1">
     <g id="line2d_5">
      <path clip-path="url(#p2b3b6453e5)" d="M 72 384.48 
L 518.4 384.48 
" style="fill:none;opacity:0.4;stroke:#b0b0b0;stroke-linecap:square;stroke-width:0.8;"/>
     </g>
     <g id="line2d_6">
      <defs>
       <path d="M 0 0 
L -3.5 0 
" id="m00f0eae39c" style="stroke:#000000;stroke-width:0.8;"/>
      </defs>
      <g>
       <use style="stroke:#000000;stroke-width:0.8;" x="72" xlink:href="#m00f0eae39c" y="384.48"/>
      </g>
     </g>
     <g id="text_6">
      <!-- 0.0 -->
      <g transform="translate(39.555 390.55875)scale(0.16 -0.16)">
       <use xlink:href="#DejaVuSans-30"/>
       <use x="63.623047" xlink:href="#DejaVuSans-2e"/>
       <use x="95.410156" xlink:href="#DejaVuSans-30"/>
      </g>
     </g>
    </g>
    <g id="ytick_2">
     <g id="line2d_7">
      <path clip-path="url(#p2b3b6453e5)" d="M 72 321.12 
L 518.4 321.12 
" style="fill:none;opacity:0.4;stroke:#b0b0b0;stroke-linecap:square;stroke-width:0.8;"/>
     </g>
     <g id="line2d_8">
      <g>
       <use style="stroke:#000000;stroke-width:0.8;" x="72" xlink:href="#m00f0eae39c" y="321.12"/>
      </g>
     </g>
     <g id="text_7">
      <!-- 0.2 -->
      <g transform="translate(39.555 327.19875)scale(0.16 -0.16)">
       <use xlink:href="#DejaVuSans-30"/>
       <use x="63.623047" xlink:href="#DejaVuSans-2e"/>
       <use x="95.410156" xlink:href="#DejaVuSans-32"/>
      </g>
     </g>
    </g>
    <g id="ytick_3">
     <g id="line2d_9">
      <path clip-path="url(#p2b3b6453e5)" d="M 72 257.76 
L 518.4 257.76 
" style="fill:none;opacity:0.4;stroke:#b0b0b0;stroke-linecap:square;stroke-width:0.8;"/>
     </g>
     <g id="line2d_10">
      <g>
       <use style="stroke:#000000;stroke-width:0.8;" x="72" xlink:href="#m00f0eae39c" y="257.76"/>
      </g>
     </g>
     <g id="text_8">
      <!-- 0.4 -->
      <defs>
       <path d="M 37.796875 64.3125 
L 12.890625 25.390625 
L 37.796875 25.390625 
z
M 35.203125 72.90625 
L 47.609375 72.90625 
L 47.609375 25.390625 
L 58.015625 25.390625 
L 58.015625 17.1875 
L 47.609375 17.1875 
L 47.609375 0 
L 37.796875 0 
L 37.796875 17.1875 
L 4.890625 17.1875 
L 4.890625 26.703125 
z
" id="DejaVuSans-34"/>
      </defs>
      <g transform="translate(39.555 263.83875)scale(0.16 -0.16)">
       <use xlink:href="#DejaVuSans-30"/>
       <use x="63.623047" xlink:href="#DejaVuSans-2e"/>
       <use x="95.410156" xlink:href="#DejaVuSans-34"/>
      </g>
     </g>
    </g>
    <g id="ytick_4">
     <g id="line2d_11">
      <path clip-path="url(#p2b3b6453e5)" d="M 72 194.4 
L 518.4 194.4 
" style="fill:none;opacity:0.4;stroke:#b0b0b0;stroke-linecap:square;stroke-width:0.8;"/>
     </g>
     <g id="line2d_12">
      <g>
       <use style="stroke:#000000;stroke-width:0.8;" x="72" xlink:href="#m00f0eae39c" y="194.4"/>
      </g>
     </g>
     <g id="text_9">
      <!-- 0.6 -->
      <defs>
       <path d="M 33.015625 40.375 
Q 26.375 40.375 22.484375 35.828125 
Q 18.609375 31.296875 18.609375 23.390625 
Q 18.609375 15.53125 22.484375 10.953125 
Q 26.375 6.390625 33.015625 6.390625 
Q 39.65625 6.390625 43.53125 10.953125 
Q 47.40625 15.53125 47.40625 23.390625 
Q 47.40625 31.296875 43.53125 35.828125 
Q 39.65625 40.375 33.015625 40.375 
z
M 52.59375 71.296875 
L 52.59375 62.3125 
Q 48.875 64.0625 45.09375 64.984375 
Q 41.3125 65.921875 37.59375 65.921875 
Q 27.828125 65.921875 22.671875 59.328125 
Q 17.53125 52.734375 16.796875 39.40625 
Q 19.671875 43.65625 24.015625 45.921875 
Q 28.375 48.1875 33.59375 48.1875 
Q 44.578125 48.1875 50.953125 41.515625 
Q 57.328125 34.859375 57.328125 23.390625 
Q 57.328125 12.15625 50.6875 5.359375 
Q 44.046875 -1.421875 33.015625 -1.421875 
Q 20.359375 -1.421875 13.671875 8.265625 
Q 6.984375 17.96875 6.984375 36.375 
Q 6.984375 53.65625 15.1875 63.9375 
Q 23.390625 74.21875 37.203125 74.21875 
Q 40.921875 74.21875 44.703125 73.484375 
Q 48.484375 72.75 52.59375 71.296875 
z
" id="DejaVuSans-36"/>
      </defs>
      <g transform="translate(39.555 200.47875)scale(0.16 -0.16)">
       <use xlink:href="#DejaVuSans-30"/>
       <use x="63.623047" xlink:href="#DejaVuSans-2e"/>
       <use x="95.410156" xlink:href="#DejaVuSans-36"/>
      </g>
     </g>
    </g>
    <g id="ytick_5">
     <g id="line2d_13">
      <path clip-path="url(#p2b3b6453e5)" d="M 72 131.04 
L 518.4 131.04 
" style="fill:none;opacity:0.4;stroke:#b0b0b0;stroke-linecap:square;stroke-width:0.8;"/>
     </g>
     <g id="line2d_14">
      <g>
       <use style="stroke:#000000;stroke-width:0.8;" x="72" xlink:href="#m00f0eae39c" y="131.04"/>
      </g>
     </g>
     <g id="text_10">
      <!-- 0.8 -->
      <defs>
       <path d="M 31.78125 34.625 
Q 24.75 34.625 20.71875 30.859375 
Q 16.703125 27.09375 16.703125 20.515625 
Q 16.703125 13.921875 20.71875 10.15625 
Q 24.75 6.390625 31.78125 6.390625 
Q 38.8125 6.390625 42.859375 10.171875 
Q 46.921875 13.96875 46.921875 20.515625 
Q 46.921875 27.09375 42.890625 30.859375 
Q 38.875 34.625 31.78125 34.625 
z
M 21.921875 38.8125 
Q 15.578125 40.375 12.03125 44.71875 
Q 8.5 49.078125 8.5 55.328125 
Q 8.5 64.0625 14.71875 69.140625 
Q 20.953125 74.21875 31.78125 74.21875 
Q 42.671875 74.21875 48.875 69.140625 
Q 55.078125 64.0625 55.078125 55.328125 
Q 55.078125 49.078125 51.53125 44.71875 
Q 48 40.375 41.703125 38.8125 
Q 48.828125 37.15625 52.796875 32.3125 
Q 56.78125 27.484375 56.78125 20.515625 
Q 56.78125 9.90625 50.3125 4.234375 
Q 43.84375 -1.421875 31.78125 -1.421875 
Q 19.734375 -1.421875 13.25 4.234375 
Q 6.78125 9.90625 6.78125 20.515625 
Q 6.78125 27.484375 10.78125 32.3125 
Q 14.796875 37.15625 21.921875 38.8125 
z
M 18.3125 54.390625 
Q 18.3125 48.734375 21.84375 45.5625 
Q 25.390625 42.390625 31.78125 42.390625 
Q 38.140625 42.390625 41.71875 45.5625 
Q 45.3125 48.734375 45.3125 54.390625 
Q 45.3125 60.0625 41.71875 63.234375 
Q 38.140625 66.40625 31.78125 66.40625 
Q 25.390625 66.40625 21.84375 63.234375 
Q 18.3125 60.0625 18.3125 54.390625 
z
" id="DejaVuSans-38"/>
      </defs>
      <g transform="translate(39.555 137.11875)scale(0.16 -0.16)">
       <use xlink:href="#DejaVuSans-30"/>
       <use x="63.623047" xlink:href="#DejaVuSans-2e"/>
       <use x="95.410156" xlink:href="#DejaVuSans-38"/>
      </g>
     </g>
    </g>
    <g id="ytick_6">
     <g id="line2d_15">
      <path clip-path="url(#p2b3b6453e5)" d="M 72 67.68 
L 518.4 67.68 
" style="fill:none;opacity:0.4;stroke:#b0b0b0;stroke-linecap:square;stroke-width:0.8;"/>
     </g>
     <g id="line2d_16">
      <g>
       <use style="stroke:#000000;stroke-width:0.8;" x="72" xlink:href="#m00f0eae39c" y="67.68"/>
      </g>
     </g>
     <g id="text_11">
      <!-- 1.0 -->
      <g transform="translate(39.555 73.75875)scale(0.16 -0.16)">
       <use xlink:href="#DejaVuSans-31"/>
       <use x="63.623047" xlink:href="#DejaVuSans-2e"/>
       <use x="95.410156" xlink:href="#DejaVuSans-30"/>
      </g>
     </g>
    </g>
    <g id="text_12">
     <!-- Normalized Hours -->
     <defs>
      <path d="M 9.8125 72.90625 
L 23.09375 72.90625 
L 55.421875 11.921875 
L 55.421875 72.90625 
L 64.984375 72.90625 
L 64.984375 0 
L 51.703125 0 
L 19.390625 60.984375 
L 19.390625 0 
L 9.8125 0 
z
" id="DejaVuSans-4e"/>
      <path d="M 30.609375 48.390625 
Q 23.390625 48.390625 19.1875 42.75 
Q 14.984375 37.109375 14.984375 27.296875 
Q 14.984375 17.484375 19.15625 11.84375 
Q 23.34375 6.203125 30.609375 6.203125 
Q 37.796875 6.203125 41.984375 11.859375 
Q 46.1875 17.53125 46.1875 27.296875 
Q 46.1875 37.015625 41.984375 42.703125 
Q 37.796875 48.390625 30.609375 48.390625 
z
M 30.609375 56 
Q 42.328125 56 49.015625 48.375 
Q 55.71875 40.765625 55.71875 27.296875 
Q 55.71875 13.875 49.015625 6.21875 
Q 42.328125 -1.421875 30.609375 -1.421875 
Q 18.84375 -1.421875 12.171875 6.21875 
Q 5.515625 13.875 5.515625 27.296875 
Q 5.515625 40.765625 12.171875 48.375 
Q 18.84375 56 30.609375 56 
z
" id="DejaVuSans-6f"/>
      <path d="M 41.109375 46.296875 
Q 39.59375 47.171875 37.8125 47.578125 
Q 36.03125 48 33.890625 48 
Q 26.265625 48 22.1875 43.046875 
Q 18.109375 38.09375 18.109375 28.8125 
L 18.109375 0 
L 9.078125 0 
L 9.078125 54.6875 
L 18.109375 54.6875 
L 18.109375 46.1875 
Q 20.953125 51.171875 25.484375 53.578125 
Q 30.03125 56 36.53125 56 
Q 37.453125 56 38.578125 55.875 
Q 39.703125 55.765625 41.0625 55.515625 
z
" id="DejaVuSans-72"/>
      <path d="M 52 44.1875 
Q 55.375 50.25 60.0625 53.125 
Q 64.75 56 71.09375 56 
Q 79.640625 56 84.28125 50.015625 
Q 88.921875 44.046875 88.921875 33.015625 
L 88.921875 0 
L 79.890625 0 
L 79.890625 32.71875 
Q 79.890625 40.578125 77.09375 44.375 
Q 74.3125 48.1875 68.609375 48.1875 
Q 61.625 48.1875 57.5625 43.546875 
Q 53.515625 38.921875 53.515625 30.90625 
L 53.515625 0 
L 44.484375 0 
L 44.484375 32.71875 
Q 44.484375 40.625 41.703125 44.40625 
Q 38.921875 48.1875 33.109375 48.1875 
Q 26.21875 48.1875 22.15625 43.53125 
Q 18.109375 38.875 18.109375 30.90625 
L 18.109375 0 
L 9.078125 0 
L 9.078125 54.6875 
L 18.109375 54.6875 
L 18.109375 46.1875 
Q 21.1875 51.21875 25.484375 53.609375 
Q 29.78125 56 35.6875 56 
Q 41.65625 56 45.828125 52.96875 
Q 50 49.953125 52 44.1875 
z
" id="DejaVuSans-6d"/>
      <path d="M 34.28125 27.484375 
Q 23.390625 27.484375 19.1875 25 
Q 14.984375 22.515625 14.984375 16.5 
Q 14.984375 11.71875 18.140625 8.90625 
Q 21.296875 6.109375 26.703125 6.109375 
Q 34.1875 6.109375 38.703125 11.40625 
Q 43.21875 16.703125 43.21875 25.484375 
L 43.21875 27.484375 
z
M 52.203125 31.203125 
L 52.203125 0 
L 43.21875 0 
L 43.21875 8.296875 
Q 40.140625 3.328125 35.546875 0.953125 
Q 30.953125 -1.421875 24.3125 -1.421875 
Q 15.921875 -1.421875 10.953125 3.296875 
Q 6 8.015625 6 15.921875 
Q 6 25.140625 12.171875 29.828125 
Q 18.359375 34.515625 30.609375 34.515625 
L 43.21875 34.515625 
L 43.21875 35.40625 
Q 43.21875 41.609375 39.140625 45 
Q 35.0625 48.390625 27.6875 48.390625 
Q 23 48.390625 18.546875 47.265625 
Q 14.109375 46.140625 10.015625 43.890625 
L 10.015625 52.203125 
Q 14.9375 54.109375 19.578125 55.046875 
Q 24.21875 56 28.609375 56 
Q 40.484375 56 46.34375 49.84375 
Q 52.203125 43.703125 52.203125 31.203125 
z
" id="DejaVuSans-61"/>
      <path d="M 9.421875 75.984375 
L 18.40625 75.984375 
L 18.40625 0 
L 9.421875 0 
z
" id="DejaVuSans-6c"/>
      <path d="M 9.421875 54.6875 
L 18.40625 54.6875 
L 18.40625 0 
L 9.421875 0 
z
M 9.421875 75.984375 
L 18.40625 75.984375 
L 18.40625 64.59375 
L 9.421875 64.59375 
z
" id="DejaVuSans-69"/>
      <path d="M 5.515625 54.6875 
L 48.1875 54.6875 
L 48.1875 46.484375 
L 14.40625 7.171875 
L 48.1875 7.171875 
L 48.1875 0 
L 4.296875 0 
L 4.296875 8.203125 
L 38.09375 47.515625 
L 5.515625 47.515625 
z
" id="DejaVuSans-7a"/>
      <path d="M 56.203125 29.59375 
L 56.203125 25.203125 
L 14.890625 25.203125 
Q 15.484375 15.921875 20.484375 11.0625 
Q 25.484375 6.203125 34.421875 6.203125 
Q 39.59375 6.203125 44.453125 7.46875 
Q 49.3125 8.734375 54.109375 11.28125 
L 54.109375 2.78125 
Q 49.265625 0.734375 44.1875 -0.34375 
Q 39.109375 -1.421875 33.890625 -1.421875 
Q 20.796875 -1.421875 13.15625 6.1875 
Q 5.515625 13.8125 5.515625 26.8125 
Q 5.515625 40.234375 12.765625 48.109375 
Q 20.015625 56 32.328125 56 
Q 43.359375 56 49.78125 48.890625 
Q 56.203125 41.796875 56.203125 29.59375 
z
M 47.21875 32.234375 
Q 47.125 39.59375 43.09375 43.984375 
Q 39.0625 48.390625 32.421875 48.390625 
Q 24.90625 48.390625 20.390625 44.140625 
Q 15.875 39.890625 15.1875 32.171875 
z
" id="DejaVuSans-65"/>
      <path d="M 45.40625 46.390625 
L 45.40625 75.984375 
L 54.390625 75.984375 
L 54.390625 0 
L 45.40625 0 
L 45.40625 8.203125 
Q 42.578125 3.328125 38.25 0.953125 
Q 33.9375 -1.421875 27.875 -1.421875 
Q 17.96875 -1.421875 11.734375 6.484375 
Q 5.515625 14.40625 5.515625 27.296875 
Q 5.515625 40.1875 11.734375 48.09375 
Q 17.96875 56 27.875 56 
Q 33.9375 56 38.25 53.625 
Q 42.578125 51.265625 45.40625 46.390625 
z
M 14.796875 27.296875 
Q 14.796875 17.390625 18.875 11.75 
Q 22.953125 6.109375 30.078125 6.109375 
Q 37.203125 6.109375 41.296875 11.75 
Q 45.40625 17.390625 45.40625 27.296875 
Q 45.40625 37.203125 41.296875 42.84375 
Q 37.203125 48.484375 30.078125 48.484375 
Q 22.953125 48.484375 18.875 42.84375 
Q 14.796875 37.203125 14.796875 27.296875 
z
" id="DejaVuSans-64"/>
      <path id="DejaVuSans-20"/>
      <path d="M 9.8125 72.90625 
L 19.671875 72.90625 
L 19.671875 43.015625 
L 55.515625 43.015625 
L 55.515625 72.90625 
L 65.375 72.90625 
L 65.375 0 
L 55.515625 0 
L 55.515625 34.71875 
L 19.671875 34.71875 
L 19.671875 0 
L 9.8125 0 
z
" id="DejaVuSans-48"/>
      <path d="M 8.5 21.578125 
L 8.5 54.6875 
L 17.484375 54.6875 
L 17.484375 21.921875 
Q 17.484375 14.15625 20.5 10.265625 
Q 23.53125 6.390625 29.59375 6.390625 
Q 36.859375 6.390625 41.078125 11.03125 
Q 45.3125 15.671875 45.3125 23.6875 
L 45.3125 54.6875 
L 54.296875 54.6875 
L 54.296875 0 
L 45.3125 0 
L 45.3125 8.40625 
Q 42.046875 3.421875 37.71875 1 
Q 33.40625 -1.421875 27.6875 -1.421875 
Q 18.265625 -1.421875 13.375 4.4375 
Q 8.5 10.296875 8.5 21.578125 
z
M 31.109375 56 
z
" id="DejaVuSans-75"/>
      <path d="M 44.28125 53.078125 
L 44.28125 44.578125 
Q 40.484375 46.53125 36.375 47.5 
Q 32.28125 48.484375 27.875 48.484375 
Q 21.1875 48.484375 17.84375 46.4375 
Q 14.5 44.390625 14.5 40.28125 
Q 14.5 37.15625 16.890625 35.375 
Q 19.28125 33.59375 26.515625 31.984375 
L 29.59375 31.296875 
Q 39.15625 29.25 43.1875 25.515625 
Q 47.21875 21.78125 47.21875 15.09375 
Q 47.21875 7.46875 41.1875 3.015625 
Q 35.15625 -1.421875 24.609375 -1.421875 
Q 20.21875 -1.421875 15.453125 -0.5625 
Q 10.6875 0.296875 5.421875 2 
L 5.421875 11.28125 
Q 10.40625 8.6875 15.234375 7.390625 
Q 20.0625 6.109375 24.8125 6.109375 
Q 31.15625 6.109375 34.5625 8.28125 
Q 37.984375 10.453125 37.984375 14.40625 
Q 37.984375 18.0625 35.515625 20.015625 
Q 33.0625 21.96875 24.703125 23.78125 
L 21.578125 24.515625 
Q 13.234375 26.265625 9.515625 29.90625 
Q 5.8125 33.546875 5.8125 39.890625 
Q 5.8125 47.609375 11.28125 51.796875 
Q 16.75 56 26.8125 56 
Q 31.78125 56 36.171875 55.265625 
Q 40.578125 54.546875 44.28125 53.078125 
z
" id="DejaVuSans-73"/>
     </defs>
     <g transform="translate(32.2275 289.6475)rotate(-90)scale(0.16 -0.16)">
      <use xlink:href="#DejaVuSans-4e"/>
      <use x="74.804688" xlink:href="#DejaVuSans-6f"/>
      <use x="135.986328" xlink:href="#DejaVuSans-72"/>
      <use x="177.083984" xlink:href="#DejaVuSans-6d"/>
      <use x="274.496094" xlink:href="#DejaVuSans-61"/>
      <use x="335.775391" xlink:href="#DejaVuSans-6c"/>
      <use x="363.558594" xlink:href="#DejaVuSans-69"/>
      <use x="391.341797" xlink:href="#DejaVuSans-7a"/>
      <use x="443.832031" xlink:href="#DejaVuSans-65"/>
      <use x="505.355469" xlink:href="#DejaVuSans-64"/>
      <use x="568.832031" xlink:href="#DejaVuSans-20"/>
      <use x="600.619141" xlink:href="#DejaVuSans-48"/>
      <use x="675.814453" xlink:href="#DejaVuSans-6f"/>
      <use x="736.996094" xlink:href="#DejaVuSans-75"/>
      <use x="800.375" xlink:href="#DejaVuSans-72"/>
      <use x="841.488281" xlink:href="#DejaVuSans-73"/>
     </g>
    </g>
   </g>
   <g id="patch_15">
    <path d="M 72 384.48 
L 72 51.84 
" style="fill:none;stroke:#000000;stroke-linecap:square;stroke-linejoin:miter;stroke-width:0.8;"/>
   </g>
   <g id="patch_16">
    <path d="M 518.4 384.48 
L 518.4 51.84 
" style="fill:none;stroke:#000000;stroke-linecap:square;stroke-linejoin:miter;stroke-width:0.8;"/>
   </g>
   <g id="patch_17">
    <path d="M 72 384.48 
L 518.4 384.48 
" style="fill:none;stroke:#000000;stroke-linecap:square;stroke-linejoin:miter;stroke-width:0.8;"/>
   </g>
   <g id="patch_18">
    <path d="M 72 51.84 
L 518.4 51.84 
" style="fill:none;stroke:#000000;stroke-linecap:square;stroke-linejoin:miter;stroke-width:0.8;"/>
   </g>
   <g id="legend_1">
    <g id="patch_19">
     <path d="M 213.22 65.9825 
L 507.2 65.9825 
Q 510.4 65.9825 510.4 62.7825 
L 510.4 40.8975 
Q 510.4 37.6975 507.2 37.6975 
L 213.22 37.6975 
Q 210.02 37.6975 210.02 40.8975 
L 210.02 62.7825 
Q 210.02 65.9825 213.22 65.9825 
z
" style="fill:#ffffff;opacity:0.8;stroke:#cccccc;stroke-linejoin:miter;"/>
    </g>
    <g id="patch_20">
     <path d="M 216.42 56.255 
L 248.42 56.255 
L 248.42 45.055 
L 216.42 45.055 
z
" style="fill:url(#hee48268aed);stroke:#000000;stroke-linejoin:miter;"/>
    </g>
    <g id="text_13">
     <!-- FC -->
     <defs>
      <path d="M 9.8125 72.90625 
L 51.703125 72.90625 
L 51.703125 64.59375 
L 19.671875 64.59375 
L 19.671875 43.109375 
L 48.578125 43.109375 
L 48.578125 34.8125 
L 19.671875 34.8125 
L 19.671875 0 
L 9.8125 0 
z
" id="DejaVuSans-46"/>
      <path d="M 64.40625 67.28125 
L 64.40625 56.890625 
Q 59.421875 61.53125 53.78125 63.8125 
Q 48.140625 66.109375 41.796875 66.109375 
Q 29.296875 66.109375 22.65625 58.46875 
Q 16.015625 50.828125 16.015625 36.375 
Q 16.015625 21.96875 22.65625 14.328125 
Q 29.296875 6.6875 41.796875 6.6875 
Q 48.140625 6.6875 53.78125 8.984375 
Q 59.421875 11.28125 64.40625 15.921875 
L 64.40625 5.609375 
Q 59.234375 2.09375 53.4375 0.328125 
Q 47.65625 -1.421875 41.21875 -1.421875 
Q 24.65625 -1.421875 15.125 8.703125 
Q 5.609375 18.84375 5.609375 36.375 
Q 5.609375 53.953125 15.125 64.078125 
Q 24.65625 74.21875 41.21875 74.21875 
Q 47.75 74.21875 53.53125 72.484375 
Q 59.328125 70.75 64.40625 67.28125 
z
" id="DejaVuSans-43"/>
     </defs>
     <g transform="translate(261.22 56.255)scale(0.16 -0.16)">
      <use xlink:href="#DejaVuSans-46"/>
      <use x="57.519531" xlink:href="#DejaVuSans-43"/>
     </g>
    </g>
    <g id="patch_21">
     <path d="M 313.595 56.255 
L 345.595 56.255 
L 345.595 45.055 
L 313.595 45.055 
z
" style="fill:url(#hd65c2935d3);stroke:#000000;stroke-linejoin:miter;"/>
    </g>
    <g id="text_14">
     <!-- PMC -->
     <defs>
      <path d="M 9.8125 72.90625 
L 24.515625 72.90625 
L 43.109375 23.296875 
L 61.8125 72.90625 
L 76.515625 72.90625 
L 76.515625 0 
L 66.890625 0 
L 66.890625 64.015625 
L 48.09375 14.015625 
L 38.1875 14.015625 
L 19.390625 64.015625 
L 19.390625 0 
L 9.8125 0 
z
" id="DejaVuSans-4d"/>
     </defs>
     <g transform="translate(358.395 56.255)scale(0.16 -0.16)">
      <use xlink:href="#DejaVuSans-50"/>
      <use x="60.302734" xlink:href="#DejaVuSans-4d"/>
      <use x="146.582031" xlink:href="#DejaVuSans-43"/>
     </g>
    </g>
    <g id="patch_22">
     <path d="M 425.02 56.255 
L 457.02 56.255 
L 457.02 45.055 
L 425.02 45.055 
z
" style="fill:url(#ha4d8e518a0);stroke:#000000;stroke-linejoin:miter;"/>
    </g>
    <g id="text_15">
     <!-- FMC -->
     <g transform="translate(469.82 56.255)scale(0.16 -0.16)">
      <use xlink:href="#DejaVuSans-46"/>
      <use x="57.519531" xlink:href="#DejaVuSans-4d"/>
      <use x="143.798828" xlink:href="#DejaVuSans-43"/>
     </g>
    </g>
   </g>
  </g>
 </g>
 <defs>
  <clipPath id="p2b3b6453e5">
   <rect height="332.64" width="446.4" x="72" y="51.84"/>
  </clipPath>
 </defs>
 <defs>
  <pattern height="72" id="hee48268aed" patternUnits="userSpaceOnUse" width="72" x="0" y="0">
   <rect fill="none" height="73" width="73" x="0" y="0"/>
   <path d="M -36 36 
L 36 108 
M -24 24 
L 48 96 
M -12 12 
L 60 84 
M 0 0 
L 72 72 
M 12 -12 
L 84 60 
M 24 -24 
L 96 48 
M 36 -36 
L 108 36 
" style="fill:#000000;stroke:#000000;stroke-linecap:butt;stroke-linejoin:miter;stroke-width:1.0;"/>
  </pattern>
  <pattern height="72" id="hd65c2935d3" patternUnits="userSpaceOnUse" width="72" x="0" y="0">
   <rect fill="none" height="73" width="73" x="0" y="0"/>
   <path d="M 0 76.2 
C 1.113853 76.2 2.182235 75.757462 2.969848 74.969848 
C 3.757462 74.182235 4.2 73.113853 4.2 72 
C 4.2 70.886147 3.757462 69.817765 2.969848 69.030152 
C 2.182235 68.242538 1.113853 67.8 0 67.8 
C -1.113853 67.8 -2.182235 68.242538 -2.969848 69.030152 
C -3.757462 69.817765 -4.2 70.886147 -4.2 72 
C -4.2 73.113853 -3.757462 74.182235 -2.969848 74.969848 
C -2.182235 75.757462 -1.113853 76.2 0 76.2 
z
M 0 75.78 
C 0 75.78 -1.002468 75.78 -1.964012 75.381715 
C -2.672864 74.672864 -3.381715 73.964012 -3.78 73.002468 
C -3.78 72 -3.78 70.997532 -3.381715 70.035988 
C -2.672864 69.327136 -1.964012 68.618285 -1.002468 68.22 
C 0 68.22 1.002468 68.22 1.964012 68.618285 
C 2.672864 69.327136 3.381715 70.035988 3.78 70.997532 
C 3.78 72 3.78 73.002468 3.381715 73.964012 
C 2.672864 74.672864 1.964012 75.381715 1.002468 75.78 
z
M 12 76.2 
C 13.113853 76.2 14.182235 75.757462 14.969848 74.969848 
C 15.757462 74.182235 16.2 73.113853 16.2 72 
C 16.2 70.886147 15.757462 69.817765 14.969848 69.030152 
C 14.182235 68.242538 13.113853 67.8 12 67.8 
C 10.886147 67.8 9.817765 68.242538 9.030152 69.030152 
C 8.242538 69.817765 7.8 70.886147 7.8 72 
C 7.8 73.113853 8.242538 74.182235 9.030152 74.969848 
C 9.817765 75.757462 10.886147 76.2 12 76.2 
z
M 12 75.78 
C 12 75.78 10.997532 75.78 10.035988 75.381715 
C 9.327136 74.672864 8.618285 73.964012 8.22 73.002468 
C 8.22 72 8.22 70.997532 8.618285 70.035988 
C 9.327136 69.327136 10.035988 68.618285 10.997532 68.22 
C 12 68.22 13.002468 68.22 13.964012 68.618285 
C 14.672864 69.327136 15.381715 70.035988 15.78 70.997532 
C 15.78 72 15.78 73.002468 15.381715 73.964012 
C 14.672864 74.672864 13.964012 75.381715 13.002468 75.78 
z
M 24 76.2 
C 25.113853 76.2 26.182235 75.757462 26.969848 74.969848 
C 27.757462 74.182235 28.2 73.113853 28.2 72 
C 28.2 70.886147 27.757462 69.817765 26.969848 69.030152 
C 26.182235 68.242538 25.113853 67.8 24 67.8 
C 22.886147 67.8 21.817765 68.242538 21.030152 69.030152 
C 20.242538 69.817765 19.8 70.886147 19.8 72 
C 19.8 73.113853 20.242538 74.182235 21.030152 74.969848 
C 21.817765 75.757462 22.886147 76.2 24 76.2 
z
M 24 75.78 
C 24 75.78 22.997532 75.78 22.035988 75.381715 
C 21.327136 74.672864 20.618285 73.964012 20.22 73.002468 
C 20.22 72 20.22 70.997532 20.618285 70.035988 
C 21.327136 69.327136 22.035988 68.618285 22.997532 68.22 
C 24 68.22 25.002468 68.22 25.964012 68.618285 
C 26.672864 69.327136 27.381715 70.035988 27.78 70.997532 
C 27.78 72 27.78 73.002468 27.381715 73.964012 
C 26.672864 74.672864 25.964012 75.381715 25.002468 75.78 
z
M 36 76.2 
C 37.113853 76.2 38.182235 75.757462 38.969848 74.969848 
C 39.757462 74.182235 40.2 73.113853 40.2 72 
C 40.2 70.886147 39.757462 69.817765 38.969848 69.030152 
C 38.182235 68.242538 37.113853 67.8 36 67.8 
C 34.886147 67.8 33.817765 68.242538 33.030152 69.030152 
C 32.242538 69.817765 31.8 70.886147 31.8 72 
C 31.8 73.113853 32.242538 74.182235 33.030152 74.969848 
C 33.817765 75.757462 34.886147 76.2 36 76.2 
z
M 36 75.78 
C 36 75.78 34.997532 75.78 34.035988 75.381715 
C 33.327136 74.672864 32.618285 73.964012 32.22 73.002468 
C 32.22 72 32.22 70.997532 32.618285 70.035988 
C 33.327136 69.327136 34.035988 68.618285 34.997532 68.22 
C 36 68.22 37.002468 68.22 37.964012 68.618285 
C 38.672864 69.327136 39.381715 70.035988 39.78 70.997532 
C 39.78 72 39.78 73.002468 39.381715 73.964012 
C 38.672864 74.672864 37.964012 75.381715 37.002468 75.78 
z
M 48 76.2 
C 49.113853 76.2 50.182235 75.757462 50.969848 74.969848 
C 51.757462 74.182235 52.2 73.113853 52.2 72 
C 52.2 70.886147 51.757462 69.817765 50.969848 69.030152 
C 50.182235 68.242538 49.113853 67.8 48 67.8 
C 46.886147 67.8 45.817765 68.242538 45.030152 69.030152 
C 44.242538 69.817765 43.8 70.886147 43.8 72 
C 43.8 73.113853 44.242538 74.182235 45.030152 74.969848 
C 45.817765 75.757462 46.886147 76.2 48 76.2 
z
M 48 75.78 
C 48 75.78 46.997532 75.78 46.035988 75.381715 
C 45.327136 74.672864 44.618285 73.964012 44.22 73.002468 
C 44.22 72 44.22 70.997532 44.618285 70.035988 
C 45.327136 69.327136 46.035988 68.618285 46.997532 68.22 
C 48 68.22 49.002468 68.22 49.964012 68.618285 
C 50.672864 69.327136 51.381715 70.035988 51.78 70.997532 
C 51.78 72 51.78 73.002468 51.381715 73.964012 
C 50.672864 74.672864 49.964012 75.381715 49.002468 75.78 
z
M 60 76.2 
C 61.113853 76.2 62.182235 75.757462 62.969848 74.969848 
C 63.757462 74.182235 64.2 73.113853 64.2 72 
C 64.2 70.886147 63.757462 69.817765 62.969848 69.030152 
C 62.182235 68.242538 61.113853 67.8 60 67.8 
C 58.886147 67.8 57.817765 68.242538 57.030152 69.030152 
C 56.242538 69.817765 55.8 70.886147 55.8 72 
C 55.8 73.113853 56.242538 74.182235 57.030152 74.969848 
C 57.817765 75.757462 58.886147 76.2 60 76.2 
z
M 60 75.78 
C 60 75.78 58.997532 75.78 58.035988 75.381715 
C 57.327136 74.672864 56.618285 73.964012 56.22 73.002468 
C 56.22 72 56.22 70.997532 56.618285 70.035988 
C 57.327136 69.327136 58.035988 68.618285 58.997532 68.22 
C 60 68.22 61.002468 68.22 61.964012 68.618285 
C 62.672864 69.327136 63.381715 70.035988 63.78 70.997532 
C 63.78 72 63.78 73.002468 63.381715 73.964012 
C 62.672864 74.672864 61.964012 75.381715 61.002468 75.78 
z
M 72 76.2 
C 73.113853 76.2 74.182235 75.757462 74.969848 74.969848 
C 75.757462 74.182235 76.2 73.113853 76.2 72 
C 76.2 70.886147 75.757462 69.817765 74.969848 69.030152 
C 74.182235 68.242538 73.113853 67.8 72 67.8 
C 70.886147 67.8 69.817765 68.242538 69.030152 69.030152 
C 68.242538 69.817765 67.8 70.886147 67.8 72 
C 67.8 73.113853 68.242538 74.182235 69.030152 74.969848 
C 69.817765 75.757462 70.886147 76.2 72 76.2 
z
M 72 75.78 
C 72 75.78 70.997532 75.78 70.035988 75.381715 
C 69.327136 74.672864 68.618285 73.964012 68.22 73.002468 
C 68.22 72 68.22 70.997532 68.618285 70.035988 
C 69.327136 69.327136 70.035988 68.618285 70.997532 68.22 
C 72 68.22 73.002468 68.22 73.964012 68.618285 
C 74.672864 69.327136 75.381715 70.035988 75.78 70.997532 
C 75.78 72 75.78 73.002468 75.381715 73.964012 
C 74.672864 74.672864 73.964012 75.381715 73.002468 75.78 
z
M 6 64.2 
C 7.113853 64.2 8.182235 63.757462 8.969848 62.969848 
C 9.757462 62.182235 10.2 61.113853 10.2 60 
C 10.2 58.886147 9.757462 57.817765 8.969848 57.030152 
C 8.182235 56.242538 7.113853 55.8 6 55.8 
C 4.886147 55.8 3.817765 56.242538 3.030152 57.030152 
C 2.242538 57.817765 1.8 58.886147 1.8 60 
C 1.8 61.113853 2.242538 62.182235 3.030152 62.969848 
C 3.817765 63.757462 4.886147 64.2 6 64.2 
z
M 6 63.78 
C 6 63.78 4.997532 63.78 4.035988 63.381715 
C 3.327136 62.672864 2.618285 61.964012 2.22 61.002468 
C 2.22 60 2.22 58.997532 2.618285 58.035988 
C 3.327136 57.327136 4.035988 56.618285 4.997532 56.22 
C 6 56.22 7.002468 56.22 7.964012 56.618285 
C 8.672864 57.327136 9.381715 58.035988 9.78 58.997532 
C 9.78 60 9.78 61.002468 9.381715 61.964012 
C 8.672864 62.672864 7.964012 63.381715 7.002468 63.78 
z
M 18 64.2 
C 19.113853 64.2 20.182235 63.757462 20.969848 62.969848 
C 21.757462 62.182235 22.2 61.113853 22.2 60 
C 22.2 58.886147 21.757462 57.817765 20.969848 57.030152 
C 20.182235 56.242538 19.113853 55.8 18 55.8 
C 16.886147 55.8 15.817765 56.242538 15.030152 57.030152 
C 14.242538 57.817765 13.8 58.886147 13.8 60 
C 13.8 61.113853 14.242538 62.182235 15.030152 62.969848 
C 15.817765 63.757462 16.886147 64.2 18 64.2 
z
M 18 63.78 
C 18 63.78 16.997532 63.78 16.035988 63.381715 
C 15.327136 62.672864 14.618285 61.964012 14.22 61.002468 
C 14.22 60 14.22 58.997532 14.618285 58.035988 
C 15.327136 57.327136 16.035988 56.618285 16.997532 56.22 
C 18 56.22 19.002468 56.22 19.964012 56.618285 
C 20.672864 57.327136 21.381715 58.035988 21.78 58.997532 
C 21.78 60 21.78 61.002468 21.381715 61.964012 
C 20.672864 62.672864 19.964012 63.381715 19.002468 63.78 
z
M 30 64.2 
C 31.113853 64.2 32.182235 63.757462 32.969848 62.969848 
C 33.757462 62.182235 34.2 61.113853 34.2 60 
C 34.2 58.886147 33.757462 57.817765 32.969848 57.030152 
C 32.182235 56.242538 31.113853 55.8 30 55.8 
C 28.886147 55.8 27.817765 56.242538 27.030152 57.030152 
C 26.242538 57.817765 25.8 58.886147 25.8 60 
C 25.8 61.113853 26.242538 62.182235 27.030152 62.969848 
C 27.817765 63.757462 28.886147 64.2 30 64.2 
z
M 30 63.78 
C 30 63.78 28.997532 63.78 28.035988 63.381715 
C 27.327136 62.672864 26.618285 61.964012 26.22 61.002468 
C 26.22 60 26.22 58.997532 26.618285 58.035988 
C 27.327136 57.327136 28.035988 56.618285 28.997532 56.22 
C 30 56.22 31.002468 56.22 31.964012 56.618285 
C 32.672864 57.327136 33.381715 58.035988 33.78 58.997532 
C 33.78 60 33.78 61.002468 33.381715 61.964012 
C 32.672864 62.672864 31.964012 63.381715 31.002468 63.78 
z
M 42 64.2 
C 43.113853 64.2 44.182235 63.757462 44.969848 62.969848 
C 45.757462 62.182235 46.2 61.113853 46.2 60 
C 46.2 58.886147 45.757462 57.817765 44.969848 57.030152 
C 44.182235 56.242538 43.113853 55.8 42 55.8 
C 40.886147 55.8 39.817765 56.242538 39.030152 57.030152 
C 38.242538 57.817765 37.8 58.886147 37.8 60 
C 37.8 61.113853 38.242538 62.182235 39.030152 62.969848 
C 39.817765 63.757462 40.886147 64.2 42 64.2 
z
M 42 63.78 
C 42 63.78 40.997532 63.78 40.035988 63.381715 
C 39.327136 62.672864 38.618285 61.964012 38.22 61.002468 
C 38.22 60 38.22 58.997532 38.618285 58.035988 
C 39.327136 57.327136 40.035988 56.618285 40.997532 56.22 
C 42 56.22 43.002468 56.22 43.964012 56.618285 
C 44.672864 57.327136 45.381715 58.035988 45.78 58.997532 
C 45.78 60 45.78 61.002468 45.381715 61.964012 
C 44.672864 62.672864 43.964012 63.381715 43.002468 63.78 
z
M 54 64.2 
C 55.113853 64.2 56.182235 63.757462 56.969848 62.969848 
C 57.757462 62.182235 58.2 61.113853 58.2 60 
C 58.2 58.886147 57.757462 57.817765 56.969848 57.030152 
C 56.182235 56.242538 55.113853 55.8 54 55.8 
C 52.886147 55.8 51.817765 56.242538 51.030152 57.030152 
C 50.242538 57.817765 49.8 58.886147 49.8 60 
C 49.8 61.113853 50.242538 62.182235 51.030152 62.969848 
C 51.817765 63.757462 52.886147 64.2 54 64.2 
z
M 54 63.78 
C 54 63.78 52.997532 63.78 52.035988 63.381715 
C 51.327136 62.672864 50.618285 61.964012 50.22 61.002468 
C 50.22 60 50.22 58.997532 50.618285 58.035988 
C 51.327136 57.327136 52.035988 56.618285 52.997532 56.22 
C 54 56.22 55.002468 56.22 55.964012 56.618285 
C 56.672864 57.327136 57.381715 58.035988 57.78 58.997532 
C 57.78 60 57.78 61.002468 57.381715 61.964012 
C 56.672864 62.672864 55.964012 63.381715 55.002468 63.78 
z
M 66 64.2 
C 67.113853 64.2 68.182235 63.757462 68.969848 62.969848 
C 69.757462 62.182235 70.2 61.113853 70.2 60 
C 70.2 58.886147 69.757462 57.817765 68.969848 57.030152 
C 68.182235 56.242538 67.113853 55.8 66 55.8 
C 64.886147 55.8 63.817765 56.242538 63.030152 57.030152 
C 62.242538 57.817765 61.8 58.886147 61.8 60 
C 61.8 61.113853 62.242538 62.182235 63.030152 62.969848 
C 63.817765 63.757462 64.886147 64.2 66 64.2 
z
M 66 63.78 
C 66 63.78 64.997532 63.78 64.035988 63.381715 
C 63.327136 62.672864 62.618285 61.964012 62.22 61.002468 
C 62.22 60 62.22 58.997532 62.618285 58.035988 
C 63.327136 57.327136 64.035988 56.618285 64.997532 56.22 
C 66 56.22 67.002468 56.22 67.964012 56.618285 
C 68.672864 57.327136 69.381715 58.035988 69.78 58.997532 
C 69.78 60 69.78 61.002468 69.381715 61.964012 
C 68.672864 62.672864 67.964012 63.381715 67.002468 63.78 
z
M 0 52.2 
C 1.113853 52.2 2.182235 51.757462 2.969848 50.969848 
C 3.757462 50.182235 4.2 49.113853 4.2 48 
C 4.2 46.886147 3.757462 45.817765 2.969848 45.030152 
C 2.182235 44.242538 1.113853 43.8 0 43.8 
C -1.113853 43.8 -2.182235 44.242538 -2.969848 45.030152 
C -3.757462 45.817765 -4.2 46.886147 -4.2 48 
C -4.2 49.113853 -3.757462 50.182235 -2.969848 50.969848 
C -2.182235 51.757462 -1.113853 52.2 0 52.2 
z
M 0 51.78 
C 0 51.78 -1.002468 51.78 -1.964012 51.381715 
C -2.672864 50.672864 -3.381715 49.964012 -3.78 49.002468 
C -3.78 48 -3.78 46.997532 -3.381715 46.035988 
C -2.672864 45.327136 -1.964012 44.618285 -1.002468 44.22 
C 0 44.22 1.002468 44.22 1.964012 44.618285 
C 2.672864 45.327136 3.381715 46.035988 3.78 46.997532 
C 3.78 48 3.78 49.002468 3.381715 49.964012 
C 2.672864 50.672864 1.964012 51.381715 1.002468 51.78 
z
M 12 52.2 
C 13.113853 52.2 14.182235 51.757462 14.969848 50.969848 
C 15.757462 50.182235 16.2 49.113853 16.2 48 
C 16.2 46.886147 15.757462 45.817765 14.969848 45.030152 
C 14.182235 44.242538 13.113853 43.8 12 43.8 
C 10.886147 43.8 9.817765 44.242538 9.030152 45.030152 
C 8.242538 45.817765 7.8 46.886147 7.8 48 
C 7.8 49.113853 8.242538 50.182235 9.030152 50.969848 
C 9.817765 51.757462 10.886147 52.2 12 52.2 
z
M 12 51.78 
C 12 51.78 10.997532 51.78 10.035988 51.381715 
C 9.327136 50.672864 8.618285 49.964012 8.22 49.002468 
C 8.22 48 8.22 46.997532 8.618285 46.035988 
C 9.327136 45.327136 10.035988 44.618285 10.997532 44.22 
C 12 44.22 13.002468 44.22 13.964012 44.618285 
C 14.672864 45.327136 15.381715 46.035988 15.78 46.997532 
C 15.78 48 15.78 49.002468 15.381715 49.964012 
C 14.672864 50.672864 13.964012 51.381715 13.002468 51.78 
z
M 24 52.2 
C 25.113853 52.2 26.182235 51.757462 26.969848 50.969848 
C 27.757462 50.182235 28.2 49.113853 28.2 48 
C 28.2 46.886147 27.757462 45.817765 26.969848 45.030152 
C 26.182235 44.242538 25.113853 43.8 24 43.8 
C 22.886147 43.8 21.817765 44.242538 21.030152 45.030152 
C 20.242538 45.817765 19.8 46.886147 19.8 48 
C 19.8 49.113853 20.242538 50.182235 21.030152 50.969848 
C 21.817765 51.757462 22.886147 52.2 24 52.2 
z
M 24 51.78 
C 24 51.78 22.997532 51.78 22.035988 51.381715 
C 21.327136 50.672864 20.618285 49.964012 20.22 49.002468 
C 20.22 48 20.22 46.997532 20.618285 46.035988 
C 21.327136 45.327136 22.035988 44.618285 22.997532 44.22 
C 24 44.22 25.002468 44.22 25.964012 44.618285 
C 26.672864 45.327136 27.381715 46.035988 27.78 46.997532 
C 27.78 48 27.78 49.002468 27.381715 49.964012 
C 26.672864 50.672864 25.964012 51.381715 25.002468 51.78 
z
M 36 52.2 
C 37.113853 52.2 38.182235 51.757462 38.969848 50.969848 
C 39.757462 50.182235 40.2 49.113853 40.2 48 
C 40.2 46.886147 39.757462 45.817765 38.969848 45.030152 
C 38.182235 44.242538 37.113853 43.8 36 43.8 
C 34.886147 43.8 33.817765 44.242538 33.030152 45.030152 
C 32.242538 45.817765 31.8 46.886147 31.8 48 
C 31.8 49.113853 32.242538 50.182235 33.030152 50.969848 
C 33.817765 51.757462 34.886147 52.2 36 52.2 
z
M 36 51.78 
C 36 51.78 34.997532 51.78 34.035988 51.381715 
C 33.327136 50.672864 32.618285 49.964012 32.22 49.002468 
C 32.22 48 32.22 46.997532 32.618285 46.035988 
C 33.327136 45.327136 34.035988 44.618285 34.997532 44.22 
C 36 44.22 37.002468 44.22 37.964012 44.618285 
C 38.672864 45.327136 39.381715 46.035988 39.78 46.997532 
C 39.78 48 39.78 49.002468 39.381715 49.964012 
C 38.672864 50.672864 37.964012 51.381715 37.002468 51.78 
z
M 48 52.2 
C 49.113853 52.2 50.182235 51.757462 50.969848 50.969848 
C 51.757462 50.182235 52.2 49.113853 52.2 48 
C 52.2 46.886147 51.757462 45.817765 50.969848 45.030152 
C 50.182235 44.242538 49.113853 43.8 48 43.8 
C 46.886147 43.8 45.817765 44.242538 45.030152 45.030152 
C 44.242538 45.817765 43.8 46.886147 43.8 48 
C 43.8 49.113853 44.242538 50.182235 45.030152 50.969848 
C 45.817765 51.757462 46.886147 52.2 48 52.2 
z
M 48 51.78 
C 48 51.78 46.997532 51.78 46.035988 51.381715 
C 45.327136 50.672864 44.618285 49.964012 44.22 49.002468 
C 44.22 48 44.22 46.997532 44.618285 46.035988 
C 45.327136 45.327136 46.035988 44.618285 46.997532 44.22 
C 48 44.22 49.002468 44.22 49.964012 44.618285 
C 50.672864 45.327136 51.381715 46.035988 51.78 46.997532 
C 51.78 48 51.78 49.002468 51.381715 49.964012 
C 50.672864 50.672864 49.964012 51.381715 49.002468 51.78 
z
M 60 52.2 
C 61.113853 52.2 62.182235 51.757462 62.969848 50.969848 
C 63.757462 50.182235 64.2 49.113853 64.2 48 
C 64.2 46.886147 63.757462 45.817765 62.969848 45.030152 
C 62.182235 44.242538 61.113853 43.8 60 43.8 
C 58.886147 43.8 57.817765 44.242538 57.030152 45.030152 
C 56.242538 45.817765 55.8 46.886147 55.8 48 
C 55.8 49.113853 56.242538 50.182235 57.030152 50.969848 
C 57.817765 51.757462 58.886147 52.2 60 52.2 
z
M 60 51.78 
C 60 51.78 58.997532 51.78 58.035988 51.381715 
C 57.327136 50.672864 56.618285 49.964012 56.22 49.002468 
C 56.22 48 56.22 46.997532 56.618285 46.035988 
C 57.327136 45.327136 58.035988 44.618285 58.997532 44.22 
C 60 44.22 61.002468 44.22 61.964012 44.618285 
C 62.672864 45.327136 63.381715 46.035988 63.78 46.997532 
C 63.78 48 63.78 49.002468 63.381715 49.964012 
C 62.672864 50.672864 61.964012 51.381715 61.002468 51.78 
z
M 72 52.2 
C 73.113853 52.2 74.182235 51.757462 74.969848 50.969848 
C 75.757462 50.182235 76.2 49.113853 76.2 48 
C 76.2 46.886147 75.757462 45.817765 74.969848 45.030152 
C 74.182235 44.242538 73.113853 43.8 72 43.8 
C 70.886147 43.8 69.817765 44.242538 69.030152 45.030152 
C 68.242538 45.817765 67.8 46.886147 67.8 48 
C 67.8 49.113853 68.242538 50.182235 69.030152 50.969848 
C 69.817765 51.757462 70.886147 52.2 72 52.2 
z
M 72 51.78 
C 72 51.78 70.997532 51.78 70.035988 51.381715 
C 69.327136 50.672864 68.618285 49.964012 68.22 49.002468 
C 68.22 48 68.22 46.997532 68.618285 46.035988 
C 69.327136 45.327136 70.035988 44.618285 70.997532 44.22 
C 72 44.22 73.002468 44.22 73.964012 44.618285 
C 74.672864 45.327136 75.381715 46.035988 75.78 46.997532 
C 75.78 48 75.78 49.002468 75.381715 49.964012 
C 74.672864 50.672864 73.964012 51.381715 73.002468 51.78 
z
M 6 40.2 
C 7.113853 40.2 8.182235 39.757462 8.969848 38.969848 
C 9.757462 38.182235 10.2 37.113853 10.2 36 
C 10.2 34.886147 9.757462 33.817765 8.969848 33.030152 
C 8.182235 32.242538 7.113853 31.8 6 31.8 
C 4.886147 31.8 3.817765 32.242538 3.030152 33.030152 
C 2.242538 33.817765 1.8 34.886147 1.8 36 
C 1.8 37.113853 2.242538 38.182235 3.030152 38.969848 
C 3.817765 39.757462 4.886147 40.2 6 40.2 
z
M 6 39.78 
C 6 39.78 4.997532 39.78 4.035988 39.381715 
C 3.327136 38.672864 2.618285 37.964012 2.22 37.002468 
C 2.22 36 2.22 34.997532 2.618285 34.035988 
C 3.327136 33.327136 4.035988 32.618285 4.997532 32.22 
C 6 32.22 7.002468 32.22 7.964012 32.618285 
C 8.672864 33.327136 9.381715 34.035988 9.78 34.997532 
C 9.78 36 9.78 37.002468 9.381715 37.964012 
C 8.672864 38.672864 7.964012 39.381715 7.002468 39.78 
z
M 18 40.2 
C 19.113853 40.2 20.182235 39.757462 20.969848 38.969848 
C 21.757462 38.182235 22.2 37.113853 22.2 36 
C 22.2 34.886147 21.757462 33.817765 20.969848 33.030152 
C 20.182235 32.242538 19.113853 31.8 18 31.8 
C 16.886147 31.8 15.817765 32.242538 15.030152 33.030152 
C 14.242538 33.817765 13.8 34.886147 13.8 36 
C 13.8 37.113853 14.242538 38.182235 15.030152 38.969848 
C 15.817765 39.757462 16.886147 40.2 18 40.2 
z
M 18 39.78 
C 18 39.78 16.997532 39.78 16.035988 39.381715 
C 15.327136 38.672864 14.618285 37.964012 14.22 37.002468 
C 14.22 36 14.22 34.997532 14.618285 34.035988 
C 15.327136 33.327136 16.035988 32.618285 16.997532 32.22 
C 18 32.22 19.002468 32.22 19.964012 32.618285 
C 20.672864 33.327136 21.381715 34.035988 21.78 34.997532 
C 21.78 36 21.78 37.002468 21.381715 37.964012 
C 20.672864 38.672864 19.964012 39.381715 19.002468 39.78 
z
M 30 40.2 
C 31.113853 40.2 32.182235 39.757462 32.969848 38.969848 
C 33.757462 38.182235 34.2 37.113853 34.2 36 
C 34.2 34.886147 33.757462 33.817765 32.969848 33.030152 
C 32.182235 32.242538 31.113853 31.8 30 31.8 
C 28.886147 31.8 27.817765 32.242538 27.030152 33.030152 
C 26.242538 33.817765 25.8 34.886147 25.8 36 
C 25.8 37.113853 26.242538 38.182235 27.030152 38.969848 
C 27.817765 39.757462 28.886147 40.2 30 40.2 
z
M 30 39.78 
C 30 39.78 28.997532 39.78 28.035988 39.381715 
C 27.327136 38.672864 26.618285 37.964012 26.22 37.002468 
C 26.22 36 26.22 34.997532 26.618285 34.035988 
C 27.327136 33.327136 28.035988 32.618285 28.997532 32.22 
C 30 32.22 31.002468 32.22 31.964012 32.618285 
C 32.672864 33.327136 33.381715 34.035988 33.78 34.997532 
C 33.78 36 33.78 37.002468 33.381715 37.964012 
C 32.672864 38.672864 31.964012 39.381715 31.002468 39.78 
z
M 42 40.2 
C 43.113853 40.2 44.182235 39.757462 44.969848 38.969848 
C 45.757462 38.182235 46.2 37.113853 46.2 36 
C 46.2 34.886147 45.757462 33.817765 44.969848 33.030152 
C 44.182235 32.242538 43.113853 31.8 42 31.8 
C 40.886147 31.8 39.817765 32.242538 39.030152 33.030152 
C 38.242538 33.817765 37.8 34.886147 37.8 36 
C 37.8 37.113853 38.242538 38.182235 39.030152 38.969848 
C 39.817765 39.757462 40.886147 40.2 42 40.2 
z
M 42 39.78 
C 42 39.78 40.997532 39.78 40.035988 39.381715 
C 39.327136 38.672864 38.618285 37.964012 38.22 37.002468 
C 38.22 36 38.22 34.997532 38.618285 34.035988 
C 39.327136 33.327136 40.035988 32.618285 40.997532 32.22 
C 42 32.22 43.002468 32.22 43.964012 32.618285 
C 44.672864 33.327136 45.381715 34.035988 45.78 34.997532 
C 45.78 36 45.78 37.002468 45.381715 37.964012 
C 44.672864 38.672864 43.964012 39.381715 43.002468 39.78 
z
M 54 40.2 
C 55.113853 40.2 56.182235 39.757462 56.969848 38.969848 
C 57.757462 38.182235 58.2 37.113853 58.2 36 
C 58.2 34.886147 57.757462 33.817765 56.969848 33.030152 
C 56.182235 32.242538 55.113853 31.8 54 31.8 
C 52.886147 31.8 51.817765 32.242538 51.030152 33.030152 
C 50.242538 33.817765 49.8 34.886147 49.8 36 
C 49.8 37.113853 50.242538 38.182235 51.030152 38.969848 
C 51.817765 39.757462 52.886147 40.2 54 40.2 
z
M 54 39.78 
C 54 39.78 52.997532 39.78 52.035988 39.381715 
C 51.327136 38.672864 50.618285 37.964012 50.22 37.002468 
C 50.22 36 50.22 34.997532 50.618285 34.035988 
C 51.327136 33.327136 52.035988 32.618285 52.997532 32.22 
C 54 32.22 55.002468 32.22 55.964012 32.618285 
C 56.672864 33.327136 57.381715 34.035988 57.78 34.997532 
C 57.78 36 57.78 37.002468 57.381715 37.964012 
C 56.672864 38.672864 55.964012 39.381715 55.002468 39.78 
z
M 66 40.2 
C 67.113853 40.2 68.182235 39.757462 68.969848 38.969848 
C 69.757462 38.182235 70.2 37.113853 70.2 36 
C 70.2 34.886147 69.757462 33.817765 68.969848 33.030152 
C 68.182235 32.242538 67.113853 31.8 66 31.8 
C 64.886147 31.8 63.817765 32.242538 63.030152 33.030152 
C 62.242538 33.817765 61.8 34.886147 61.8 36 
C 61.8 37.113853 62.242538 38.182235 63.030152 38.969848 
C 63.817765 39.757462 64.886147 40.2 66 40.2 
z
M 66 39.78 
C 66 39.78 64.997532 39.78 64.035988 39.381715 
C 63.327136 38.672864 62.618285 37.964012 62.22 37.002468 
C 62.22 36 62.22 34.997532 62.618285 34.035988 
C 63.327136 33.327136 64.035988 32.618285 64.997532 32.22 
C 66 32.22 67.002468 32.22 67.964012 32.618285 
C 68.672864 33.327136 69.381715 34.035988 69.78 34.997532 
C 69.78 36 69.78 37.002468 69.381715 37.964012 
C 68.672864 38.672864 67.964012 39.381715 67.002468 39.78 
z
M 0 28.2 
C 1.113853 28.2 2.182235 27.757462 2.969848 26.969848 
C 3.757462 26.182235 4.2 25.113853 4.2 24 
C 4.2 22.886147 3.757462 21.817765 2.969848 21.030152 
C 2.182235 20.242538 1.113853 19.8 0 19.8 
C -1.113853 19.8 -2.182235 20.242538 -2.969848 21.030152 
C -3.757462 21.817765 -4.2 22.886147 -4.2 24 
C -4.2 25.113853 -3.757462 26.182235 -2.969848 26.969848 
C -2.182235 27.757462 -1.113853 28.2 0 28.2 
z
M 0 27.78 
C 0 27.78 -1.002468 27.78 -1.964012 27.381715 
C -2.672864 26.672864 -3.381715 25.964012 -3.78 25.002468 
C -3.78 24 -3.78 22.997532 -3.381715 22.035988 
C -2.672864 21.327136 -1.964012 20.618285 -1.002468 20.22 
C 0 20.22 1.002468 20.22 1.964012 20.618285 
C 2.672864 21.327136 3.381715 22.035988 3.78 22.997532 
C 3.78 24 3.78 25.002468 3.381715 25.964012 
C 2.672864 26.672864 1.964012 27.381715 1.002468 27.78 
z
M 12 28.2 
C 13.113853 28.2 14.182235 27.757462 14.969848 26.969848 
C 15.757462 26.182235 16.2 25.113853 16.2 24 
C 16.2 22.886147 15.757462 21.817765 14.969848 21.030152 
C 14.182235 20.242538 13.113853 19.8 12 19.8 
C 10.886147 19.8 9.817765 20.242538 9.030152 21.030152 
C 8.242538 21.817765 7.8 22.886147 7.8 24 
C 7.8 25.113853 8.242538 26.182235 9.030152 26.969848 
C 9.817765 27.757462 10.886147 28.2 12 28.2 
z
M 12 27.78 
C 12 27.78 10.997532 27.78 10.035988 27.381715 
C 9.327136 26.672864 8.618285 25.964012 8.22 25.002468 
C 8.22 24 8.22 22.997532 8.618285 22.035988 
C 9.327136 21.327136 10.035988 20.618285 10.997532 20.22 
C 12 20.22 13.002468 20.22 13.964012 20.618285 
C 14.672864 21.327136 15.381715 22.035988 15.78 22.997532 
C 15.78 24 15.78 25.002468 15.381715 25.964012 
C 14.672864 26.672864 13.964012 27.381715 13.002468 27.78 
z
M 24 28.2 
C 25.113853 28.2 26.182235 27.757462 26.969848 26.969848 
C 27.757462 26.182235 28.2 25.113853 28.2 24 
C 28.2 22.886147 27.757462 21.817765 26.969848 21.030152 
C 26.182235 20.242538 25.113853 19.8 24 19.8 
C 22.886147 19.8 21.817765 20.242538 21.030152 21.030152 
C 20.242538 21.817765 19.8 22.886147 19.8 24 
C 19.8 25.113853 20.242538 26.182235 21.030152 26.969848 
C 21.817765 27.757462 22.886147 28.2 24 28.2 
z
M 24 27.78 
C 24 27.78 22.997532 27.78 22.035988 27.381715 
C 21.327136 26.672864 20.618285 25.964012 20.22 25.002468 
C 20.22 24 20.22 22.997532 20.618285 22.035988 
C 21.327136 21.327136 22.035988 20.618285 22.997532 20.22 
C 24 20.22 25.002468 20.22 25.964012 20.618285 
C 26.672864 21.327136 27.381715 22.035988 27.78 22.997532 
C 27.78 24 27.78 25.002468 27.381715 25.964012 
C 26.672864 26.672864 25.964012 27.381715 25.002468 27.78 
z
M 36 28.2 
C 37.113853 28.2 38.182235 27.757462 38.969848 26.969848 
C 39.757462 26.182235 40.2 25.113853 40.2 24 
C 40.2 22.886147 39.757462 21.817765 38.969848 21.030152 
C 38.182235 20.242538 37.113853 19.8 36 19.8 
C 34.886147 19.8 33.817765 20.242538 33.030152 21.030152 
C 32.242538 21.817765 31.8 22.886147 31.8 24 
C 31.8 25.113853 32.242538 26.182235 33.030152 26.969848 
C 33.817765 27.757462 34.886147 28.2 36 28.2 
z
M 36 27.78 
C 36 27.78 34.997532 27.78 34.035988 27.381715 
C 33.327136 26.672864 32.618285 25.964012 32.22 25.002468 
C 32.22 24 32.22 22.997532 32.618285 22.035988 
C 33.327136 21.327136 34.035988 20.618285 34.997532 20.22 
C 36 20.22 37.002468 20.22 37.964012 20.618285 
C 38.672864 21.327136 39.381715 22.035988 39.78 22.997532 
C 39.78 24 39.78 25.002468 39.381715 25.964012 
C 38.672864 26.672864 37.964012 27.381715 37.002468 27.78 
z
M 48 28.2 
C 49.113853 28.2 50.182235 27.757462 50.969848 26.969848 
C 51.757462 26.182235 52.2 25.113853 52.2 24 
C 52.2 22.886147 51.757462 21.817765 50.969848 21.030152 
C 50.182235 20.242538 49.113853 19.8 48 19.8 
C 46.886147 19.8 45.817765 20.242538 45.030152 21.030152 
C 44.242538 21.817765 43.8 22.886147 43.8 24 
C 43.8 25.113853 44.242538 26.182235 45.030152 26.969848 
C 45.817765 27.757462 46.886147 28.2 48 28.2 
z
M 48 27.78 
C 48 27.78 46.997532 27.78 46.035988 27.381715 
C 45.327136 26.672864 44.618285 25.964012 44.22 25.002468 
C 44.22 24 44.22 22.997532 44.618285 22.035988 
C 45.327136 21.327136 46.035988 20.618285 46.997532 20.22 
C 48 20.22 49.002468 20.22 49.964012 20.618285 
C 50.672864 21.327136 51.381715 22.035988 51.78 22.997532 
C 51.78 24 51.78 25.002468 51.381715 25.964012 
C 50.672864 26.672864 49.964012 27.381715 49.002468 27.78 
z
M 60 28.2 
C 61.113853 28.2 62.182235 27.757462 62.969848 26.969848 
C 63.757462 26.182235 64.2 25.113853 64.2 24 
C 64.2 22.886147 63.757462 21.817765 62.969848 21.030152 
C 62.182235 20.242538 61.113853 19.8 60 19.8 
C 58.886147 19.8 57.817765 20.242538 57.030152 21.030152 
C 56.242538 21.817765 55.8 22.886147 55.8 24 
C 55.8 25.113853 56.242538 26.182235 57.030152 26.969848 
C 57.817765 27.757462 58.886147 28.2 60 28.2 
z
M 60 27.78 
C 60 27.78 58.997532 27.78 58.035988 27.381715 
C 57.327136 26.672864 56.618285 25.964012 56.22 25.002468 
C 56.22 24 56.22 22.997532 56.618285 22.035988 
C 57.327136 21.327136 58.035988 20.618285 58.997532 20.22 
C 60 20.22 61.002468 20.22 61.964012 20.618285 
C 62.672864 21.327136 63.381715 22.035988 63.78 22.997532 
C 63.78 24 63.78 25.002468 63.381715 25.964012 
C 62.672864 26.672864 61.964012 27.381715 61.002468 27.78 
z
M 72 28.2 
C 73.113853 28.2 74.182235 27.757462 74.969848 26.969848 
C 75.757462 26.182235 76.2 25.113853 76.2 24 
C 76.2 22.886147 75.757462 21.817765 74.969848 21.030152 
C 74.182235 20.242538 73.113853 19.8 72 19.8 
C 70.886147 19.8 69.817765 20.242538 69.030152 21.030152 
C 68.242538 21.817765 67.8 22.886147 67.8 24 
C 67.8 25.113853 68.242538 26.182235 69.030152 26.969848 
C 69.817765 27.757462 70.886147 28.2 72 28.2 
z
M 72 27.78 
C 72 27.78 70.997532 27.78 70.035988 27.381715 
C 69.327136 26.672864 68.618285 25.964012 68.22 25.002468 
C 68.22 24 68.22 22.997532 68.618285 22.035988 
C 69.327136 21.327136 70.035988 20.618285 70.997532 20.22 
C 72 20.22 73.002468 20.22 73.964012 20.618285 
C 74.672864 21.327136 75.381715 22.035988 75.78 22.997532 
C 75.78 24 75.78 25.002468 75.381715 25.964012 
C 74.672864 26.672864 73.964012 27.381715 73.002468 27.78 
z
M 6 16.2 
C 7.113853 16.2 8.182235 15.757462 8.969848 14.969848 
C 9.757462 14.182235 10.2 13.113853 10.2 12 
C 10.2 10.886147 9.757462 9.817765 8.969848 9.030152 
C 8.182235 8.242538 7.113853 7.8 6 7.8 
C 4.886147 7.8 3.817765 8.242538 3.030152 9.030152 
C 2.242538 9.817765 1.8 10.886147 1.8 12 
C 1.8 13.113853 2.242538 14.182235 3.030152 14.969848 
C 3.817765 15.757462 4.886147 16.2 6 16.2 
z
M 6 15.78 
C 6 15.78 4.997532 15.78 4.035988 15.381715 
C 3.327136 14.672864 2.618285 13.964012 2.22 13.002468 
C 2.22 12 2.22 10.997532 2.618285 10.035988 
C 3.327136 9.327136 4.035988 8.618285 4.997532 8.22 
C 6 8.22 7.002468 8.22 7.964012 8.618285 
C 8.672864 9.327136 9.381715 10.035988 9.78 10.997532 
C 9.78 12 9.78 13.002468 9.381715 13.964012 
C 8.672864 14.672864 7.964012 15.381715 7.002468 15.78 
z
M 18 16.2 
C 19.113853 16.2 20.182235 15.757462 20.969848 14.969848 
C 21.757462 14.182235 22.2 13.113853 22.2 12 
C 22.2 10.886147 21.757462 9.817765 20.969848 9.030152 
C 20.182235 8.242538 19.113853 7.8 18 7.8 
C 16.886147 7.8 15.817765 8.242538 15.030152 9.030152 
C 14.242538 9.817765 13.8 10.886147 13.8 12 
C 13.8 13.113853 14.242538 14.182235 15.030152 14.969848 
C 15.817765 15.757462 16.886147 16.2 18 16.2 
z
M 18 15.78 
C 18 15.78 16.997532 15.78 16.035988 15.381715 
C 15.327136 14.672864 14.618285 13.964012 14.22 13.002468 
C 14.22 12 14.22 10.997532 14.618285 10.035988 
C 15.327136 9.327136 16.035988 8.618285 16.997532 8.22 
C 18 8.22 19.002468 8.22 19.964012 8.618285 
C 20.672864 9.327136 21.381715 10.035988 21.78 10.997532 
C 21.78 12 21.78 13.002468 21.381715 13.964012 
C 20.672864 14.672864 19.964012 15.381715 19.002468 15.78 
z
M 30 16.2 
C 31.113853 16.2 32.182235 15.757462 32.969848 14.969848 
C 33.757462 14.182235 34.2 13.113853 34.2 12 
C 34.2 10.886147 33.757462 9.817765 32.969848 9.030152 
C 32.182235 8.242538 31.113853 7.8 30 7.8 
C 28.886147 7.8 27.817765 8.242538 27.030152 9.030152 
C 26.242538 9.817765 25.8 10.886147 25.8 12 
C 25.8 13.113853 26.242538 14.182235 27.030152 14.969848 
C 27.817765 15.757462 28.886147 16.2 30 16.2 
z
M 30 15.78 
C 30 15.78 28.997532 15.78 28.035988 15.381715 
C 27.327136 14.672864 26.618285 13.964012 26.22 13.002468 
C 26.22 12 26.22 10.997532 26.618285 10.035988 
C 27.327136 9.327136 28.035988 8.618285 28.997532 8.22 
C 30 8.22 31.002468 8.22 31.964012 8.618285 
C 32.672864 9.327136 33.381715 10.035988 33.78 10.997532 
C 33.78 12 33.78 13.002468 33.381715 13.964012 
C 32.672864 14.672864 31.964012 15.381715 31.002468 15.78 
z
M 42 16.2 
C 43.113853 16.2 44.182235 15.757462 44.969848 14.969848 
C 45.757462 14.182235 46.2 13.113853 46.2 12 
C 46.2 10.886147 45.757462 9.817765 44.969848 9.030152 
C 44.182235 8.242538 43.113853 7.8 42 7.8 
C 40.886147 7.8 39.817765 8.242538 39.030152 9.030152 
C 38.242538 9.817765 37.8 10.886147 37.8 12 
C 37.8 13.113853 38.242538 14.182235 39.030152 14.969848 
C 39.817765 15.757462 40.886147 16.2 42 16.2 
z
M 42 15.78 
C 42 15.78 40.997532 15.78 40.035988 15.381715 
C 39.327136 14.672864 38.618285 13.964012 38.22 13.002468 
C 38.22 12 38.22 10.997532 38.618285 10.035988 
C 39.327136 9.327136 40.035988 8.618285 40.997532 8.22 
C 42 8.22 43.002468 8.22 43.964012 8.618285 
C 44.672864 9.327136 45.381715 10.035988 45.78 10.997532 
C 45.78 12 45.78 13.002468 45.381715 13.964012 
C 44.672864 14.672864 43.964012 15.381715 43.002468 15.78 
z
M 54 16.2 
C 55.113853 16.2 56.182235 15.757462 56.969848 14.969848 
C 57.757462 14.182235 58.2 13.113853 58.2 12 
C 58.2 10.886147 57.757462 9.817765 56.969848 9.030152 
C 56.182235 8.242538 55.113853 7.8 54 7.8 
C 52.886147 7.8 51.817765 8.242538 51.030152 9.030152 
C 50.242538 9.817765 49.8 10.886147 49.8 12 
C 49.8 13.113853 50.242538 14.182235 51.030152 14.969848 
C 51.817765 15.757462 52.886147 16.2 54 16.2 
z
M 54 15.78 
C 54 15.78 52.997532 15.78 52.035988 15.381715 
C 51.327136 14.672864 50.618285 13.964012 50.22 13.002468 
C 50.22 12 50.22 10.997532 50.618285 10.035988 
C 51.327136 9.327136 52.035988 8.618285 52.997532 8.22 
C 54 8.22 55.002468 8.22 55.964012 8.618285 
C 56.672864 9.327136 57.381715 10.035988 57.78 10.997532 
C 57.78 12 57.78 13.002468 57.381715 13.964012 
C 56.672864 14.672864 55.964012 15.381715 55.002468 15.78 
z
M 66 16.2 
C 67.113853 16.2 68.182235 15.757462 68.969848 14.969848 
C 69.757462 14.182235 70.2 13.113853 70.2 12 
C 70.2 10.886147 69.757462 9.817765 68.969848 9.030152 
C 68.182235 8.242538 67.113853 7.8 66 7.8 
C 64.886147 7.8 63.817765 8.242538 63.030152 9.030152 
C 62.242538 9.817765 61.8 10.886147 61.8 12 
C 61.8 13.113853 62.242538 14.182235 63.030152 14.969848 
C 63.817765 15.757462 64.886147 16.2 66 16.2 
z
M 66 15.78 
C 66 15.78 64.997532 15.78 64.035988 15.381715 
C 63.327136 14.672864 62.618285 13.964012 62.22 13.002468 
C 62.22 12 62.22 10.997532 62.618285 10.035988 
C 63.327136 9.327136 64.035988 8.618285 64.997532 8.22 
C 66 8.22 67.002468 8.22 67.964012 8.618285 
C 68.672864 9.327136 69.381715 10.035988 69.78 10.997532 
C 69.78 12 69.78 13.002468 69.381715 13.964012 
C 68.672864 14.672864 67.964012 15.381715 67.002468 15.78 
z
M 0 4.2 
C 1.113853 4.2 2.182235 3.757462 2.969848 2.969848 
C 3.757462 2.182235 4.2 1.113853 4.2 0 
C 4.2 -1.113853 3.757462 -2.182235 2.969848 -2.969848 
C 2.182235 -3.757462 1.113853 -4.2 0 -4.2 
C -1.113853 -4.2 -2.182235 -3.757462 -2.969848 -2.969848 
C -3.757462 -2.182235 -4.2 -1.113853 -4.2 0 
C -4.2 1.113853 -3.757462 2.182235 -2.969848 2.969848 
C -2.182235 3.757462 -1.113853 4.2 0 4.2 
z
M 0 3.78 
C 0 3.78 -1.002468 3.78 -1.964012 3.381715 
C -2.672864 2.672864 -3.381715 1.964012 -3.78 1.002468 
C -3.78 0 -3.78 -1.002468 -3.381715 -1.964012 
C -2.672864 -2.672864 -1.964012 -3.381715 -1.002468 -3.78 
C 0 -3.78 1.002468 -3.78 1.964012 -3.381715 
C 2.672864 -2.672864 3.381715 -1.964012 3.78 -1.002468 
C 3.78 0 3.78 1.002468 3.381715 1.964012 
C 2.672864 2.672864 1.964012 3.381715 1.002468 3.78 
z
M 12 4.2 
C 13.113853 4.2 14.182235 3.757462 14.969848 2.969848 
C 15.757462 2.182235 16.2 1.113853 16.2 0 
C 16.2 -1.113853 15.757462 -2.182235 14.969848 -2.969848 
C 14.182235 -3.757462 13.113853 -4.2 12 -4.2 
C 10.886147 -4.2 9.817765 -3.757462 9.030152 -2.969848 
C 8.242538 -2.182235 7.8 -1.113853 7.8 0 
C 7.8 1.113853 8.242538 2.182235 9.030152 2.969848 
C 9.817765 3.757462 10.886147 4.2 12 4.2 
z
M 12 3.78 
C 12 3.78 10.997532 3.78 10.035988 3.381715 
C 9.327136 2.672864 8.618285 1.964012 8.22 1.002468 
C 8.22 0 8.22 -1.002468 8.618285 -1.964012 
C 9.327136 -2.672864 10.035988 -3.381715 10.997532 -3.78 
C 12 -3.78 13.002468 -3.78 13.964012 -3.381715 
C 14.672864 -2.672864 15.381715 -1.964012 15.78 -1.002468 
C 15.78 0 15.78 1.002468 15.381715 1.964012 
C 14.672864 2.672864 13.964012 3.381715 13.002468 3.78 
z
M 24 4.2 
C 25.113853 4.2 26.182235 3.757462 26.969848 2.969848 
C 27.757462 2.182235 28.2 1.113853 28.2 0 
C 28.2 -1.113853 27.757462 -2.182235 26.969848 -2.969848 
C 26.182235 -3.757462 25.113853 -4.2 24 -4.2 
C 22.886147 -4.2 21.817765 -3.757462 21.030152 -2.969848 
C 20.242538 -2.182235 19.8 -1.113853 19.8 0 
C 19.8 1.113853 20.242538 2.182235 21.030152 2.969848 
C 21.817765 3.757462 22.886147 4.2 24 4.2 
z
M 24 3.78 
C 24 3.78 22.997532 3.78 22.035988 3.381715 
C 21.327136 2.672864 20.618285 1.964012 20.22 1.002468 
C 20.22 0 20.22 -1.002468 20.618285 -1.964012 
C 21.327136 -2.672864 22.035988 -3.381715 22.997532 -3.78 
C 24 -3.78 25.002468 -3.78 25.964012 -3.381715 
C 26.672864 -2.672864 27.381715 -1.964012 27.78 -1.002468 
C 27.78 0 27.78 1.002468 27.381715 1.964012 
C 26.672864 2.672864 25.964012 3.381715 25.002468 3.78 
z
M 36 4.2 
C 37.113853 4.2 38.182235 3.757462 38.969848 2.969848 
C 39.757462 2.182235 40.2 1.113853 40.2 0 
C 40.2 -1.113853 39.757462 -2.182235 38.969848 -2.969848 
C 38.182235 -3.757462 37.113853 -4.2 36 -4.2 
C 34.886147 -4.2 33.817765 -3.757462 33.030152 -2.969848 
C 32.242538 -2.182235 31.8 -1.113853 31.8 0 
C 31.8 1.113853 32.242538 2.182235 33.030152 2.969848 
C 33.817765 3.757462 34.886147 4.2 36 4.2 
z
M 36 3.78 
C 36 3.78 34.997532 3.78 34.035988 3.381715 
C 33.327136 2.672864 32.618285 1.964012 32.22 1.002468 
C 32.22 0 32.22 -1.002468 32.618285 -1.964012 
C 33.327136 -2.672864 34.035988 -3.381715 34.997532 -3.78 
C 36 -3.78 37.002468 -3.78 37.964012 -3.381715 
C 38.672864 -2.672864 39.381715 -1.964012 39.78 -1.002468 
C 39.78 0 39.78 1.002468 39.381715 1.964012 
C 38.672864 2.672864 37.964012 3.381715 37.002468 3.78 
z
M 48 4.2 
C 49.113853 4.2 50.182235 3.757462 50.969848 2.969848 
C 51.757462 2.182235 52.2 1.113853 52.2 0 
C 52.2 -1.113853 51.757462 -2.182235 50.969848 -2.969848 
C 50.182235 -3.757462 49.113853 -4.2 48 -4.2 
C 46.886147 -4.2 45.817765 -3.757462 45.030152 -2.969848 
C 44.242538 -2.182235 43.8 -1.113853 43.8 0 
C 43.8 1.113853 44.242538 2.182235 45.030152 2.969848 
C 45.817765 3.757462 46.886147 4.2 48 4.2 
z
M 48 3.78 
C 48 3.78 46.997532 3.78 46.035988 3.381715 
C 45.327136 2.672864 44.618285 1.964012 44.22 1.002468 
C 44.22 0 44.22 -1.002468 44.618285 -1.964012 
C 45.327136 -2.672864 46.035988 -3.381715 46.997532 -3.78 
C 48 -3.78 49.002468 -3.78 49.964012 -3.381715 
C 50.672864 -2.672864 51.381715 -1.964012 51.78 -1.002468 
C 51.78 0 51.78 1.002468 51.381715 1.964012 
C 50.672864 2.672864 49.964012 3.381715 49.002468 3.78 
z
M 60 4.2 
C 61.113853 4.2 62.182235 3.757462 62.969848 2.969848 
C 63.757462 2.182235 64.2 1.113853 64.2 0 
C 64.2 -1.113853 63.757462 -2.182235 62.969848 -2.969848 
C 62.182235 -3.757462 61.113853 -4.2 60 -4.2 
C 58.886147 -4.2 57.817765 -3.757462 57.030152 -2.969848 
C 56.242538 -2.182235 55.8 -1.113853 55.8 0 
C 55.8 1.113853 56.242538 2.182235 57.030152 2.969848 
C 57.817765 3.757462 58.886147 4.2 60 4.2 
z
M 60 3.78 
C 60 3.78 58.997532 3.78 58.035988 3.381715 
C 57.327136 2.672864 56.618285 1.964012 56.22 1.002468 
C 56.22 0 56.22 -1.002468 56.618285 -1.964012 
C 57.327136 -2.672864 58.035988 -3.381715 58.997532 -3.78 
C 60 -3.78 61.002468 -3.78 61.964012 -3.381715 
C 62.672864 -2.672864 63.381715 -1.964012 63.78 -1.002468 
C 63.78 0 63.78 1.002468 63.381715 1.964012 
C 62.672864 2.672864 61.964012 3.381715 61.002468 3.78 
z
M 72 4.2 
C 73.113853 4.2 74.182235 3.757462 74.969848 2.969848 
C 75.757462 2.182235 76.2 1.113853 76.2 0 
C 76.2 -1.113853 75.757462 -2.182235 74.969848 -2.969848 
C 74.182235 -3.757462 73.113853 -4.2 72 -4.2 
C 70.886147 -4.2 69.817765 -3.757462 69.030152 -2.969848 
C 68.242538 -2.182235 67.8 -1.113853 67.8 0 
C 67.8 1.113853 68.242538 2.182235 69.030152 2.969848 
C 69.817765 3.757462 70.886147 4.2 72 4.2 
z
M 72 3.78 
C 72 3.78 70.997532 3.78 70.035988 3.381715 
C 69.327136 2.672864 68.618285 1.964012 68.22 1.002468 
C 68.22 0 68.22 -1.002468 68.618285 -1.964012 
C 69.327136 -2.672864 70.035988 -3.381715 70.997532 -3.78 
C 72 -3.78 73.002468 -3.78 73.964012 -3.381715 
C 74.672864 -2.672864 75.381715 -1.964012 75.78 -1.002468 
C 75.78 0 75.78 1.002468 75.381715 1.964012 
C 74.672864 2.672864 73.964012 3.381715 73.002468 3.78 
z
" style="fill:#000000;stroke:#000000;stroke-linecap:butt;stroke-linejoin:miter;stroke-width:1.0;"/>
  </pattern>
  <pattern height="72" id="ha4d8e518a0" patternUnits="userSpaceOnUse" width="72" x="0" y="0">
   <rect fill="none" height="73" width="73" x="0" y="0"/>
   <path d="M -36 36 
L 36 -36 
M -24 48 
L 48 -24 
M -12 60 
L 60 -12 
M 0 72 
L 72 0 
M 12 84 
L 84 12 
M 24 96 
L 96 24 
M 36 108 
L 108 36 
" style="fill:#000000;stroke:#000000;stroke-linecap:butt;stroke-linejoin:miter;stroke-width:1.0;"/>
  </pattern>
 </defs>
</svg>
