<?xml version="1.0" encoding="utf-8" standalone="no"?>
<!DOCTYPE svg PUBLIC "-//W3C//DTD SVG 1.1//EN"
  "http://www.w3.org/Graphics/SVG/1.1/DTD/svg11.dtd">
<!-- Created with matplotlib (http://matplotlib.org/) -->
<svg height="648pt" version="1.1" viewBox="0 0 576 648" width="576pt" xmlns="http://www.w3.org/2000/svg" xmlns:xlink="http://www.w3.org/1999/xlink">
 <defs>
  <style type="text/css">
*{stroke-linecap:butt;stroke-linejoin:round;}
  </style>
 </defs>
 <g id="figure_1">
  <g id="patch_1">
   <path d="M 0 648 
L 576 648 
L 576 0 
L 0 0 
z
" style="fill:#ffffff;"/>
  </g>
  <g id="axes_1">
   <g id="patch_2">
    <path d="M 72 224.512941 
L 518.4 224.512941 
L 518.4 77.76 
L 72 77.76 
z
" style="fill:#ffffff;"/>
   </g>
   <g id="matplotlib.axis_1">
    <g id="xtick_1">
     <g id="line2d_1">
      <path clip-path="url(#p3f8012fe62)" d="M 173.454545 224.512941 
L 173.454545 77.76 
" style="fill:none;stroke:#b0b0b0;stroke-linecap:square;stroke-width:0.8;"/>
     </g>
     <g id="line2d_2">
      <defs>
       <path d="M 0 0 
L 0 3.5 
" id="mec59e60073" style="stroke:#000000;stroke-width:0.8;"/>
      </defs>
      <g>
       <use style="stroke:#000000;stroke-width:0.8;" x="173.454545" xlink:href="#mec59e60073" y="224.512941"/>
      </g>
     </g>
    </g>
    <g id="xtick_2">
     <g id="line2d_3">
      <path clip-path="url(#p3f8012fe62)" d="M 254.618182 224.512941 
L 254.618182 77.76 
" style="fill:none;stroke:#b0b0b0;stroke-linecap:square;stroke-width:0.8;"/>
     </g>
     <g id="line2d_4">
      <g>
       <use style="stroke:#000000;stroke-width:0.8;" x="254.618182" xlink:href="#mec59e60073" y="224.512941"/>
      </g>
     </g>
    </g>
    <g id="xtick_3">
     <g id="line2d_5">
      <path clip-path="url(#p3f8012fe62)" d="M 335.781818 224.512941 
L 335.781818 77.76 
" style="fill:none;stroke:#b0b0b0;stroke-linecap:square;stroke-width:0.8;"/>
     </g>
     <g id="line2d_6">
      <g>
       <use style="stroke:#000000;stroke-width:0.8;" x="335.781818" xlink:href="#mec59e60073" y="224.512941"/>
      </g>
     </g>
    </g>
    <g id="xtick_4">
     <g id="line2d_7">
      <path clip-path="url(#p3f8012fe62)" d="M 416.945455 224.512941 
L 416.945455 77.76 
" style="fill:none;stroke:#b0b0b0;stroke-linecap:square;stroke-width:0.8;"/>
     </g>
     <g id="line2d_8">
      <g>
       <use style="stroke:#000000;stroke-width:0.8;" x="416.945455" xlink:href="#mec59e60073" y="224.512941"/>
      </g>
     </g>
    </g>
    <g id="xtick_5">
     <g id="line2d_9">
      <path clip-path="url(#p3f8012fe62)" d="M 498.109091 224.512941 
L 498.109091 77.76 
" style="fill:none;stroke:#b0b0b0;stroke-linecap:square;stroke-width:0.8;"/>
     </g>
     <g id="line2d_10">
      <g>
       <use style="stroke:#000000;stroke-width:0.8;" x="498.109091" xlink:href="#mec59e60073" y="224.512941"/>
      </g>
     </g>
    </g>
   </g>
   <g id="matplotlib.axis_2">
    <g id="ytick_1">
     <g id="line2d_11">
      <path clip-path="url(#p3f8012fe62)" d="M 72 217.842001 
L 518.4 217.842001 
" style="fill:none;stroke:#b0b0b0;stroke-linecap:square;stroke-width:0.8;"/>
     </g>
     <g id="line2d_12">
      <defs>
       <path d="M 0 0 
L -3.5 0 
" id="mf10637e4e1" style="stroke:#000000;stroke-width:0.8;"/>
      </defs>
      <g>
       <use style="stroke:#000000;stroke-width:0.8;" x="72" xlink:href="#mf10637e4e1" y="217.842001"/>
      </g>
     </g>
     <g id="text_1">
      <!-- 25 -->
      <defs>
       <path d="M 45.84375 12.75 
L 41.21875 0 
L 2.15625 0 
L 2.15625 1.8125 
Q 19.390625 17.53125 26.421875 27.484375 
Q 33.453125 37.453125 33.453125 45.703125 
Q 33.453125 52 29.59375 56.046875 
Q 25.734375 60.109375 20.359375 60.109375 
Q 15.484375 60.109375 11.59375 57.25 
Q 7.71875 54.390625 5.859375 48.875 
L 4.046875 48.875 
Q 5.28125 57.90625 10.328125 62.734375 
Q 15.375 67.578125 22.953125 67.578125 
Q 31 67.578125 36.390625 62.40625 
Q 41.796875 57.234375 41.796875 50.203125 
Q 41.796875 45.171875 39.453125 40.140625 
Q 35.84375 32.234375 27.734375 23.390625 
Q 15.578125 10.109375 12.546875 7.375 
L 29.828125 7.375 
Q 35.109375 7.375 37.234375 7.765625 
Q 39.359375 8.15625 41.0625 9.34375 
Q 42.78125 10.546875 44.046875 12.75 
z
" id="TimesNewRomanPSMT-32"/>
       <path d="M 43.40625 66.21875 
L 39.59375 57.90625 
L 19.671875 57.90625 
L 15.328125 49.03125 
Q 28.265625 47.125 35.84375 39.40625 
Q 42.328125 32.765625 42.328125 23.78125 
Q 42.328125 18.5625 40.203125 14.109375 
Q 38.09375 9.671875 34.859375 6.546875 
Q 31.640625 3.421875 27.6875 1.515625 
Q 22.078125 -1.171875 16.15625 -1.171875 
Q 10.203125 -1.171875 7.484375 0.84375 
Q 4.78125 2.875 4.78125 5.328125 
Q 4.78125 6.6875 5.90625 7.734375 
Q 7.03125 8.796875 8.734375 8.796875 
Q 10.015625 8.796875 10.96875 8.40625 
Q 11.921875 8.015625 14.203125 6.390625 
Q 17.875 3.859375 21.625 3.859375 
Q 27.34375 3.859375 31.65625 8.171875 
Q 35.984375 12.5 35.984375 18.703125 
Q 35.984375 24.703125 32.125 29.90625 
Q 28.265625 35.109375 21.484375 37.9375 
Q 16.15625 40.140625 6.984375 40.484375 
L 19.671875 66.21875 
z
" id="TimesNewRomanPSMT-35"/>
      </defs>
      <g transform="translate(45 224.785751)scale(0.2 -0.2)">
       <use xlink:href="#TimesNewRomanPSMT-32"/>
       <use x="50" xlink:href="#TimesNewRomanPSMT-35"/>
      </g>
     </g>
    </g>
    <g id="ytick_2">
     <g id="line2d_13">
      <path clip-path="url(#p3f8012fe62)" d="M 72 160.224943 
L 518.4 160.224943 
" style="fill:none;stroke:#b0b0b0;stroke-linecap:square;stroke-width:0.8;"/>
     </g>
     <g id="line2d_14">
      <g>
       <use style="stroke:#000000;stroke-width:0.8;" x="72" xlink:href="#mf10637e4e1" y="160.224943"/>
      </g>
     </g>
     <g id="text_2">
      <!-- 26 -->
      <defs>
       <path d="M 44.828125 67.578125 
L 44.828125 65.765625 
Q 38.375 65.140625 34.296875 63.203125 
Q 30.21875 61.28125 26.234375 57.328125 
Q 22.265625 53.375 19.65625 48.515625 
Q 17.046875 43.65625 15.28125 36.96875 
Q 22.3125 41.796875 29.390625 41.796875 
Q 36.1875 41.796875 41.15625 36.328125 
Q 46.140625 30.859375 46.140625 22.265625 
Q 46.140625 13.96875 41.109375 7.125 
Q 35.0625 -1.171875 25.09375 -1.171875 
Q 18.3125 -1.171875 13.578125 3.328125 
Q 4.296875 12.0625 4.296875 25.984375 
Q 4.296875 34.859375 7.859375 42.859375 
Q 11.421875 50.875 18.03125 57.078125 
Q 24.65625 63.28125 30.703125 65.421875 
Q 36.765625 67.578125 42 67.578125 
z
M 14.453125 33.40625 
Q 13.578125 26.8125 13.578125 22.75 
Q 13.578125 18.0625 15.3125 12.5625 
Q 17.046875 7.078125 20.453125 3.859375 
Q 22.953125 1.5625 26.515625 1.5625 
Q 30.765625 1.5625 34.109375 5.5625 
Q 37.453125 9.578125 37.453125 17 
Q 37.453125 25.34375 34.125 31.4375 
Q 30.8125 37.546875 24.703125 37.546875 
Q 22.859375 37.546875 20.734375 36.765625 
Q 18.609375 35.984375 14.453125 33.40625 
z
" id="TimesNewRomanPSMT-36"/>
      </defs>
      <g transform="translate(45 167.168693)scale(0.2 -0.2)">
       <use xlink:href="#TimesNewRomanPSMT-32"/>
       <use x="50" xlink:href="#TimesNewRomanPSMT-36"/>
      </g>
     </g>
    </g>
    <g id="ytick_3">
     <g id="line2d_15">
      <path clip-path="url(#p3f8012fe62)" d="M 72 102.607884 
L 518.4 102.607884 
" style="fill:none;stroke:#b0b0b0;stroke-linecap:square;stroke-width:0.8;"/>
     </g>
     <g id="line2d_16">
      <g>
       <use style="stroke:#000000;stroke-width:0.8;" x="72" xlink:href="#mf10637e4e1" y="102.607884"/>
      </g>
     </g>
     <g id="text_3">
      <!-- 27 -->
      <defs>
       <path d="M 10.0625 66.21875 
L 45.5625 66.21875 
L 45.5625 64.359375 
L 23.484375 -1.375 
L 18.015625 -1.375 
L 37.796875 58.25 
L 19.578125 58.25 
Q 14.0625 58.25 11.71875 56.9375 
Q 7.625 54.6875 5.125 50 
L 3.71875 50.53125 
z
" id="TimesNewRomanPSMT-37"/>
      </defs>
      <g transform="translate(45 109.551634)scale(0.2 -0.2)">
       <use xlink:href="#TimesNewRomanPSMT-32"/>
       <use x="50" xlink:href="#TimesNewRomanPSMT-37"/>
      </g>
     </g>
    </g>
    <g id="text_4">
     <!-- Room Temperature[$\circ$C] -->
     <defs>
      <path d="M 67.578125 0 
L 49.90625 0 
L 27.484375 30.953125 
Q 25 30.859375 23.4375 30.859375 
Q 22.796875 30.859375 22.0625 30.875 
Q 21.34375 30.90625 20.5625 30.953125 
L 20.5625 11.71875 
Q 20.5625 5.46875 21.921875 3.953125 
Q 23.78125 1.8125 27.484375 1.8125 
L 30.078125 1.8125 
L 30.078125 0 
L 1.703125 0 
L 1.703125 1.8125 
L 4.203125 1.8125 
Q 8.40625 1.8125 10.203125 4.546875 
Q 11.234375 6.0625 11.234375 11.71875 
L 11.234375 54.5 
Q 11.234375 60.75 9.859375 62.25 
Q 7.953125 64.40625 4.203125 64.40625 
L 1.703125 64.40625 
L 1.703125 66.21875 
L 25.828125 66.21875 
Q 36.375 66.21875 41.375 64.671875 
Q 46.390625 63.140625 49.875 59.015625 
Q 53.375 54.890625 53.375 49.171875 
Q 53.375 43.0625 49.390625 38.5625 
Q 45.40625 34.078125 37.0625 32.234375 
L 50.734375 13.234375 
Q 55.421875 6.6875 58.78125 4.53125 
Q 62.15625 2.390625 67.578125 1.8125 
z
M 20.5625 34.03125 
Q 21.484375 34.03125 22.171875 34 
Q 22.859375 33.984375 23.296875 33.984375 
Q 32.765625 33.984375 37.578125 38.078125 
Q 42.390625 42.1875 42.390625 48.53125 
Q 42.390625 54.734375 38.5 58.609375 
Q 34.625 62.5 28.21875 62.5 
Q 25.390625 62.5 20.5625 61.578125 
z
" id="TimesNewRomanPSMT-52"/>
      <path d="M 25 46.046875 
Q 35.15625 46.046875 41.3125 38.328125 
Q 46.53125 31.734375 46.53125 23.1875 
Q 46.53125 17.1875 43.640625 11.03125 
Q 40.765625 4.890625 35.71875 1.75 
Q 30.671875 -1.375 24.46875 -1.375 
Q 14.359375 -1.375 8.40625 6.6875 
Q 3.375 13.484375 3.375 21.921875 
Q 3.375 28.078125 6.421875 34.15625 
Q 9.46875 40.234375 14.453125 43.140625 
Q 19.4375 46.046875 25 46.046875 
z
M 23.484375 42.875 
Q 20.90625 42.875 18.28125 41.328125 
Q 15.671875 39.796875 14.0625 35.9375 
Q 12.453125 32.078125 12.453125 26.03125 
Q 12.453125 16.265625 16.328125 9.171875 
Q 20.21875 2.09375 26.5625 2.09375 
Q 31.296875 2.09375 34.375 6 
Q 37.453125 9.90625 37.453125 19.4375 
Q 37.453125 31.34375 32.328125 38.1875 
Q 28.859375 42.875 23.484375 42.875 
z
" id="TimesNewRomanPSMT-6f"/>
      <path d="M 16.40625 36.53125 
Q 21.296875 41.40625 22.171875 42.140625 
Q 24.359375 44 26.890625 45.015625 
Q 29.4375 46.046875 31.9375 46.046875 
Q 36.140625 46.046875 39.15625 43.59375 
Q 42.1875 41.15625 43.21875 36.53125 
Q 48.25 42.390625 51.703125 44.21875 
Q 55.171875 46.046875 58.84375 46.046875 
Q 62.40625 46.046875 65.15625 44.21875 
Q 67.921875 42.390625 69.53125 38.234375 
Q 70.609375 35.40625 70.609375 29.34375 
L 70.609375 10.109375 
Q 70.609375 5.90625 71.234375 4.34375 
Q 71.734375 3.265625 73.046875 2.515625 
Q 74.359375 1.765625 77.34375 1.765625 
L 77.34375 0 
L 55.28125 0 
L 55.28125 1.765625 
L 56.203125 1.765625 
Q 59.078125 1.765625 60.6875 2.875 
Q 61.8125 3.65625 62.3125 5.375 
Q 62.5 6.203125 62.5 10.109375 
L 62.5 29.34375 
Q 62.5 34.8125 61.1875 37.0625 
Q 59.28125 40.1875 55.078125 40.1875 
Q 52.484375 40.1875 49.875 38.890625 
Q 47.265625 37.59375 43.5625 34.078125 
L 43.453125 33.546875 
L 43.5625 31.453125 
L 43.5625 10.109375 
Q 43.5625 5.515625 44.0625 4.390625 
Q 44.578125 3.265625 45.984375 2.515625 
Q 47.40625 1.765625 50.828125 1.765625 
L 50.828125 0 
L 28.21875 0 
L 28.21875 1.765625 
Q 31.9375 1.765625 33.328125 2.640625 
Q 34.71875 3.515625 35.25 5.28125 
Q 35.5 6.109375 35.5 10.109375 
L 35.5 29.34375 
Q 35.5 34.8125 33.890625 37.203125 
Q 31.734375 40.328125 27.875 40.328125 
Q 25.25 40.328125 22.65625 38.921875 
Q 18.609375 36.765625 16.40625 34.078125 
L 16.40625 10.109375 
Q 16.40625 5.71875 17.015625 4.390625 
Q 17.625 3.078125 18.8125 2.421875 
Q 20.015625 1.765625 23.6875 1.765625 
L 23.6875 0 
L 1.5625 0 
L 1.5625 1.765625 
Q 4.640625 1.765625 5.859375 2.421875 
Q 7.078125 3.078125 7.703125 4.515625 
Q 8.34375 5.953125 8.34375 10.109375 
L 8.34375 27.203125 
Q 8.34375 34.578125 7.90625 36.71875 
Q 7.5625 38.328125 6.828125 38.9375 
Q 6.109375 39.546875 4.828125 39.546875 
Q 3.46875 39.546875 1.5625 38.8125 
L 0.828125 40.578125 
L 14.3125 46.046875 
L 16.40625 46.046875 
z
" id="TimesNewRomanPSMT-6d"/>
      <path id="TimesNewRomanPSMT-20"/>
      <path d="M 57.859375 66.21875 
L 58.59375 50.6875 
L 56.734375 50.6875 
Q 56.203125 54.78125 55.28125 56.546875 
Q 53.765625 59.375 51.25 60.71875 
Q 48.734375 62.0625 44.625 62.0625 
L 35.296875 62.0625 
L 35.296875 11.46875 
Q 35.296875 5.375 36.625 3.859375 
Q 38.484375 1.8125 42.328125 1.8125 
L 44.625 1.8125 
L 44.625 0 
L 16.546875 0 
L 16.546875 1.8125 
L 18.890625 1.8125 
Q 23.09375 1.8125 24.859375 4.34375 
Q 25.921875 5.90625 25.921875 11.46875 
L 25.921875 62.0625 
L 17.96875 62.0625 
Q 13.328125 62.0625 11.375 61.375 
Q 8.84375 60.453125 7.03125 57.8125 
Q 5.21875 55.171875 4.890625 50.6875 
L 3.03125 50.6875 
L 3.8125 66.21875 
z
" id="TimesNewRomanPSMT-54"/>
      <path d="M 10.640625 27.875 
Q 10.59375 17.921875 15.484375 12.25 
Q 20.359375 6.59375 26.953125 6.59375 
Q 31.34375 6.59375 34.59375 9 
Q 37.84375 11.421875 40.046875 17.28125 
L 41.546875 16.3125 
Q 40.53125 9.625 35.59375 4.125 
Q 30.671875 -1.375 23.25 -1.375 
Q 15.1875 -1.375 9.453125 4.90625 
Q 3.71875 11.1875 3.71875 21.78125 
Q 3.71875 33.25 9.59375 39.671875 
Q 15.484375 46.09375 24.359375 46.09375 
Q 31.890625 46.09375 36.71875 41.140625 
Q 41.546875 36.1875 41.546875 27.875 
z
M 10.640625 30.71875 
L 31.34375 30.71875 
Q 31.109375 35.015625 30.328125 36.765625 
Q 29.109375 39.5 26.6875 41.0625 
Q 24.265625 42.625 21.625 42.625 
Q 17.578125 42.625 14.375 39.46875 
Q 11.1875 36.328125 10.640625 30.71875 
z
" id="TimesNewRomanPSMT-65"/>
      <path d="M -0.09375 40.28125 
L 13.671875 45.84375 
L 15.53125 45.84375 
L 15.53125 35.40625 
Q 19 41.3125 22.484375 43.671875 
Q 25.984375 46.046875 29.828125 46.046875 
Q 36.578125 46.046875 41.0625 40.765625 
Q 46.578125 34.328125 46.578125 23.96875 
Q 46.578125 12.40625 39.9375 4.828125 
Q 34.46875 -1.375 26.171875 -1.375 
Q 22.5625 -1.375 19.921875 -0.34375 
Q 17.96875 0.390625 15.53125 2.59375 
L 15.53125 -11.03125 
Q 15.53125 -15.625 16.09375 -16.859375 
Q 16.65625 -18.109375 18.046875 -18.84375 
Q 19.4375 -19.578125 23.09375 -19.578125 
L 23.09375 -21.390625 
L -0.34375 -21.390625 
L -0.34375 -19.578125 
L 0.875 -19.578125 
Q 3.5625 -19.625 5.46875 -18.5625 
Q 6.390625 -18.015625 6.90625 -16.8125 
Q 7.421875 -15.625 7.421875 -10.75 
L 7.421875 31.546875 
Q 7.421875 35.890625 7.03125 37.0625 
Q 6.640625 38.234375 5.78125 38.8125 
Q 4.9375 39.40625 3.46875 39.40625 
Q 2.296875 39.40625 0.484375 38.71875 
z
M 15.53125 32.515625 
L 15.53125 15.828125 
Q 15.53125 10.40625 15.96875 8.6875 
Q 16.65625 5.859375 19.3125 3.703125 
Q 21.96875 1.5625 26.03125 1.5625 
Q 30.90625 1.5625 33.9375 5.375 
Q 37.890625 10.359375 37.890625 19.390625 
Q 37.890625 29.640625 33.40625 35.15625 
Q 30.28125 38.96875 25.984375 38.96875 
Q 23.640625 38.96875 21.34375 37.796875 
Q 19.578125 36.921875 15.53125 32.515625 
z
" id="TimesNewRomanPSMT-70"/>
      <path d="M 16.21875 46.046875 
L 16.21875 35.984375 
Q 21.828125 46.046875 27.734375 46.046875 
Q 30.421875 46.046875 32.171875 44.40625 
Q 33.9375 42.78125 33.9375 40.625 
Q 33.9375 38.71875 32.65625 37.390625 
Q 31.390625 36.078125 29.640625 36.078125 
Q 27.9375 36.078125 25.8125 37.765625 
Q 23.6875 39.453125 22.65625 39.453125 
Q 21.78125 39.453125 20.75 38.484375 
Q 18.5625 36.46875 16.21875 31.890625 
L 16.21875 10.453125 
Q 16.21875 6.734375 17.140625 4.828125 
Q 17.78125 3.515625 19.390625 2.640625 
Q 21 1.765625 24.03125 1.765625 
L 24.03125 0 
L 1.125 0 
L 1.125 1.765625 
Q 4.546875 1.765625 6.203125 2.828125 
Q 7.421875 3.609375 7.90625 5.328125 
Q 8.15625 6.15625 8.15625 10.0625 
L 8.15625 27.390625 
Q 8.15625 35.203125 7.828125 36.6875 
Q 7.515625 38.1875 6.65625 38.859375 
Q 5.8125 39.546875 4.546875 39.546875 
Q 3.03125 39.546875 1.125 38.8125 
L 0.640625 40.578125 
L 14.15625 46.046875 
z
" id="TimesNewRomanPSMT-72"/>
      <path d="M 28.46875 6.453125 
Q 21.578125 1.125 19.828125 0.296875 
Q 17.1875 -0.921875 14.203125 -0.921875 
Q 9.578125 -0.921875 6.5625 2.25 
Q 3.5625 5.421875 3.5625 10.59375 
Q 3.5625 13.875 5.03125 16.265625 
Q 7.03125 19.578125 11.984375 22.5 
Q 16.9375 25.4375 28.46875 29.640625 
L 28.46875 31.390625 
Q 28.46875 38.09375 26.34375 40.578125 
Q 24.21875 43.0625 20.171875 43.0625 
Q 17.09375 43.0625 15.28125 41.40625 
Q 13.421875 39.75 13.421875 37.59375 
L 13.53125 34.765625 
Q 13.53125 32.515625 12.375 31.296875 
Q 11.234375 30.078125 9.375 30.078125 
Q 7.5625 30.078125 6.421875 31.34375 
Q 5.28125 32.625 5.28125 34.8125 
Q 5.28125 39.015625 9.578125 42.53125 
Q 13.875 46.046875 21.625 46.046875 
Q 27.59375 46.046875 31.390625 44.046875 
Q 34.28125 42.53125 35.640625 39.3125 
Q 36.53125 37.203125 36.53125 30.71875 
L 36.53125 15.53125 
Q 36.53125 9.125 36.765625 7.6875 
Q 37.015625 6.25 37.578125 5.765625 
Q 38.140625 5.28125 38.875 5.28125 
Q 39.65625 5.28125 40.234375 5.609375 
Q 41.265625 6.25 44.1875 9.1875 
L 44.1875 6.453125 
Q 38.71875 -0.875 33.734375 -0.875 
Q 31.34375 -0.875 29.921875 0.78125 
Q 28.515625 2.4375 28.46875 6.453125 
z
M 28.46875 9.625 
L 28.46875 26.65625 
Q 21.09375 23.734375 18.953125 22.515625 
Q 15.09375 20.359375 13.421875 18.015625 
Q 11.765625 15.671875 11.765625 12.890625 
Q 11.765625 9.375 13.859375 7.046875 
Q 15.96875 4.734375 18.703125 4.734375 
Q 22.40625 4.734375 28.46875 9.625 
z
" id="TimesNewRomanPSMT-61"/>
      <path d="M 16.109375 59.421875 
L 16.109375 44.734375 
L 26.5625 44.734375 
L 26.5625 41.3125 
L 16.109375 41.3125 
L 16.109375 12.3125 
Q 16.109375 7.953125 17.359375 6.4375 
Q 18.609375 4.9375 20.5625 4.9375 
Q 22.171875 4.9375 23.6875 5.9375 
Q 25.203125 6.9375 26.03125 8.890625 
L 27.9375 8.890625 
Q 26.21875 4.109375 23.09375 1.6875 
Q 19.96875 -0.734375 16.65625 -0.734375 
Q 14.40625 -0.734375 12.25 0.515625 
Q 10.109375 1.765625 9.078125 4.078125 
Q 8.0625 6.390625 8.0625 11.234375 
L 8.0625 41.3125 
L 0.984375 41.3125 
L 0.984375 42.921875 
Q 3.65625 44 6.46875 46.5625 
Q 9.28125 49.125 11.46875 52.640625 
Q 12.59375 54.5 14.59375 59.421875 
z
" id="TimesNewRomanPSMT-74"/>
      <path d="M 42.328125 44.734375 
L 42.328125 17.625 
Q 42.328125 9.859375 42.6875 8.125 
Q 43.0625 6.390625 43.859375 5.703125 
Q 44.671875 5.03125 45.75 5.03125 
Q 47.265625 5.03125 49.171875 5.859375 
L 49.859375 4.15625 
L 36.46875 -1.375 
L 34.28125 -1.375 
L 34.28125 8.109375 
Q 28.515625 1.859375 25.484375 0.234375 
Q 22.46875 -1.375 19.09375 -1.375 
Q 15.328125 -1.375 12.5625 0.796875 
Q 9.8125 2.984375 8.734375 6.390625 
Q 7.671875 9.8125 7.671875 16.0625 
L 7.671875 36.03125 
Q 7.671875 39.203125 6.984375 40.421875 
Q 6.296875 41.65625 4.953125 42.3125 
Q 3.609375 42.96875 0.09375 42.921875 
L 0.09375 44.734375 
L 15.765625 44.734375 
L 15.765625 14.796875 
Q 15.765625 8.546875 17.9375 6.59375 
Q 20.125 4.640625 23.1875 4.640625 
Q 25.296875 4.640625 27.953125 5.953125 
Q 30.609375 7.28125 34.28125 10.984375 
L 34.28125 36.328125 
Q 34.28125 40.140625 32.890625 41.484375 
Q 31.5 42.828125 27.09375 42.921875 
L 27.09375 44.734375 
z
" id="TimesNewRomanPSMT-75"/>
      <path d="M 29.6875 -19.828125 
L 8.203125 -19.828125 
L 8.203125 67.71875 
L 29.6875 67.71875 
L 29.6875 63.875 
L 15.53125 63.875 
L 15.53125 -16.015625 
L 29.6875 -16.015625 
z
" id="TimesNewRomanPSMT-5b"/>
      <path d="M 31.296875 40.671875 
Q 27.390625 40.671875 24.703125 37.953125 
Q 22.015625 35.25 22.015625 31.34375 
Q 22.015625 27.484375 24.703125 24.828125 
Q 27.390625 22.171875 31.296875 22.171875 
Q 35.203125 22.171875 37.890625 24.828125 
Q 40.578125 27.484375 40.578125 31.34375 
Q 40.578125 35.203125 37.859375 37.9375 
Q 35.15625 40.671875 31.296875 40.671875 
z
M 31.296875 46.96875 
Q 34.421875 46.96875 37.296875 45.765625 
Q 40.1875 44.578125 42.28125 42.328125 
Q 44.53125 40.140625 45.65625 37.34375 
Q 46.78125 34.5625 46.78125 31.34375 
Q 46.78125 24.90625 42.265625 20.4375 
Q 37.75 15.96875 31.203125 15.96875 
Q 24.609375 15.96875 20.21875 20.359375 
Q 15.828125 24.75 15.828125 31.34375 
Q 15.828125 37.890625 20.3125 42.421875 
Q 24.8125 46.96875 31.296875 46.96875 
z
" id="DejaVuSans-2218"/>
      <path d="M 60.203125 67.71875 
L 61.71875 45.21875 
L 60.203125 45.21875 
Q 57.171875 55.328125 51.5625 59.765625 
Q 45.953125 64.203125 38.09375 64.203125 
Q 31.5 64.203125 26.171875 60.859375 
Q 20.84375 57.515625 17.796875 50.1875 
Q 14.75 42.875 14.75 31.984375 
Q 14.75 23 17.625 16.40625 
Q 20.515625 9.8125 26.296875 6.296875 
Q 32.078125 2.78125 39.5 2.78125 
Q 45.953125 2.78125 50.875 5.53125 
Q 55.8125 8.296875 61.71875 16.5 
L 63.234375 15.53125 
Q 58.25 6.6875 51.609375 2.578125 
Q 44.96875 -1.515625 35.84375 -1.515625 
Q 19.390625 -1.515625 10.359375 10.6875 
Q 3.609375 19.78125 3.609375 32.078125 
Q 3.609375 42 8.046875 50.296875 
Q 12.5 58.59375 20.28125 63.15625 
Q 28.078125 67.71875 37.3125 67.71875 
Q 44.484375 67.71875 51.46875 64.203125 
Q 53.515625 63.140625 54.390625 63.140625 
Q 55.71875 63.140625 56.6875 64.0625 
Q 57.953125 65.375 58.5 67.71875 
z
" id="TimesNewRomanPSMT-43"/>
      <path d="M 3.65625 67.71875 
L 25.140625 67.71875 
L 25.140625 -19.875 
L 3.65625 -19.875 
L 3.65625 -16.015625 
L 17.828125 -16.015625 
L 17.828125 63.875 
L 3.65625 63.875 
z
" id="TimesNewRomanPSMT-5d"/>
     </defs>
     <g transform="translate(36.6 248.836471)rotate(-90)scale(0.2 -0.2)">
      <use transform="translate(0 0.28125)" xlink:href="#TimesNewRomanPSMT-52"/>
      <use transform="translate(66.699219 0.28125)" xlink:href="#TimesNewRomanPSMT-6f"/>
      <use transform="translate(116.699219 0.28125)" xlink:href="#TimesNewRomanPSMT-6f"/>
      <use transform="translate(166.699219 0.28125)" xlink:href="#TimesNewRomanPSMT-6d"/>
      <use transform="translate(244.482422 0.28125)" xlink:href="#TimesNewRomanPSMT-20"/>
      <use transform="translate(269.482422 0.28125)" xlink:href="#TimesNewRomanPSMT-54"/>
      <use transform="translate(330.566406 0.28125)" xlink:href="#TimesNewRomanPSMT-65"/>
      <use transform="translate(374.951172 0.28125)" xlink:href="#TimesNewRomanPSMT-6d"/>
      <use transform="translate(452.734375 0.28125)" xlink:href="#TimesNewRomanPSMT-70"/>
      <use transform="translate(502.734375 0.28125)" xlink:href="#TimesNewRomanPSMT-65"/>
      <use transform="translate(547.119141 0.28125)" xlink:href="#TimesNewRomanPSMT-72"/>
      <use transform="translate(580.419922 0.28125)" xlink:href="#TimesNewRomanPSMT-61"/>
      <use transform="translate(624.804688 0.28125)" xlink:href="#TimesNewRomanPSMT-74"/>
      <use transform="translate(652.587891 0.28125)" xlink:href="#TimesNewRomanPSMT-75"/>
      <use transform="translate(702.587891 0.28125)" xlink:href="#TimesNewRomanPSMT-72"/>
      <use transform="translate(735.888672 0.28125)" xlink:href="#TimesNewRomanPSMT-65"/>
      <use transform="translate(780.273438 0.28125)" xlink:href="#TimesNewRomanPSMT-5b"/>
      <use transform="translate(813.574219 0.28125)" xlink:href="#DejaVuSans-2218"/>
      <use transform="translate(876.171875 0.28125)" xlink:href="#TimesNewRomanPSMT-43"/>
      <use transform="translate(942.871094 0.28125)" xlink:href="#TimesNewRomanPSMT-5d"/>
     </g>
    </g>
   </g>
   <g id="line2d_17">
    <path clip-path="url(#p3f8012fe62)" d="M 92.290909 217.842353 
L 178.865455 217.733336 
L 181.570909 217.469586 
L 184.276364 217.058136 
L 189.687273 215.895878 
L 195.098182 214.403053 
L 200.509091 212.678129 
L 208.625455 209.766329 
L 216.741818 206.557371 
L 224.858182 203.095213 
L 232.974545 199.418539 
L 241.090909 195.546689 
L 251.912727 190.11344 
L 262.734545 184.404133 
L 273.556364 178.453933 
L 287.083636 170.729576 
L 300.610909 162.732677 
L 316.843636 152.847329 
L 335.781818 140.997922 
L 354.72 128.895315 
L 379.069091 113.073834 
L 411.534545 91.678437 
L 419.650909 86.303213 
L 422.356364 84.891272 
L 425.061818 84.430588 
L 427.767273 84.77698 
L 430.472727 85.24118 
L 433.178182 85.450421 
L 438.589091 85.598121 
L 444 86.136171 
L 449.410909 86.734005 
L 454.821818 87.136663 
L 462.938182 87.474263 
L 473.76 87.701088 
L 498.109091 87.964838 
L 498.109091 87.964838 
" style="fill:none;stroke:#000000;stroke-dasharray:3,5,1,5,1,5;stroke-dashoffset:0;stroke-opacity:0.8;"/>
    <defs>
     <path d="M 0 6 
C 1.591219 6 3.117479 5.367802 4.242641 4.242641 
C 5.367802 3.117479 6 1.591219 6 0 
C 6 -1.591219 5.367802 -3.117479 4.242641 -4.242641 
C 3.117479 -5.367802 1.591219 -6 0 -6 
C -1.591219 -6 -3.117479 -5.367802 -4.242641 -4.242641 
C -5.367802 -3.117479 -6 -1.591219 -6 0 
C -6 1.591219 -5.367802 3.117479 -4.242641 4.242641 
C -3.117479 5.367802 -1.591219 6 0 6 
z
" id="m93b8d5fc0c" style="stroke:#000000;stroke-opacity:0.8;"/>
    </defs>
    <g clip-path="url(#p3f8012fe62)">
     <use style="fill-opacity:0;stroke:#000000;stroke-opacity:0.8;" x="92.290909" xlink:href="#m93b8d5fc0c" y="217.842353"/>
     <use style="fill-opacity:0;stroke:#000000;stroke-opacity:0.8;" x="140.989091" xlink:href="#m93b8d5fc0c" y="217.842353"/>
     <use style="fill-opacity:0;stroke:#000000;stroke-opacity:0.8;" x="189.687273" xlink:href="#m93b8d5fc0c" y="215.895878"/>
     <use style="fill-opacity:0;stroke:#000000;stroke-opacity:0.8;" x="238.385455" xlink:href="#m93b8d5fc0c" y="196.858406"/>
     <use style="fill-opacity:0;stroke:#000000;stroke-opacity:0.8;" x="287.083636" xlink:href="#m93b8d5fc0c" y="170.729576"/>
     <use style="fill-opacity:0;stroke:#000000;stroke-opacity:0.8;" x="335.781818" xlink:href="#m93b8d5fc0c" y="140.997922"/>
     <use style="fill-opacity:0;stroke:#000000;stroke-opacity:0.8;" x="384.48" xlink:href="#m93b8d5fc0c" y="109.527276"/>
     <use style="fill-opacity:0;stroke:#000000;stroke-opacity:0.8;" x="433.178182" xlink:href="#m93b8d5fc0c" y="85.450421"/>
     <use style="fill-opacity:0;stroke:#000000;stroke-opacity:0.8;" x="481.876364" xlink:href="#m93b8d5fc0c" y="87.803071"/>
    </g>
   </g>
   <g id="line2d_18">
    <path clip-path="url(#p3f8012fe62)" d="M 92.290909 217.842353 
L 178.865455 217.821253 
L 184.276364 217.527611 
L 186.981818 217.226936 
L 192.392727 216.309086 
L 197.803636 215.118695 
L 205.92 213.061445 
L 219.447273 209.310921 
L 235.68 204.867613 
L 246.501818 202.147472 
L 257.323636 199.696355 
L 265.44 198.050556 
L 273.556364 196.575314 
L 281.672727 195.272389 
L 292.494545 193.797148 
L 303.316364 192.612031 
L 314.138182 191.699457 
L 324.96 191.068215 
L 335.781818 190.649732 
L 349.309091 190.336748 
L 365.541818 190.183773 
L 384.48 190.257623 
L 403.418182 190.554782 
L 430.472727 191.092832 
L 433.178182 190.691932 
L 435.883636 190.05014 
L 446.705455 186.948441 
L 452.116364 185.241099 
L 460.232727 182.422491 
L 489.992727 171.747651 
L 498.109091 168.983551 
L 498.109091 168.983551 
" style="fill:none;stroke:#000000;stroke-dasharray:2,1;stroke-dashoffset:0;stroke-opacity:0.8;"/>
    <defs>
     <path d="M 0 3.5 
C 0.928211 3.5 1.81853 3.131218 2.474874 2.474874 
C 3.131218 1.81853 3.5 0.928211 3.5 0 
C 3.5 -0.928211 3.131218 -1.81853 2.474874 -2.474874 
C 1.81853 -3.131218 0.928211 -3.5 0 -3.5 
C -0.928211 -3.5 -1.81853 -3.131218 -2.474874 -2.474874 
C -3.131218 -1.81853 -3.5 -0.928211 -3.5 0 
C -3.5 0.928211 -3.131218 1.81853 -2.474874 2.474874 
C -1.81853 3.131218 -0.928211 3.5 0 3.5 
z
" id="m7ac042d5fd" style="stroke:#000000;stroke-opacity:0.8;"/>
    </defs>
    <g clip-path="url(#p3f8012fe62)">
     <use style="fill-opacity:0.8;stroke:#000000;stroke-opacity:0.8;" x="92.290909" xlink:href="#m7ac042d5fd" y="217.842353"/>
     <use style="fill-opacity:0.8;stroke:#000000;stroke-opacity:0.8;" x="140.989091" xlink:href="#m7ac042d5fd" y="217.842353"/>
     <use style="fill-opacity:0.8;stroke:#000000;stroke-opacity:0.8;" x="189.687273" xlink:href="#m7ac042d5fd" y="216.813728"/>
     <use style="fill-opacity:0.8;stroke:#000000;stroke-opacity:0.8;" x="238.385455" xlink:href="#m7ac042d5fd" y="204.16428"/>
     <use style="fill-opacity:0.8;stroke:#000000;stroke-opacity:0.8;" x="287.083636" xlink:href="#m7ac042d5fd" y="194.498723"/>
     <use style="fill-opacity:0.8;stroke:#000000;stroke-opacity:0.8;" x="335.781818" xlink:href="#m7ac042d5fd" y="190.649732"/>
     <use style="fill-opacity:0.8;stroke:#000000;stroke-opacity:0.8;" x="384.48" xlink:href="#m7ac042d5fd" y="190.257623"/>
     <use style="fill-opacity:0.8;stroke:#000000;stroke-opacity:0.8;" x="433.178182" xlink:href="#m7ac042d5fd" y="190.691932"/>
     <use style="fill-opacity:0.8;stroke:#000000;stroke-opacity:0.8;" x="481.876364" xlink:href="#m7ac042d5fd" y="174.590876"/>
    </g>
   </g>
   <g id="line2d_19">
    <path clip-path="url(#p3f8012fe62)" d="M 92.290909 217.842353 
L 178.865455 217.821253 
L 184.276364 217.527611 
L 186.981818 217.226936 
L 192.392727 216.309086 
L 197.803636 215.118695 
L 205.92 213.061445 
L 219.447273 209.310921 
L 235.68 204.867613 
L 246.501818 202.147472 
L 257.323636 199.696355 
L 265.44 198.050556 
L 273.556364 196.575314 
L 281.672727 195.272389 
L 292.494545 193.797148 
L 303.316364 192.612031 
L 314.138182 191.699457 
L 324.96 191.068215 
L 335.781818 190.649732 
L 349.309091 190.336748 
L 365.541818 190.183773 
L 384.48 190.257623 
L 403.418182 190.554782 
L 430.472727 191.092832 
L 433.178182 190.691932 
L 435.883636 190.05014 
L 446.705455 186.946682 
L 452.116364 185.241099 
L 460.232727 182.422491 
L 489.992727 171.747651 
L 498.109091 168.983551 
L 498.109091 168.983551 
" style="fill:none;stroke:#000000;stroke-dasharray:4,4;stroke-dashoffset:0;stroke-opacity:0.8;"/>
    <defs>
     <path d="M -0 6 
L 6 -6 
L -6 -6 
z
" id="m925999934a" style="stroke:#000000;stroke-linejoin:miter;stroke-opacity:0.8;"/>
    </defs>
    <g clip-path="url(#p3f8012fe62)">
     <use style="fill-opacity:0;stroke:#000000;stroke-linejoin:miter;stroke-opacity:0.8;" x="97.701818" xlink:href="#m925999934a" y="217.842353"/>
     <use style="fill-opacity:0;stroke:#000000;stroke-linejoin:miter;stroke-opacity:0.8;" x="146.4" xlink:href="#m925999934a" y="217.842353"/>
     <use style="fill-opacity:0;stroke:#000000;stroke-linejoin:miter;stroke-opacity:0.8;" x="195.098182" xlink:href="#m925999934a" y="215.739387"/>
     <use style="fill-opacity:0;stroke:#000000;stroke-linejoin:miter;stroke-opacity:0.8;" x="243.796364" xlink:href="#m925999934a" y="202.80333"/>
     <use style="fill-opacity:0;stroke:#000000;stroke-linejoin:miter;stroke-opacity:0.8;" x="292.494545" xlink:href="#m925999934a" y="193.797148"/>
     <use style="fill-opacity:0;stroke:#000000;stroke-linejoin:miter;stroke-opacity:0.8;" x="341.192727" xlink:href="#m925999934a" y="190.500273"/>
     <use style="fill-opacity:0;stroke:#000000;stroke-linejoin:miter;stroke-opacity:0.8;" x="389.890909" xlink:href="#m925999934a" y="190.322682"/>
     <use style="fill-opacity:0;stroke:#000000;stroke-linejoin:miter;stroke-opacity:0.8;" x="438.589091" xlink:href="#m925999934a" y="189.294057"/>
     <use style="fill-opacity:0;stroke:#000000;stroke-linejoin:miter;stroke-opacity:0.8;" x="487.287273" xlink:href="#m925999934a" y="172.686601"/>
    </g>
   </g>
   <g id="patch_3">
    <path d="M 72 224.512941 
L 72 77.76 
" style="fill:none;stroke:#000000;stroke-linecap:square;stroke-linejoin:miter;stroke-width:0.8;"/>
   </g>
   <g id="patch_4">
    <path d="M 518.4 224.512941 
L 518.4 77.76 
" style="fill:none;stroke:#000000;stroke-linecap:square;stroke-linejoin:miter;stroke-width:0.8;"/>
   </g>
   <g id="patch_5">
    <path d="M 72 224.512941 
L 518.4 224.512941 
" style="fill:none;stroke:#000000;stroke-linecap:square;stroke-linejoin:miter;stroke-width:0.8;"/>
   </g>
   <g id="patch_6">
    <path d="M 72 77.76 
L 518.4 77.76 
" style="fill:none;stroke:#000000;stroke-linecap:square;stroke-linejoin:miter;stroke-width:0.8;"/>
   </g>
   <g id="legend_1">
    <g id="patch_7">
     <path d="M 75.2 74.824941 
L 328 74.824941 
Q 331.2 74.824941 331.2 71.624941 
L 331.2 50.602441 
Q 331.2 47.402441 328 47.402441 
L 75.2 47.402441 
Q 72 47.402441 72 50.602441 
L 72 71.624941 
Q 72 74.824941 75.2 74.824941 
z
" style="fill:#ffffff;opacity:0.8;stroke:#cccccc;stroke-linejoin:miter;"/>
    </g>
    <g id="line2d_20">
     <path d="M 78.4 59.402441 
L 110.4 59.402441 
" style="fill:none;stroke:#000000;stroke-dasharray:3,5,1,5,1,5;stroke-dashoffset:0;stroke-opacity:0.8;"/>
    </g>
    <g id="line2d_21">
     <g>
      <use style="fill-opacity:0;stroke:#000000;stroke-opacity:0.8;" x="94.4" xlink:href="#m93b8d5fc0c" y="59.402441"/>
     </g>
    </g>
    <g id="text_5">
     <!-- $s_1$ -->
     <defs>
      <path d="M 50 53.078125 
L 48.296875 44.578125 
Q 44.734375 46.53125 40.765625 47.5 
Q 36.8125 48.484375 32.625 48.484375 
Q 25.53125 48.484375 21.453125 46.0625 
Q 17.390625 43.65625 17.390625 39.5 
Q 17.390625 34.671875 26.859375 32.078125 
Q 27.59375 31.890625 27.9375 31.78125 
L 30.8125 30.90625 
Q 39.796875 28.421875 42.796875 25.6875 
Q 45.796875 22.953125 45.796875 18.21875 
Q 45.796875 9.515625 38.890625 4.046875 
Q 31.984375 -1.421875 20.796875 -1.421875 
Q 16.453125 -1.421875 11.671875 -0.578125 
Q 6.890625 0.25 1.125 2 
L 2.875 11.28125 
Q 7.8125 8.734375 12.59375 7.421875 
Q 17.390625 6.109375 21.78125 6.109375 
Q 28.375 6.109375 32.5 8.9375 
Q 36.625 11.765625 36.625 16.109375 
Q 36.625 20.796875 25.78125 23.6875 
L 24.859375 23.921875 
L 21.78125 24.703125 
Q 14.9375 26.515625 11.765625 29.46875 
Q 8.59375 32.421875 8.59375 37.015625 
Q 8.59375 45.75 15.15625 50.875 
Q 21.734375 56 33.015625 56 
Q 37.453125 56 41.671875 55.265625 
Q 45.90625 54.546875 50 53.078125 
z
" id="DejaVuSans-Oblique-73"/>
      <path d="M 12.40625 8.296875 
L 28.515625 8.296875 
L 28.515625 63.921875 
L 10.984375 60.40625 
L 10.984375 69.390625 
L 28.421875 72.90625 
L 38.28125 72.90625 
L 38.28125 8.296875 
L 54.390625 8.296875 
L 54.390625 0 
L 12.40625 0 
z
" id="DejaVuSans-31"/>
     </defs>
     <g transform="translate(123.2 65.002441)scale(0.16 -0.16)">
      <use xlink:href="#DejaVuSans-Oblique-73"/>
      <use transform="translate(52.099609 -16.40625)scale(0.7)" xlink:href="#DejaVuSans-31"/>
     </g>
    </g>
    <g id="line2d_22">
     <path d="M 171.2 59.402441 
L 203.2 59.402441 
" style="fill:none;stroke:#000000;stroke-dasharray:2,1;stroke-dashoffset:0;stroke-opacity:0.8;"/>
    </g>
    <g id="line2d_23">
     <g>
      <use style="fill-opacity:0.8;stroke:#000000;stroke-opacity:0.8;" x="187.2" xlink:href="#m7ac042d5fd" y="59.402441"/>
     </g>
    </g>
    <g id="text_6">
     <!-- $s_2$ -->
     <defs>
      <path d="M 19.1875 8.296875 
L 53.609375 8.296875 
L 53.609375 0 
L 7.328125 0 
L 7.328125 8.296875 
Q 12.9375 14.109375 22.625 23.890625 
Q 32.328125 33.6875 34.8125 36.53125 
Q 39.546875 41.84375 41.421875 45.53125 
Q 43.3125 49.21875 43.3125 52.78125 
Q 43.3125 58.59375 39.234375 62.25 
Q 35.15625 65.921875 28.609375 65.921875 
Q 23.96875 65.921875 18.8125 64.3125 
Q 13.671875 62.703125 7.8125 59.421875 
L 7.8125 69.390625 
Q 13.765625 71.78125 18.9375 73 
Q 24.125 74.21875 28.421875 74.21875 
Q 39.75 74.21875 46.484375 68.546875 
Q 53.21875 62.890625 53.21875 53.421875 
Q 53.21875 48.921875 51.53125 44.890625 
Q 49.859375 40.875 45.40625 35.40625 
Q 44.1875 33.984375 37.640625 27.21875 
Q 31.109375 20.453125 19.1875 8.296875 
z
" id="DejaVuSans-32"/>
     </defs>
     <g transform="translate(216 65.002441)scale(0.16 -0.16)">
      <use xlink:href="#DejaVuSans-Oblique-73"/>
      <use transform="translate(52.099609 -16.40625)scale(0.7)" xlink:href="#DejaVuSans-32"/>
     </g>
    </g>
    <g id="line2d_24">
     <path d="M 264 59.402441 
L 296 59.402441 
" style="fill:none;stroke:#000000;stroke-dasharray:4,4;stroke-dashoffset:0;stroke-opacity:0.8;"/>
    </g>
    <g id="line2d_25">
     <g>
      <use style="fill-opacity:0;stroke:#000000;stroke-linejoin:miter;stroke-opacity:0.8;" x="280" xlink:href="#m925999934a" y="59.402441"/>
     </g>
    </g>
    <g id="text_7">
     <!-- $s_3$ -->
     <defs>
      <path d="M 40.578125 39.3125 
Q 47.65625 37.796875 51.625 33 
Q 55.609375 28.21875 55.609375 21.1875 
Q 55.609375 10.40625 48.1875 4.484375 
Q 40.765625 -1.421875 27.09375 -1.421875 
Q 22.515625 -1.421875 17.65625 -0.515625 
Q 12.796875 0.390625 7.625 2.203125 
L 7.625 11.71875 
Q 11.71875 9.328125 16.59375 8.109375 
Q 21.484375 6.890625 26.8125 6.890625 
Q 36.078125 6.890625 40.9375 10.546875 
Q 45.796875 14.203125 45.796875 21.1875 
Q 45.796875 27.640625 41.28125 31.265625 
Q 36.765625 34.90625 28.71875 34.90625 
L 20.21875 34.90625 
L 20.21875 43.015625 
L 29.109375 43.015625 
Q 36.375 43.015625 40.234375 45.921875 
Q 44.09375 48.828125 44.09375 54.296875 
Q 44.09375 59.90625 40.109375 62.90625 
Q 36.140625 65.921875 28.71875 65.921875 
Q 24.65625 65.921875 20.015625 65.03125 
Q 15.375 64.15625 9.8125 62.3125 
L 9.8125 71.09375 
Q 15.4375 72.65625 20.34375 73.4375 
Q 25.25 74.21875 29.59375 74.21875 
Q 40.828125 74.21875 47.359375 69.109375 
Q 53.90625 64.015625 53.90625 55.328125 
Q 53.90625 49.265625 50.4375 45.09375 
Q 46.96875 40.921875 40.578125 39.3125 
z
" id="DejaVuSans-33"/>
     </defs>
     <g transform="translate(308.8 65.002441)scale(0.16 -0.16)">
      <use xlink:href="#DejaVuSans-Oblique-73"/>
      <use transform="translate(52.099609 -16.40625)scale(0.7)" xlink:href="#DejaVuSans-33"/>
     </g>
    </g>
   </g>
  </g>
  <g id="axes_2">
   <g id="patch_8">
    <path d="M 72 400.616471 
L 518.4 400.616471 
L 518.4 253.863529 
L 72 253.863529 
z
" style="fill:#ffffff;"/>
   </g>
   <g id="matplotlib.axis_3">
    <g id="xtick_6">
     <g id="line2d_26">
      <path clip-path="url(#pd63fcaadfa)" d="M 173.454545 400.616471 
L 173.454545 253.863529 
" style="fill:none;stroke:#b0b0b0;stroke-linecap:square;stroke-width:0.8;"/>
     </g>
     <g id="line2d_27">
      <g>
       <use style="stroke:#000000;stroke-width:0.8;" x="173.454545" xlink:href="#mec59e60073" y="400.616471"/>
      </g>
     </g>
    </g>
    <g id="xtick_7">
     <g id="line2d_28">
      <path clip-path="url(#pd63fcaadfa)" d="M 254.618182 400.616471 
L 254.618182 253.863529 
" style="fill:none;stroke:#b0b0b0;stroke-linecap:square;stroke-width:0.8;"/>
     </g>
     <g id="line2d_29">
      <g>
       <use style="stroke:#000000;stroke-width:0.8;" x="254.618182" xlink:href="#mec59e60073" y="400.616471"/>
      </g>
     </g>
    </g>
    <g id="xtick_8">
     <g id="line2d_30">
      <path clip-path="url(#pd63fcaadfa)" d="M 335.781818 400.616471 
L 335.781818 253.863529 
" style="fill:none;stroke:#b0b0b0;stroke-linecap:square;stroke-width:0.8;"/>
     </g>
     <g id="line2d_31">
      <g>
       <use style="stroke:#000000;stroke-width:0.8;" x="335.781818" xlink:href="#mec59e60073" y="400.616471"/>
      </g>
     </g>
    </g>
    <g id="xtick_9">
     <g id="line2d_32">
      <path clip-path="url(#pd63fcaadfa)" d="M 416.945455 400.616471 
L 416.945455 253.863529 
" style="fill:none;stroke:#b0b0b0;stroke-linecap:square;stroke-width:0.8;"/>
     </g>
     <g id="line2d_33">
      <g>
       <use style="stroke:#000000;stroke-width:0.8;" x="416.945455" xlink:href="#mec59e60073" y="400.616471"/>
      </g>
     </g>
    </g>
    <g id="xtick_10">
     <g id="line2d_34">
      <path clip-path="url(#pd63fcaadfa)" d="M 498.109091 400.616471 
L 498.109091 253.863529 
" style="fill:none;stroke:#b0b0b0;stroke-linecap:square;stroke-width:0.8;"/>
     </g>
     <g id="line2d_35">
      <g>
       <use style="stroke:#000000;stroke-width:0.8;" x="498.109091" xlink:href="#mec59e60073" y="400.616471"/>
      </g>
     </g>
    </g>
   </g>
   <g id="matplotlib.axis_4">
    <g id="ytick_4">
     <g id="line2d_36">
      <path clip-path="url(#pd63fcaadfa)" d="M 72 373.200665 
L 518.4 373.200665 
" style="fill:none;stroke:#b0b0b0;stroke-linecap:square;stroke-width:0.8;"/>
     </g>
     <g id="line2d_37">
      <g>
       <use style="stroke:#000000;stroke-width:0.8;" x="72" xlink:href="#mf10637e4e1" y="373.200665"/>
      </g>
     </g>
     <g id="text_8">
      <!-- 0.8 -->
      <defs>
       <path d="M 3.609375 32.71875 
Q 3.609375 44.046875 7.03125 52.21875 
Q 10.453125 60.40625 16.109375 64.40625 
Q 20.515625 67.578125 25.203125 67.578125 
Q 32.8125 67.578125 38.875 59.8125 
Q 46.4375 50.203125 46.4375 33.734375 
Q 46.4375 22.21875 43.109375 14.15625 
Q 39.796875 6.109375 34.640625 2.46875 
Q 29.5 -1.171875 24.703125 -1.171875 
Q 15.234375 -1.171875 8.9375 10.015625 
Q 3.609375 19.4375 3.609375 32.71875 
z
M 13.1875 31.5 
Q 13.1875 17.828125 16.546875 9.1875 
Q 19.34375 1.90625 24.859375 1.90625 
Q 27.484375 1.90625 30.3125 4.265625 
Q 33.15625 6.640625 34.625 12.203125 
Q 36.859375 20.609375 36.859375 35.890625 
Q 36.859375 47.21875 34.515625 54.78125 
Q 32.765625 60.40625 29.984375 62.75 
Q 27.984375 64.359375 25.140625 64.359375 
Q 21.828125 64.359375 19.234375 61.375 
Q 15.71875 57.328125 14.453125 48.625 
Q 13.1875 39.9375 13.1875 31.5 
z
" id="TimesNewRomanPSMT-30"/>
       <path d="M 12.5 9.46875 
Q 14.796875 9.46875 16.359375 7.875 
Q 17.921875 6.296875 17.921875 4.046875 
Q 17.921875 1.8125 16.328125 0.21875 
Q 14.75 -1.375 12.5 -1.375 
Q 10.25 -1.375 8.65625 0.21875 
Q 7.078125 1.8125 7.078125 4.046875 
Q 7.078125 6.34375 8.65625 7.90625 
Q 10.25 9.46875 12.5 9.46875 
z
" id="TimesNewRomanPSMT-2e"/>
       <path d="M 19.1875 33.34375 
Q 11.328125 39.796875 9.046875 43.703125 
Q 6.78125 47.609375 6.78125 51.8125 
Q 6.78125 58.25 11.765625 62.90625 
Q 16.75 67.578125 25 67.578125 
Q 33.015625 67.578125 37.890625 63.234375 
Q 42.78125 58.890625 42.78125 53.328125 
Q 42.78125 49.609375 40.140625 45.75 
Q 37.5 41.890625 29.15625 36.671875 
Q 37.75 30.03125 40.53125 26.21875 
Q 44.234375 21.234375 44.234375 15.71875 
Q 44.234375 8.734375 38.90625 3.78125 
Q 33.59375 -1.171875 24.953125 -1.171875 
Q 15.53125 -1.171875 10.25 4.734375 
Q 6.0625 9.46875 6.0625 15.09375 
Q 6.0625 19.484375 9.015625 23.796875 
Q 11.96875 28.125 19.1875 33.34375 
z
M 26.859375 38.578125 
Q 32.71875 43.84375 34.28125 46.890625 
Q 35.84375 49.953125 35.84375 53.8125 
Q 35.84375 58.9375 32.953125 61.84375 
Q 30.078125 64.75 25.09375 64.75 
Q 20.125 64.75 17 61.859375 
Q 13.875 58.984375 13.875 55.125 
Q 13.875 52.59375 15.15625 50.046875 
Q 16.453125 47.515625 18.84375 45.21875 
z
M 21.484375 31.5 
Q 17.4375 28.078125 15.484375 24.046875 
Q 13.53125 20.015625 13.53125 15.328125 
Q 13.53125 9.03125 16.96875 5.25 
Q 20.40625 1.46875 25.734375 1.46875 
Q 31 1.46875 34.171875 4.4375 
Q 37.359375 7.421875 37.359375 11.671875 
Q 37.359375 15.1875 35.5 17.96875 
Q 32.03125 23.140625 21.484375 31.5 
z
" id="TimesNewRomanPSMT-38"/>
      </defs>
      <g transform="translate(40 380.144415)scale(0.2 -0.2)">
       <use xlink:href="#TimesNewRomanPSMT-30"/>
       <use x="50" xlink:href="#TimesNewRomanPSMT-2e"/>
       <use x="75" xlink:href="#TimesNewRomanPSMT-38"/>
      </g>
     </g>
    </g>
    <g id="ytick_5">
     <g id="line2d_38">
      <path clip-path="url(#pd63fcaadfa)" d="M 72 313.902485 
L 518.4 313.902485 
" style="fill:none;stroke:#b0b0b0;stroke-linecap:square;stroke-width:0.8;"/>
     </g>
     <g id="line2d_39">
      <g>
       <use style="stroke:#000000;stroke-width:0.8;" x="72" xlink:href="#mf10637e4e1" y="313.902485"/>
      </g>
     </g>
     <g id="text_9">
      <!-- 0.9 -->
      <defs>
       <path d="M 5.28125 -1.375 
L 5.28125 0.4375 
Q 11.625 0.53125 17.09375 3.390625 
Q 22.5625 6.25 27.65625 13.375 
Q 32.765625 20.515625 34.765625 29.046875 
Q 27.09375 24.125 20.90625 24.125 
Q 13.921875 24.125 8.9375 29.515625 
Q 3.953125 34.90625 3.953125 43.84375 
Q 3.953125 52.546875 8.9375 59.328125 
Q 14.9375 67.578125 24.609375 67.578125 
Q 32.765625 67.578125 38.578125 60.84375 
Q 45.703125 52.484375 45.703125 40.234375 
Q 45.703125 29.203125 40.28125 19.65625 
Q 34.859375 10.109375 25.203125 3.8125 
Q 17.328125 -1.375 8.0625 -1.375 
z
M 35.546875 32.671875 
Q 36.421875 39.015625 36.421875 42.828125 
Q 36.421875 47.5625 34.8125 53.046875 
Q 33.203125 58.546875 30.25 61.46875 
Q 27.296875 64.40625 23.53125 64.40625 
Q 19.1875 64.40625 15.90625 60.5 
Q 12.640625 56.59375 12.640625 48.875 
Q 12.640625 38.578125 17 32.765625 
Q 20.171875 28.5625 24.8125 28.5625 
Q 27.046875 28.5625 30.125 29.640625 
Q 33.203125 30.71875 35.546875 32.671875 
z
" id="TimesNewRomanPSMT-39"/>
      </defs>
      <g transform="translate(40 320.846235)scale(0.2 -0.2)">
       <use xlink:href="#TimesNewRomanPSMT-30"/>
       <use x="50" xlink:href="#TimesNewRomanPSMT-2e"/>
       <use x="75" xlink:href="#TimesNewRomanPSMT-39"/>
      </g>
     </g>
    </g>
    <g id="ytick_6">
     <g id="line2d_40">
      <path clip-path="url(#pd63fcaadfa)" d="M 72 254.604305 
L 518.4 254.604305 
" style="fill:none;stroke:#b0b0b0;stroke-linecap:square;stroke-width:0.8;"/>
     </g>
     <g id="line2d_41">
      <g>
       <use style="stroke:#000000;stroke-width:0.8;" x="72" xlink:href="#mf10637e4e1" y="254.604305"/>
      </g>
     </g>
     <g id="text_10">
      <!-- 1.0 -->
      <defs>
       <path d="M 11.71875 59.71875 
L 27.828125 67.578125 
L 29.4375 67.578125 
L 29.4375 11.671875 
Q 29.4375 6.109375 29.90625 4.734375 
Q 30.375 3.375 31.828125 2.640625 
Q 33.296875 1.90625 37.796875 1.8125 
L 37.796875 0 
L 12.890625 0 
L 12.890625 1.8125 
Q 17.578125 1.90625 18.9375 2.609375 
Q 20.3125 3.328125 20.84375 4.515625 
Q 21.390625 5.71875 21.390625 11.671875 
L 21.390625 47.40625 
Q 21.390625 54.640625 20.90625 56.6875 
Q 20.5625 58.25 19.65625 58.984375 
Q 18.75 59.71875 17.484375 59.71875 
Q 15.671875 59.71875 12.453125 58.203125 
z
" id="TimesNewRomanPSMT-31"/>
      </defs>
      <g transform="translate(40 261.548055)scale(0.2 -0.2)">
       <use xlink:href="#TimesNewRomanPSMT-31"/>
       <use x="50" xlink:href="#TimesNewRomanPSMT-2e"/>
       <use x="75" xlink:href="#TimesNewRomanPSMT-30"/>
      </g>
     </g>
    </g>
    <g id="text_11">
     <!-- SOC -->
     <defs>
      <path d="M 45.84375 67.71875 
L 45.84375 44.828125 
L 44.046875 44.828125 
Q 43.171875 51.421875 40.890625 55.328125 
Q 38.625 59.234375 34.421875 61.515625 
Q 30.21875 63.8125 25.734375 63.8125 
Q 20.65625 63.8125 17.328125 60.71875 
Q 14.015625 57.625 14.015625 53.65625 
Q 14.015625 50.640625 16.109375 48.140625 
Q 19.140625 44.484375 30.515625 38.375 
Q 39.796875 33.40625 43.1875 30.734375 
Q 46.578125 28.078125 48.40625 24.453125 
Q 50.25 20.84375 50.25 16.890625 
Q 50.25 9.375 44.40625 3.921875 
Q 38.578125 -1.515625 29.390625 -1.515625 
Q 26.515625 -1.515625 23.96875 -1.078125 
Q 22.46875 -0.828125 17.703125 0.703125 
Q 12.9375 2.25 11.671875 2.25 
Q 10.453125 2.25 9.734375 1.515625 
Q 9.03125 0.78125 8.6875 -1.515625 
L 6.890625 -1.515625 
L 6.890625 21.1875 
L 8.6875 21.1875 
Q 9.96875 14.0625 12.109375 10.515625 
Q 14.265625 6.984375 18.671875 4.640625 
Q 23.09375 2.296875 28.375 2.296875 
Q 34.46875 2.296875 38 5.515625 
Q 41.546875 8.734375 41.546875 13.140625 
Q 41.546875 15.578125 40.203125 18.0625 
Q 38.875 20.5625 36.03125 22.703125 
Q 34.125 24.171875 25.625 28.921875 
Q 17.140625 33.6875 13.546875 36.515625 
Q 9.96875 39.359375 8.109375 42.765625 
Q 6.25 46.1875 6.25 50.296875 
Q 6.25 57.421875 11.71875 62.5625 
Q 17.1875 67.71875 25.640625 67.71875 
Q 30.90625 67.71875 36.8125 65.140625 
Q 39.546875 63.921875 40.671875 63.921875 
Q 41.9375 63.921875 42.75 64.671875 
Q 43.5625 65.4375 44.046875 67.71875 
z
" id="TimesNewRomanPSMT-53"/>
      <path d="M 36.578125 67.71875 
Q 49.46875 67.71875 58.90625 57.921875 
Q 68.359375 48.140625 68.359375 33.5 
Q 68.359375 18.40625 58.828125 8.4375 
Q 49.3125 -1.515625 35.796875 -1.515625 
Q 22.125 -1.515625 12.8125 8.203125 
Q 3.515625 17.921875 3.515625 33.34375 
Q 3.515625 49.125 14.265625 59.078125 
Q 23.578125 67.71875 36.578125 67.71875 
z
M 35.640625 64.15625 
Q 26.765625 64.15625 21.390625 57.5625 
Q 14.703125 49.359375 14.703125 33.546875 
Q 14.703125 17.328125 21.625 8.59375 
Q 26.953125 1.953125 35.6875 1.953125 
Q 45.015625 1.953125 51.09375 9.21875 
Q 57.171875 16.5 57.171875 32.171875 
Q 57.171875 49.171875 50.484375 57.515625 
Q 45.125 64.15625 35.640625 64.15625 
z
" id="TimesNewRomanPSMT-4f"/>
     </defs>
     <g transform="translate(31.721875 346.693125)rotate(-90)scale(0.2 -0.2)">
      <use xlink:href="#TimesNewRomanPSMT-53"/>
      <use x="55.615234" xlink:href="#TimesNewRomanPSMT-4f"/>
      <use x="127.832031" xlink:href="#TimesNewRomanPSMT-43"/>
     </g>
    </g>
   </g>
   <g id="line2d_42">
    <path clip-path="url(#pd63fcaadfa)" d="M 92.290909 260.534118 
L 173.454545 260.534118 
L 241.090909 294.108748 
L 273.556364 310.459807 
L 297.905455 322.952239 
L 316.843636 332.889831 
L 333.076364 341.631049 
L 346.603636 349.129484 
L 360.130909 356.881198 
L 370.952727 363.307388 
L 381.774545 369.97498 
L 392.596364 376.930206 
L 400.712727 382.368519 
L 408.829091 388.032258 
L 416.945455 393.945882 
L 457.527273 378.250499 
L 498.109091 362.547057 
L 498.109091 362.547057 
" style="fill:none;stroke:#000000;stroke-dasharray:3,5,1,5,1,5;stroke-dashoffset:0;stroke-opacity:0.8;"/>
    <g clip-path="url(#pd63fcaadfa)">
     <use style="fill-opacity:0;stroke:#000000;stroke-opacity:0.8;" x="92.290909" xlink:href="#m93b8d5fc0c" y="260.534118"/>
     <use style="fill-opacity:0;stroke:#000000;stroke-opacity:0.8;" x="140.989091" xlink:href="#m93b8d5fc0c" y="260.534118"/>
     <use style="fill-opacity:0;stroke:#000000;stroke-opacity:0.8;" x="189.687273" xlink:href="#m93b8d5fc0c" y="268.564452"/>
     <use style="fill-opacity:0;stroke:#000000;stroke-opacity:0.8;" x="238.385455" xlink:href="#m93b8d5fc0c" y="292.756469"/>
     <use style="fill-opacity:0;stroke:#000000;stroke-opacity:0.8;" x="287.083636" xlink:href="#m93b8d5fc0c" y="317.367777"/>
     <use style="fill-opacity:0;stroke:#000000;stroke-opacity:0.8;" x="335.781818" xlink:href="#m93b8d5fc0c" y="343.113466"/>
     <use style="fill-opacity:0;stroke:#000000;stroke-opacity:0.8;" x="384.48" xlink:href="#m93b8d5fc0c" y="371.682648"/>
     <use style="fill-opacity:0;stroke:#000000;stroke-opacity:0.8;" x="433.178182" xlink:href="#m93b8d5fc0c" y="387.672592"/>
     <use style="fill-opacity:0;stroke:#000000;stroke-opacity:0.8;" x="481.876364" xlink:href="#m93b8d5fc0c" y="368.828441"/>
    </g>
   </g>
   <g id="line2d_43">
    <path clip-path="url(#pd63fcaadfa)" d="M 92.290909 260.534118 
L 173.454545 260.534118 
L 186.981818 267.648924 
L 246.501818 297.388043 
L 281.672727 315.198758 
L 311.432727 330.517687 
L 338.487273 344.702306 
L 381.774545 367.627754 
L 416.945455 386.449957 
L 498.109091 355.043002 
L 498.109091 355.043002 
" style="fill:none;stroke:#000000;stroke-dasharray:2,1;stroke-dashoffset:0;stroke-opacity:0.8;"/>
    <g clip-path="url(#pd63fcaadfa)">
     <use style="fill-opacity:0.8;stroke:#000000;stroke-opacity:0.8;" x="92.290909" xlink:href="#m7ac042d5fd" y="260.534118"/>
     <use style="fill-opacity:0.8;stroke:#000000;stroke-opacity:0.8;" x="140.989091" xlink:href="#m7ac042d5fd" y="260.534118"/>
     <use style="fill-opacity:0.8;stroke:#000000;stroke-opacity:0.8;" x="189.687273" xlink:href="#m7ac042d5fd" y="268.995195"/>
     <use style="fill-opacity:0.8;stroke:#000000;stroke-opacity:0.8;" x="238.385455" xlink:href="#m7ac042d5fd" y="293.310105"/>
     <use style="fill-opacity:0.8;stroke:#000000;stroke-opacity:0.8;" x="287.083636" xlink:href="#m7ac042d5fd" y="317.964144"/>
     <use style="fill-opacity:0.8;stroke:#000000;stroke-opacity:0.8;" x="335.781818" xlink:href="#m7ac042d5fd" y="343.277359"/>
     <use style="fill-opacity:0.8;stroke:#000000;stroke-opacity:0.8;" x="384.48" xlink:href="#m7ac042d5fd" y="369.069066"/>
     <use style="fill-opacity:0.8;stroke:#000000;stroke-opacity:0.8;" x="433.178182" xlink:href="#m7ac042d5fd" y="380.168573"/>
     <use style="fill-opacity:0.8;stroke:#000000;stroke-opacity:0.8;" x="481.876364" xlink:href="#m7ac042d5fd" y="361.324386"/>
    </g>
   </g>
   <g id="line2d_44">
    <path clip-path="url(#pd63fcaadfa)" d="M 92.290909 260.534118 
L 173.454545 260.534118 
L 186.981818 267.648924 
L 246.501818 297.388043 
L 281.672727 315.198758 
L 311.432727 330.517687 
L 338.487273 344.702306 
L 381.774545 367.627754 
L 416.945455 386.449957 
L 498.109091 355.043002 
L 498.109091 355.043002 
" style="fill:none;stroke:#000000;stroke-dasharray:4,4;stroke-dashoffset:0;stroke-opacity:0.8;"/>
    <g clip-path="url(#pd63fcaadfa)">
     <use style="fill-opacity:0;stroke:#000000;stroke-linejoin:miter;stroke-opacity:0.8;" x="97.701818" xlink:href="#m925999934a" y="260.534118"/>
     <use style="fill-opacity:0;stroke:#000000;stroke-linejoin:miter;stroke-opacity:0.8;" x="146.4" xlink:href="#m925999934a" y="260.534118"/>
     <use style="fill-opacity:0;stroke:#000000;stroke-linejoin:miter;stroke-opacity:0.8;" x="195.098182" xlink:href="#m925999934a" y="271.688443"/>
     <use style="fill-opacity:0;stroke:#000000;stroke-linejoin:miter;stroke-opacity:0.8;" x="243.796364" xlink:href="#m925999934a" y="296.027635"/>
     <use style="fill-opacity:0;stroke:#000000;stroke-linejoin:miter;stroke-opacity:0.8;" x="292.494545" xlink:href="#m925999934a" y="320.737731"/>
     <use style="fill-opacity:0;stroke:#000000;stroke-linejoin:miter;stroke-opacity:0.8;" x="341.192727" xlink:href="#m925999934a" y="346.128138"/>
     <use style="fill-opacity:0;stroke:#000000;stroke-linejoin:miter;stroke-opacity:0.8;" x="389.890909" xlink:href="#m925999934a" y="371.954871"/>
     <use style="fill-opacity:0;stroke:#000000;stroke-linejoin:miter;stroke-opacity:0.8;" x="438.589091" xlink:href="#m925999934a" y="378.074766"/>
     <use style="fill-opacity:0;stroke:#000000;stroke-linejoin:miter;stroke-opacity:0.8;" x="487.287273" xlink:href="#m925999934a" y="359.230615"/>
    </g>
   </g>
   <g id="patch_9">
    <path d="M 72 400.616471 
L 72 253.863529 
" style="fill:none;stroke:#000000;stroke-linecap:square;stroke-linejoin:miter;stroke-width:0.8;"/>
   </g>
   <g id="patch_10">
    <path d="M 518.4 400.616471 
L 518.4 253.863529 
" style="fill:none;stroke:#000000;stroke-linecap:square;stroke-linejoin:miter;stroke-width:0.8;"/>
   </g>
   <g id="patch_11">
    <path d="M 72 400.616471 
L 518.4 400.616471 
" style="fill:none;stroke:#000000;stroke-linecap:square;stroke-linejoin:miter;stroke-width:0.8;"/>
   </g>
   <g id="patch_12">
    <path d="M 72 253.863529 
L 518.4 253.863529 
" style="fill:none;stroke:#000000;stroke-linecap:square;stroke-linejoin:miter;stroke-width:0.8;"/>
   </g>
  </g>
  <g id="axes_3">
   <g id="patch_13">
    <path d="M 72 576.72 
L 518.4 576.72 
L 518.4 429.967059 
L 72 429.967059 
z
" style="fill:#ffffff;"/>
   </g>
   <g id="matplotlib.axis_5">
    <g id="xtick_11">
     <g id="line2d_45">
      <path clip-path="url(#p8b5b346a90)" d="M 173.454545 576.72 
L 173.454545 429.967059 
" style="fill:none;stroke:#b0b0b0;stroke-linecap:square;stroke-width:0.8;"/>
     </g>
     <g id="line2d_46">
      <g>
       <use style="stroke:#000000;stroke-width:0.8;" x="173.454545" xlink:href="#mec59e60073" y="576.72"/>
      </g>
     </g>
     <g id="text_12">
      <!-- 14:00 -->
      <defs>
       <path d="M 46.53125 24.421875 
L 46.53125 17.484375 
L 37.640625 17.484375 
L 37.640625 0 
L 29.59375 0 
L 29.59375 17.484375 
L 1.5625 17.484375 
L 1.5625 23.734375 
L 32.28125 67.578125 
L 37.640625 67.578125 
L 37.640625 24.421875 
z
M 29.59375 24.421875 
L 29.59375 57.28125 
L 6.34375 24.421875 
z
" id="TimesNewRomanPSMT-34"/>
       <path d="M 14.109375 46.09375 
Q 16.359375 46.09375 17.9375 44.5 
Q 19.53125 42.921875 19.53125 40.671875 
Q 19.53125 38.421875 17.9375 36.828125 
Q 16.359375 35.25 14.109375 35.25 
Q 11.859375 35.25 10.265625 36.828125 
Q 8.6875 38.421875 8.6875 40.671875 
Q 8.6875 42.921875 10.265625 44.5 
Q 11.859375 46.09375 14.109375 46.09375 
z
M 14.015625 9.515625 
Q 16.3125 9.515625 17.890625 7.90625 
Q 19.484375 6.296875 19.484375 4.046875 
Q 19.484375 1.8125 17.875 0.21875 
Q 16.265625 -1.375 14.015625 -1.375 
Q 11.765625 -1.375 10.171875 0.21875 
Q 8.59375 1.8125 8.59375 4.046875 
Q 8.59375 6.296875 10.171875 7.90625 
Q 11.765625 9.515625 14.015625 9.515625 
z
" id="TimesNewRomanPSMT-3a"/>
      </defs>
      <g transform="translate(155.232045 594.83)scale(0.16 -0.16)">
       <use xlink:href="#TimesNewRomanPSMT-31"/>
       <use x="50" xlink:href="#TimesNewRomanPSMT-34"/>
       <use x="100" xlink:href="#TimesNewRomanPSMT-3a"/>
       <use x="127.783203" xlink:href="#TimesNewRomanPSMT-30"/>
       <use x="177.783203" xlink:href="#TimesNewRomanPSMT-30"/>
      </g>
     </g>
    </g>
    <g id="xtick_12">
     <g id="line2d_47">
      <path clip-path="url(#p8b5b346a90)" d="M 254.618182 576.72 
L 254.618182 429.967059 
" style="fill:none;stroke:#b0b0b0;stroke-linecap:square;stroke-width:0.8;"/>
     </g>
     <g id="line2d_48">
      <g>
       <use style="stroke:#000000;stroke-width:0.8;" x="254.618182" xlink:href="#mec59e60073" y="576.72"/>
      </g>
     </g>
     <g id="text_13">
      <!-- 14:05 -->
      <g transform="translate(236.395682 594.83)scale(0.16 -0.16)">
       <use xlink:href="#TimesNewRomanPSMT-31"/>
       <use x="50" xlink:href="#TimesNewRomanPSMT-34"/>
       <use x="100" xlink:href="#TimesNewRomanPSMT-3a"/>
       <use x="127.783203" xlink:href="#TimesNewRomanPSMT-30"/>
       <use x="177.783203" xlink:href="#TimesNewRomanPSMT-35"/>
      </g>
     </g>
    </g>
    <g id="xtick_13">
     <g id="line2d_49">
      <path clip-path="url(#p8b5b346a90)" d="M 335.781818 576.72 
L 335.781818 429.967059 
" style="fill:none;stroke:#b0b0b0;stroke-linecap:square;stroke-width:0.8;"/>
     </g>
     <g id="line2d_50">
      <g>
       <use style="stroke:#000000;stroke-width:0.8;" x="335.781818" xlink:href="#mec59e60073" y="576.72"/>
      </g>
     </g>
     <g id="text_14">
      <!-- 14:10 -->
      <g transform="translate(317.559318 594.83)scale(0.16 -0.16)">
       <use xlink:href="#TimesNewRomanPSMT-31"/>
       <use x="50" xlink:href="#TimesNewRomanPSMT-34"/>
       <use x="100" xlink:href="#TimesNewRomanPSMT-3a"/>
       <use x="127.783203" xlink:href="#TimesNewRomanPSMT-31"/>
       <use x="177.783203" xlink:href="#TimesNewRomanPSMT-30"/>
      </g>
     </g>
    </g>
    <g id="xtick_14">
     <g id="line2d_51">
      <path clip-path="url(#p8b5b346a90)" d="M 416.945455 576.72 
L 416.945455 429.967059 
" style="fill:none;stroke:#b0b0b0;stroke-linecap:square;stroke-width:0.8;"/>
     </g>
     <g id="line2d_52">
      <g>
       <use style="stroke:#000000;stroke-width:0.8;" x="416.945455" xlink:href="#mec59e60073" y="576.72"/>
      </g>
     </g>
     <g id="text_15">
      <!-- 14:15 -->
      <g transform="translate(398.722955 594.83)scale(0.16 -0.16)">
       <use xlink:href="#TimesNewRomanPSMT-31"/>
       <use x="50" xlink:href="#TimesNewRomanPSMT-34"/>
       <use x="100" xlink:href="#TimesNewRomanPSMT-3a"/>
       <use x="127.783203" xlink:href="#TimesNewRomanPSMT-31"/>
       <use x="177.783203" xlink:href="#TimesNewRomanPSMT-35"/>
      </g>
     </g>
    </g>
    <g id="xtick_15">
     <g id="line2d_53">
      <path clip-path="url(#p8b5b346a90)" d="M 498.109091 576.72 
L 498.109091 429.967059 
" style="fill:none;stroke:#b0b0b0;stroke-linecap:square;stroke-width:0.8;"/>
     </g>
     <g id="line2d_54">
      <g>
       <use style="stroke:#000000;stroke-width:0.8;" x="498.109091" xlink:href="#mec59e60073" y="576.72"/>
      </g>
     </g>
     <g id="text_16">
      <!-- 14:20 -->
      <g transform="translate(479.886591 594.83)scale(0.16 -0.16)">
       <use xlink:href="#TimesNewRomanPSMT-31"/>
       <use x="50" xlink:href="#TimesNewRomanPSMT-34"/>
       <use x="100" xlink:href="#TimesNewRomanPSMT-3a"/>
       <use x="127.783203" xlink:href="#TimesNewRomanPSMT-32"/>
       <use x="177.783203" xlink:href="#TimesNewRomanPSMT-30"/>
      </g>
     </g>
    </g>
    <g id="text_17">
     <!-- Time -->
     <defs>
      <path d="M 14.5 69.4375 
Q 16.546875 69.4375 17.984375 67.984375 
Q 19.4375 66.546875 19.4375 64.5 
Q 19.4375 62.453125 17.984375 60.984375 
Q 16.546875 59.515625 14.5 59.515625 
Q 12.453125 59.515625 10.984375 60.984375 
Q 9.515625 62.453125 9.515625 64.5 
Q 9.515625 66.546875 10.953125 67.984375 
Q 12.40625 69.4375 14.5 69.4375 
z
M 18.5625 46.046875 
L 18.5625 10.109375 
Q 18.5625 5.90625 19.171875 4.515625 
Q 19.78125 3.125 20.96875 2.4375 
Q 22.171875 1.765625 25.34375 1.765625 
L 25.34375 0 
L 3.609375 0 
L 3.609375 1.765625 
Q 6.890625 1.765625 8 2.390625 
Q 9.125 3.03125 9.78125 4.484375 
Q 10.453125 5.953125 10.453125 10.109375 
L 10.453125 27.34375 
Q 10.453125 34.625 10.015625 36.765625 
Q 9.671875 38.328125 8.9375 38.9375 
Q 8.203125 39.546875 6.9375 39.546875 
Q 5.5625 39.546875 3.609375 38.8125 
L 2.9375 40.578125 
L 16.40625 46.046875 
z
" id="TimesNewRomanPSMT-69"/>
     </defs>
     <g transform="translate(274.101562 616.14)scale(0.2 -0.2)">
      <use xlink:href="#TimesNewRomanPSMT-54"/>
      <use x="61.037109" xlink:href="#TimesNewRomanPSMT-69"/>
      <use x="88.820312" xlink:href="#TimesNewRomanPSMT-6d"/>
      <use x="166.603516" xlink:href="#TimesNewRomanPSMT-65"/>
     </g>
    </g>
   </g>
   <g id="matplotlib.axis_6">
    <g id="ytick_7">
     <g id="line2d_55">
      <path clip-path="url(#p8b5b346a90)" d="M 72 544.996328 
L 518.4 544.996328 
" style="fill:none;stroke:#b0b0b0;stroke-linecap:square;stroke-width:0.8;"/>
     </g>
     <g id="line2d_56">
      <g>
       <use style="stroke:#000000;stroke-width:0.8;" x="72" xlink:href="#mf10637e4e1" y="544.996328"/>
      </g>
     </g>
     <g id="text_18">
      <!-- 1 -->
      <defs>
       <path d="M 54.4375 31.25 
L 1.8125 31.25 
L 1.8125 35.25 
L 54.4375 35.25 
z
" id="TimesNewRomanPSMT-2212"/>
      </defs>
      <g transform="translate(43.721875 551.940078)scale(0.2 -0.2)">
       <use xlink:href="#TimesNewRomanPSMT-2212"/>
       <use x="56.396484" xlink:href="#TimesNewRomanPSMT-31"/>
      </g>
     </g>
    </g>
    <g id="ytick_8">
     <g id="line2d_57">
      <path clip-path="url(#p8b5b346a90)" d="M 72 489.069269 
L 518.4 489.069269 
" style="fill:none;stroke:#b0b0b0;stroke-linecap:square;stroke-width:0.8;"/>
     </g>
     <g id="line2d_58">
      <g>
       <use style="stroke:#000000;stroke-width:0.8;" x="72" xlink:href="#mf10637e4e1" y="489.069269"/>
      </g>
     </g>
     <g id="text_19">
      <!-- 0 -->
      <g transform="translate(55 496.013019)scale(0.2 -0.2)">
       <use xlink:href="#TimesNewRomanPSMT-30"/>
      </g>
     </g>
    </g>
    <g id="ytick_9">
     <g id="line2d_59">
      <path clip-path="url(#p8b5b346a90)" d="M 72 433.142209 
L 518.4 433.142209 
" style="fill:none;stroke:#b0b0b0;stroke-linecap:square;stroke-width:0.8;"/>
     </g>
     <g id="line2d_60">
      <g>
       <use style="stroke:#000000;stroke-width:0.8;" x="72" xlink:href="#mf10637e4e1" y="433.142209"/>
      </g>
     </g>
     <g id="text_20">
      <!-- 1 -->
      <g transform="translate(55 440.085959)scale(0.2 -0.2)">
       <use xlink:href="#TimesNewRomanPSMT-31"/>
      </g>
     </g>
    </g>
    <g id="text_21">
     <!-- UPS Current [kA] -->
     <defs>
      <path d="M 47.703125 64.40625 
L 47.703125 66.21875 
L 71.140625 66.21875 
L 71.140625 64.40625 
L 68.65625 64.40625 
Q 64.75 64.40625 62.640625 61.140625 
Q 61.625 59.625 61.625 54.109375 
L 61.625 27.25 
Q 61.625 17.28125 59.640625 11.78125 
Q 57.671875 6.296875 51.875 2.359375 
Q 46.09375 -1.5625 36.140625 -1.5625 
Q 25.296875 -1.5625 19.671875 2.1875 
Q 14.0625 5.953125 11.71875 12.3125 
Q 10.15625 16.65625 10.15625 28.609375 
L 10.15625 54.5 
Q 10.15625 60.59375 8.46875 62.5 
Q 6.78125 64.40625 3.03125 64.40625 
L 0.53125 64.40625 
L 0.53125 66.21875 
L 29.15625 66.21875 
L 29.15625 64.40625 
L 26.609375 64.40625 
Q 22.515625 64.40625 20.75 61.8125 
Q 19.53125 60.0625 19.53125 54.5 
L 19.53125 25.640625 
Q 19.53125 21.78125 20.234375 16.796875 
Q 20.953125 11.8125 22.796875 9.03125 
Q 24.65625 6.25 28.140625 4.4375 
Q 31.640625 2.640625 36.71875 2.640625 
Q 43.21875 2.640625 48.34375 5.46875 
Q 53.46875 8.296875 55.34375 12.71875 
Q 57.234375 17.140625 57.234375 27.6875 
L 57.234375 54.5 
Q 57.234375 60.6875 55.859375 62.25 
Q 53.953125 64.40625 50.203125 64.40625 
z
" id="TimesNewRomanPSMT-55"/>
      <path d="M 20.515625 31 
L 20.515625 11.71875 
Q 20.515625 5.46875 21.875 3.953125 
Q 23.734375 1.8125 27.484375 1.8125 
L 30.03125 1.8125 
L 30.03125 0 
L 1.65625 0 
L 1.65625 1.8125 
L 4.15625 1.8125 
Q 8.34375 1.8125 10.15625 4.546875 
Q 11.140625 6.0625 11.140625 11.71875 
L 11.140625 54.5 
Q 11.140625 60.75 9.8125 62.25 
Q 7.90625 64.40625 4.15625 64.40625 
L 1.65625 64.40625 
L 1.65625 66.21875 
L 25.921875 66.21875 
Q 34.8125 66.21875 39.9375 64.375 
Q 45.0625 62.546875 48.578125 58.203125 
Q 52.09375 53.859375 52.09375 47.90625 
Q 52.09375 39.796875 46.75 34.71875 
Q 41.40625 29.640625 31.640625 29.640625 
Q 29.25 29.640625 26.46875 29.984375 
Q 23.6875 30.328125 20.515625 31 
z
M 20.515625 33.796875 
Q 23.09375 33.296875 25.09375 33.046875 
Q 27.09375 32.8125 28.515625 32.8125 
Q 33.59375 32.8125 37.28125 36.734375 
Q 40.96875 40.671875 40.96875 46.921875 
Q 40.96875 51.21875 39.203125 54.90625 
Q 37.453125 58.59375 34.21875 60.421875 
Q 31 62.25 26.90625 62.25 
Q 24.421875 62.25 20.515625 61.328125 
z
" id="TimesNewRomanPSMT-50"/>
      <path d="M 16.15625 36.578125 
Q 24.03125 46.046875 31.15625 46.046875 
Q 34.8125 46.046875 37.453125 44.21875 
Q 40.09375 42.390625 41.65625 38.1875 
Q 42.71875 35.25 42.71875 29.203125 
L 42.71875 10.109375 
Q 42.71875 5.859375 43.40625 4.34375 
Q 43.953125 3.125 45.140625 2.4375 
Q 46.34375 1.765625 49.5625 1.765625 
L 49.5625 0 
L 27.4375 0 
L 27.4375 1.765625 
L 28.375 1.765625 
Q 31.5 1.765625 32.734375 2.703125 
Q 33.984375 3.65625 34.46875 5.515625 
Q 34.671875 6.25 34.671875 10.109375 
L 34.671875 28.421875 
Q 34.671875 34.515625 33.078125 37.28125 
Q 31.5 40.046875 27.734375 40.046875 
Q 21.921875 40.046875 16.15625 33.6875 
L 16.15625 10.109375 
Q 16.15625 5.5625 16.703125 4.5 
Q 17.390625 3.078125 18.578125 2.421875 
Q 19.78125 1.765625 23.4375 1.765625 
L 23.4375 0 
L 1.3125 0 
L 1.3125 1.765625 
L 2.296875 1.765625 
Q 5.71875 1.765625 6.90625 3.484375 
Q 8.109375 5.21875 8.109375 10.109375 
L 8.109375 26.703125 
Q 8.109375 34.765625 7.734375 36.515625 
Q 7.375 38.28125 6.609375 38.90625 
Q 5.859375 39.546875 4.59375 39.546875 
Q 3.21875 39.546875 1.3125 38.8125 
L 0.59375 40.578125 
L 14.0625 46.046875 
L 16.15625 46.046875 
z
" id="TimesNewRomanPSMT-6e"/>
      <path d="M 16.359375 69.4375 
L 16.359375 24.953125 
L 27.734375 35.296875 
Q 31.34375 38.625 31.9375 39.5 
Q 32.328125 40.09375 32.328125 40.671875 
Q 32.328125 41.65625 31.515625 42.359375 
Q 30.71875 43.0625 28.859375 43.171875 
L 28.859375 44.734375 
L 48.296875 44.734375 
L 48.296875 43.171875 
Q 44.28125 43.0625 41.625 41.9375 
Q 38.96875 40.828125 35.796875 37.9375 
L 24.3125 27.34375 
L 35.796875 12.84375 
Q 40.578125 6.84375 42.234375 5.21875 
Q 44.578125 2.9375 46.34375 2.25 
Q 47.5625 1.765625 50.59375 1.765625 
L 50.59375 0 
L 28.859375 0 
L 28.859375 1.765625 
Q 30.71875 1.8125 31.375 2.3125 
Q 32.03125 2.828125 32.03125 3.765625 
Q 32.03125 4.890625 30.078125 7.375 
L 16.359375 24.90625 
L 16.359375 10.0625 
Q 16.359375 5.71875 16.96875 4.34375 
Q 17.578125 2.984375 18.703125 2.390625 
Q 19.828125 1.8125 23.578125 1.765625 
L 23.578125 0 
L 0.828125 0 
L 0.828125 1.765625 
Q 4.25 1.765625 5.953125 2.59375 
Q 6.984375 3.125 7.515625 4.25 
Q 8.25 5.859375 8.25 9.8125 
L 8.25 50.53125 
Q 8.25 58.296875 7.90625 60.03125 
Q 7.5625 61.765625 6.78125 62.421875 
Q 6 63.09375 4.734375 63.09375 
Q 3.71875 63.09375 1.65625 62.25 
L 0.828125 63.96875 
L 14.109375 69.4375 
z
" id="TimesNewRomanPSMT-6b"/>
      <path d="M 45.75 22.171875 
L 20.125 22.171875 
L 15.625 11.71875 
Q 13.96875 7.859375 13.96875 5.953125 
Q 13.96875 4.4375 15.40625 3.296875 
Q 16.84375 2.15625 21.625 1.8125 
L 21.625 0 
L 0.78125 0 
L 0.78125 1.8125 
Q 4.9375 2.546875 6.15625 3.71875 
Q 8.640625 6.0625 11.671875 13.234375 
L 34.96875 67.71875 
L 36.671875 67.71875 
L 59.71875 12.640625 
Q 62.5 6 64.765625 4.015625 
Q 67.046875 2.046875 71.09375 1.8125 
L 71.09375 0 
L 44.96875 0 
L 44.96875 1.8125 
Q 48.921875 2 50.3125 3.125 
Q 51.703125 4.25 51.703125 5.859375 
Q 51.703125 8.015625 49.75 12.640625 
z
M 44.390625 25.78125 
L 33.15625 52.546875 
L 21.625 25.78125 
z
" id="TimesNewRomanPSMT-41"/>
     </defs>
     <g transform="translate(35.44375 576.115404)rotate(-90)scale(0.2 -0.2)">
      <use xlink:href="#TimesNewRomanPSMT-55"/>
      <use x="72.216797" xlink:href="#TimesNewRomanPSMT-50"/>
      <use x="127.832031" xlink:href="#TimesNewRomanPSMT-53"/>
      <use x="183.447266" xlink:href="#TimesNewRomanPSMT-20"/>
      <use x="208.447266" xlink:href="#TimesNewRomanPSMT-43"/>
      <use x="275.146484" xlink:href="#TimesNewRomanPSMT-75"/>
      <use x="325.146484" xlink:href="#TimesNewRomanPSMT-72"/>
      <use x="358.447266" xlink:href="#TimesNewRomanPSMT-72"/>
      <use x="391.748047" xlink:href="#TimesNewRomanPSMT-65"/>
      <use x="436.132812" xlink:href="#TimesNewRomanPSMT-6e"/>
      <use x="486.132812" xlink:href="#TimesNewRomanPSMT-74"/>
      <use x="513.916016" xlink:href="#TimesNewRomanPSMT-20"/>
      <use x="538.916016" xlink:href="#TimesNewRomanPSMT-5b"/>
      <use x="572.216797" xlink:href="#TimesNewRomanPSMT-6b"/>
      <use x="622.216797" xlink:href="#TimesNewRomanPSMT-41"/>
      <use x="694.433594" xlink:href="#TimesNewRomanPSMT-5d"/>
     </g>
    </g>
   </g>
   <g id="line2d_61">
    <path clip-path="url(#p8b5b346a90)" d="M 92.290909 489.069269 
L 173.454545 489.069269 
L 176.16 543.902504 
L 203.214545 544.017939 
L 232.974545 544.361595 
L 254.618182 544.806366 
L 273.556364 545.401267 
L 289.789091 546.127087 
L 303.316364 546.93522 
L 316.843636 547.980555 
L 327.665455 549.028163 
L 338.487273 550.302872 
L 349.309091 551.8471 
L 357.425455 553.211503 
L 365.541818 554.777706 
L 373.658182 556.57153 
L 381.774545 558.62164 
L 389.890909 560.959414 
L 398.007273 563.61881 
L 403.418182 565.587358 
L 408.829091 567.726855 
L 414.24 570.049412 
L 416.945455 436.637654 
L 498.109091 436.63765 
L 498.109091 436.63765 
" style="fill:none;stroke:#000000;stroke-dasharray:3,5,1,5,1,5;stroke-dashoffset:0;stroke-opacity:0.8;"/>
    <g clip-path="url(#p8b5b346a90)">
     <use style="fill-opacity:0;stroke:#000000;stroke-opacity:0.8;" x="92.290909" xlink:href="#m93b8d5fc0c" y="489.069269"/>
     <use style="fill-opacity:0;stroke:#000000;stroke-opacity:0.8;" x="140.989091" xlink:href="#m93b8d5fc0c" y="489.069269"/>
     <use style="fill-opacity:0;stroke:#000000;stroke-opacity:0.8;" x="189.687273" xlink:href="#m93b8d5fc0c" y="543.935482"/>
     <use style="fill-opacity:0;stroke:#000000;stroke-opacity:0.8;" x="238.385455" xlink:href="#m93b8d5fc0c" y="544.45403"/>
     <use style="fill-opacity:0;stroke:#000000;stroke-opacity:0.8;" x="287.083636" xlink:href="#m93b8d5fc0c" y="545.989385"/>
     <use style="fill-opacity:0;stroke:#000000;stroke-opacity:0.8;" x="335.781818" xlink:href="#m93b8d5fc0c" y="549.960695"/>
     <use style="fill-opacity:0;stroke:#000000;stroke-opacity:0.8;" x="384.48" xlink:href="#m93b8d5fc0c" y="559.366886"/>
     <use style="fill-opacity:0;stroke:#000000;stroke-opacity:0.8;" x="433.178182" xlink:href="#m93b8d5fc0c" y="436.63765"/>
     <use style="fill-opacity:0;stroke:#000000;stroke-opacity:0.8;" x="481.876364" xlink:href="#m93b8d5fc0c" y="436.63765"/>
    </g>
   </g>
   <g id="line2d_62">
    <path clip-path="url(#p8b5b346a90)" d="M 92.290909 489.069269 
L 173.454545 489.069269 
L 176.16 548.791156 
L 178.865455 550.213745 
L 181.570909 550.209642 
L 184.276364 544.255684 
L 195.098182 544.260494 
L 224.858182 544.51192 
L 254.618182 544.989491 
L 281.672727 545.648426 
L 306.021818 546.466107 
L 330.370909 547.372942 
L 398.007273 548.372126 
L 414.24 548.651433 
L 416.945455 436.637647 
L 498.109091 436.63765 
L 498.109091 436.63765 
" style="fill:none;stroke:#000000;stroke-dasharray:2,1;stroke-dashoffset:0;stroke-opacity:0.8;"/>
    <g clip-path="url(#p8b5b346a90)">
     <use style="fill-opacity:0.8;stroke:#000000;stroke-opacity:0.8;" x="92.290909" xlink:href="#m7ac042d5fd" y="489.069269"/>
     <use style="fill-opacity:0.8;stroke:#000000;stroke-opacity:0.8;" x="140.989091" xlink:href="#m7ac042d5fd" y="489.069269"/>
     <use style="fill-opacity:0.8;stroke:#000000;stroke-opacity:0.8;" x="189.687273" xlink:href="#m7ac042d5fd" y="544.238442"/>
     <use style="fill-opacity:0.8;stroke:#000000;stroke-opacity:0.8;" x="238.385455" xlink:href="#m7ac042d5fd" y="544.70081"/>
     <use style="fill-opacity:0.8;stroke:#000000;stroke-opacity:0.8;" x="287.083636" xlink:href="#m7ac042d5fd" y="545.81036"/>
     <use style="fill-opacity:0.8;stroke:#000000;stroke-opacity:0.8;" x="335.781818" xlink:href="#m7ac042d5fd" y="547.443014"/>
     <use style="fill-opacity:0.8;stroke:#000000;stroke-opacity:0.8;" x="384.48" xlink:href="#m7ac042d5fd" y="548.151346"/>
     <use style="fill-opacity:0.8;stroke:#000000;stroke-opacity:0.8;" x="433.178182" xlink:href="#m7ac042d5fd" y="436.63765"/>
     <use style="fill-opacity:0.8;stroke:#000000;stroke-opacity:0.8;" x="481.876364" xlink:href="#m7ac042d5fd" y="436.63765"/>
    </g>
   </g>
   <g id="line2d_63">
    <path clip-path="url(#p8b5b346a90)" d="M 92.290909 489.069269 
L 173.454545 489.069269 
L 176.16 548.79136 
L 178.865455 550.213745 
L 181.570909 545.595664 
L 184.276364 544.255684 
L 195.098182 544.260494 
L 224.858182 544.51192 
L 254.618182 544.989491 
L 281.672727 545.648426 
L 306.021818 546.466107 
L 330.370909 547.372935 
L 398.007273 548.372126 
L 416.945455 548.698567 
L 419.650909 436.63765 
L 498.109091 436.63765 
L 498.109091 436.63765 
" style="fill:none;stroke:#000000;stroke-dasharray:4,4;stroke-dashoffset:0;stroke-opacity:0.8;"/>
    <g clip-path="url(#p8b5b346a90)">
     <use style="fill-opacity:0;stroke:#000000;stroke-linejoin:miter;stroke-opacity:0.8;" x="97.701818" xlink:href="#m925999934a" y="489.069269"/>
     <use style="fill-opacity:0;stroke:#000000;stroke-linejoin:miter;stroke-opacity:0.8;" x="146.4" xlink:href="#m925999934a" y="489.069269"/>
     <use style="fill-opacity:0;stroke:#000000;stroke-linejoin:miter;stroke-opacity:0.8;" x="195.098182" xlink:href="#m925999934a" y="544.260494"/>
     <use style="fill-opacity:0;stroke:#000000;stroke-linejoin:miter;stroke-opacity:0.8;" x="243.796364" xlink:href="#m925999934a" y="544.789125"/>
     <use style="fill-opacity:0;stroke:#000000;stroke-linejoin:miter;stroke-opacity:0.8;" x="292.494545" xlink:href="#m925999934a" y="545.983289"/>
     <use style="fill-opacity:0;stroke:#000000;stroke-linejoin:miter;stroke-opacity:0.8;" x="341.192727" xlink:href="#m925999934a" y="547.513101"/>
     <use style="fill-opacity:0;stroke:#000000;stroke-linejoin:miter;stroke-opacity:0.8;" x="389.890909" xlink:href="#m925999934a" y="548.238698"/>
     <use style="fill-opacity:0;stroke:#000000;stroke-linejoin:miter;stroke-opacity:0.8;" x="438.589091" xlink:href="#m925999934a" y="436.63765"/>
     <use style="fill-opacity:0;stroke:#000000;stroke-linejoin:miter;stroke-opacity:0.8;" x="487.287273" xlink:href="#m925999934a" y="436.63765"/>
    </g>
   </g>
   <g id="patch_14">
    <path d="M 72 576.72 
L 72 429.967059 
" style="fill:none;stroke:#000000;stroke-linecap:square;stroke-linejoin:miter;stroke-width:0.8;"/>
   </g>
   <g id="patch_15">
    <path d="M 518.4 576.72 
L 518.4 429.967059 
" style="fill:none;stroke:#000000;stroke-linecap:square;stroke-linejoin:miter;stroke-width:0.8;"/>
   </g>
   <g id="patch_16">
    <path d="M 72 576.72 
L 518.4 576.72 
" style="fill:none;stroke:#000000;stroke-linecap:square;stroke-linejoin:miter;stroke-width:0.8;"/>
   </g>
   <g id="patch_17">
    <path d="M 72 429.967059 
L 518.4 429.967059 
" style="fill:none;stroke:#000000;stroke-linecap:square;stroke-linejoin:miter;stroke-width:0.8;"/>
   </g>
  </g>
 </g>
 <defs>
  <clipPath id="p3f8012fe62">
   <rect height="146.752941" width="446.4" x="72" y="77.76"/>
  </clipPath>
  <clipPath id="pd63fcaadfa">
   <rect height="146.752941" width="446.4" x="72" y="253.863529"/>
  </clipPath>
  <clipPath id="p8b5b346a90">
   <rect height="146.752941" width="446.4" x="72" y="429.967059"/>
  </clipPath>
 </defs>
</svg>
