<?xml version="1.0" encoding="utf-8" standalone="no"?>
<!DOCTYPE svg PUBLIC "-//W3C//DTD SVG 1.1//EN"
  "http://www.w3.org/Graphics/SVG/1.1/DTD/svg11.dtd">
<!-- Created with matplotlib (http://matplotlib.org/) -->
<svg height="432pt" version="1.1" viewBox="0 0 720 432" width="720pt" xmlns="http://www.w3.org/2000/svg" xmlns:xlink="http://www.w3.org/1999/xlink">
 <defs>
  <style type="text/css">
*{stroke-linecap:butt;stroke-linejoin:round;}
  </style>
 </defs>
 <g id="figure_1">
  <g id="patch_1">
   <path d="M 0 432 
L 720 432 
L 720 0 
L 0 0 
z
" style="fill:#ffffff;"/>
  </g>
  <g id="axes_1">
   <g id="patch_2">
    <path d="M 90 203.04 
L 648 203.04 
L 648 51.84 
L 90 51.84 
z
" style="fill:#ffffff;"/>
   </g>
   <g id="matplotlib.axis_1">
    <g id="xtick_1">
     <g id="line2d_1">
      <path clip-path="url(#pdca5b8cb88)" d="M 154.994318 203.04 
L 154.994318 51.84 
" style="fill:none;stroke:#b0b0b0;stroke-dasharray:0.5,0.825;stroke-dashoffset:0;stroke-width:0.5;"/>
     </g>
     <g id="line2d_2">
      <defs>
       <path d="M 0 0 
L 0 3.5 
" id="m989c0ea645" style="stroke:#000000;stroke-width:0.8;"/>
      </defs>
      <g>
       <use style="stroke:#000000;stroke-width:0.8;" x="154.994318" xlink:href="#m989c0ea645" y="203.04"/>
      </g>
     </g>
    </g>
    <g id="xtick_2">
     <g id="line2d_3">
      <path clip-path="url(#pdca5b8cb88)" d="M 194.625 203.04 
L 194.625 51.84 
" style="fill:none;stroke:#b0b0b0;stroke-dasharray:0.5,0.825;stroke-dashoffset:0;stroke-width:0.5;"/>
     </g>
     <g id="line2d_4">
      <g>
       <use style="stroke:#000000;stroke-width:0.8;" x="194.625" xlink:href="#m989c0ea645" y="203.04"/>
      </g>
     </g>
    </g>
    <g id="xtick_3">
     <g id="line2d_5">
      <path clip-path="url(#pdca5b8cb88)" d="M 234.255682 203.04 
L 234.255682 51.84 
" style="fill:none;stroke:#b0b0b0;stroke-dasharray:0.5,0.825;stroke-dashoffset:0;stroke-width:0.5;"/>
     </g>
     <g id="line2d_6">
      <g>
       <use style="stroke:#000000;stroke-width:0.8;" x="234.255682" xlink:href="#m989c0ea645" y="203.04"/>
      </g>
     </g>
    </g>
    <g id="xtick_4">
     <g id="line2d_7">
      <path clip-path="url(#pdca5b8cb88)" d="M 273.886364 203.04 
L 273.886364 51.84 
" style="fill:none;stroke:#b0b0b0;stroke-dasharray:0.5,0.825;stroke-dashoffset:0;stroke-width:0.5;"/>
     </g>
     <g id="line2d_8">
      <g>
       <use style="stroke:#000000;stroke-width:0.8;" x="273.886364" xlink:href="#m989c0ea645" y="203.04"/>
      </g>
     </g>
    </g>
    <g id="xtick_5">
     <g id="line2d_9">
      <path clip-path="url(#pdca5b8cb88)" d="M 313.517045 203.04 
L 313.517045 51.84 
" style="fill:none;stroke:#b0b0b0;stroke-dasharray:0.5,0.825;stroke-dashoffset:0;stroke-width:0.5;"/>
     </g>
     <g id="line2d_10">
      <g>
       <use style="stroke:#000000;stroke-width:0.8;" x="313.517045" xlink:href="#m989c0ea645" y="203.04"/>
      </g>
     </g>
    </g>
    <g id="xtick_6">
     <g id="line2d_11">
      <path clip-path="url(#pdca5b8cb88)" d="M 353.147727 203.04 
L 353.147727 51.84 
" style="fill:none;stroke:#b0b0b0;stroke-dasharray:0.5,0.825;stroke-dashoffset:0;stroke-width:0.5;"/>
     </g>
     <g id="line2d_12">
      <g>
       <use style="stroke:#000000;stroke-width:0.8;" x="353.147727" xlink:href="#m989c0ea645" y="203.04"/>
      </g>
     </g>
    </g>
    <g id="xtick_7">
     <g id="line2d_13">
      <path clip-path="url(#pdca5b8cb88)" d="M 392.778409 203.04 
L 392.778409 51.84 
" style="fill:none;stroke:#b0b0b0;stroke-dasharray:0.5,0.825;stroke-dashoffset:0;stroke-width:0.5;"/>
     </g>
     <g id="line2d_14">
      <g>
       <use style="stroke:#000000;stroke-width:0.8;" x="392.778409" xlink:href="#m989c0ea645" y="203.04"/>
      </g>
     </g>
    </g>
    <g id="xtick_8">
     <g id="line2d_15">
      <path clip-path="url(#pdca5b8cb88)" d="M 432.409091 203.04 
L 432.409091 51.84 
" style="fill:none;stroke:#b0b0b0;stroke-dasharray:0.5,0.825;stroke-dashoffset:0;stroke-width:0.5;"/>
     </g>
     <g id="line2d_16">
      <g>
       <use style="stroke:#000000;stroke-width:0.8;" x="432.409091" xlink:href="#m989c0ea645" y="203.04"/>
      </g>
     </g>
    </g>
    <g id="xtick_9">
     <g id="line2d_17">
      <path clip-path="url(#pdca5b8cb88)" d="M 472.039773 203.04 
L 472.039773 51.84 
" style="fill:none;stroke:#b0b0b0;stroke-dasharray:0.5,0.825;stroke-dashoffset:0;stroke-width:0.5;"/>
     </g>
     <g id="line2d_18">
      <g>
       <use style="stroke:#000000;stroke-width:0.8;" x="472.039773" xlink:href="#m989c0ea645" y="203.04"/>
      </g>
     </g>
    </g>
    <g id="xtick_10">
     <g id="line2d_19">
      <path clip-path="url(#pdca5b8cb88)" d="M 511.670455 203.04 
L 511.670455 51.84 
" style="fill:none;stroke:#b0b0b0;stroke-dasharray:0.5,0.825;stroke-dashoffset:0;stroke-width:0.5;"/>
     </g>
     <g id="line2d_20">
      <g>
       <use style="stroke:#000000;stroke-width:0.8;" x="511.670455" xlink:href="#m989c0ea645" y="203.04"/>
      </g>
     </g>
    </g>
    <g id="xtick_11">
     <g id="line2d_21">
      <path clip-path="url(#pdca5b8cb88)" d="M 551.301136 203.04 
L 551.301136 51.84 
" style="fill:none;stroke:#b0b0b0;stroke-dasharray:0.5,0.825;stroke-dashoffset:0;stroke-width:0.5;"/>
     </g>
     <g id="line2d_22">
      <g>
       <use style="stroke:#000000;stroke-width:0.8;" x="551.301136" xlink:href="#m989c0ea645" y="203.04"/>
      </g>
     </g>
    </g>
    <g id="xtick_12">
     <g id="line2d_23">
      <path clip-path="url(#pdca5b8cb88)" d="M 590.931818 203.04 
L 590.931818 51.84 
" style="fill:none;stroke:#b0b0b0;stroke-dasharray:0.5,0.825;stroke-dashoffset:0;stroke-width:0.5;"/>
     </g>
     <g id="line2d_24">
      <g>
       <use style="stroke:#000000;stroke-width:0.8;" x="590.931818" xlink:href="#m989c0ea645" y="203.04"/>
      </g>
     </g>
    </g>
   </g>
   <g id="matplotlib.axis_2">
    <g id="ytick_1">
     <g id="line2d_25">
      <path clip-path="url(#pdca5b8cb88)" d="M 90 181.44 
L 648 181.44 
" style="fill:none;stroke:#b0b0b0;stroke-dasharray:0.5,0.825;stroke-dashoffset:0;stroke-width:0.5;"/>
     </g>
     <g id="line2d_26">
      <defs>
       <path d="M 0 0 
L -3.5 0 
" id="m38422979e6" style="stroke:#000000;stroke-width:0.8;"/>
      </defs>
      <g>
       <use style="stroke:#000000;stroke-width:0.8;" x="90" xlink:href="#m38422979e6" y="181.44"/>
      </g>
     </g>
     <g id="text_1">
      <!-- 0.00 -->
      <defs>
       <path d="M 3.609375 32.71875 
Q 3.609375 44.046875 7.03125 52.21875 
Q 10.453125 60.40625 16.109375 64.40625 
Q 20.515625 67.578125 25.203125 67.578125 
Q 32.8125 67.578125 38.875 59.8125 
Q 46.4375 50.203125 46.4375 33.734375 
Q 46.4375 22.21875 43.109375 14.15625 
Q 39.796875 6.109375 34.640625 2.46875 
Q 29.5 -1.171875 24.703125 -1.171875 
Q 15.234375 -1.171875 8.9375 10.015625 
Q 3.609375 19.4375 3.609375 32.71875 
z
M 13.1875 31.5 
Q 13.1875 17.828125 16.546875 9.1875 
Q 19.34375 1.90625 24.859375 1.90625 
Q 27.484375 1.90625 30.3125 4.265625 
Q 33.15625 6.640625 34.625 12.203125 
Q 36.859375 20.609375 36.859375 35.890625 
Q 36.859375 47.21875 34.515625 54.78125 
Q 32.765625 60.40625 29.984375 62.75 
Q 27.984375 64.359375 25.140625 64.359375 
Q 21.828125 64.359375 19.234375 61.375 
Q 15.71875 57.328125 14.453125 48.625 
Q 13.1875 39.9375 13.1875 31.5 
z
" id="TimesNewRomanPSMT-30"/>
       <path d="M 12.5 9.46875 
Q 14.796875 9.46875 16.359375 7.875 
Q 17.921875 6.296875 17.921875 4.046875 
Q 17.921875 1.8125 16.328125 0.21875 
Q 14.75 -1.375 12.5 -1.375 
Q 10.25 -1.375 8.65625 0.21875 
Q 7.078125 1.8125 7.078125 4.046875 
Q 7.078125 6.34375 8.65625 7.90625 
Q 10.25 9.46875 12.5 9.46875 
z
" id="TimesNewRomanPSMT-2e"/>
      </defs>
      <g transform="translate(62 185.60625)scale(0.12 -0.12)">
       <use xlink:href="#TimesNewRomanPSMT-30"/>
       <use x="50" xlink:href="#TimesNewRomanPSMT-2e"/>
       <use x="75" xlink:href="#TimesNewRomanPSMT-30"/>
       <use x="125" xlink:href="#TimesNewRomanPSMT-30"/>
      </g>
     </g>
    </g>
    <g id="ytick_2">
     <g id="line2d_27">
      <path clip-path="url(#pdca5b8cb88)" d="M 90 154.44 
L 648 154.44 
" style="fill:none;stroke:#b0b0b0;stroke-dasharray:0.5,0.825;stroke-dashoffset:0;stroke-width:0.5;"/>
     </g>
     <g id="line2d_28">
      <g>
       <use style="stroke:#000000;stroke-width:0.8;" x="90" xlink:href="#m38422979e6" y="154.44"/>
      </g>
     </g>
     <g id="text_2">
      <!-- 0.25 -->
      <defs>
       <path d="M 45.84375 12.75 
L 41.21875 0 
L 2.15625 0 
L 2.15625 1.8125 
Q 19.390625 17.53125 26.421875 27.484375 
Q 33.453125 37.453125 33.453125 45.703125 
Q 33.453125 52 29.59375 56.046875 
Q 25.734375 60.109375 20.359375 60.109375 
Q 15.484375 60.109375 11.59375 57.25 
Q 7.71875 54.390625 5.859375 48.875 
L 4.046875 48.875 
Q 5.28125 57.90625 10.328125 62.734375 
Q 15.375 67.578125 22.953125 67.578125 
Q 31 67.578125 36.390625 62.40625 
Q 41.796875 57.234375 41.796875 50.203125 
Q 41.796875 45.171875 39.453125 40.140625 
Q 35.84375 32.234375 27.734375 23.390625 
Q 15.578125 10.109375 12.546875 7.375 
L 29.828125 7.375 
Q 35.109375 7.375 37.234375 7.765625 
Q 39.359375 8.15625 41.0625 9.34375 
Q 42.78125 10.546875 44.046875 12.75 
z
" id="TimesNewRomanPSMT-32"/>
       <path d="M 43.40625 66.21875 
L 39.59375 57.90625 
L 19.671875 57.90625 
L 15.328125 49.03125 
Q 28.265625 47.125 35.84375 39.40625 
Q 42.328125 32.765625 42.328125 23.78125 
Q 42.328125 18.5625 40.203125 14.109375 
Q 38.09375 9.671875 34.859375 6.546875 
Q 31.640625 3.421875 27.6875 1.515625 
Q 22.078125 -1.171875 16.15625 -1.171875 
Q 10.203125 -1.171875 7.484375 0.84375 
Q 4.78125 2.875 4.78125 5.328125 
Q 4.78125 6.6875 5.90625 7.734375 
Q 7.03125 8.796875 8.734375 8.796875 
Q 10.015625 8.796875 10.96875 8.40625 
Q 11.921875 8.015625 14.203125 6.390625 
Q 17.875 3.859375 21.625 3.859375 
Q 27.34375 3.859375 31.65625 8.171875 
Q 35.984375 12.5 35.984375 18.703125 
Q 35.984375 24.703125 32.125 29.90625 
Q 28.265625 35.109375 21.484375 37.9375 
Q 16.15625 40.140625 6.984375 40.484375 
L 19.671875 66.21875 
z
" id="TimesNewRomanPSMT-35"/>
      </defs>
      <g transform="translate(62 158.60625)scale(0.12 -0.12)">
       <use xlink:href="#TimesNewRomanPSMT-30"/>
       <use x="50" xlink:href="#TimesNewRomanPSMT-2e"/>
       <use x="75" xlink:href="#TimesNewRomanPSMT-32"/>
       <use x="125" xlink:href="#TimesNewRomanPSMT-35"/>
      </g>
     </g>
    </g>
    <g id="ytick_3">
     <g id="line2d_29">
      <path clip-path="url(#pdca5b8cb88)" d="M 90 127.44 
L 648 127.44 
" style="fill:none;stroke:#b0b0b0;stroke-dasharray:0.5,0.825;stroke-dashoffset:0;stroke-width:0.5;"/>
     </g>
     <g id="line2d_30">
      <g>
       <use style="stroke:#000000;stroke-width:0.8;" x="90" xlink:href="#m38422979e6" y="127.44"/>
      </g>
     </g>
     <g id="text_3">
      <!-- 0.50 -->
      <g transform="translate(62 131.60625)scale(0.12 -0.12)">
       <use xlink:href="#TimesNewRomanPSMT-30"/>
       <use x="50" xlink:href="#TimesNewRomanPSMT-2e"/>
       <use x="75" xlink:href="#TimesNewRomanPSMT-35"/>
       <use x="125" xlink:href="#TimesNewRomanPSMT-30"/>
      </g>
     </g>
    </g>
    <g id="ytick_4">
     <g id="line2d_31">
      <path clip-path="url(#pdca5b8cb88)" d="M 90 100.44 
L 648 100.44 
" style="fill:none;stroke:#b0b0b0;stroke-dasharray:0.5,0.825;stroke-dashoffset:0;stroke-width:0.5;"/>
     </g>
     <g id="line2d_32">
      <g>
       <use style="stroke:#000000;stroke-width:0.8;" x="90" xlink:href="#m38422979e6" y="100.44"/>
      </g>
     </g>
     <g id="text_4">
      <!-- 0.75 -->
      <defs>
       <path d="M 10.0625 66.21875 
L 45.5625 66.21875 
L 45.5625 64.359375 
L 23.484375 -1.375 
L 18.015625 -1.375 
L 37.796875 58.25 
L 19.578125 58.25 
Q 14.0625 58.25 11.71875 56.9375 
Q 7.625 54.6875 5.125 50 
L 3.71875 50.53125 
z
" id="TimesNewRomanPSMT-37"/>
      </defs>
      <g transform="translate(62 104.60625)scale(0.12 -0.12)">
       <use xlink:href="#TimesNewRomanPSMT-30"/>
       <use x="50" xlink:href="#TimesNewRomanPSMT-2e"/>
       <use x="75" xlink:href="#TimesNewRomanPSMT-37"/>
       <use x="125" xlink:href="#TimesNewRomanPSMT-35"/>
      </g>
     </g>
    </g>
    <g id="ytick_5">
     <g id="line2d_33">
      <path clip-path="url(#pdca5b8cb88)" d="M 90 73.44 
L 648 73.44 
" style="fill:none;stroke:#b0b0b0;stroke-dasharray:0.5,0.825;stroke-dashoffset:0;stroke-width:0.5;"/>
     </g>
     <g id="line2d_34">
      <g>
       <use style="stroke:#000000;stroke-width:0.8;" x="90" xlink:href="#m38422979e6" y="73.44"/>
      </g>
     </g>
     <g id="text_5">
      <!-- 1.00 -->
      <defs>
       <path d="M 11.71875 59.71875 
L 27.828125 67.578125 
L 29.4375 67.578125 
L 29.4375 11.671875 
Q 29.4375 6.109375 29.90625 4.734375 
Q 30.375 3.375 31.828125 2.640625 
Q 33.296875 1.90625 37.796875 1.8125 
L 37.796875 0 
L 12.890625 0 
L 12.890625 1.8125 
Q 17.578125 1.90625 18.9375 2.609375 
Q 20.3125 3.328125 20.84375 4.515625 
Q 21.390625 5.71875 21.390625 11.671875 
L 21.390625 47.40625 
Q 21.390625 54.640625 20.90625 56.6875 
Q 20.5625 58.25 19.65625 58.984375 
Q 18.75 59.71875 17.484375 59.71875 
Q 15.671875 59.71875 12.453125 58.203125 
z
" id="TimesNewRomanPSMT-31"/>
      </defs>
      <g transform="translate(62 77.60625)scale(0.12 -0.12)">
       <use xlink:href="#TimesNewRomanPSMT-31"/>
       <use x="50" xlink:href="#TimesNewRomanPSMT-2e"/>
       <use x="75" xlink:href="#TimesNewRomanPSMT-30"/>
       <use x="125" xlink:href="#TimesNewRomanPSMT-30"/>
      </g>
     </g>
    </g>
    <g id="text_6">
     <!-- SOC -->
     <defs>
      <path d="M 45.84375 67.71875 
L 45.84375 44.828125 
L 44.046875 44.828125 
Q 43.171875 51.421875 40.890625 55.328125 
Q 38.625 59.234375 34.421875 61.515625 
Q 30.21875 63.8125 25.734375 63.8125 
Q 20.65625 63.8125 17.328125 60.71875 
Q 14.015625 57.625 14.015625 53.65625 
Q 14.015625 50.640625 16.109375 48.140625 
Q 19.140625 44.484375 30.515625 38.375 
Q 39.796875 33.40625 43.1875 30.734375 
Q 46.578125 28.078125 48.40625 24.453125 
Q 50.25 20.84375 50.25 16.890625 
Q 50.25 9.375 44.40625 3.921875 
Q 38.578125 -1.515625 29.390625 -1.515625 
Q 26.515625 -1.515625 23.96875 -1.078125 
Q 22.46875 -0.828125 17.703125 0.703125 
Q 12.9375 2.25 11.671875 2.25 
Q 10.453125 2.25 9.734375 1.515625 
Q 9.03125 0.78125 8.6875 -1.515625 
L 6.890625 -1.515625 
L 6.890625 21.1875 
L 8.6875 21.1875 
Q 9.96875 14.0625 12.109375 10.515625 
Q 14.265625 6.984375 18.671875 4.640625 
Q 23.09375 2.296875 28.375 2.296875 
Q 34.46875 2.296875 38 5.515625 
Q 41.546875 8.734375 41.546875 13.140625 
Q 41.546875 15.578125 40.203125 18.0625 
Q 38.875 20.5625 36.03125 22.703125 
Q 34.125 24.171875 25.625 28.921875 
Q 17.140625 33.6875 13.546875 36.515625 
Q 9.96875 39.359375 8.109375 42.765625 
Q 6.25 46.1875 6.25 50.296875 
Q 6.25 57.421875 11.71875 62.5625 
Q 17.1875 67.71875 25.640625 67.71875 
Q 30.90625 67.71875 36.8125 65.140625 
Q 39.546875 63.921875 40.671875 63.921875 
Q 41.9375 63.921875 42.75 64.671875 
Q 43.5625 65.4375 44.046875 67.71875 
z
" id="TimesNewRomanPSMT-53"/>
      <path d="M 36.578125 67.71875 
Q 49.46875 67.71875 58.90625 57.921875 
Q 68.359375 48.140625 68.359375 33.5 
Q 68.359375 18.40625 58.828125 8.4375 
Q 49.3125 -1.515625 35.796875 -1.515625 
Q 22.125 -1.515625 12.8125 8.203125 
Q 3.515625 17.921875 3.515625 33.34375 
Q 3.515625 49.125 14.265625 59.078125 
Q 23.578125 67.71875 36.578125 67.71875 
z
M 35.640625 64.15625 
Q 26.765625 64.15625 21.390625 57.5625 
Q 14.703125 49.359375 14.703125 33.546875 
Q 14.703125 17.328125 21.625 8.59375 
Q 26.953125 1.953125 35.6875 1.953125 
Q 45.015625 1.953125 51.09375 9.21875 
Q 57.171875 16.5 57.171875 32.171875 
Q 57.171875 49.171875 50.484375 57.515625 
Q 45.125 64.15625 35.640625 64.15625 
z
" id="TimesNewRomanPSMT-4f"/>
      <path d="M 60.203125 67.71875 
L 61.71875 45.21875 
L 60.203125 45.21875 
Q 57.171875 55.328125 51.5625 59.765625 
Q 45.953125 64.203125 38.09375 64.203125 
Q 31.5 64.203125 26.171875 60.859375 
Q 20.84375 57.515625 17.796875 50.1875 
Q 14.75 42.875 14.75 31.984375 
Q 14.75 23 17.625 16.40625 
Q 20.515625 9.8125 26.296875 6.296875 
Q 32.078125 2.78125 39.5 2.78125 
Q 45.953125 2.78125 50.875 5.53125 
Q 55.8125 8.296875 61.71875 16.5 
L 63.234375 15.53125 
Q 58.25 6.6875 51.609375 2.578125 
Q 44.96875 -1.515625 35.84375 -1.515625 
Q 19.390625 -1.515625 10.359375 10.6875 
Q 3.609375 19.78125 3.609375 32.078125 
Q 3.609375 42 8.046875 50.296875 
Q 12.5 58.59375 20.28125 63.15625 
Q 28.078125 67.71875 37.3125 67.71875 
Q 44.484375 67.71875 51.46875 64.203125 
Q 53.515625 63.140625 54.390625 63.140625 
Q 55.71875 63.140625 56.6875 64.0625 
Q 57.953125 65.375 58.5 67.71875 
z
" id="TimesNewRomanPSMT-43"/>
     </defs>
     <g transform="translate(55.433125 139.111875)rotate(-90)scale(0.12 -0.12)">
      <use xlink:href="#TimesNewRomanPSMT-53"/>
      <use x="55.615234" xlink:href="#TimesNewRomanPSMT-4f"/>
      <use x="127.832031" xlink:href="#TimesNewRomanPSMT-43"/>
     </g>
    </g>
   </g>
   <g id="line2d_35">
    <path clip-path="url(#pdca5b8cb88)" d="M 115.363636 74.519999 
L 155.786932 74.625497 
L 163.184659 75.578472 
L 181.546875 78.325395 
L 184.453125 78.783255 
L 187.359375 79.515341 
L 190.926136 80.717878 
L 196.870739 82.893651 
L 199.380682 83.5355 
L 207.174716 85.164041 
L 219.59233 87.787034 
L 240.200284 92.623814 
L 246.673295 94.028186 
L 268.47017 98.554693 
L 281.284091 101.708609 
L 300.703125 106.616585 
L 313.78125 110.138413 
L 316.555398 111.065968 
L 319.197443 112.280118 
L 323.160511 114.357628 
L 325.670455 115.311371 
L 331.482955 117.029257 
L 345.485795 120.859301 
L 363.055398 125.70385 
L 367.943182 127.468794 
L 375.076705 130.257081 
L 377.850852 131.23855 
L 385.512784 133.572637 
L 404.931818 139.338383 
L 416.953125 142.512573 
L 427.125 145.347613 
L 437.428977 148.476324 
L 450.242898 152.578616 
L 495.421875 167.083282 
L 515.50142 172.984942 
L 532.542614 178.036286 
L 534.65625 178.953858 
L 537.5625 180.36 
L 622.636364 180.36 
L 622.636364 180.36 
" style="fill:none;stroke:#000000;stroke-linecap:square;"/>
   </g>
   <g id="line2d_36">
    <path clip-path="url(#pdca5b8cb88)" d="M 115.363636 74.519999 
L 155.12642 74.612801 
L 200.701705 106.759728 
L 294.62642 180.36 
L 622.636364 180.36 
L 622.636364 180.36 
" style="fill:none;stroke:#000000;stroke-dasharray:6.4,1.6,1,1.6;stroke-dashoffset:0;"/>
   </g>
   <g id="patch_3">
    <path d="M 90 203.04 
L 90 51.84 
" style="fill:none;stroke:#000000;stroke-linecap:square;stroke-linejoin:miter;stroke-width:0.8;"/>
   </g>
   <g id="patch_4">
    <path d="M 648 203.04 
L 648 51.84 
" style="fill:none;stroke:#000000;stroke-linecap:square;stroke-linejoin:miter;stroke-width:0.8;"/>
   </g>
   <g id="patch_5">
    <path d="M 90 203.04 
L 648 203.04 
" style="fill:none;stroke:#000000;stroke-linecap:square;stroke-linejoin:miter;stroke-width:0.8;"/>
   </g>
   <g id="patch_6">
    <path d="M 90 51.84 
L 648 51.84 
" style="fill:none;stroke:#000000;stroke-linecap:square;stroke-linejoin:miter;stroke-width:0.8;"/>
   </g>
   <g id="legend_1">
    <g id="patch_7">
     <path d="M 536.540625 95.37375 
L 639.6 95.37375 
Q 642 95.37375 642 92.97375 
L 642 60.24 
Q 642 57.84 639.6 57.84 
L 536.540625 57.84 
Q 534.140625 57.84 534.140625 60.24 
L 534.140625 92.97375 
Q 534.140625 95.37375 536.540625 95.37375 
z
" style="fill:#ffffff;opacity:0.8;stroke:#cccccc;stroke-linejoin:miter;"/>
    </g>
    <g id="line2d_37">
     <path d="M 538.940625 66.84 
L 562.940625 66.84 
" style="fill:none;stroke:#000000;stroke-linecap:square;"/>
    </g>
    <g id="line2d_38"/>
    <g id="text_7">
     <!-- Renewable -->
     <defs>
      <path d="M 67.578125 0 
L 49.90625 0 
L 27.484375 30.953125 
Q 25 30.859375 23.4375 30.859375 
Q 22.796875 30.859375 22.0625 30.875 
Q 21.34375 30.90625 20.5625 30.953125 
L 20.5625 11.71875 
Q 20.5625 5.46875 21.921875 3.953125 
Q 23.78125 1.8125 27.484375 1.8125 
L 30.078125 1.8125 
L 30.078125 0 
L 1.703125 0 
L 1.703125 1.8125 
L 4.203125 1.8125 
Q 8.40625 1.8125 10.203125 4.546875 
Q 11.234375 6.0625 11.234375 11.71875 
L 11.234375 54.5 
Q 11.234375 60.75 9.859375 62.25 
Q 7.953125 64.40625 4.203125 64.40625 
L 1.703125 64.40625 
L 1.703125 66.21875 
L 25.828125 66.21875 
Q 36.375 66.21875 41.375 64.671875 
Q 46.390625 63.140625 49.875 59.015625 
Q 53.375 54.890625 53.375 49.171875 
Q 53.375 43.0625 49.390625 38.5625 
Q 45.40625 34.078125 37.0625 32.234375 
L 50.734375 13.234375 
Q 55.421875 6.6875 58.78125 4.53125 
Q 62.15625 2.390625 67.578125 1.8125 
z
M 20.5625 34.03125 
Q 21.484375 34.03125 22.171875 34 
Q 22.859375 33.984375 23.296875 33.984375 
Q 32.765625 33.984375 37.578125 38.078125 
Q 42.390625 42.1875 42.390625 48.53125 
Q 42.390625 54.734375 38.5 58.609375 
Q 34.625 62.5 28.21875 62.5 
Q 25.390625 62.5 20.5625 61.578125 
z
" id="TimesNewRomanPSMT-52"/>
      <path d="M 10.640625 27.875 
Q 10.59375 17.921875 15.484375 12.25 
Q 20.359375 6.59375 26.953125 6.59375 
Q 31.34375 6.59375 34.59375 9 
Q 37.84375 11.421875 40.046875 17.28125 
L 41.546875 16.3125 
Q 40.53125 9.625 35.59375 4.125 
Q 30.671875 -1.375 23.25 -1.375 
Q 15.1875 -1.375 9.453125 4.90625 
Q 3.71875 11.1875 3.71875 21.78125 
Q 3.71875 33.25 9.59375 39.671875 
Q 15.484375 46.09375 24.359375 46.09375 
Q 31.890625 46.09375 36.71875 41.140625 
Q 41.546875 36.1875 41.546875 27.875 
z
M 10.640625 30.71875 
L 31.34375 30.71875 
Q 31.109375 35.015625 30.328125 36.765625 
Q 29.109375 39.5 26.6875 41.0625 
Q 24.265625 42.625 21.625 42.625 
Q 17.578125 42.625 14.375 39.46875 
Q 11.1875 36.328125 10.640625 30.71875 
z
" id="TimesNewRomanPSMT-65"/>
      <path d="M 16.15625 36.578125 
Q 24.03125 46.046875 31.15625 46.046875 
Q 34.8125 46.046875 37.453125 44.21875 
Q 40.09375 42.390625 41.65625 38.1875 
Q 42.71875 35.25 42.71875 29.203125 
L 42.71875 10.109375 
Q 42.71875 5.859375 43.40625 4.34375 
Q 43.953125 3.125 45.140625 2.4375 
Q 46.34375 1.765625 49.5625 1.765625 
L 49.5625 0 
L 27.4375 0 
L 27.4375 1.765625 
L 28.375 1.765625 
Q 31.5 1.765625 32.734375 2.703125 
Q 33.984375 3.65625 34.46875 5.515625 
Q 34.671875 6.25 34.671875 10.109375 
L 34.671875 28.421875 
Q 34.671875 34.515625 33.078125 37.28125 
Q 31.5 40.046875 27.734375 40.046875 
Q 21.921875 40.046875 16.15625 33.6875 
L 16.15625 10.109375 
Q 16.15625 5.5625 16.703125 4.5 
Q 17.390625 3.078125 18.578125 2.421875 
Q 19.78125 1.765625 23.4375 1.765625 
L 23.4375 0 
L 1.3125 0 
L 1.3125 1.765625 
L 2.296875 1.765625 
Q 5.71875 1.765625 6.90625 3.484375 
Q 8.109375 5.21875 8.109375 10.109375 
L 8.109375 26.703125 
Q 8.109375 34.765625 7.734375 36.515625 
Q 7.375 38.28125 6.609375 38.90625 
Q 5.859375 39.546875 4.59375 39.546875 
Q 3.21875 39.546875 1.3125 38.8125 
L 0.59375 40.578125 
L 14.0625 46.046875 
L 16.15625 46.046875 
z
" id="TimesNewRomanPSMT-6e"/>
      <path d="M 0.640625 44.734375 
L 19.390625 44.734375 
L 19.390625 42.921875 
Q 16.796875 42.71875 15.984375 41.984375 
Q 15.1875 41.265625 15.1875 39.890625 
Q 15.1875 38.375 16.015625 36.234375 
L 25.59375 10.5 
L 35.203125 31.453125 
L 32.671875 38.03125 
Q 31.5 40.96875 29.59375 42.09375 
Q 28.515625 42.78125 25.59375 42.921875 
L 25.59375 44.734375 
L 46.875 44.734375 
L 46.875 42.921875 
Q 43.359375 42.78125 41.890625 41.65625 
Q 40.921875 40.875 40.921875 39.15625 
Q 40.921875 38.1875 41.3125 37.15625 
L 51.46875 11.46875 
L 60.890625 36.234375 
Q 61.859375 38.875 61.859375 40.4375 
Q 61.859375 41.359375 60.90625 42.09375 
Q 59.96875 42.828125 57.171875 42.921875 
L 57.171875 44.734375 
L 71.296875 44.734375 
L 71.296875 42.921875 
Q 67.046875 42.28125 65.046875 37.15625 
L 50.09375 -1.375 
L 48.09375 -1.375 
L 36.921875 27.203125 
L 23.875 -1.375 
L 22.078125 -1.375 
L 7.71875 36.234375 
Q 6.296875 39.796875 4.921875 41.03125 
Q 3.5625 42.28125 0.640625 42.921875 
z
" id="TimesNewRomanPSMT-77"/>
      <path d="M 28.46875 6.453125 
Q 21.578125 1.125 19.828125 0.296875 
Q 17.1875 -0.921875 14.203125 -0.921875 
Q 9.578125 -0.921875 6.5625 2.25 
Q 3.5625 5.421875 3.5625 10.59375 
Q 3.5625 13.875 5.03125 16.265625 
Q 7.03125 19.578125 11.984375 22.5 
Q 16.9375 25.4375 28.46875 29.640625 
L 28.46875 31.390625 
Q 28.46875 38.09375 26.34375 40.578125 
Q 24.21875 43.0625 20.171875 43.0625 
Q 17.09375 43.0625 15.28125 41.40625 
Q 13.421875 39.75 13.421875 37.59375 
L 13.53125 34.765625 
Q 13.53125 32.515625 12.375 31.296875 
Q 11.234375 30.078125 9.375 30.078125 
Q 7.5625 30.078125 6.421875 31.34375 
Q 5.28125 32.625 5.28125 34.8125 
Q 5.28125 39.015625 9.578125 42.53125 
Q 13.875 46.046875 21.625 46.046875 
Q 27.59375 46.046875 31.390625 44.046875 
Q 34.28125 42.53125 35.640625 39.3125 
Q 36.53125 37.203125 36.53125 30.71875 
L 36.53125 15.53125 
Q 36.53125 9.125 36.765625 7.6875 
Q 37.015625 6.25 37.578125 5.765625 
Q 38.140625 5.28125 38.875 5.28125 
Q 39.65625 5.28125 40.234375 5.609375 
Q 41.265625 6.25 44.1875 9.1875 
L 44.1875 6.453125 
Q 38.71875 -0.875 33.734375 -0.875 
Q 31.34375 -0.875 29.921875 0.78125 
Q 28.515625 2.4375 28.46875 6.453125 
z
M 28.46875 9.625 
L 28.46875 26.65625 
Q 21.09375 23.734375 18.953125 22.515625 
Q 15.09375 20.359375 13.421875 18.015625 
Q 11.765625 15.671875 11.765625 12.890625 
Q 11.765625 9.375 13.859375 7.046875 
Q 15.96875 4.734375 18.703125 4.734375 
Q 22.40625 4.734375 28.46875 9.625 
z
" id="TimesNewRomanPSMT-61"/>
      <path d="M 15.375 37.015625 
Q 21.875 46.046875 29.390625 46.046875 
Q 36.28125 46.046875 41.40625 40.15625 
Q 46.53125 34.28125 46.53125 24.078125 
Q 46.53125 12.15625 38.625 4.890625 
Q 31.84375 -1.375 23.484375 -1.375 
Q 19.578125 -1.375 15.546875 0.046875 
Q 11.53125 1.46875 7.328125 4.296875 
L 7.328125 50.640625 
Q 7.328125 58.25 6.953125 60 
Q 6.59375 61.765625 5.8125 62.390625 
Q 5.03125 63.03125 3.859375 63.03125 
Q 2.484375 63.03125 0.4375 62.25 
L -0.25 63.96875 
L 13.1875 69.4375 
L 15.375 69.4375 
z
M 15.375 33.890625 
L 15.375 7.125 
Q 17.875 4.6875 20.53125 3.4375 
Q 23.1875 2.203125 25.984375 2.203125 
Q 30.421875 2.203125 34.25 7.078125 
Q 38.09375 11.96875 38.09375 21.296875 
Q 38.09375 29.890625 34.25 34.5 
Q 30.421875 39.109375 25.53125 39.109375 
Q 22.953125 39.109375 20.359375 37.796875 
Q 18.40625 36.8125 15.375 33.890625 
z
" id="TimesNewRomanPSMT-62"/>
      <path d="M 18.5 69.4375 
L 18.5 10.109375 
Q 18.5 5.90625 19.109375 4.53125 
Q 19.734375 3.171875 21 2.46875 
Q 22.265625 1.765625 25.734375 1.765625 
L 25.734375 0 
L 3.8125 0 
L 3.8125 1.765625 
Q 6.890625 1.765625 8 2.390625 
Q 9.125 3.03125 9.765625 4.484375 
Q 10.40625 5.953125 10.40625 10.109375 
L 10.40625 50.734375 
Q 10.40625 58.296875 10.0625 60.03125 
Q 9.71875 61.765625 8.953125 62.390625 
Q 8.203125 63.03125 7.03125 63.03125 
Q 5.765625 63.03125 3.8125 62.25 
L 2.984375 63.96875 
L 16.3125 69.4375 
z
" id="TimesNewRomanPSMT-6c"/>
     </defs>
     <g transform="translate(572.540625 71.04)scale(0.12 -0.12)">
      <use xlink:href="#TimesNewRomanPSMT-52"/>
      <use x="66.699219" xlink:href="#TimesNewRomanPSMT-65"/>
      <use x="111.083984" xlink:href="#TimesNewRomanPSMT-6e"/>
      <use x="161.083984" xlink:href="#TimesNewRomanPSMT-65"/>
      <use x="205.46875" xlink:href="#TimesNewRomanPSMT-77"/>
      <use x="277.685547" xlink:href="#TimesNewRomanPSMT-61"/>
      <use x="322.070312" xlink:href="#TimesNewRomanPSMT-62"/>
      <use x="372.070312" xlink:href="#TimesNewRomanPSMT-6c"/>
      <use x="399.853516" xlink:href="#TimesNewRomanPSMT-65"/>
     </g>
    </g>
    <g id="line2d_39">
     <path d="M 538.940625 83.806875 
L 562.940625 83.806875 
" style="fill:none;stroke:#000000;stroke-dasharray:6.4,1.6,1,1.6;stroke-dashoffset:0;"/>
    </g>
    <g id="line2d_40"/>
    <g id="text_8">
     <!-- Conventional -->
     <defs>
      <path d="M 25 46.046875 
Q 35.15625 46.046875 41.3125 38.328125 
Q 46.53125 31.734375 46.53125 23.1875 
Q 46.53125 17.1875 43.640625 11.03125 
Q 40.765625 4.890625 35.71875 1.75 
Q 30.671875 -1.375 24.46875 -1.375 
Q 14.359375 -1.375 8.40625 6.6875 
Q 3.375 13.484375 3.375 21.921875 
Q 3.375 28.078125 6.421875 34.15625 
Q 9.46875 40.234375 14.453125 43.140625 
Q 19.4375 46.046875 25 46.046875 
z
M 23.484375 42.875 
Q 20.90625 42.875 18.28125 41.328125 
Q 15.671875 39.796875 14.0625 35.9375 
Q 12.453125 32.078125 12.453125 26.03125 
Q 12.453125 16.265625 16.328125 9.171875 
Q 20.21875 2.09375 26.5625 2.09375 
Q 31.296875 2.09375 34.375 6 
Q 37.453125 9.90625 37.453125 19.4375 
Q 37.453125 31.34375 32.328125 38.1875 
Q 28.859375 42.875 23.484375 42.875 
z
" id="TimesNewRomanPSMT-6f"/>
      <path d="M 0.828125 44.734375 
L 21.875 44.734375 
L 21.875 42.921875 
L 20.515625 42.921875 
Q 18.609375 42.921875 17.609375 41.984375 
Q 16.609375 41.0625 16.609375 39.5 
Q 16.609375 37.796875 17.625 35.453125 
L 28.03125 10.75 
L 38.484375 36.375 
Q 39.59375 39.109375 39.59375 40.53125 
Q 39.59375 41.21875 39.203125 41.65625 
Q 38.671875 42.390625 37.84375 42.65625 
Q 37.015625 42.921875 34.46875 42.921875 
L 34.46875 44.734375 
L 49.078125 44.734375 
L 49.078125 42.921875 
Q 46.53125 42.71875 45.5625 41.890625 
Q 43.84375 40.4375 42.484375 37.015625 
L 26.609375 -1.375 
L 24.609375 -1.375 
L 8.640625 36.375 
Q 7.5625 39.015625 6.578125 40.15625 
Q 5.609375 41.3125 4.109375 42.09375 
Q 3.265625 42.53125 0.828125 42.921875 
z
" id="TimesNewRomanPSMT-76"/>
      <path d="M 16.109375 59.421875 
L 16.109375 44.734375 
L 26.5625 44.734375 
L 26.5625 41.3125 
L 16.109375 41.3125 
L 16.109375 12.3125 
Q 16.109375 7.953125 17.359375 6.4375 
Q 18.609375 4.9375 20.5625 4.9375 
Q 22.171875 4.9375 23.6875 5.9375 
Q 25.203125 6.9375 26.03125 8.890625 
L 27.9375 8.890625 
Q 26.21875 4.109375 23.09375 1.6875 
Q 19.96875 -0.734375 16.65625 -0.734375 
Q 14.40625 -0.734375 12.25 0.515625 
Q 10.109375 1.765625 9.078125 4.078125 
Q 8.0625 6.390625 8.0625 11.234375 
L 8.0625 41.3125 
L 0.984375 41.3125 
L 0.984375 42.921875 
Q 3.65625 44 6.46875 46.5625 
Q 9.28125 49.125 11.46875 52.640625 
Q 12.59375 54.5 14.59375 59.421875 
z
" id="TimesNewRomanPSMT-74"/>
      <path d="M 14.5 69.4375 
Q 16.546875 69.4375 17.984375 67.984375 
Q 19.4375 66.546875 19.4375 64.5 
Q 19.4375 62.453125 17.984375 60.984375 
Q 16.546875 59.515625 14.5 59.515625 
Q 12.453125 59.515625 10.984375 60.984375 
Q 9.515625 62.453125 9.515625 64.5 
Q 9.515625 66.546875 10.953125 67.984375 
Q 12.40625 69.4375 14.5 69.4375 
z
M 18.5625 46.046875 
L 18.5625 10.109375 
Q 18.5625 5.90625 19.171875 4.515625 
Q 19.78125 3.125 20.96875 2.4375 
Q 22.171875 1.765625 25.34375 1.765625 
L 25.34375 0 
L 3.609375 0 
L 3.609375 1.765625 
Q 6.890625 1.765625 8 2.390625 
Q 9.125 3.03125 9.78125 4.484375 
Q 10.453125 5.953125 10.453125 10.109375 
L 10.453125 27.34375 
Q 10.453125 34.625 10.015625 36.765625 
Q 9.671875 38.328125 8.9375 38.9375 
Q 8.203125 39.546875 6.9375 39.546875 
Q 5.5625 39.546875 3.609375 38.8125 
L 2.9375 40.578125 
L 16.40625 46.046875 
z
" id="TimesNewRomanPSMT-69"/>
     </defs>
     <g transform="translate(572.540625 88.006875)scale(0.12 -0.12)">
      <use xlink:href="#TimesNewRomanPSMT-43"/>
      <use x="66.699219" xlink:href="#TimesNewRomanPSMT-6f"/>
      <use x="116.699219" xlink:href="#TimesNewRomanPSMT-6e"/>
      <use x="166.699219" xlink:href="#TimesNewRomanPSMT-76"/>
      <use x="216.699219" xlink:href="#TimesNewRomanPSMT-65"/>
      <use x="261.083984" xlink:href="#TimesNewRomanPSMT-6e"/>
      <use x="311.083984" xlink:href="#TimesNewRomanPSMT-74"/>
      <use x="338.867188" xlink:href="#TimesNewRomanPSMT-69"/>
      <use x="366.650391" xlink:href="#TimesNewRomanPSMT-6f"/>
      <use x="416.650391" xlink:href="#TimesNewRomanPSMT-6e"/>
      <use x="466.650391" xlink:href="#TimesNewRomanPSMT-61"/>
      <use x="511.035156" xlink:href="#TimesNewRomanPSMT-6c"/>
     </g>
    </g>
   </g>
  </g>
  <g id="axes_2">
   <g id="patch_8">
    <path d="M 90 384.48 
L 648 384.48 
L 648 233.28 
L 90 233.28 
z
" style="fill:#ffffff;"/>
   </g>
   <g id="matplotlib.axis_3">
    <g id="xtick_13">
     <g id="line2d_41">
      <path clip-path="url(#p9e5d74670c)" d="M 154.994318 384.48 
L 154.994318 233.28 
" style="fill:none;stroke:#b0b0b0;stroke-dasharray:0.5,0.825;stroke-dashoffset:0;stroke-width:0.5;"/>
     </g>
     <g id="line2d_42">
      <g>
       <use style="stroke:#000000;stroke-width:0.8;" x="154.994318" xlink:href="#m989c0ea645" y="384.48"/>
      </g>
     </g>
     <g id="text_9">
      <!-- 12:00 -->
      <defs>
       <path d="M 14.109375 46.09375 
Q 16.359375 46.09375 17.9375 44.5 
Q 19.53125 42.921875 19.53125 40.671875 
Q 19.53125 38.421875 17.9375 36.828125 
Q 16.359375 35.25 14.109375 35.25 
Q 11.859375 35.25 10.265625 36.828125 
Q 8.6875 38.421875 8.6875 40.671875 
Q 8.6875 42.921875 10.265625 44.5 
Q 11.859375 46.09375 14.109375 46.09375 
z
M 14.015625 9.515625 
Q 16.3125 9.515625 17.890625 7.90625 
Q 19.484375 6.296875 19.484375 4.046875 
Q 19.484375 1.8125 17.875 0.21875 
Q 16.265625 -1.375 14.015625 -1.375 
Q 11.765625 -1.375 10.171875 0.21875 
Q 8.59375 1.8125 8.59375 4.046875 
Q 8.59375 6.296875 10.171875 7.90625 
Q 11.765625 9.515625 14.015625 9.515625 
z
" id="TimesNewRomanPSMT-3a"/>
      </defs>
      <g transform="translate(144.599863 412.363032)rotate(-30)scale(0.12 -0.12)">
       <use xlink:href="#TimesNewRomanPSMT-31"/>
       <use x="50" xlink:href="#TimesNewRomanPSMT-32"/>
       <use x="100" xlink:href="#TimesNewRomanPSMT-3a"/>
       <use x="127.783203" xlink:href="#TimesNewRomanPSMT-30"/>
       <use x="177.783203" xlink:href="#TimesNewRomanPSMT-30"/>
      </g>
     </g>
    </g>
    <g id="xtick_14">
     <g id="line2d_43">
      <path clip-path="url(#p9e5d74670c)" d="M 194.625 384.48 
L 194.625 233.28 
" style="fill:none;stroke:#b0b0b0;stroke-dasharray:0.5,0.825;stroke-dashoffset:0;stroke-width:0.5;"/>
     </g>
     <g id="line2d_44">
      <g>
       <use style="stroke:#000000;stroke-width:0.8;" x="194.625" xlink:href="#m989c0ea645" y="384.48"/>
      </g>
     </g>
     <g id="text_10">
      <!-- 12:05 -->
      <g transform="translate(184.230545 412.363032)rotate(-30)scale(0.12 -0.12)">
       <use xlink:href="#TimesNewRomanPSMT-31"/>
       <use x="50" xlink:href="#TimesNewRomanPSMT-32"/>
       <use x="100" xlink:href="#TimesNewRomanPSMT-3a"/>
       <use x="127.783203" xlink:href="#TimesNewRomanPSMT-30"/>
       <use x="177.783203" xlink:href="#TimesNewRomanPSMT-35"/>
      </g>
     </g>
    </g>
    <g id="xtick_15">
     <g id="line2d_45">
      <path clip-path="url(#p9e5d74670c)" d="M 234.255682 384.48 
L 234.255682 233.28 
" style="fill:none;stroke:#b0b0b0;stroke-dasharray:0.5,0.825;stroke-dashoffset:0;stroke-width:0.5;"/>
     </g>
     <g id="line2d_46">
      <g>
       <use style="stroke:#000000;stroke-width:0.8;" x="234.255682" xlink:href="#m989c0ea645" y="384.48"/>
      </g>
     </g>
     <g id="text_11">
      <!-- 12:10 -->
      <g transform="translate(223.861227 412.363032)rotate(-30)scale(0.12 -0.12)">
       <use xlink:href="#TimesNewRomanPSMT-31"/>
       <use x="50" xlink:href="#TimesNewRomanPSMT-32"/>
       <use x="100" xlink:href="#TimesNewRomanPSMT-3a"/>
       <use x="127.783203" xlink:href="#TimesNewRomanPSMT-31"/>
       <use x="177.783203" xlink:href="#TimesNewRomanPSMT-30"/>
      </g>
     </g>
    </g>
    <g id="xtick_16">
     <g id="line2d_47">
      <path clip-path="url(#p9e5d74670c)" d="M 273.886364 384.48 
L 273.886364 233.28 
" style="fill:none;stroke:#b0b0b0;stroke-dasharray:0.5,0.825;stroke-dashoffset:0;stroke-width:0.5;"/>
     </g>
     <g id="line2d_48">
      <g>
       <use style="stroke:#000000;stroke-width:0.8;" x="273.886364" xlink:href="#m989c0ea645" y="384.48"/>
      </g>
     </g>
     <g id="text_12">
      <!-- 12:15 -->
      <g transform="translate(263.491909 412.363032)rotate(-30)scale(0.12 -0.12)">
       <use xlink:href="#TimesNewRomanPSMT-31"/>
       <use x="50" xlink:href="#TimesNewRomanPSMT-32"/>
       <use x="100" xlink:href="#TimesNewRomanPSMT-3a"/>
       <use x="127.783203" xlink:href="#TimesNewRomanPSMT-31"/>
       <use x="177.783203" xlink:href="#TimesNewRomanPSMT-35"/>
      </g>
     </g>
    </g>
    <g id="xtick_17">
     <g id="line2d_49">
      <path clip-path="url(#p9e5d74670c)" d="M 313.517045 384.48 
L 313.517045 233.28 
" style="fill:none;stroke:#b0b0b0;stroke-dasharray:0.5,0.825;stroke-dashoffset:0;stroke-width:0.5;"/>
     </g>
     <g id="line2d_50">
      <g>
       <use style="stroke:#000000;stroke-width:0.8;" x="313.517045" xlink:href="#m989c0ea645" y="384.48"/>
      </g>
     </g>
     <g id="text_13">
      <!-- 12:20 -->
      <g transform="translate(303.122591 412.363032)rotate(-30)scale(0.12 -0.12)">
       <use xlink:href="#TimesNewRomanPSMT-31"/>
       <use x="50" xlink:href="#TimesNewRomanPSMT-32"/>
       <use x="100" xlink:href="#TimesNewRomanPSMT-3a"/>
       <use x="127.783203" xlink:href="#TimesNewRomanPSMT-32"/>
       <use x="177.783203" xlink:href="#TimesNewRomanPSMT-30"/>
      </g>
     </g>
    </g>
    <g id="xtick_18">
     <g id="line2d_51">
      <path clip-path="url(#p9e5d74670c)" d="M 353.147727 384.48 
L 353.147727 233.28 
" style="fill:none;stroke:#b0b0b0;stroke-dasharray:0.5,0.825;stroke-dashoffset:0;stroke-width:0.5;"/>
     </g>
     <g id="line2d_52">
      <g>
       <use style="stroke:#000000;stroke-width:0.8;" x="353.147727" xlink:href="#m989c0ea645" y="384.48"/>
      </g>
     </g>
     <g id="text_14">
      <!-- 12:25 -->
      <g transform="translate(342.753273 412.363032)rotate(-30)scale(0.12 -0.12)">
       <use xlink:href="#TimesNewRomanPSMT-31"/>
       <use x="50" xlink:href="#TimesNewRomanPSMT-32"/>
       <use x="100" xlink:href="#TimesNewRomanPSMT-3a"/>
       <use x="127.783203" xlink:href="#TimesNewRomanPSMT-32"/>
       <use x="177.783203" xlink:href="#TimesNewRomanPSMT-35"/>
      </g>
     </g>
    </g>
    <g id="xtick_19">
     <g id="line2d_53">
      <path clip-path="url(#p9e5d74670c)" d="M 392.778409 384.48 
L 392.778409 233.28 
" style="fill:none;stroke:#b0b0b0;stroke-dasharray:0.5,0.825;stroke-dashoffset:0;stroke-width:0.5;"/>
     </g>
     <g id="line2d_54">
      <g>
       <use style="stroke:#000000;stroke-width:0.8;" x="392.778409" xlink:href="#m989c0ea645" y="384.48"/>
      </g>
     </g>
     <g id="text_15">
      <!-- 12:30 -->
      <defs>
       <path d="M 5.078125 53.609375 
Q 7.90625 60.296875 12.21875 63.9375 
Q 16.546875 67.578125 23 67.578125 
Q 30.953125 67.578125 35.203125 62.40625 
Q 38.421875 58.546875 38.421875 54.15625 
Q 38.421875 46.921875 29.34375 39.203125 
Q 35.453125 36.8125 38.578125 32.375 
Q 41.703125 27.9375 41.703125 21.921875 
Q 41.703125 13.328125 36.234375 7.03125 
Q 29.109375 -1.171875 15.578125 -1.171875 
Q 8.890625 -1.171875 6.46875 0.484375 
Q 4.046875 2.15625 4.046875 4.046875 
Q 4.046875 5.46875 5.1875 6.546875 
Q 6.34375 7.625 7.953125 7.625 
Q 9.1875 7.625 10.453125 7.234375 
Q 11.28125 6.984375 14.203125 5.4375 
Q 17.140625 3.90625 18.265625 3.609375 
Q 20.0625 3.078125 22.125 3.078125 
Q 27.09375 3.078125 30.78125 6.9375 
Q 34.46875 10.796875 34.46875 16.0625 
Q 34.46875 19.921875 32.765625 23.578125 
Q 31.5 26.3125 29.984375 27.734375 
Q 27.875 29.6875 24.21875 31.265625 
Q 20.5625 32.859375 16.75 32.859375 
L 15.1875 32.859375 
L 15.1875 34.328125 
Q 19.046875 34.8125 22.921875 37.109375 
Q 26.8125 39.40625 28.5625 42.625 
Q 30.328125 45.84375 30.328125 49.703125 
Q 30.328125 54.734375 27.171875 57.828125 
Q 24.03125 60.9375 19.34375 60.9375 
Q 11.765625 60.9375 6.6875 52.828125 
z
" id="TimesNewRomanPSMT-33"/>
      </defs>
      <g transform="translate(382.383954 412.363032)rotate(-30)scale(0.12 -0.12)">
       <use xlink:href="#TimesNewRomanPSMT-31"/>
       <use x="50" xlink:href="#TimesNewRomanPSMT-32"/>
       <use x="100" xlink:href="#TimesNewRomanPSMT-3a"/>
       <use x="127.783203" xlink:href="#TimesNewRomanPSMT-33"/>
       <use x="177.783203" xlink:href="#TimesNewRomanPSMT-30"/>
      </g>
     </g>
    </g>
    <g id="xtick_20">
     <g id="line2d_55">
      <path clip-path="url(#p9e5d74670c)" d="M 432.409091 384.48 
L 432.409091 233.28 
" style="fill:none;stroke:#b0b0b0;stroke-dasharray:0.5,0.825;stroke-dashoffset:0;stroke-width:0.5;"/>
     </g>
     <g id="line2d_56">
      <g>
       <use style="stroke:#000000;stroke-width:0.8;" x="432.409091" xlink:href="#m989c0ea645" y="384.48"/>
      </g>
     </g>
     <g id="text_16">
      <!-- 12:35 -->
      <g transform="translate(422.014636 412.363032)rotate(-30)scale(0.12 -0.12)">
       <use xlink:href="#TimesNewRomanPSMT-31"/>
       <use x="50" xlink:href="#TimesNewRomanPSMT-32"/>
       <use x="100" xlink:href="#TimesNewRomanPSMT-3a"/>
       <use x="127.783203" xlink:href="#TimesNewRomanPSMT-33"/>
       <use x="177.783203" xlink:href="#TimesNewRomanPSMT-35"/>
      </g>
     </g>
    </g>
    <g id="xtick_21">
     <g id="line2d_57">
      <path clip-path="url(#p9e5d74670c)" d="M 472.039773 384.48 
L 472.039773 233.28 
" style="fill:none;stroke:#b0b0b0;stroke-dasharray:0.5,0.825;stroke-dashoffset:0;stroke-width:0.5;"/>
     </g>
     <g id="line2d_58">
      <g>
       <use style="stroke:#000000;stroke-width:0.8;" x="472.039773" xlink:href="#m989c0ea645" y="384.48"/>
      </g>
     </g>
     <g id="text_17">
      <!-- 12:40 -->
      <defs>
       <path d="M 46.53125 24.421875 
L 46.53125 17.484375 
L 37.640625 17.484375 
L 37.640625 0 
L 29.59375 0 
L 29.59375 17.484375 
L 1.5625 17.484375 
L 1.5625 23.734375 
L 32.28125 67.578125 
L 37.640625 67.578125 
L 37.640625 24.421875 
z
M 29.59375 24.421875 
L 29.59375 57.28125 
L 6.34375 24.421875 
z
" id="TimesNewRomanPSMT-34"/>
      </defs>
      <g transform="translate(461.645318 412.363032)rotate(-30)scale(0.12 -0.12)">
       <use xlink:href="#TimesNewRomanPSMT-31"/>
       <use x="50" xlink:href="#TimesNewRomanPSMT-32"/>
       <use x="100" xlink:href="#TimesNewRomanPSMT-3a"/>
       <use x="127.783203" xlink:href="#TimesNewRomanPSMT-34"/>
       <use x="177.783203" xlink:href="#TimesNewRomanPSMT-30"/>
      </g>
     </g>
    </g>
    <g id="xtick_22">
     <g id="line2d_59">
      <path clip-path="url(#p9e5d74670c)" d="M 511.670455 384.48 
L 511.670455 233.28 
" style="fill:none;stroke:#b0b0b0;stroke-dasharray:0.5,0.825;stroke-dashoffset:0;stroke-width:0.5;"/>
     </g>
     <g id="line2d_60">
      <g>
       <use style="stroke:#000000;stroke-width:0.8;" x="511.670455" xlink:href="#m989c0ea645" y="384.48"/>
      </g>
     </g>
     <g id="text_18">
      <!-- 12:45 -->
      <g transform="translate(501.276 412.363032)rotate(-30)scale(0.12 -0.12)">
       <use xlink:href="#TimesNewRomanPSMT-31"/>
       <use x="50" xlink:href="#TimesNewRomanPSMT-32"/>
       <use x="100" xlink:href="#TimesNewRomanPSMT-3a"/>
       <use x="127.783203" xlink:href="#TimesNewRomanPSMT-34"/>
       <use x="177.783203" xlink:href="#TimesNewRomanPSMT-35"/>
      </g>
     </g>
    </g>
    <g id="xtick_23">
     <g id="line2d_61">
      <path clip-path="url(#p9e5d74670c)" d="M 551.301136 384.48 
L 551.301136 233.28 
" style="fill:none;stroke:#b0b0b0;stroke-dasharray:0.5,0.825;stroke-dashoffset:0;stroke-width:0.5;"/>
     </g>
     <g id="line2d_62">
      <g>
       <use style="stroke:#000000;stroke-width:0.8;" x="551.301136" xlink:href="#m989c0ea645" y="384.48"/>
      </g>
     </g>
     <g id="text_19">
      <!-- 12:50 -->
      <g transform="translate(540.906682 412.363032)rotate(-30)scale(0.12 -0.12)">
       <use xlink:href="#TimesNewRomanPSMT-31"/>
       <use x="50" xlink:href="#TimesNewRomanPSMT-32"/>
       <use x="100" xlink:href="#TimesNewRomanPSMT-3a"/>
       <use x="127.783203" xlink:href="#TimesNewRomanPSMT-35"/>
       <use x="177.783203" xlink:href="#TimesNewRomanPSMT-30"/>
      </g>
     </g>
    </g>
    <g id="xtick_24">
     <g id="line2d_63">
      <path clip-path="url(#p9e5d74670c)" d="M 590.931818 384.48 
L 590.931818 233.28 
" style="fill:none;stroke:#b0b0b0;stroke-dasharray:0.5,0.825;stroke-dashoffset:0;stroke-width:0.5;"/>
     </g>
     <g id="line2d_64">
      <g>
       <use style="stroke:#000000;stroke-width:0.8;" x="590.931818" xlink:href="#m989c0ea645" y="384.48"/>
      </g>
     </g>
     <g id="text_20">
      <!-- 12:55 -->
      <g transform="translate(580.537363 412.363032)rotate(-30)scale(0.12 -0.12)">
       <use xlink:href="#TimesNewRomanPSMT-31"/>
       <use x="50" xlink:href="#TimesNewRomanPSMT-32"/>
       <use x="100" xlink:href="#TimesNewRomanPSMT-3a"/>
       <use x="127.783203" xlink:href="#TimesNewRomanPSMT-35"/>
       <use x="177.783203" xlink:href="#TimesNewRomanPSMT-35"/>
      </g>
     </g>
    </g>
    <g id="text_21">
     <!-- Time -->
     <defs>
      <path d="M 57.859375 66.21875 
L 58.59375 50.6875 
L 56.734375 50.6875 
Q 56.203125 54.78125 55.28125 56.546875 
Q 53.765625 59.375 51.25 60.71875 
Q 48.734375 62.0625 44.625 62.0625 
L 35.296875 62.0625 
L 35.296875 11.46875 
Q 35.296875 5.375 36.625 3.859375 
Q 38.484375 1.8125 42.328125 1.8125 
L 44.625 1.8125 
L 44.625 0 
L 16.546875 0 
L 16.546875 1.8125 
L 18.890625 1.8125 
Q 23.09375 1.8125 24.859375 4.34375 
Q 25.921875 5.90625 25.921875 11.46875 
L 25.921875 62.0625 
L 17.96875 62.0625 
Q 13.328125 62.0625 11.375 61.375 
Q 8.84375 60.453125 7.03125 57.8125 
Q 5.21875 55.171875 4.890625 50.6875 
L 3.03125 50.6875 
L 3.8125 66.21875 
z
" id="TimesNewRomanPSMT-54"/>
      <path d="M 16.40625 36.53125 
Q 21.296875 41.40625 22.171875 42.140625 
Q 24.359375 44 26.890625 45.015625 
Q 29.4375 46.046875 31.9375 46.046875 
Q 36.140625 46.046875 39.15625 43.59375 
Q 42.1875 41.15625 43.21875 36.53125 
Q 48.25 42.390625 51.703125 44.21875 
Q 55.171875 46.046875 58.84375 46.046875 
Q 62.40625 46.046875 65.15625 44.21875 
Q 67.921875 42.390625 69.53125 38.234375 
Q 70.609375 35.40625 70.609375 29.34375 
L 70.609375 10.109375 
Q 70.609375 5.90625 71.234375 4.34375 
Q 71.734375 3.265625 73.046875 2.515625 
Q 74.359375 1.765625 77.34375 1.765625 
L 77.34375 0 
L 55.28125 0 
L 55.28125 1.765625 
L 56.203125 1.765625 
Q 59.078125 1.765625 60.6875 2.875 
Q 61.8125 3.65625 62.3125 5.375 
Q 62.5 6.203125 62.5 10.109375 
L 62.5 29.34375 
Q 62.5 34.8125 61.1875 37.0625 
Q 59.28125 40.1875 55.078125 40.1875 
Q 52.484375 40.1875 49.875 38.890625 
Q 47.265625 37.59375 43.5625 34.078125 
L 43.453125 33.546875 
L 43.5625 31.453125 
L 43.5625 10.109375 
Q 43.5625 5.515625 44.0625 4.390625 
Q 44.578125 3.265625 45.984375 2.515625 
Q 47.40625 1.765625 50.828125 1.765625 
L 50.828125 0 
L 28.21875 0 
L 28.21875 1.765625 
Q 31.9375 1.765625 33.328125 2.640625 
Q 34.71875 3.515625 35.25 5.28125 
Q 35.5 6.109375 35.5 10.109375 
L 35.5 29.34375 
Q 35.5 34.8125 33.890625 37.203125 
Q 31.734375 40.328125 27.875 40.328125 
Q 25.25 40.328125 22.65625 38.921875 
Q 18.609375 36.765625 16.40625 34.078125 
L 16.40625 10.109375 
Q 16.40625 5.71875 17.015625 4.390625 
Q 17.625 3.078125 18.8125 2.421875 
Q 20.015625 1.765625 23.6875 1.765625 
L 23.6875 0 
L 1.5625 0 
L 1.5625 1.765625 
Q 4.640625 1.765625 5.859375 2.421875 
Q 7.078125 3.078125 7.703125 4.515625 
Q 8.34375 5.953125 8.34375 10.109375 
L 8.34375 27.203125 
Q 8.34375 34.578125 7.90625 36.71875 
Q 7.5625 38.328125 6.828125 38.9375 
Q 6.109375 39.546875 4.828125 39.546875 
Q 3.46875 39.546875 1.5625 38.8125 
L 0.828125 40.578125 
L 14.3125 46.046875 
L 16.40625 46.046875 
z
" id="TimesNewRomanPSMT-6d"/>
     </defs>
     <g transform="translate(356.340937 426.918511)scale(0.12 -0.12)">
      <use xlink:href="#TimesNewRomanPSMT-54"/>
      <use x="61.037109" xlink:href="#TimesNewRomanPSMT-69"/>
      <use x="88.820312" xlink:href="#TimesNewRomanPSMT-6d"/>
      <use x="166.603516" xlink:href="#TimesNewRomanPSMT-65"/>
     </g>
    </g>
   </g>
   <g id="matplotlib.axis_4">
    <g id="ytick_6">
     <g id="line2d_65">
      <path clip-path="url(#p9e5d74670c)" d="M 90 370.022276 
L 648 370.022276 
" style="fill:none;stroke:#b0b0b0;stroke-dasharray:0.5,0.825;stroke-dashoffset:0;stroke-width:0.5;"/>
     </g>
     <g id="line2d_66">
      <g>
       <use style="stroke:#000000;stroke-width:0.8;" x="90" xlink:href="#m38422979e6" y="370.022276"/>
      </g>
     </g>
     <g id="text_22">
      <!-- −4000 -->
      <defs>
       <path d="M 54.4375 31.25 
L 1.8125 31.25 
L 1.8125 35.25 
L 54.4375 35.25 
z
" id="TimesNewRomanPSMT-2212"/>
      </defs>
      <g transform="translate(52.233125 374.188526)scale(0.12 -0.12)">
       <use xlink:href="#TimesNewRomanPSMT-2212"/>
       <use x="56.396484" xlink:href="#TimesNewRomanPSMT-34"/>
       <use x="106.396484" xlink:href="#TimesNewRomanPSMT-30"/>
       <use x="156.396484" xlink:href="#TimesNewRomanPSMT-30"/>
       <use x="206.396484" xlink:href="#TimesNewRomanPSMT-30"/>
      </g>
     </g>
    </g>
    <g id="ytick_7">
     <g id="line2d_67">
      <path clip-path="url(#p9e5d74670c)" d="M 90 337.617631 
L 648 337.617631 
" style="fill:none;stroke:#b0b0b0;stroke-dasharray:0.5,0.825;stroke-dashoffset:0;stroke-width:0.5;"/>
     </g>
     <g id="line2d_68">
      <g>
       <use style="stroke:#000000;stroke-width:0.8;" x="90" xlink:href="#m38422979e6" y="337.617631"/>
      </g>
     </g>
     <g id="text_23">
      <!-- −3000 -->
      <g transform="translate(52.233125 341.783881)scale(0.12 -0.12)">
       <use xlink:href="#TimesNewRomanPSMT-2212"/>
       <use x="56.396484" xlink:href="#TimesNewRomanPSMT-33"/>
       <use x="106.396484" xlink:href="#TimesNewRomanPSMT-30"/>
       <use x="156.396484" xlink:href="#TimesNewRomanPSMT-30"/>
       <use x="206.396484" xlink:href="#TimesNewRomanPSMT-30"/>
      </g>
     </g>
    </g>
    <g id="ytick_8">
     <g id="line2d_69">
      <path clip-path="url(#p9e5d74670c)" d="M 90 305.212987 
L 648 305.212987 
" style="fill:none;stroke:#b0b0b0;stroke-dasharray:0.5,0.825;stroke-dashoffset:0;stroke-width:0.5;"/>
     </g>
     <g id="line2d_70">
      <g>
       <use style="stroke:#000000;stroke-width:0.8;" x="90" xlink:href="#m38422979e6" y="305.212987"/>
      </g>
     </g>
     <g id="text_24">
      <!-- −2000 -->
      <g transform="translate(52.233125 309.379237)scale(0.12 -0.12)">
       <use xlink:href="#TimesNewRomanPSMT-2212"/>
       <use x="56.396484" xlink:href="#TimesNewRomanPSMT-32"/>
       <use x="106.396484" xlink:href="#TimesNewRomanPSMT-30"/>
       <use x="156.396484" xlink:href="#TimesNewRomanPSMT-30"/>
       <use x="206.396484" xlink:href="#TimesNewRomanPSMT-30"/>
      </g>
     </g>
    </g>
    <g id="ytick_9">
     <g id="line2d_71">
      <path clip-path="url(#p9e5d74670c)" d="M 90 272.808342 
L 648 272.808342 
" style="fill:none;stroke:#b0b0b0;stroke-dasharray:0.5,0.825;stroke-dashoffset:0;stroke-width:0.5;"/>
     </g>
     <g id="line2d_72">
      <g>
       <use style="stroke:#000000;stroke-width:0.8;" x="90" xlink:href="#m38422979e6" y="272.808342"/>
      </g>
     </g>
     <g id="text_25">
      <!-- −1000 -->
      <g transform="translate(52.233125 276.974592)scale(0.12 -0.12)">
       <use xlink:href="#TimesNewRomanPSMT-2212"/>
       <use x="56.396484" xlink:href="#TimesNewRomanPSMT-31"/>
       <use x="106.396484" xlink:href="#TimesNewRomanPSMT-30"/>
       <use x="156.396484" xlink:href="#TimesNewRomanPSMT-30"/>
       <use x="206.396484" xlink:href="#TimesNewRomanPSMT-30"/>
      </g>
     </g>
    </g>
    <g id="ytick_10">
     <g id="line2d_73">
      <path clip-path="url(#p9e5d74670c)" d="M 90 240.403698 
L 648 240.403698 
" style="fill:none;stroke:#b0b0b0;stroke-dasharray:0.5,0.825;stroke-dashoffset:0;stroke-width:0.5;"/>
     </g>
     <g id="line2d_74">
      <g>
       <use style="stroke:#000000;stroke-width:0.8;" x="90" xlink:href="#m38422979e6" y="240.403698"/>
      </g>
     </g>
     <g id="text_26">
      <!-- 0 -->
      <g transform="translate(77 244.569948)scale(0.12 -0.12)">
       <use xlink:href="#TimesNewRomanPSMT-30"/>
      </g>
     </g>
    </g>
    <g id="text_27">
     <!-- Current [A] -->
     <defs>
      <path d="M 42.328125 44.734375 
L 42.328125 17.625 
Q 42.328125 9.859375 42.6875 8.125 
Q 43.0625 6.390625 43.859375 5.703125 
Q 44.671875 5.03125 45.75 5.03125 
Q 47.265625 5.03125 49.171875 5.859375 
L 49.859375 4.15625 
L 36.46875 -1.375 
L 34.28125 -1.375 
L 34.28125 8.109375 
Q 28.515625 1.859375 25.484375 0.234375 
Q 22.46875 -1.375 19.09375 -1.375 
Q 15.328125 -1.375 12.5625 0.796875 
Q 9.8125 2.984375 8.734375 6.390625 
Q 7.671875 9.8125 7.671875 16.0625 
L 7.671875 36.03125 
Q 7.671875 39.203125 6.984375 40.421875 
Q 6.296875 41.65625 4.953125 42.3125 
Q 3.609375 42.96875 0.09375 42.921875 
L 0.09375 44.734375 
L 15.765625 44.734375 
L 15.765625 14.796875 
Q 15.765625 8.546875 17.9375 6.59375 
Q 20.125 4.640625 23.1875 4.640625 
Q 25.296875 4.640625 27.953125 5.953125 
Q 30.609375 7.28125 34.28125 10.984375 
L 34.28125 36.328125 
Q 34.28125 40.140625 32.890625 41.484375 
Q 31.5 42.828125 27.09375 42.921875 
L 27.09375 44.734375 
z
" id="TimesNewRomanPSMT-75"/>
      <path d="M 16.21875 46.046875 
L 16.21875 35.984375 
Q 21.828125 46.046875 27.734375 46.046875 
Q 30.421875 46.046875 32.171875 44.40625 
Q 33.9375 42.78125 33.9375 40.625 
Q 33.9375 38.71875 32.65625 37.390625 
Q 31.390625 36.078125 29.640625 36.078125 
Q 27.9375 36.078125 25.8125 37.765625 
Q 23.6875 39.453125 22.65625 39.453125 
Q 21.78125 39.453125 20.75 38.484375 
Q 18.5625 36.46875 16.21875 31.890625 
L 16.21875 10.453125 
Q 16.21875 6.734375 17.140625 4.828125 
Q 17.78125 3.515625 19.390625 2.640625 
Q 21 1.765625 24.03125 1.765625 
L 24.03125 0 
L 1.125 0 
L 1.125 1.765625 
Q 4.546875 1.765625 6.203125 2.828125 
Q 7.421875 3.609375 7.90625 5.328125 
Q 8.15625 6.15625 8.15625 10.0625 
L 8.15625 27.390625 
Q 8.15625 35.203125 7.828125 36.6875 
Q 7.515625 38.1875 6.65625 38.859375 
Q 5.8125 39.546875 4.546875 39.546875 
Q 3.03125 39.546875 1.125 38.8125 
L 0.640625 40.578125 
L 14.15625 46.046875 
z
" id="TimesNewRomanPSMT-72"/>
      <path id="TimesNewRomanPSMT-20"/>
      <path d="M 29.6875 -19.828125 
L 8.203125 -19.828125 
L 8.203125 67.71875 
L 29.6875 67.71875 
L 29.6875 63.875 
L 15.53125 63.875 
L 15.53125 -16.015625 
L 29.6875 -16.015625 
z
" id="TimesNewRomanPSMT-5b"/>
      <path d="M 45.75 22.171875 
L 20.125 22.171875 
L 15.625 11.71875 
Q 13.96875 7.859375 13.96875 5.953125 
Q 13.96875 4.4375 15.40625 3.296875 
Q 16.84375 2.15625 21.625 1.8125 
L 21.625 0 
L 0.78125 0 
L 0.78125 1.8125 
Q 4.9375 2.546875 6.15625 3.71875 
Q 8.640625 6.0625 11.671875 13.234375 
L 34.96875 67.71875 
L 36.671875 67.71875 
L 59.71875 12.640625 
Q 62.5 6 64.765625 4.015625 
Q 67.046875 2.046875 71.09375 1.8125 
L 71.09375 0 
L 44.96875 0 
L 44.96875 1.8125 
Q 48.921875 2 50.3125 3.125 
Q 51.703125 4.25 51.703125 5.859375 
Q 51.703125 8.015625 49.75 12.640625 
z
M 44.390625 25.78125 
L 33.15625 52.546875 
L 21.625 25.78125 
z
" id="TimesNewRomanPSMT-41"/>
      <path d="M 3.65625 67.71875 
L 25.140625 67.71875 
L 25.140625 -19.875 
L 3.65625 -19.875 
L 3.65625 -16.015625 
L 17.828125 -16.015625 
L 17.828125 63.875 
L 3.65625 63.875 
z
" id="TimesNewRomanPSMT-5d"/>
     </defs>
     <g transform="translate(45.66625 337.036875)rotate(-90)scale(0.12 -0.12)">
      <use xlink:href="#TimesNewRomanPSMT-43"/>
      <use x="66.699219" xlink:href="#TimesNewRomanPSMT-75"/>
      <use x="116.699219" xlink:href="#TimesNewRomanPSMT-72"/>
      <use x="150" xlink:href="#TimesNewRomanPSMT-72"/>
      <use x="183.300781" xlink:href="#TimesNewRomanPSMT-65"/>
      <use x="227.685547" xlink:href="#TimesNewRomanPSMT-6e"/>
      <use x="277.685547" xlink:href="#TimesNewRomanPSMT-74"/>
      <use x="305.46875" xlink:href="#TimesNewRomanPSMT-20"/>
      <use x="330.46875" xlink:href="#TimesNewRomanPSMT-5b"/>
      <use x="363.769531" xlink:href="#TimesNewRomanPSMT-41"/>
      <use x="435.986328" xlink:href="#TimesNewRomanPSMT-5d"/>
     </g>
    </g>
   </g>
   <g id="line2d_75">
    <path clip-path="url(#p9e5d74670c)" d="M 115.363636 240.403698 
L 154.994318 240.403698 
L 155.12642 264.176124 
L 155.390625 262.740024 
L 156.579545 258.150606 
L 158.428977 260.716581 
L 159.353693 261.895257 
L 160.674716 264.413899 
L 163.184659 266.86283 
L 167.940341 269.011394 
L 170.053977 269.782559 
L 171.110795 269.84393 
L 174.941761 266.489678 
L 175.205966 266.145825 
L 178.112216 261.212382 
L 179.169034 260.381376 
L 181.678977 260.599469 
L 183.132102 266.842564 
L 186.963068 293.381463 
L 193.568182 309.607044 
L 194.889205 308.494534 
L 197.663352 278.999695 
L 198.852273 272.245268 
L 199.909091 274.317741 
L 200.4375 275.122595 
L 201.890625 276.620672 
L 202.947443 277.319825 
L 206.910511 276.223628 
L 208.231534 274.802458 
L 209.420455 274.216753 
L 210.741477 277.004605 
L 212.0625 274.855032 
L 214.836648 276.857431 
L 216.15767 278.566743 
L 218.667614 279.887962 
L 226.857955 281.226932 
L 234.784091 280.86662 
L 242.446023 280.478987 
L 243.899148 276.823476 
L 250.240057 273.756028 
L 250.636364 273.684863 
L 256.977273 273.18343 
L 258.298295 275.032858 
L 259.619318 274.714741 
L 265.56392 280.355559 
L 266.356534 280.894573 
L 267.545455 281.140418 
L 268.99858 283.200186 
L 273.09375 283.807692 
L 274.546875 283.806707 
L 281.548295 282.661909 
L 282.340909 282.682068 
L 290.134943 284.318354 
L 298.06108 283.90062 
L 301.099432 284.917238 
L 305.723011 286.258675 
L 306.119318 286.253703 
L 309.950284 285.668781 
L 311.271307 284.496169 
L 312.988636 284.290156 
L 313.78125 284.295781 
L 315.234375 292.258554 
L 320.650568 342.342254 
L 321.707386 346.904125 
L 325.670455 294.017981 
L 326.991477 288.311991 
L 330.02983 288.147662 
L 337.163352 288.427758 
L 337.823864 288.289822 
L 344.296875 285.646485 
L 345.617898 285.41323 
L 353.147727 287.422269 
L 353.544034 287.419424 
L 360.413352 285.190459 
L 361.602273 284.255604 
L 362.791193 283.081268 
L 363.980114 282.739618 
L 365.301136 286.418673 
L 368.207386 308.779365 
L 369.264205 314.938557 
L 375.869318 311.813582 
L 377.190341 308.488324 
L 379.039773 292.995542 
L 379.832386 287.348625 
L 381.417614 289.251704 
L 385.24858 292.015405 
L 389.211648 293.467869 
L 390.53267 294.672321 
L 392.117898 295.05661 
L 393.042614 295.103873 
L 394.627841 293.06842 
L 399.647727 289.218969 
L 401.100852 288.221421 
L 403.082386 287.874476 
L 409.026989 286.286083 
L 410.348011 284.690172 
L 414.178977 283.806883 
L 416.821023 291.15517 
L 418.142045 285.483107 
L 419.59517 285.844353 
L 420.916193 287.010959 
L 422.237216 288.768459 
L 424.879261 290.31658 
L 433.465909 293.345719 
L 438.089489 295.278604 
L 439.410511 296.364663 
L 440.995739 296.657027 
L 468.473011 297.096956 
L 474.417614 296.886691 
L 481.286932 296.362142 
L 481.683239 296.23567 
L 483.004261 295.509234 
L 488.684659 295.051818 
L 495.421875 293.730338 
L 496.214489 293.392392 
L 500.309659 289.8362 
L 501.630682 287.81543 
L 502.951705 286.552219 
L 504.008523 285.915851 
L 506.78267 288.07145 
L 508.103693 289.920376 
L 511.274148 291.586648 
L 512.066761 291.804709 
L 522.502841 289.510195 
L 527.919034 288.380029 
L 529.240057 286.996078 
L 530.428977 287.074115 
L 531.882102 298.268845 
L 534.788352 332.578176 
L 535.713068 341.252648 
L 537.298295 341.438001 
L 537.430398 240.403698 
L 622.636364 240.403698 
L 622.636364 240.403698 
" style="fill:none;stroke:#000000;stroke-linecap:square;"/>
   </g>
   <g id="line2d_76">
    <path clip-path="url(#p9e5d74670c)" d="M 115.363636 332.728941 
L 116.288352 332.955148 
L 117.213068 333.049138 
L 124.082386 332.201931 
L 131.480114 332.009428 
L 132.933239 331.55731 
L 134.122159 330.637563 
L 138.085227 322.396934 
L 139.40625 322.213511 
L 140.727273 329.482356 
L 144.690341 328.235996 
L 146.143466 326.329093 
L 147.596591 326.275716 
L 148.653409 326.535472 
L 150.106534 328.648824 
L 152.616477 329.572252 
L 153.9375 327.589145 
L 154.994318 322.144698 
L 155.522727 324.791349 
L 156.579545 328.957877 
L 159.353693 326.422205 
L 160.674716 324.529441 
L 162.920455 323.185042 
L 163.448864 323.00222 
L 170.18608 322.065585 
L 171.242898 322.286009 
L 175.338068 326.030987 
L 178.112216 330.326852 
L 179.169034 331.184625 
L 181.678977 331.443399 
L 183.132102 326.597848 
L 186.963068 305.605406 
L 193.568182 293.669049 
L 194.889205 294.860332 
L 197.663352 319.595874 
L 198.852273 325.38574 
L 200.041193 323.749201 
L 200.4375 323.387948 
L 201.890625 322.493766 
L 202.947443 322.166027 
L 206.910511 323.995334 
L 208.363636 325.495481 
L 209.420455 326.110264 
L 210.741477 324.060923 
L 212.0625 326.052717 
L 214.836648 324.911993 
L 216.15767 323.75404 
L 218.667614 323.139954 
L 226.725852 323.602815 
L 241.389205 327.161605 
L 242.446023 327.413981 
L 243.899148 330.413917 
L 250.372159 332.955001 
L 256.977273 333.392409 
L 258.298295 331.876629 
L 259.619318 332.135416 
L 265.56392 327.521001 
L 266.488636 327.058068 
L 267.545455 326.879748 
L 268.99858 325.194549 
L 273.357955 324.682246 
L 274.678977 324.716521 
L 281.8125 325.650474 
L 282.473011 325.593987 
L 290.134943 324.279069 
L 298.06108 324.620032 
L 301.495739 323.68517 
L 305.855114 322.666962 
L 309.950284 323.172814 
L 311.271307 324.132282 
L 313.120739 324.300109 
L 313.78125 324.296276 
L 315.234375 317.781274 
L 320.650568 276.80367 
L 321.707386 273.071232 
L 325.670455 316.341712 
L 326.991477 321.010251 
L 330.161932 321.138797 
L 337.295455 320.922565 
L 337.823864 321.028387 
L 344.428977 323.215711 
L 345.75 323.351477 
L 353.27983 321.722695 
L 353.676136 321.773871 
L 360.413352 323.564233 
L 361.734375 324.445335 
L 362.791193 325.289934 
L 363.980114 325.569464 
L 365.301136 322.559329 
L 368.207386 304.264216 
L 369.264205 299.224876 
L 375.869318 301.781674 
L 377.190341 304.502339 
L 379.039773 317.178254 
L 379.832386 321.798461 
L 381.417614 320.241392 
L 385.24858 317.980187 
L 389.211648 316.791804 
L 390.53267 315.806345 
L 392.25 315.4864 
L 393.042614 315.453258 
L 394.627841 317.118625 
L 400.044034 320.509048 
L 401.100852 321.08435 
L 403.214489 321.395612 
L 409.026989 322.667808 
L 410.348011 323.973557 
L 414.178977 324.696247 
L 416.821023 318.684015 
L 418.142045 323.324794 
L 419.59517 323.029225 
L 421.048295 321.922568 
L 422.369318 320.568298 
L 424.879261 319.370132 
L 433.862216 316.762827 
L 438.089489 315.310294 
L 439.410511 314.421697 
L 441.127841 314.180345 
L 469.133523 313.831823 
L 474.946023 314.021006 
L 481.419034 314.442861 
L 481.815341 314.592527 
L 483.136364 315.128387 
L 488.948864 315.53529 
L 495.68608 316.651502 
L 496.346591 316.94395 
L 500.309659 319.76317 
L 501.630682 321.416526 
L 503.083807 322.515145 
L 504.008523 322.970732 
L 506.78267 321.207058 
L 508.103693 319.694299 
L 511.40625 318.290321 
L 512.066761 318.15257 
L 523.427557 320.183875 
L 527.919034 320.954585 
L 529.240057 322.086909 
L 530.428977 322.023062 
L 531.882102 312.863728 
L 534.788352 284.792459 
L 535.713068 277.695166 
L 542.450284 277.138299 
L 543.639205 277.892509 
L 550.640625 298.080931 
L 551.697443 302.575071 
L 555.264205 326.72062 
L 555.528409 328.373233 
L 558.038352 328.726346 
L 559.227273 328.735653 
L 559.755682 328.655742 
L 563.454545 327.549692 
L 564.775568 325.87408 
L 566.492898 318.790057 
L 567.417614 315.815445 
L 569.267045 319.492932 
L 570.455966 321.671703 
L 571.512784 323.797534 
L 572.701705 325.04955 
L 574.947443 324.585697 
L 575.607955 324.579045 
L 582.87358 325.83936 
L 583.534091 325.7961 
L 588.553977 324.425056 
L 589.875 322.401111 
L 591.328125 323.837402 
L 593.97017 324.017808 
L 595.159091 323.574798 
L 598.990057 292.467584 
L 599.254261 291.128042 
L 603.877841 277.43174 
L 604.670455 274.735393 
L 605.727273 270.261951 
L 607.048295 270.85209 
L 609.161932 295.236911 
L 611.803977 322.194283 
L 612.332386 326.928101 
L 615.370739 328.190735 
L 618.9375 329.322651 
L 622.636364 308.430636 
L 622.636364 308.430636 
" style="fill:none;stroke:#000000;stroke-dasharray:6.4,1.6,1,1.6;stroke-dashoffset:0;"/>
   </g>
   <g id="line2d_77">
    <path clip-path="url(#p9e5d74670c)" d="M 115.363636 240.403698 
L 154.862216 240.403698 
L 154.994318 355.816285 
L 199.909091 366.988774 
L 294.494318 377.607273 
L 294.62642 240.403698 
L 295.947443 240.296139 
L 297.53267 240.152727 
L 297.664773 240.403698 
L 622.636364 240.403698 
L 622.636364 240.403698 
" style="fill:none;stroke:#000000;stroke-dasharray:3.7,1.6;stroke-dashoffset:0;"/>
   </g>
   <g id="patch_9">
    <path d="M 90 384.48 
L 90 233.28 
" style="fill:none;stroke:#000000;stroke-linecap:square;stroke-linejoin:miter;stroke-width:0.8;"/>
   </g>
   <g id="patch_10">
    <path d="M 648 384.48 
L 648 233.28 
" style="fill:none;stroke:#000000;stroke-linecap:square;stroke-linejoin:miter;stroke-width:0.8;"/>
   </g>
   <g id="patch_11">
    <path d="M 90 384.48 
L 648 384.48 
" style="fill:none;stroke:#000000;stroke-linecap:square;stroke-linejoin:miter;stroke-width:0.8;"/>
   </g>
   <g id="patch_12">
    <path d="M 90 233.28 
L 648 233.28 
" style="fill:none;stroke:#000000;stroke-linecap:square;stroke-linejoin:miter;stroke-width:0.8;"/>
   </g>
   <g id="legend_2">
    <g id="patch_13">
     <path d="M 511.528125 378.48 
L 639.6 378.48 
Q 642 378.48 642 376.08 
L 642 326.379375 
Q 642 323.979375 639.6 323.979375 
L 511.528125 323.979375 
Q 509.128125 323.979375 509.128125 326.379375 
L 509.128125 376.08 
Q 509.128125 378.48 511.528125 378.48 
z
" style="fill:#ffffff;opacity:0.8;stroke:#cccccc;stroke-linejoin:miter;"/>
    </g>
    <g id="line2d_78">
     <path d="M 513.928125 332.979375 
L 537.928125 332.979375 
" style="fill:none;stroke:#000000;stroke-linecap:square;"/>
    </g>
    <g id="line2d_79"/>
    <g id="text_28">
     <!-- UPS Renewable -->
     <defs>
      <path d="M 47.703125 64.40625 
L 47.703125 66.21875 
L 71.140625 66.21875 
L 71.140625 64.40625 
L 68.65625 64.40625 
Q 64.75 64.40625 62.640625 61.140625 
Q 61.625 59.625 61.625 54.109375 
L 61.625 27.25 
Q 61.625 17.28125 59.640625 11.78125 
Q 57.671875 6.296875 51.875 2.359375 
Q 46.09375 -1.5625 36.140625 -1.5625 
Q 25.296875 -1.5625 19.671875 2.1875 
Q 14.0625 5.953125 11.71875 12.3125 
Q 10.15625 16.65625 10.15625 28.609375 
L 10.15625 54.5 
Q 10.15625 60.59375 8.46875 62.5 
Q 6.78125 64.40625 3.03125 64.40625 
L 0.53125 64.40625 
L 0.53125 66.21875 
L 29.15625 66.21875 
L 29.15625 64.40625 
L 26.609375 64.40625 
Q 22.515625 64.40625 20.75 61.8125 
Q 19.53125 60.0625 19.53125 54.5 
L 19.53125 25.640625 
Q 19.53125 21.78125 20.234375 16.796875 
Q 20.953125 11.8125 22.796875 9.03125 
Q 24.65625 6.25 28.140625 4.4375 
Q 31.640625 2.640625 36.71875 2.640625 
Q 43.21875 2.640625 48.34375 5.46875 
Q 53.46875 8.296875 55.34375 12.71875 
Q 57.234375 17.140625 57.234375 27.6875 
L 57.234375 54.5 
Q 57.234375 60.6875 55.859375 62.25 
Q 53.953125 64.40625 50.203125 64.40625 
z
" id="TimesNewRomanPSMT-55"/>
      <path d="M 20.515625 31 
L 20.515625 11.71875 
Q 20.515625 5.46875 21.875 3.953125 
Q 23.734375 1.8125 27.484375 1.8125 
L 30.03125 1.8125 
L 30.03125 0 
L 1.65625 0 
L 1.65625 1.8125 
L 4.15625 1.8125 
Q 8.34375 1.8125 10.15625 4.546875 
Q 11.140625 6.0625 11.140625 11.71875 
L 11.140625 54.5 
Q 11.140625 60.75 9.8125 62.25 
Q 7.90625 64.40625 4.15625 64.40625 
L 1.65625 64.40625 
L 1.65625 66.21875 
L 25.921875 66.21875 
Q 34.8125 66.21875 39.9375 64.375 
Q 45.0625 62.546875 48.578125 58.203125 
Q 52.09375 53.859375 52.09375 47.90625 
Q 52.09375 39.796875 46.75 34.71875 
Q 41.40625 29.640625 31.640625 29.640625 
Q 29.25 29.640625 26.46875 29.984375 
Q 23.6875 30.328125 20.515625 31 
z
M 20.515625 33.796875 
Q 23.09375 33.296875 25.09375 33.046875 
Q 27.09375 32.8125 28.515625 32.8125 
Q 33.59375 32.8125 37.28125 36.734375 
Q 40.96875 40.671875 40.96875 46.921875 
Q 40.96875 51.21875 39.203125 54.90625 
Q 37.453125 58.59375 34.21875 60.421875 
Q 31 62.25 26.90625 62.25 
Q 24.421875 62.25 20.515625 61.328125 
z
" id="TimesNewRomanPSMT-50"/>
     </defs>
     <g transform="translate(547.528125 337.179375)scale(0.12 -0.12)">
      <use xlink:href="#TimesNewRomanPSMT-55"/>
      <use x="72.216797" xlink:href="#TimesNewRomanPSMT-50"/>
      <use x="127.832031" xlink:href="#TimesNewRomanPSMT-53"/>
      <use x="183.447266" xlink:href="#TimesNewRomanPSMT-20"/>
      <use x="208.447266" xlink:href="#TimesNewRomanPSMT-52"/>
      <use x="275.146484" xlink:href="#TimesNewRomanPSMT-65"/>
      <use x="319.53125" xlink:href="#TimesNewRomanPSMT-6e"/>
      <use x="369.53125" xlink:href="#TimesNewRomanPSMT-65"/>
      <use x="413.916016" xlink:href="#TimesNewRomanPSMT-77"/>
      <use x="486.132812" xlink:href="#TimesNewRomanPSMT-61"/>
      <use x="530.517578" xlink:href="#TimesNewRomanPSMT-62"/>
      <use x="580.517578" xlink:href="#TimesNewRomanPSMT-6c"/>
      <use x="608.300781" xlink:href="#TimesNewRomanPSMT-65"/>
     </g>
    </g>
    <g id="line2d_80">
     <path d="M 513.928125 349.94625 
L 537.928125 349.94625 
" style="fill:none;stroke:#000000;stroke-dasharray:6.4,1.6,1,1.6;stroke-dashoffset:0;"/>
    </g>
    <g id="line2d_81"/>
    <g id="text_29">
     <!-- PV Renewable -->
     <defs>
      <path d="M 71 66.21875 
L 71 64.40625 
Q 67.484375 63.765625 65.671875 62.15625 
Q 63.09375 59.765625 61.078125 54.828125 
L 37.984375 -1.515625 
L 36.1875 -1.515625 
L 11.375 55.5625 
Q 9.46875 59.96875 8.6875 60.9375 
Q 7.46875 62.453125 5.6875 63.296875 
Q 3.90625 64.15625 0.875 64.40625 
L 0.875 66.21875 
L 27.9375 66.21875 
L 27.9375 64.40625 
Q 23.34375 63.96875 21.96875 62.84375 
Q 20.609375 61.71875 20.609375 59.96875 
Q 20.609375 57.515625 22.859375 52.34375 
L 39.703125 13.53125 
L 55.328125 51.859375 
Q 57.625 57.515625 57.625 59.71875 
Q 57.625 61.140625 56.203125 62.421875 
Q 54.78125 63.71875 51.421875 64.265625 
Q 51.171875 64.3125 50.59375 64.40625 
L 50.59375 66.21875 
z
" id="TimesNewRomanPSMT-56"/>
     </defs>
     <g transform="translate(547.528125 354.14625)scale(0.12 -0.12)">
      <use xlink:href="#TimesNewRomanPSMT-50"/>
      <use x="55.615234" xlink:href="#TimesNewRomanPSMT-56"/>
      <use x="127.816406" xlink:href="#TimesNewRomanPSMT-20"/>
      <use x="152.816406" xlink:href="#TimesNewRomanPSMT-52"/>
      <use x="219.515625" xlink:href="#TimesNewRomanPSMT-65"/>
      <use x="263.900391" xlink:href="#TimesNewRomanPSMT-6e"/>
      <use x="313.900391" xlink:href="#TimesNewRomanPSMT-65"/>
      <use x="358.285156" xlink:href="#TimesNewRomanPSMT-77"/>
      <use x="430.501953" xlink:href="#TimesNewRomanPSMT-61"/>
      <use x="474.886719" xlink:href="#TimesNewRomanPSMT-62"/>
      <use x="524.886719" xlink:href="#TimesNewRomanPSMT-6c"/>
      <use x="552.669922" xlink:href="#TimesNewRomanPSMT-65"/>
     </g>
    </g>
    <g id="line2d_82">
     <path d="M 513.928125 366.913125 
L 537.928125 366.913125 
" style="fill:none;stroke:#000000;stroke-dasharray:3.7,1.6;stroke-dashoffset:0;"/>
    </g>
    <g id="line2d_83"/>
    <g id="text_30">
     <!-- UPS Conventional -->
     <g transform="translate(547.528125 371.113125)scale(0.12 -0.12)">
      <use xlink:href="#TimesNewRomanPSMT-55"/>
      <use x="72.216797" xlink:href="#TimesNewRomanPSMT-50"/>
      <use x="127.832031" xlink:href="#TimesNewRomanPSMT-53"/>
      <use x="183.447266" xlink:href="#TimesNewRomanPSMT-20"/>
      <use x="208.447266" xlink:href="#TimesNewRomanPSMT-43"/>
      <use x="275.146484" xlink:href="#TimesNewRomanPSMT-6f"/>
      <use x="325.146484" xlink:href="#TimesNewRomanPSMT-6e"/>
      <use x="375.146484" xlink:href="#TimesNewRomanPSMT-76"/>
      <use x="425.146484" xlink:href="#TimesNewRomanPSMT-65"/>
      <use x="469.53125" xlink:href="#TimesNewRomanPSMT-6e"/>
      <use x="519.53125" xlink:href="#TimesNewRomanPSMT-74"/>
      <use x="547.314453" xlink:href="#TimesNewRomanPSMT-69"/>
      <use x="575.097656" xlink:href="#TimesNewRomanPSMT-6f"/>
      <use x="625.097656" xlink:href="#TimesNewRomanPSMT-6e"/>
      <use x="675.097656" xlink:href="#TimesNewRomanPSMT-61"/>
      <use x="719.482422" xlink:href="#TimesNewRomanPSMT-6c"/>
     </g>
    </g>
   </g>
  </g>
 </g>
 <defs>
  <clipPath id="pdca5b8cb88">
   <rect height="151.2" width="558" x="90" y="51.84"/>
  </clipPath>
  <clipPath id="p9e5d74670c">
   <rect height="151.2" width="558" x="90" y="233.28"/>
  </clipPath>
 </defs>
</svg>
